<?xml version="1.0" encoding="UTF-8"?>
<svg width="29px" height="34px" viewBox="0 0 29 34" version="1.1" xmlns="http://www.w3.org/2000/svg" xmlns:xlink="http://www.w3.org/1999/xlink">
    <!-- Generator: Sketch 51.2 (57519) - http://www.bohemiancoding.com/sketch -->
    <title>Girl_outline</title>
    <desc>Created with Sketch.</desc>
    <defs></defs>
    <g id="Page-1" stroke="none" stroke-width="1" fill="none" fill-rule="evenodd" stroke-linecap="round" stroke-linejoin="round">
        <g id="Artboard" transform="translate(-414.000000, -890.000000)" stroke="#201009" stroke-width="0.5">
            <g id="People" transform="translate(98.000000, 827.000000)">
                <g id="outline" transform="translate(254.000000, 0.000000)">
                    <g id="Girl_" transform="translate(62.000000, 64.000000)">
                        <g id="_x36__4_">
                            <path d="M22.3,23.4 C20.2,25.6 17.3,26.9 14,26.9 C11,26.9 8.2,25.7 6.1,23.8" id="Shape"></path>
                            <path d="M6.9,14.9 C8.3,13.4 9.6,13.4 11,14.9" id="Shape"></path>
                            <path d="M17,14.9 C18.4,13.4 19.7,13.4 21.1,14.9" id="Shape"></path>
                            <path d="M9,21.5 C12.4,23.7 15.8,23.7 19.1,21.5" id="Shape"></path>
                            <path d="M6.1,23.9 C5.6,23.5 5.3,23.2 4.8,22.2" id="Shape"></path>
                            <g id="Group">
                                <path d="M25.8,14.9 C25.9,15.9 25.7,17.1 25.5,18.2 M23.2,8.7 C23.6,10.1 24.2,11.6 25.2,12.9" id="Shape"></path>
                                <path d="M9.9,32.3 C9.5,32.5 5.5,29 4.8,22.9 C4.6,21.2 4.7,19.4 5.1,17.3 C6.5,10.3 18.5,12.3 20.4,6.9 C20.4,6.9 20.7,11.7 23,14.7 C25.4,17.8 21.1,26.3 21.1,26.3 C21.1,26.3 28.3,23.6 28.3,16 C28.3,8.4 25.8,3.8 21.9,3.5 C21,1.1 17.4,0 14.8,0 C6.1,0 0.5,5.8 0.5,15.8 C0.4,33.3 9.9,32.3 9.9,32.3 Z" id="Shape"></path>
                                <path d="M4.1,12.1 C3.4,14.1 3,16.5 3,19.1 M17.3,3.3 C12.5,3.3 8.6,5.1 6.1,8.4" id="Shape"></path>
                            </g>
                        </g>
                    </g>
                </g>
            </g>
        </g>
    </g>
</svg>