<?xml version="1.0" encoding="UTF-8"?>
<svg width="28px" height="27px" viewBox="0 0 28 27" version="1.1" xmlns="http://www.w3.org/2000/svg" xmlns:xlink="http://www.w3.org/1999/xlink">
    <!-- Generator: Sketch 51.2 (57519) - http://www.bohemiancoding.com/sketch -->
    <title>Child_outline</title>
    <desc>Created with Sketch.</desc>
    <defs></defs>
    <g id="Page-1" stroke="none" stroke-width="1" fill="none" fill-rule="evenodd" stroke-linecap="round" stroke-linejoin="round">
        <g id="Artboard" transform="translate(-467.000000, -832.000000)" stroke="#201009" stroke-width="0.5">
            <g id="People" transform="translate(98.000000, 827.000000)">
                <g id="outline" transform="translate(254.000000, 0.000000)">
                    <g id="Child_" transform="translate(115.000000, 5.000000)">
                        <g id="_x36__2_">
                            <path d="M27,10.8 C27.4,11.9 27.6,13.1 27.6,14.4 C27.6,20.8 22.4,26 16,26 C9.6,26 4.4,20.8 4.4,14.4 C4.4,13.2 4.6,12 4.9,10.9" id="Shape"></path>
                            <path d="M8.9,13.9 C10.3,12.4 11.6,12.4 13,13.9" id="Shape"></path>
                            <path d="M19,13.9 C20.4,12.4 21.7,12.4 23.1,13.9" id="Shape"></path>
                            <path d="M11,20.5 C14.4,22.7 17.8,22.7 21.1,20.5" id="Shape"></path>
                            <g id="Group">
                                <path d="M20.2,2.4 C17.8,1.8 14.8,2 11.9,2.5 C6.9,3.3 4.9,6.9 4.9,10.8 C12.6,9.8 20.6,8.1 27,10.8 C27,7 25.2,3.7 20.2,2.4 Z" id="Shape"></path>
                                <path d="M16.3,2.1 C12.6,2.1 9.3,6.8 9,10.4" id="Shape"></path>
                                <path d="M16.6,2.1 C20.1,2.1 23.2,6.5 23.7,9.9" id="Shape"></path>
                                <path d="M16.8,9.5 C16.9,8.1 16.7,4.4 16.3,2.1 L16.6,2.1" id="Shape"></path>
                                <ellipse id="Oval" cx="16.6" cy="1.5" rx="1.2" ry="1"></ellipse>
                                <path d="M4.9,10.9 L0.6,12.8" id="Shape"></path>
                            </g>
                        </g>
                    </g>
                </g>
            </g>
        </g>
    </g>
</svg>