<?xml version="1.0" encoding="utf-8"?>
<!-- Generator: Adobe Illustrator 16.0.0, SVG Export Plug-In . SVG Version: 6.00 Build 0)  -->
<!DOCTYPE svg PUBLIC "-//W3C//DTD SVG 1.1//EN" "http://www.w3.org/Graphics/SVG/1.1/DTD/svg11.dtd">
<svg version="1.1" id="Слой_1" xmlns="http://www.w3.org/2000/svg" xmlns:xlink="http://www.w3.org/1999/xlink" x="0px" y="0px"
	 width="30px" height="30px" viewBox="0 0 30 30" enable-background="new 0 0 30 30" xml:space="preserve">
<g>
	<g>
		<defs>
			<rect id="SVGID_1_" x="5.354" y="5.695" width="20.248" height="20.598"/>
		</defs>
		<clipPath id="SVGID_2_">
			<use xlink:href="#SVGID_1_"  overflow="visible"/>
		</clipPath>
		<polygon clip-path="url(#SVGID_2_)" points="13.073,18.166 13.073,18.166 13.072,18.165 		"/>
	</g>
	<g>
		<defs>
			<rect id="SVGID_3_" x="5.354" y="5.695" width="20.248" height="20.598"/>
		</defs>
		<clipPath id="SVGID_4_">
			<use xlink:href="#SVGID_3_"  overflow="visible"/>
		</clipPath>
		<polygon clip-path="url(#SVGID_4_)" fill="#EE3E0E" points="16.868,15.551 14.722,17.593 18.766,21.439 25.602,14.939 
			24.039,13.428 18.811,17.559 		"/>
	</g>
	<g>
		<defs>
			<rect id="SVGID_5_" x="5.354" y="5.695" width="20.248" height="20.598"/>
		</defs>
		<clipPath id="SVGID_6_">
			<use xlink:href="#SVGID_5_"  overflow="visible"/>
		</clipPath>
		<path clip-path="url(#SVGID_6_)" fill="#EE3E0E" d="M21.447,25.006H6.641V8.277H8.4v0.668c0,0.354,0.29,0.645,0.645,0.645h0.16
			c0.354,0,0.645-0.291,0.645-0.645V8.277h1.881v0.668c0,0.354,0.29,0.645,0.644,0.645h0.161c0.354,0,0.644-0.291,0.644-0.645V8.277
			h1.881v0.668c0,0.354,0.29,0.645,0.644,0.645h0.161c0.354,0,0.644-0.291,0.644-0.645V8.277h1.883v0.668
			c0,0.354,0.289,0.645,0.644,0.645h0.161c0.354,0,0.644-0.291,0.644-0.645V8.277h0.384l1.227,1.203v3.605l1.287-1.068V8.939
			L20.752,6.99h-0.91V6.338c0-0.354-0.29-0.645-0.644-0.645h-0.161c-0.354,0-0.645,0.291-0.645,0.645V6.99h-1.881V6.338
			c0-0.354-0.289-0.645-0.645-0.645h-0.161c-0.354,0-0.644,0.291-0.644,0.645V6.99h-1.881V6.338c0-0.354-0.289-0.645-0.644-0.645
			h-0.161c-0.354,0-0.644,0.291-0.644,0.645V6.99H9.851V6.338c0-0.354-0.29-0.645-0.645-0.645h-0.16
			c-0.354,0-0.645,0.291-0.645,0.645V6.99H5.355v19.303h17.379v-5.959l-1.286,1.287L21.447,25.006L21.447,25.006z"/>
	</g>
	<g>
		<defs>
			<rect id="SVGID_7_" x="5.354" y="5.695" width="20.248" height="20.598"/>
		</defs>
		<clipPath id="SVGID_8_">
			<use xlink:href="#SVGID_7_"  overflow="visible"/>
		</clipPath>
		<path clip-path="url(#SVGID_8_)" fill="#EE3E0E" d="M10.787,12.036c-0.57,0-1.029,0.461-1.029,1.03
			c0,0.567,0.459,1.029,1.029,1.029c0.568,0,1.029-0.462,1.029-1.029C11.816,12.497,11.355,12.036,10.787,12.036"/>
	</g>
	<g>
		<defs>
			<rect id="SVGID_9_" x="5.354" y="5.695" width="20.248" height="20.598"/>
		</defs>
		<clipPath id="SVGID_10_">
			<use xlink:href="#SVGID_9_"  overflow="visible"/>
		</clipPath>
		<path clip-path="url(#SVGID_10_)" fill="#EE3E0E" d="M10.787,15.457c-0.57,0-1.029,0.462-1.029,1.029
			c0,0.57,0.459,1.031,1.029,1.031c0.568,0,1.029-0.461,1.029-1.031C11.816,15.919,11.355,15.457,10.787,15.457"/>
	</g>
	<g>
		<defs>
			<rect id="SVGID_11_" x="5.354" y="5.695" width="20.248" height="20.598"/>
		</defs>
		<clipPath id="SVGID_12_">
			<use xlink:href="#SVGID_11_"  overflow="visible"/>
		</clipPath>
		<path clip-path="url(#SVGID_12_)" fill="#EE3E0E" d="M10.787,18.878c-0.57,0-1.029,0.462-1.029,1.03s0.459,1.029,1.029,1.029
			c0.568,0,1.029-0.461,1.029-1.029S11.355,18.878,10.787,18.878"/>
	</g>
</g>
</svg>
