<?xml version="1.0" encoding="utf-8"?>
<!-- Generator: Adobe Illustrator 16.0.0, SVG Export Plug-In . SVG Version: 6.00 Build 0)  -->
<!DOCTYPE svg PUBLIC "-//W3C//DTD SVG 1.1//EN" "http://www.w3.org/Graphics/SVG/1.1/DTD/svg11.dtd">
<svg version="1.1" id="Слой_1" xmlns="http://www.w3.org/2000/svg" xmlns:xlink="http://www.w3.org/1999/xlink" x="0px" y="0px"
	 width="30px" height="30px" viewBox="0 0 30 30" enable-background="new 0 0 30 30" xml:space="preserve">
<path fill="#EE3E0E" d="M14.392,22.04c-0.116,0.087-0.237,0.168-0.349,0.261c-0.258,0.219-0.522,0.43-0.763,0.667
	c-0.777,0.763-1.721,0.095-1.824-0.647c-0.045-0.317,0.038-0.653,0.061-0.969c-0.426,0.258-0.945,0.412-1.449,0.059
	c-0.494-0.35-0.58-0.865-0.428-1.439c-0.166,0.092-0.311,0.186-0.466,0.256C8.447,20.55,7.69,20.068,7.636,19.27
	c-0.06-0.884,0.348-1.301,1.142-1.686c0.506-0.245,1.301,0.277,1.419,0.898c0.048,0.25,0.008,0.517,0.008,0.776
	c0.164-0.151,0.344-0.325,0.531-0.489c0.278-0.244,0.558-0.49,0.845-0.724c0.266-0.217,0.583-0.304,0.922-0.294
	c0.793,0.021,1.259,0.73,0.972,1.475c-0.044,0.112-0.102,0.219-0.118,0.359c0.111-0.1,0.224-0.197,0.334-0.297
	c0.439-0.4,0.962-0.455,1.396-0.148c0.476,0.336,0.679,0.953,0.455,1.461c-0.088,0.199-0.236,0.373-0.356,0.56
	c-0.054,0.082-0.106,0.164-0.16,0.243C14.814,21.617,14.603,21.828,14.392,22.04 M14.46,19.346
	c-0.142,0.075-0.295,0.135-0.421,0.231c-0.182,0.141-0.347,0.305-0.514,0.464c-0.471,0.449-0.955,0.886-1.404,1.357
	c-0.374,0.393-0.357,0.916-0.011,1.266c0.242,0.242,0.521,0.275,0.769,0.059c0.551-0.483,1.099-0.974,1.629-1.479
	c0.224-0.216,0.424-0.464,0.59-0.726C15.425,19.998,14.894,19.364,14.46,19.346 M10.138,20.314c0.124,0.252,0.206,0.506,0.357,0.709
	c0.201,0.27,0.479,0.271,0.726,0.045c0.339-0.313,0.682-0.623,1.003-0.954c0.206-0.21,0.403-0.438,0.561-0.688
	c0.253-0.4,0.166-0.892-0.168-1.162c-0.208-0.17-0.43-0.199-0.604-0.039c-0.522,0.479-1.043,0.957-1.538,1.465
	C10.324,19.842,10.259,20.081,10.138,20.314 M8.079,19.154c0-0.01-0.004,0.049,0.001,0.104c0.043,0.495,0.495,0.763,0.941,0.556
	c0.345-0.16,0.586-0.422,0.726-0.771c0.131-0.331,0.029-0.661-0.259-0.875c-0.364-0.27-0.483-0.27-0.853,0.005
	c-0.06,0.044-0.12,0.086-0.18,0.13C8.192,18.498,8.055,18.755,8.079,19.154"/>
<path fill="#EE3E0E" d="M14.393,22.04c0.21-0.212,0.421-0.423,0.632-0.636c0.473-0.428,0.981-0.353,1.325-0.084
	c0.479,0.375,0.641,0.938,0.402,1.477c-0.294,0.667-0.792,1.17-1.359,1.605c-0.27,0.205-0.594,0.181-0.899,0.074
	c-0.694-0.24-0.996-1.146-0.588-1.756C14.061,22.489,14.23,22.268,14.393,22.04 M14.865,24.125c0.11-0.044,0.252-0.059,0.326-0.137
	c0.36-0.381,0.713-0.771,1.045-1.174c0.098-0.119,0.15-0.297,0.168-0.455c0.037-0.342-0.159-0.575-0.432-0.745
	c-0.2-0.126-0.414-0.093-0.564,0.073c-0.395,0.429-0.798,0.854-1.143,1.321C13.96,23.427,14.333,24.074,14.865,24.125"/>
<path fill="#EE3E0E" d="M22.993,19.261c0.177,0.423-0.013,0.968-0.425,1.277c-0.313,0.231-0.68,0.325-1.049,0.297
	c-0.281-0.021-0.435,0.089-0.564,0.298c-0.148,0.238-0.285,0.483-0.449,0.709c-0.326,0.453-0.666,0.561-1.208,0.411
	c-0.418-0.116-0.446-0.101-0.579,0.313c-0.303,0.942-0.883,1.271-1.859,1.052c0.078-0.396,0.207-0.521,0.59-0.511
	c0.268,0.006,0.455-0.107,0.607-0.313c0.327-0.439,0.319-1.031-0.033-1.467c-0.486-0.604-0.979-1.2-1.474-1.797
	c-0.169-0.205-0.211-0.436-0.175-0.7c0.232-0.028,0.38,0.092,0.512,0.246c0.545,0.649,1.09,1.302,1.643,1.946
	c0.16,0.188,0.324,0.377,0.519,0.526c0.444,0.345,0.949,0.24,1.252-0.233c0.291-0.452,0.265-0.935-0.116-1.418
	c-0.373-0.474-0.77-0.926-1.158-1.385c-0.183-0.214-0.383-0.412-0.553-0.635c-0.086-0.119-0.145-0.271-0.174-0.418
	c-0.016-0.076,0.047-0.229,0.098-0.24c0.088-0.021,0.215,0.019,0.289,0.076c0.102,0.079,0.162,0.205,0.25,0.305
	c0.604,0.707,1.205,1.42,1.826,2.115c0.165,0.188,0.381,0.34,0.596,0.473c0.352,0.219,0.648,0.166,0.931-0.139
	c0.155-0.17,0.289-0.359,0.44-0.533C22.805,19.428,22.898,19.352,22.993,19.261"/>
<path fill="none" stroke="#EE3E0E" stroke-width="0.25" stroke-miterlimit="10" d="M22.993,19.261
	c0.177,0.423-0.013,0.968-0.425,1.277c-0.313,0.231-0.68,0.325-1.049,0.297c-0.281-0.021-0.435,0.089-0.564,0.298
	c-0.148,0.238-0.285,0.483-0.449,0.709c-0.326,0.453-0.666,0.561-1.208,0.411c-0.418-0.116-0.446-0.101-0.579,0.313
	c-0.303,0.942-0.883,1.271-1.859,1.052c0.078-0.396,0.207-0.521,0.59-0.511c0.268,0.006,0.455-0.107,0.607-0.313
	c0.327-0.439,0.319-1.031-0.033-1.467c-0.486-0.604-0.979-1.2-1.474-1.797c-0.169-0.205-0.211-0.436-0.175-0.7
	c0.232-0.028,0.38,0.092,0.512,0.246c0.545,0.649,1.09,1.302,1.643,1.946c0.16,0.188,0.324,0.377,0.519,0.526
	c0.444,0.345,0.949,0.24,1.252-0.233c0.291-0.452,0.265-0.935-0.116-1.418c-0.373-0.474-0.77-0.926-1.158-1.385
	c-0.183-0.214-0.383-0.412-0.553-0.635c-0.086-0.119-0.145-0.271-0.174-0.418c-0.016-0.076,0.047-0.229,0.098-0.24
	c0.088-0.021,0.215,0.019,0.289,0.076c0.102,0.079,0.162,0.205,0.25,0.305c0.604,0.707,1.205,1.42,1.826,2.115
	c0.165,0.188,0.381,0.34,0.596,0.473c0.352,0.219,0.648,0.166,0.931-0.139c0.155-0.17,0.289-0.359,0.44-0.533
	C22.805,19.428,22.898,19.352,22.993,19.261z"/>
<path fill="#EE3E0E" d="M5.9,15.995c-0.369,0.606-0.824,0.462-1.301,0.212c-0.218-0.113-0.443-0.221-0.675-0.303
	c-0.566-0.196-0.913-0.506-0.609-1.387c0.341-0.99,0.715-1.966,1.075-2.947c0.419-1.144,0.837-2.287,1.258-3.43
	c0.048-0.132,0.098-0.266,0.163-0.388c0.176-0.328,0.47-0.472,0.828-0.375c0.444,0.121,0.884,0.265,1.318,0.414
	C8.209,7.879,8.436,8.02,8.534,8.293c0.002,0.009,0.004,0.02,0.01,0.021c0.468,0.211,0.724,0.738,1.277,0.832
	c0.39,0.065,0.739-0.021,1.07-0.198c0.442-0.237,0.859-0.528,1.314-0.735c0.376-0.171,0.785-0.296,1.192-0.365
	c0.461-0.08,0.865,0.11,1.224,0.434c-0.16,0.193-0.359,0.238-0.565,0.189c-0.67-0.154-1.272,0.024-1.849,0.346
	c-0.389,0.216-0.76,0.467-1.158,0.66c-0.782,0.381-1.543,0.347-2.254-0.193C8.514,9.068,8.449,9.089,8.328,9.426
	c-0.611,1.713-1.221,3.426-1.832,5.139c-0.068,0.193-0.131,0.391-0.209,0.58c-0.127,0.314-0.049,0.572,0.182,0.811
	c0.441,0.456,0.876,0.919,1.311,1.38c0.202,0.215,0.181,0.285-0.067,0.521c-0.197,0.188-0.307,0.054-0.418-0.088
	c-0.372-0.473-0.739-0.947-1.11-1.422C6.104,16.241,6.019,16.141,5.9,15.995 M3.764,15.061c0.062,0.066,0.128,0.183,0.226,0.229
	c0.316,0.158,0.646,0.291,0.969,0.435c0.311,0.139,0.398,0.112,0.568-0.188c0.056-0.101,0.091-0.211,0.127-0.32
	c0.291-0.883,0.561-1.772,0.874-2.647c0.446-1.246,0.925-2.481,1.386-3.723c0.135-0.363,0.114-0.41-0.254-0.544
	C7.366,8.197,7.062,8.119,6.765,8.023C6.37,7.896,6.353,7.902,6.211,8.291c-0.782,2.141-1.565,4.279-2.347,6.42
	C3.832,14.803,3.811,14.898,3.764,15.061"/>
<path fill="none" stroke="#EE3E0E" stroke-width="0.25" stroke-miterlimit="10" d="M5.9,15.995
	c-0.369,0.606-0.824,0.462-1.301,0.212c-0.218-0.113-0.443-0.221-0.675-0.303c-0.566-0.196-0.913-0.506-0.609-1.387
	c0.341-0.99,0.715-1.966,1.075-2.947c0.419-1.144,0.837-2.287,1.258-3.43c0.048-0.132,0.098-0.266,0.163-0.388
	c0.176-0.328,0.47-0.472,0.828-0.375c0.444,0.121,0.884,0.265,1.318,0.414C8.209,7.879,8.436,8.02,8.534,8.293
	c0.002,0.009,0.004,0.02,0.01,0.021c0.468,0.211,0.724,0.738,1.277,0.832c0.39,0.065,0.739-0.021,1.07-0.198
	c0.442-0.237,0.859-0.528,1.314-0.735c0.376-0.171,0.785-0.296,1.192-0.365c0.461-0.08,0.865,0.11,1.224,0.434
	c-0.16,0.193-0.359,0.238-0.565,0.189c-0.67-0.154-1.272,0.024-1.849,0.346c-0.389,0.216-0.76,0.467-1.158,0.66
	c-0.782,0.381-1.543,0.347-2.254-0.193C8.514,9.068,8.449,9.089,8.328,9.426c-0.611,1.713-1.221,3.426-1.832,5.139
	c-0.068,0.193-0.131,0.391-0.209,0.58c-0.127,0.314-0.049,0.572,0.182,0.811c0.441,0.456,0.876,0.919,1.311,1.38
	c0.202,0.215,0.181,0.285-0.067,0.521c-0.197,0.188-0.307,0.054-0.418-0.088c-0.372-0.473-0.739-0.947-1.11-1.422
	C6.104,16.241,6.019,16.141,5.9,15.995z M3.764,15.061c0.062,0.066,0.128,0.183,0.226,0.229c0.316,0.158,0.646,0.291,0.969,0.435
	c0.311,0.139,0.398,0.112,0.568-0.188c0.056-0.101,0.091-0.211,0.127-0.32c0.291-0.883,0.561-1.772,0.874-2.647
	c0.446-1.246,0.925-2.481,1.386-3.723c0.135-0.363,0.114-0.41-0.254-0.544C7.366,8.197,7.062,8.119,6.765,8.023
	C6.37,7.896,6.353,7.902,6.211,8.291c-0.782,2.141-1.565,4.279-2.347,6.42C3.832,14.803,3.811,14.898,3.764,15.061z"/>
<path fill="#EE3E0E" d="M27.713,14.65c-0.043-0.156-0.107-0.312-0.18-0.457c-0.764-1.543-1.528-3.082-2.29-4.625
	c-0.259-0.523-0.497-1.059-0.761-1.58c-0.229-0.457-0.682-0.67-1.082-0.471c-0.514,0.256-1.008,0.557-1.5,0.854
	c-0.189,0.114-0.277,0.31-0.293,0.544c-0.006,0.104-0.074,0.225-0.151,0.298c-0.293,0.281-0.647,0.302-0.981,0.113
	c-0.356-0.199-0.705-0.429-1.018-0.69c-0.688-0.58-1.417-1.025-2.352-0.935c-0.612-0.095-1.129,0.129-1.626,0.425
	c-1.77,1.053-3.37,2.336-4.964,3.629c-0.505,0.409-0.609,1.196-0.279,1.76c0.149,0.256,0.365,0.416,0.657,0.479
	c0.443,0.094,0.856-0.002,1.24-0.215c0.619-0.343,1.227-0.707,1.84-1.062c0.578-0.332,1.157-0.662,1.735-0.996
	c0.192-0.111,0.358-0.087,0.506,0.082c0.065,0.073,0.138,0.141,0.202,0.217c0.563,0.668,1.113,1.347,1.688,2.004
	c1.387,1.591,2.783,3.17,4.178,4.752c0.222,0.252,0.425,0.248,0.672-0.006c0.676-0.698,1.355-1.393,2.018-2.104
	c0.184-0.196,0.342-0.344,0.631-0.274c0.08,0.021,0.185-0.011,0.263-0.049c0.495-0.236,1.002-0.461,1.479-0.732
	C27.7,15.406,27.825,15.059,27.713,14.65 M24.635,16.175c-0.478,0.501-0.958,0.999-1.438,1.497
	c-0.188,0.195-0.375,0.389-0.573,0.594c-0.543-0.608-1.082-1.199-1.604-1.802c-1.32-1.526-2.635-3.058-3.953-4.587
	c-0.14-0.162-0.279-0.324-0.43-0.477c-0.367-0.369-0.692-0.435-1.164-0.209c-0.326,0.158-0.64,0.342-0.953,0.522
	c-0.861,0.5-1.718,1.009-2.582,1.507c-0.14,0.082-0.296,0.145-0.453,0.188c-0.262,0.07-0.545,0.105-0.717-0.16
	c-0.178-0.273-0.182-0.578-0.018-0.867c0.051-0.091,0.13-0.172,0.212-0.236c1.437-1.131,2.84-2.309,4.411-3.256
	c0.113-0.07,0.227-0.137,0.333-0.215c0.892-0.654,2.368-0.498,3.101,0.191c0.269,0.254,0.568,0.477,0.873,0.688
	c0.789,0.553,1.277,0.588,2.131,0.17c0.021,0.031,0.045,0.063,0.063,0.1c0.963,1.966,1.923,3.934,2.891,5.896
	C24.863,15.926,24.754,16.049,24.635,16.175 M26.999,15.143c-0.412,0.222-0.834,0.424-1.255,0.627
	c-0.201,0.099-0.327,0.035-0.376-0.192c-0.022-0.11-0.077-0.216-0.126-0.319c-0.903-1.892-1.807-3.783-2.713-5.675
	c-0.073-0.153-0.164-0.303-0.256-0.447c-0.097-0.149-0.104-0.268,0.072-0.366c0.379-0.213,0.752-0.439,1.135-0.646
	c0.268-0.145,0.369-0.104,0.506,0.178c0.578,1.191,1.148,2.385,1.731,3.574c0.445,0.908,0.905,1.811,1.356,2.715
	c0.044,0.087,0.07,0.182,0.121,0.313C27.137,14.977,27.086,15.096,26.999,15.143"/>
<path fill="none" stroke="#EE3E0E" stroke-width="0.25" stroke-miterlimit="10" d="M27.713,14.65
	c-0.043-0.156-0.107-0.312-0.18-0.457c-0.764-1.543-1.528-3.082-2.29-4.625c-0.259-0.523-0.497-1.059-0.761-1.58
	c-0.229-0.457-0.682-0.67-1.082-0.471c-0.514,0.256-1.008,0.557-1.5,0.854c-0.189,0.114-0.277,0.31-0.293,0.544
	c-0.006,0.104-0.074,0.225-0.151,0.298c-0.293,0.281-0.647,0.302-0.981,0.113c-0.356-0.199-0.705-0.429-1.018-0.69
	c-0.688-0.58-1.417-1.025-2.352-0.935c-0.612-0.095-1.129,0.129-1.626,0.425c-1.77,1.053-3.37,2.336-4.964,3.629
	c-0.505,0.409-0.609,1.196-0.279,1.76c0.149,0.256,0.365,0.416,0.657,0.479c0.443,0.094,0.856-0.002,1.24-0.215
	c0.619-0.343,1.227-0.707,1.84-1.062c0.578-0.332,1.157-0.662,1.735-0.996c0.192-0.111,0.358-0.087,0.506,0.082
	c0.065,0.073,0.138,0.141,0.202,0.217c0.563,0.668,1.113,1.347,1.688,2.004c1.387,1.591,2.783,3.17,4.178,4.752
	c0.222,0.252,0.425,0.248,0.672-0.006c0.676-0.698,1.355-1.393,2.018-2.104c0.184-0.196,0.342-0.344,0.631-0.274
	c0.08,0.021,0.185-0.011,0.263-0.049c0.495-0.236,1.002-0.461,1.479-0.732C27.7,15.406,27.825,15.059,27.713,14.65z M24.635,16.175
	c-0.478,0.501-0.958,0.999-1.438,1.497c-0.188,0.195-0.375,0.389-0.573,0.594c-0.543-0.608-1.082-1.199-1.604-1.802
	c-1.32-1.526-2.635-3.058-3.953-4.587c-0.14-0.162-0.279-0.324-0.43-0.477c-0.367-0.369-0.692-0.435-1.164-0.209
	c-0.326,0.158-0.64,0.342-0.953,0.522c-0.861,0.5-1.718,1.009-2.582,1.507c-0.14,0.082-0.296,0.145-0.453,0.188
	c-0.262,0.07-0.545,0.105-0.717-0.16c-0.178-0.273-0.182-0.578-0.018-0.867c0.051-0.091,0.13-0.172,0.212-0.236
	c1.437-1.131,2.84-2.309,4.411-3.256c0.113-0.07,0.227-0.137,0.333-0.215c0.892-0.654,2.368-0.498,3.101,0.191
	c0.269,0.254,0.568,0.477,0.873,0.688c0.789,0.553,1.277,0.588,2.131,0.17c0.021,0.031,0.045,0.063,0.063,0.1
	c0.963,1.966,1.923,3.934,2.891,5.896C24.863,15.926,24.754,16.049,24.635,16.175z M26.999,15.143
	c-0.412,0.222-0.834,0.424-1.255,0.627c-0.201,0.099-0.327,0.035-0.376-0.192c-0.022-0.11-0.077-0.216-0.126-0.319
	c-0.903-1.892-1.807-3.783-2.713-5.675c-0.073-0.153-0.164-0.303-0.256-0.447c-0.097-0.149-0.104-0.268,0.072-0.366
	c0.379-0.213,0.752-0.439,1.135-0.646c0.268-0.145,0.369-0.104,0.506,0.178c0.578,1.191,1.148,2.385,1.731,3.574
	c0.445,0.908,0.905,1.811,1.356,2.715c0.044,0.087,0.07,0.182,0.121,0.313C27.137,14.977,27.086,15.096,26.999,15.143z"/>
<path fill="#FFFFFF" d="M14.46,19.346c0.434,0.021,0.965,0.652,0.638,1.172c-0.165,0.262-0.366,0.51-0.59,0.726
	c-0.53,0.507-1.078,0.996-1.629,1.479c-0.248,0.217-0.526,0.185-0.769-0.059c-0.347-0.35-0.363-0.873,0.011-1.266
	c0.449-0.473,0.934-0.908,1.403-1.357c0.168-0.159,0.332-0.323,0.515-0.464C14.166,19.48,14.318,19.421,14.46,19.346"/>
<path fill="none" stroke="#EE3E0E" stroke-width="0.5" stroke-miterlimit="10" d="M14.46,19.346
	c0.434,0.021,0.965,0.652,0.638,1.172c-0.165,0.262-0.366,0.51-0.59,0.726c-0.53,0.507-1.078,0.996-1.629,1.479
	c-0.248,0.217-0.526,0.185-0.769-0.059c-0.347-0.35-0.363-0.873,0.011-1.266c0.449-0.473,0.934-0.908,1.403-1.357
	c0.168-0.159,0.332-0.323,0.515-0.464C14.166,19.48,14.318,19.421,14.46,19.346z"/>
<path fill="#FFFFFF" d="M10.138,20.313c0.121-0.23,0.186-0.471,0.336-0.625c0.495-0.504,1.016-0.984,1.538-1.463
	c0.175-0.16,0.397-0.129,0.604,0.039c0.334,0.271,0.42,0.76,0.168,1.163c-0.157,0.248-0.354,0.476-0.561,0.688
	c-0.321,0.329-0.663,0.642-1.003,0.952c-0.246,0.229-0.524,0.227-0.726-0.043C10.344,20.82,10.262,20.564,10.138,20.313"/>
<path fill="none" stroke="#EE3E0E" stroke-width="0.5" stroke-miterlimit="10" d="M10.138,20.313
	c0.121-0.23,0.186-0.471,0.336-0.625c0.495-0.504,1.016-0.984,1.538-1.463c0.175-0.16,0.397-0.129,0.604,0.039
	c0.334,0.271,0.42,0.76,0.168,1.163c-0.157,0.248-0.354,0.476-0.561,0.688c-0.321,0.329-0.663,0.642-1.003,0.952
	c-0.246,0.229-0.524,0.227-0.726-0.043C10.344,20.82,10.262,20.564,10.138,20.313z"/>
<path fill="#FFFFFF" d="M8.079,19.154c-0.023-0.399,0.113-0.656,0.377-0.853c0.06-0.044,0.12-0.086,0.18-0.13
	c0.369-0.273,0.488-0.273,0.853-0.005c0.288,0.214,0.39,0.544,0.259,0.875c-0.14,0.351-0.381,0.61-0.726,0.771
	c-0.446,0.207-0.898-0.06-0.941-0.555C8.075,19.203,8.079,19.145,8.079,19.154"/>
<path fill="none" stroke="#EE3E0E" stroke-width="0.5" stroke-miterlimit="10" d="M8.079,19.154
	c-0.023-0.399,0.113-0.656,0.377-0.853c0.06-0.044,0.12-0.086,0.18-0.13c0.369-0.273,0.488-0.273,0.853-0.005
	c0.288,0.214,0.39,0.544,0.259,0.875c-0.14,0.351-0.381,0.61-0.726,0.771c-0.446,0.207-0.898-0.06-0.941-0.555
	C8.075,19.203,8.079,19.145,8.079,19.154z"/>
<path fill="#FFFFFF" d="M14.865,24.125c-0.531-0.051-0.904-0.698-0.6-1.115c0.345-0.468,0.748-0.894,1.143-1.322
	c0.15-0.164,0.364-0.199,0.564-0.072c0.272,0.17,0.469,0.402,0.432,0.744c-0.018,0.158-0.07,0.336-0.168,0.455
	c-0.333,0.404-0.686,0.795-1.045,1.174C15.117,24.066,14.975,24.081,14.865,24.125"/>
<path fill="none" stroke="#EE3E0E" stroke-width="0.5" stroke-miterlimit="10" d="M14.865,24.125
	c-0.531-0.051-0.904-0.698-0.6-1.115c0.345-0.468,0.748-0.894,1.143-1.322c0.15-0.164,0.364-0.199,0.564-0.072
	c0.272,0.17,0.469,0.402,0.432,0.744c-0.018,0.158-0.07,0.336-0.168,0.455c-0.333,0.404-0.686,0.795-1.045,1.174
	C15.117,24.066,14.975,24.081,14.865,24.125z"/>
</svg>
