<?xml version="1.0" encoding="utf-8"?>
<!-- Generator: Adobe Illustrator 16.0.0, SVG Export Plug-In . SVG Version: 6.00 Build 0)  -->
<!DOCTYPE svg PUBLIC "-//W3C//DTD SVG 1.1//EN" "http://www.w3.org/Graphics/SVG/1.1/DTD/svg11.dtd">
<svg version="1.1" id="Слой_1" xmlns="http://www.w3.org/2000/svg" xmlns:xlink="http://www.w3.org/1999/xlink" x="0px" y="0px"
	 width="100px" height="100px" viewBox="0 0 100 100" enable-background="new 0 0 100 100" xml:space="preserve">
<g>
	<path fill-rule="evenodd" clip-rule="evenodd" d="M64.483,46.37c9.857,0,19.593,0,29.314,0c0.502,6.82-4.946,14.706-14.168,14.918
		C71.358,61.479,64.552,55.242,64.483,46.37z M68.29,49.574c1.232,5.001,6.057,8.581,11.198,8.447
		c4.57-0.12,10.267-3.564,10.846-8.447C83.006,49.574,75.67,49.574,68.29,49.574z"/>
	<path fill-rule="evenodd" clip-rule="evenodd" d="M35.231,72.896c-0.237,5.67-2.589,9.949-7.329,12.705
		c-5.159,3-10.467,2.89-15.484-0.321c-4.396-2.813-6.661-6.959-6.734-12.384C15.548,72.896,25.238,72.896,35.231,72.896z
		 M9.256,75.991c1.813,5.807,6.951,9.175,12.598,8.464c4.838-0.609,9.266-4.537,9.466-8.464
		C24.01,75.991,16.705,75.991,9.256,75.991z"/>
	<path fill-rule="evenodd" clip-rule="evenodd" d="M51.341,90.56c-1.011,0-1.921,0-2.991,0c0-19.669,0-39.284,0-58.97
		c0.986,0,1.909,0,2.991,0C51.341,51.206,51.341,70.828,51.341,90.56z"/>
	<path fill-rule="evenodd" clip-rule="evenodd" d="M49.86,96.428c-7.141,0-14.282-0.01-21.422,0.011
		c-1.218,0.003-2.237-0.265-2.1-1.698c0.121-1.265,1.14-1.385,2.244-1.381c7.705,0.031,15.409,0.018,23.114,0.017
		c6.451,0,12.903,0.018,19.354-0.02c1.185-0.007,2.262,0.133,2.299,1.524c0.038,1.456-1.098,1.559-2.254,1.556
		C64.016,96.419,56.938,96.428,49.86,96.428z"/>
	<path fill-rule="evenodd" clip-rule="evenodd" d="M58.374,20.709c-0.484-1.057-0.869-1.895-1.328-2.897
		c3.472-1.608,6.868-3.184,10.267-4.755c6.363-2.942,12.729-5.881,19.092-8.821c0.228-0.105,0.484-0.326,0.682-0.283
		c0.812,0.176,1.605,0.434,2.405,0.662c-0.364,0.752-0.534,1.896-1.127,2.192c-3.916,1.959-7.922,3.739-11.901,5.573
		C70.501,15.127,64.537,17.872,58.374,20.709z"/>
	<path fill-rule="evenodd" clip-rule="evenodd" d="M41.288,25.096c0.477,1.036,0.839,1.825,1.263,2.745
		c-0.429,0.252-0.826,0.531-1.259,0.732c-9.308,4.313-18.62,8.616-27.933,12.918c-0.454,0.21-0.995,0.625-1.372,0.518
		c-0.68-0.194-1.266-0.714-1.892-1.097c0.456-0.722,0.742-1.799,1.394-2.11c5.595-2.665,11.259-5.185,16.895-7.762
		C32.645,29.091,36.894,27.12,41.288,25.096z"/>
	<path fill-rule="evenodd" clip-rule="evenodd" d="M93.625,43.417c-3.262,0.357-3.265,0.358-4.206-2.257
		c-2.984-8.286-5.968-16.572-8.948-24.86c-0.27-0.751-0.512-1.512-0.82-2.427c0.931-0.435,1.756-0.82,2.848-1.33
		C86.22,22.868,89.889,33.05,93.625,43.417z"/>
	<path fill-rule="evenodd" clip-rule="evenodd" d="M34.73,69.75c-2.654,0.919-3.497-0.234-4.203-2.279
		c-2.874-8.336-5.928-16.609-8.913-24.907c-0.167-0.463-0.303-0.938-0.521-1.619c0.867-0.401,1.688-0.783,2.79-1.293
		C27.536,49.788,31.143,59.796,34.73,69.75z"/>
	<path fill-rule="evenodd" clip-rule="evenodd" d="M64.896,43.38c2.338-6.512,4.616-12.856,6.895-19.2
		c0.719-2.002,1.585-3.965,2.12-6.015c0.614-2.354,2.353-2.932,4.659-3.506c-1.134,3.198-2.159,6.12-3.205,9.034
		c-2.092,5.827-4.199,11.648-6.289,17.476C68.126,43.817,68.139,43.821,64.896,43.38z"/>
	<path fill-rule="evenodd" clip-rule="evenodd" d="M6.041,69.885c1.986-5.569,3.899-10.962,5.833-16.349
		c0.864-2.406,1.936-4.752,2.615-7.208c0.692-2.506,2.11-3.949,4.773-4.271c-0.575,1.869-1.083,3.771-1.743,5.619
		c-2.371,6.637-4.792,13.256-7.198,19.881C9.335,70.27,9.331,70.268,6.041,69.885z"/>
	<path fill-rule="evenodd" clip-rule="evenodd" d="M55.817,22.852c0.012,3.341-2.571,5.984-5.896,6.035
		c-3.395,0.051-6.09-2.64-6.064-6.055c0.024-3.34,2.646-5.934,5.991-5.929C53.191,16.907,55.806,19.513,55.817,22.852z
		 M52.634,22.874c-0.023-1.543-1.378-2.843-2.906-2.789c-1.437,0.051-2.683,1.358-2.688,2.818c-0.005,1.512,1.386,2.845,2.906,2.784
		C51.391,25.63,52.656,24.306,52.634,22.874z"/>
	<path fill-rule="evenodd" clip-rule="evenodd" d="M51.459,14.162c-1.203,0-2.111,0-3.235,0c0-2.554-0.091-5.033,0.071-7.495
		c0.036-0.546,1.064-1.515,1.469-1.435c0.64,0.126,1.575,0.938,1.619,1.518C51.564,9.159,51.459,11.59,51.459,14.162z"/>
</g>
</svg>
