<?xml version="1.0" encoding="utf-8"?>
<!-- Generator: Adobe Illustrator 16.0.0, SVG Export Plug-In . SVG Version: 6.00 Build 0)  -->
<!DOCTYPE svg PUBLIC "-//W3C//DTD SVG 1.1//EN" "http://www.w3.org/Graphics/SVG/1.1/DTD/svg11.dtd">
<svg version="1.1" id="Слой_1" xmlns="http://www.w3.org/2000/svg" xmlns:xlink="http://www.w3.org/1999/xlink" x="0px" y="0px"
	 width="30px" height="30px" viewBox="0 0 30 30" enable-background="new 0 0 30 30" xml:space="preserve">
<g>
	<g>
		<defs>
			<rect id="SVGID_1_" x="5.167" y="4.922" width="20.622" height="20.656"/>
		</defs>
		<clipPath id="SVGID_2_">
			<use xlink:href="#SVGID_1_"  overflow="visible"/>
		</clipPath>
		<path clip-path="url(#SVGID_2_)" fill="#EE3E0E" d="M13.013,8.182V7.513H14.9v0.669c0,0.354,0.29,0.646,0.645,0.646h0.162
			c0.354,0,0.646-0.292,0.646-0.646V7.513h1.887v0.669c0,0.354,0.289,0.646,0.646,0.646h0.16c0.354,0,0.646-0.292,0.646-0.646V7.513
			h0.385l1.229,1.207v1.93h1.291V8.177l-1.992-1.955h-0.912V5.568c0-0.354-0.291-0.646-0.646-0.646h-0.161
			c-0.354,0-0.646,0.291-0.646,0.646v0.654h-1.888V5.568c0-0.354-0.291-0.646-0.646-0.646h-0.162c-0.354,0-0.645,0.291-0.645,0.646
			v0.654h-1.887V5.568c0-0.354-0.291-0.646-0.646-0.646h-0.161c-0.355,0-0.646,0.291-0.646,0.646v0.654H9.675V5.568
			c0-0.354-0.291-0.646-0.646-0.646H8.867c-0.355,0-0.646,0.291-0.646,0.646v0.654H5.166v19.356h5.702l0.323-1.291H6.457V7.513
			h1.764v0.669c0,0.354,0.29,0.646,0.646,0.646h0.162c0.354,0,0.646-0.292,0.646-0.646V7.513h1.886v0.669
			c0,0.354,0.291,0.646,0.646,0.646h0.161C12.722,8.828,13.013,8.536,13.013,8.182"/>
	</g>
	<g>
		<defs>
			<rect id="SVGID_3_" x="5.167" y="4.922" width="20.622" height="20.656"/>
		</defs>
		<clipPath id="SVGID_4_">
			<use xlink:href="#SVGID_3_"  overflow="visible"/>
		</clipPath>
		<path clip-path="url(#SVGID_4_)" fill="#EE3E0E" d="M25.406,14.735l-2.066-2.066c-0.502-0.503-1.314-0.512-1.807-0.022
			c0,0.001,0,0.001-0.001,0.002l0,0l-7.534,7.535l-0.152,0.15l-1.304,5.207l5.201-1.305l0.485-0.494l7.197-7.199h-0.001
			c0,0,0.001,0,0.002-0.001C25.917,16.051,25.908,15.237,25.406,14.735 M14.379,20.857l2.844,2.844l-2.669,0.668l-0.834-0.877
			L14.379,20.857z M17.746,21.941l-1.612-1.611l5.398-5.399l1.612,1.613L17.746,21.941z"/>
	</g>
</g>
</svg>
