<?xml version="1.0" encoding="utf-8"?>
<!-- Generator: Adobe Illustrator 16.0.0, SVG Export Plug-In . SVG Version: 6.00 Build 0)  -->
<!DOCTYPE svg PUBLIC "-//W3C//DTD SVG 1.1//EN" "http://www.w3.org/Graphics/SVG/1.1/DTD/svg11.dtd">
<svg version="1.1" id="Слой_1" xmlns="http://www.w3.org/2000/svg" xmlns:xlink="http://www.w3.org/1999/xlink" x="0px" y="0px"
	 width="30px" height="30px" viewBox="0 0 30 30" enable-background="new 0 0 30 30" xml:space="preserve">
<path fill="none" stroke="#343333" d="M12.864,6.176c0.452,0,0.899,0.044,1.345,0.132c0.443,0.089,0.874,0.22,1.292,0.392
	c0.419,0.174,0.815,0.386,1.19,0.638c0.377,0.251,0.726,0.537,1.045,0.857c0.32,0.319,0.605,0.668,0.855,1.044
	c0.254,0.376,0.465,0.773,0.639,1.191s0.305,0.849,0.393,1.293c0.089,0.444,0.133,0.892,0.133,1.345c0,0.452-0.044,0.9-0.133,1.344
	c-0.088,0.444-0.219,0.875-0.393,1.293s-0.385,0.814-0.639,1.191c-0.25,0.375-0.535,0.724-0.855,1.045
	c-0.319,0.317-0.668,0.604-1.045,0.855c-0.375,0.251-0.771,0.464-1.19,0.637c-0.418,0.174-0.849,0.305-1.292,0.393
	c-0.445,0.089-0.893,0.133-1.345,0.133c-0.452,0-0.9-0.044-1.345-0.133c-0.443-0.088-0.874-0.219-1.293-0.393
	c-0.418-0.173-0.814-0.386-1.191-0.637c-0.376-0.252-0.724-0.538-1.044-0.855c-0.32-0.321-0.606-0.67-0.857-1.045
	c-0.251-0.377-0.463-0.773-0.637-1.191c-0.173-0.418-0.304-0.849-0.392-1.293c-0.089-0.444-0.133-0.892-0.133-1.344
	c0-0.453,0.044-0.901,0.133-1.345c0.088-0.444,0.219-0.875,0.392-1.293c0.174-0.418,0.386-0.815,0.637-1.191
	c0.251-0.376,0.537-0.725,0.857-1.044c0.32-0.32,0.668-0.606,1.044-0.857C9.412,7.086,9.808,6.874,10.226,6.7
	c0.419-0.172,0.85-0.303,1.293-0.392C11.964,6.22,12.412,6.176,12.864,6.176z"/>
<line fill="none" stroke="#343333" stroke-width="2" x1="17.025" y1="17.738" x2="24.377" y2="25.09"/>
</svg>
