<?xml version="1.0" encoding="utf-8"?>
<!-- Generator: Adobe Illustrator 16.0.0, SVG Export Plug-In . SVG Version: 6.00 Build 0)  -->
<!DOCTYPE svg PUBLIC "-//W3C//DTD SVG 1.1//EN" "http://www.w3.org/Graphics/SVG/1.1/DTD/svg11.dtd">
<svg version="1.1" id="Слой_1" xmlns="http://www.w3.org/2000/svg" xmlns:xlink="http://www.w3.org/1999/xlink" x="0px" y="0px"
	 width="30px" height="30px" viewBox="0 0 30 30" enable-background="new 0 0 30 30" xml:space="preserve">
<g>
	<path fill="none" stroke="#343333" d="M24.418,14.056c-0.029,0.611-0.238,1.14-0.676,1.567c-0.699,0.684-1.391,1.377-2.107,2.04
		c-0.421,0.389-0.603,0.815-0.484,1.389c0.135,0.647,0.227,1.306,0.334,1.959c0.065,0.388,0.152,0.774,0.188,1.165
		c0.074,0.805-0.233,1.465-0.876,1.941c-0.753,0.557-1.572,0.607-2.406,0.185c-0.916-0.464-1.822-0.944-2.729-1.423
		c-0.401-0.212-0.793-0.21-1.194,0.001c-0.936,0.492-1.867,0.994-2.815,1.463c-1.268,0.625-2.777-0.075-3.143-1.44
		c-0.105-0.393-0.07-0.786,0.001-1.182c0.11-0.613,0.211-1.229,0.317-1.841c0.058-0.33,0.124-0.659,0.178-0.991
		c0.066-0.412-0.048-0.771-0.351-1.063c-0.544-0.527-1.089-1.054-1.633-1.583c-0.223-0.217-0.447-0.429-0.663-0.651
		c-0.32-0.329-0.515-0.719-0.595-1.179c-0.196-1.125,0.499-2.192,1.525-2.49c0.362-0.105,0.747-0.137,1.123-0.195
		c0.569-0.088,1.143-0.171,1.714-0.254c0.229-0.035,0.461-0.061,0.689-0.101c0.412-0.072,0.69-0.316,0.873-0.687
		c0.459-0.932,0.916-1.866,1.389-2.792c0.318-0.624,0.836-1.013,1.521-1.158c1.077-0.23,2.071,0.336,2.512,1.254
		c0.439,0.913,0.898,1.816,1.348,2.724c0.213,0.43,0.57,0.635,1.034,0.696c0.475,0.062,0.946,0.137,1.421,0.205
		c0.436,0.061,0.869,0.125,1.305,0.179c0.553,0.07,1.069,0.221,1.481,0.623c0.364,0.355,0.608,0.771,0.665,1.286
		C24.375,13.82,24.398,13.938,24.418,14.056z"/>
</g>
</svg>
