<?xml version="1.0" encoding="utf-8"?>
<!-- Generator: Adobe Illustrator 16.0.0, SVG Export Plug-In . SVG Version: 6.00 Build 0)  -->
<!DOCTYPE svg PUBLIC "-//W3C//DTD SVG 1.1//EN" "http://www.w3.org/Graphics/SVG/1.1/DTD/svg11.dtd">
<svg version="1.1" id="Слой_1" xmlns="http://www.w3.org/2000/svg" xmlns:xlink="http://www.w3.org/1999/xlink" x="0px" y="0px"
	 width="30px" height="30px" viewBox="0 0 30 30" enable-background="new 0 0 30 30" xml:space="preserve">
<path fill="#EE3E0E" d="M22.834,24.063c-0.512-0.688-0.986-1.401-1.488-2.096c-0.256-0.355-0.535-0.699-0.814-1.039
	c-0.254-0.31-0.594-0.461-0.991-0.438c-0.231,0.013-0.472,0.051-0.69,0.129c-0.472,0.168-0.929,0.377-1.397,0.553
	c-0.468,0.176-0.617,0.128-0.933-0.26c-0.465-0.576-0.843-1.212-1.218-1.848c-1.021-1.721-1.775-3.539-2.065-5.53
	c-0.083-0.564-0.172-1.128-0.233-1.693c-0.049-0.433,0.088-0.64,0.478-0.83c0.069-0.033,0.141-0.062,0.212-0.094
	c0.392-0.181,0.796-0.338,1.171-0.549c0.517-0.29,0.757-0.756,0.696-1.351c-0.07-0.688-0.146-1.378-0.24-2.063
	c-0.084-0.613-0.191-1.223-0.299-1.833c-0.053-0.297-0.219-0.525-0.467-0.704c-0.59-0.424-1.241-0.683-1.963-0.755
	c-0.303-0.03-0.613-0.057-0.912-0.019c-0.862,0.112-1.575,0.538-2.188,1.136C8.437,5.81,7.84,7.096,7.452,8.495
	C7.387,8.733,7.342,8.978,7.288,9.22c-0.052,0.423-0.104,0.843-0.155,1.265c-0.007,0.174-0.012,0.349-0.021,0.522
	c-0.119,2.11,0.198,4.161,0.849,6.163c0.592,1.814,1.321,3.571,2.32,5.204c0.802,1.313,1.723,2.538,2.857,3.586
	c0.834,0.771,1.75,1.426,2.787,1.899c0.617,0.283,1.263,0.48,1.935,0.596c0.056,0.009,0.108,0.027,0.164,0.041
	c0.228,0.027,0.455,0.056,0.681,0.084c0.122-0.006,0.243-0.005,0.366-0.02c1.018-0.119,1.89-0.551,2.654-1.226
	c0.65-0.575,1.098-1.271,1.305-2.118C23.129,24.805,23.107,24.43,22.834,24.063 M21.404,24.977c-0.363,1.004-1.092,1.604-2.096,1.9
	c-0.31,0.094-0.623,0.117-0.943,0.066c-0.965-0.158-1.861-0.502-2.693-1.016c-1.172-0.721-2.129-1.674-2.923-2.783
	c-1.761-2.463-3.028-5.154-3.688-8.117c-0.324-1.452-0.411-2.925-0.326-4.411c0.078-1.369,0.466-2.645,1.17-3.818
	c0.314-0.524,0.719-0.965,1.234-1.305c0.443-0.291,0.923-0.35,1.418-0.222c0.293,0.076,0.57,0.215,0.85,0.334
	c0.04,0.017,0.078,0.082,0.085,0.13c0.104,0.701,0.206,1.402,0.304,2.104c0.049,0.352,0.084,0.705,0.133,1.056
	c0.014,0.103-0.019,0.161-0.108,0.202c-0.274,0.125-0.552,0.246-0.822,0.38c-0.374,0.186-0.729,0.399-1.034,0.689
	c-0.265,0.25-0.43,0.545-0.463,0.915c-0.043,0.479-0.146,0.954-0.058,1.438c0.135,0.75,0.26,1.501,0.403,2.249
	c0.283,1.455,0.845,2.806,1.525,4.111c0.559,1.074,1.204,2.087,1.928,3.061c0.746,1.004,2.015,1.084,2.897,0.688
	c0.355-0.159,0.716-0.313,1.07-0.479c0.103-0.047,0.164-0.039,0.232,0.057c0.535,0.736,1.075,1.468,1.613,2.202
	c0.089,0.122,0.171,0.249,0.264,0.368C21.428,24.841,21.432,24.898,21.404,24.977"/>
<path fill="none" stroke="#FFFFFF" stroke-width="0.25" stroke-miterlimit="10" d="M22.834,24.063
	c-0.512-0.688-0.986-1.401-1.488-2.096c-0.256-0.355-0.535-0.699-0.814-1.039c-0.254-0.31-0.594-0.461-0.991-0.438
	c-0.231,0.013-0.472,0.051-0.69,0.129c-0.472,0.168-0.929,0.377-1.397,0.553c-0.468,0.176-0.617,0.128-0.933-0.26
	c-0.465-0.576-0.843-1.212-1.218-1.848c-1.021-1.721-1.775-3.539-2.065-5.53c-0.083-0.564-0.172-1.128-0.233-1.693
	c-0.049-0.433,0.088-0.64,0.478-0.83c0.069-0.033,0.141-0.062,0.212-0.094c0.392-0.181,0.796-0.338,1.171-0.549
	c0.517-0.29,0.757-0.756,0.696-1.351c-0.07-0.688-0.146-1.378-0.24-2.063c-0.084-0.613-0.191-1.223-0.299-1.833
	c-0.053-0.297-0.219-0.525-0.467-0.704c-0.59-0.424-1.241-0.683-1.963-0.755c-0.303-0.03-0.613-0.057-0.912-0.019
	c-0.862,0.112-1.575,0.538-2.188,1.136C8.437,5.81,7.84,7.096,7.452,8.495C7.387,8.733,7.342,8.978,7.288,9.22
	c-0.052,0.423-0.104,0.843-0.155,1.265c-0.007,0.174-0.012,0.349-0.021,0.522c-0.119,2.11,0.198,4.161,0.849,6.163
	c0.592,1.814,1.321,3.571,2.32,5.204c0.802,1.313,1.723,2.538,2.857,3.586c0.834,0.771,1.75,1.426,2.787,1.899
	c0.617,0.283,1.263,0.48,1.935,0.596c0.056,0.009,0.108,0.027,0.164,0.041c0.228,0.027,0.455,0.056,0.681,0.084
	c0.122-0.006,0.243-0.005,0.366-0.02c1.018-0.119,1.89-0.551,2.654-1.226c0.65-0.575,1.098-1.271,1.305-2.118
	C23.129,24.805,23.107,24.43,22.834,24.063z M21.404,24.977c-0.363,1.004-1.092,1.604-2.096,1.9
	c-0.31,0.094-0.623,0.117-0.943,0.066c-0.965-0.158-1.861-0.502-2.693-1.016c-1.172-0.721-2.129-1.674-2.923-2.783
	c-1.761-2.463-3.028-5.154-3.688-8.117c-0.324-1.452-0.411-2.925-0.326-4.411c0.078-1.369,0.466-2.645,1.17-3.818
	c0.314-0.524,0.719-0.965,1.234-1.305c0.443-0.291,0.923-0.35,1.418-0.222c0.293,0.076,0.57,0.215,0.85,0.334
	c0.04,0.017,0.078,0.082,0.085,0.13c0.104,0.701,0.206,1.402,0.304,2.104c0.049,0.352,0.084,0.705,0.133,1.056
	c0.014,0.103-0.019,0.161-0.108,0.202c-0.274,0.125-0.552,0.246-0.822,0.38c-0.374,0.186-0.729,0.399-1.034,0.689
	c-0.265,0.25-0.43,0.545-0.463,0.915c-0.043,0.479-0.146,0.954-0.058,1.438c0.135,0.75,0.26,1.501,0.403,2.249
	c0.283,1.455,0.845,2.806,1.525,4.111c0.559,1.074,1.204,2.087,1.928,3.061c0.746,1.004,2.015,1.084,2.897,0.688
	c0.355-0.159,0.716-0.313,1.07-0.479c0.103-0.047,0.164-0.039,0.232,0.057c0.535,0.736,1.075,1.468,1.613,2.202
	c0.089,0.122,0.171,0.249,0.264,0.368C21.428,24.841,21.432,24.898,21.404,24.977z"/>
</svg>
