<?xml version="1.0" encoding="utf-8"?>
<!-- Generator: Adobe Illustrator 16.0.0, SVG Export Plug-In . SVG Version: 6.00 Build 0)  -->
<!DOCTYPE svg PUBLIC "-//W3C//DTD SVG 1.1//EN" "http://www.w3.org/Graphics/SVG/1.1/DTD/svg11.dtd">
<svg version="1.1" id="Слой_1" xmlns="http://www.w3.org/2000/svg" xmlns:xlink="http://www.w3.org/1999/xlink" x="0px" y="0px"
	 width="30px" height="30px" viewBox="0 0 30 30" enable-background="new 0 0 30 30" xml:space="preserve">
<g>
	<g>
		<defs>
			<rect id="SVGID_1_" x="5.606" y="5.74" width="18.786" height="19.479"/>
		</defs>
		<clipPath id="SVGID_2_">
			<use xlink:href="#SVGID_1_"  overflow="visible"/>
		</clipPath>
		<path clip-path="url(#SVGID_2_)" fill="#EE3E0E" d="M22.583,5.833H7.417c-0.947,0-1.724,0.678-1.724,1.507v16.277
			c0,0.83,0.776,1.508,1.724,1.508h15.167c0.947,0,1.724-0.68,1.724-1.508V7.34C24.307,6.512,23.53,5.833,22.583,5.833
			 M6.586,24.008L6.591,6.775l16.742,0.006l-0.006,17.232L6.586,24.008z"/>
	</g>
	<g>
		<defs>
			<rect id="SVGID_3_" x="5.606" y="5.74" width="18.786" height="19.479"/>
		</defs>
		<clipPath id="SVGID_4_">
			<use xlink:href="#SVGID_3_"  overflow="visible"/>
		</clipPath>
		<path clip-path="url(#SVGID_4_)" fill="none" stroke="#EE3E0E" stroke-width="0.1797" stroke-miterlimit="10" d="M22.583,5.833
			H7.417c-0.947,0-1.724,0.678-1.724,1.507v16.277c0,0.83,0.776,1.508,1.724,1.508h15.167c0.947,0,1.724-0.68,1.724-1.508V7.34
			C24.307,6.512,23.53,5.833,22.583,5.833z M6.586,24.008L6.591,6.775l16.742,0.006l-0.006,17.232L6.586,24.008z"/>
	</g>
	<g>
		<defs>
			<rect id="SVGID_5_" x="5.606" y="5.74" width="18.786" height="19.479"/>
		</defs>
		<clipPath id="SVGID_6_">
			<use xlink:href="#SVGID_5_"  overflow="visible"/>
		</clipPath>
		<path clip-path="url(#SVGID_6_)" fill="#EE3E0E" d="M10.79,10.213c-0.609,0-1.102,0.538-1.102,1.2s0.492,1.199,1.102,1.199
			s1.104-0.538,1.104-1.199C11.894,10.751,11.399,10.213,10.79,10.213"/>
	</g>
	<g>
		<defs>
			<rect id="SVGID_7_" x="5.606" y="5.74" width="18.786" height="19.479"/>
		</defs>
		<clipPath id="SVGID_8_">
			<use xlink:href="#SVGID_7_"  overflow="visible"/>
		</clipPath>
		
			<ellipse clip-path="url(#SVGID_8_)" fill="none" stroke="#EE3E0E" stroke-width="0.1797" stroke-miterlimit="10" cx="10.79" cy="11.413" rx="1.102" ry="1.199"/>
	</g>
	<g>
		<defs>
			<rect id="SVGID_9_" x="5.606" y="5.74" width="18.786" height="19.479"/>
		</defs>
		<clipPath id="SVGID_10_">
			<use xlink:href="#SVGID_9_"  overflow="visible"/>
		</clipPath>
		<path clip-path="url(#SVGID_10_)" fill="#EE3E0E" d="M14.693,10.213c-0.609,0-1.103,0.538-1.103,1.2s0.493,1.199,1.103,1.199
			c0.61,0,1.103-0.538,1.103-1.199C15.796,10.751,15.305,10.213,14.693,10.213"/>
	</g>
	<g>
		<defs>
			<rect id="SVGID_11_" x="5.606" y="5.74" width="18.786" height="19.479"/>
		</defs>
		<clipPath id="SVGID_12_">
			<use xlink:href="#SVGID_11_"  overflow="visible"/>
		</clipPath>
		
			<ellipse clip-path="url(#SVGID_12_)" fill="none" stroke="#EE3E0E" stroke-width="0.1797" stroke-miterlimit="10" cx="14.693" cy="11.413" rx="1.103" ry="1.199"/>
	</g>
	<g>
		<defs>
			<rect id="SVGID_13_" x="5.606" y="5.74" width="18.786" height="19.479"/>
		</defs>
		<clipPath id="SVGID_14_">
			<use xlink:href="#SVGID_13_"  overflow="visible"/>
		</clipPath>
		<path clip-path="url(#SVGID_14_)" fill="#EE3E0E" d="M18.598,10.213c-0.61,0-1.103,0.538-1.103,1.2s0.491,1.199,1.103,1.199
			c0.61,0,1.103-0.538,1.103-1.199C19.699,10.751,19.208,10.213,18.598,10.213"/>
	</g>
	<g>
		<defs>
			<rect id="SVGID_15_" x="5.606" y="5.74" width="18.786" height="19.479"/>
		</defs>
		<clipPath id="SVGID_16_">
			<use xlink:href="#SVGID_15_"  overflow="visible"/>
		</clipPath>
		
			<ellipse clip-path="url(#SVGID_16_)" fill="none" stroke="#EE3E0E" stroke-width="0.1797" stroke-miterlimit="10" cx="18.598" cy="11.413" rx="1.103" ry="1.199"/>
	</g>
	<g>
		<defs>
			<rect id="SVGID_17_" x="5.606" y="5.74" width="18.786" height="19.479"/>
		</defs>
		<clipPath id="SVGID_18_">
			<use xlink:href="#SVGID_17_"  overflow="visible"/>
		</clipPath>
		<path clip-path="url(#SVGID_18_)" fill="#EE3E0E" d="M10.79,14.195c-0.609,0-1.102,0.538-1.102,1.199
			c0,0.662,0.492,1.197,1.102,1.197s1.104-0.535,1.104-1.197C11.894,14.733,11.399,14.195,10.79,14.195"/>
	</g>
	<g>
		<defs>
			<rect id="SVGID_19_" x="5.606" y="5.74" width="18.786" height="19.479"/>
		</defs>
		<clipPath id="SVGID_20_">
			<use xlink:href="#SVGID_19_"  overflow="visible"/>
		</clipPath>
		
			<ellipse clip-path="url(#SVGID_20_)" fill="none" stroke="#EE3E0E" stroke-width="0.1797" stroke-miterlimit="10" cx="10.79" cy="15.395" rx="1.102" ry="1.199"/>
	</g>
	<g>
		<defs>
			<rect id="SVGID_21_" x="5.606" y="5.74" width="18.786" height="19.479"/>
		</defs>
		<clipPath id="SVGID_22_">
			<use xlink:href="#SVGID_21_"  overflow="visible"/>
		</clipPath>
		<path clip-path="url(#SVGID_22_)" fill="#EE3E0E" d="M14.693,14.195c-0.609,0-1.103,0.538-1.103,1.199
			c0,0.662,0.493,1.197,1.103,1.197c0.61,0,1.103-0.535,1.103-1.197C15.796,14.733,15.305,14.195,14.693,14.195"/>
	</g>
	<g>
		<defs>
			<rect id="SVGID_23_" x="5.606" y="5.74" width="18.786" height="19.479"/>
		</defs>
		<clipPath id="SVGID_24_">
			<use xlink:href="#SVGID_23_"  overflow="visible"/>
		</clipPath>
		
			<ellipse clip-path="url(#SVGID_24_)" fill="none" stroke="#EE3E0E" stroke-width="0.1797" stroke-miterlimit="10" cx="14.693" cy="15.395" rx="1.103" ry="1.199"/>
	</g>
	<g>
		<defs>
			<rect id="SVGID_25_" x="5.606" y="5.74" width="18.786" height="19.479"/>
		</defs>
		<clipPath id="SVGID_26_">
			<use xlink:href="#SVGID_25_"  overflow="visible"/>
		</clipPath>
		<path clip-path="url(#SVGID_26_)" fill="#EE3E0E" d="M18.598,14.195c-0.61,0-1.103,0.538-1.103,1.199
			c0,0.662,0.491,1.197,1.103,1.197c0.61,0,1.103-0.535,1.103-1.197C19.699,14.733,19.208,14.195,18.598,14.195"/>
	</g>
	<g>
		<defs>
			<rect id="SVGID_27_" x="5.606" y="5.74" width="18.786" height="19.479"/>
		</defs>
		<clipPath id="SVGID_28_">
			<use xlink:href="#SVGID_27_"  overflow="visible"/>
		</clipPath>
		
			<ellipse clip-path="url(#SVGID_28_)" fill="none" stroke="#EE3E0E" stroke-width="0.1797" stroke-miterlimit="10" cx="18.598" cy="15.395" rx="1.103" ry="1.199"/>
	</g>
	<g>
		<defs>
			<rect id="SVGID_29_" x="5.606" y="5.74" width="18.786" height="19.479"/>
		</defs>
		<clipPath id="SVGID_30_">
			<use xlink:href="#SVGID_29_"  overflow="visible"/>
		</clipPath>
		<path clip-path="url(#SVGID_30_)" fill="#EE3E0E" d="M10.79,18.178c-0.609,0-1.102,0.537-1.102,1.197
			c0,0.664,0.492,1.201,1.102,1.201s1.104-0.537,1.104-1.201C11.894,18.715,11.399,18.178,10.79,18.178"/>
	</g>
	<g>
		<defs>
			<rect id="SVGID_31_" x="5.606" y="5.74" width="18.786" height="19.479"/>
		</defs>
		<clipPath id="SVGID_32_">
			<use xlink:href="#SVGID_31_"  overflow="visible"/>
		</clipPath>
		
			<ellipse clip-path="url(#SVGID_32_)" fill="none" stroke="#EE3E0E" stroke-width="0.1797" stroke-miterlimit="10" cx="10.79" cy="19.377" rx="1.102" ry="1.199"/>
	</g>
	<g>
		<defs>
			<rect id="SVGID_33_" x="5.606" y="5.74" width="18.786" height="19.479"/>
		</defs>
		<clipPath id="SVGID_34_">
			<use xlink:href="#SVGID_33_"  overflow="visible"/>
		</clipPath>
		<path clip-path="url(#SVGID_34_)" fill="#EE3E0E" d="M14.693,18.178c-0.609,0-1.103,0.537-1.103,1.197
			c0,0.664,0.493,1.201,1.103,1.201c0.61,0,1.103-0.537,1.103-1.201C15.796,18.715,15.305,18.178,14.693,18.178"/>
	</g>
	<g>
		<defs>
			<rect id="SVGID_35_" x="5.606" y="5.74" width="18.786" height="19.479"/>
		</defs>
		<clipPath id="SVGID_36_">
			<use xlink:href="#SVGID_35_"  overflow="visible"/>
		</clipPath>
		
			<ellipse clip-path="url(#SVGID_36_)" fill="none" stroke="#EE3E0E" stroke-width="0.1797" stroke-miterlimit="10" cx="14.693" cy="19.377" rx="1.103" ry="1.199"/>
	</g>
	<g>
		<defs>
			<rect id="SVGID_37_" x="5.606" y="5.74" width="18.786" height="19.479"/>
		</defs>
		<clipPath id="SVGID_38_">
			<use xlink:href="#SVGID_37_"  overflow="visible"/>
		</clipPath>
		<path clip-path="url(#SVGID_38_)" fill="#EE3E0E" d="M18.598,18.178c-0.61,0-1.103,0.537-1.103,1.197
			c0,0.664,0.491,1.201,1.103,1.201c0.61,0,1.103-0.537,1.103-1.201C19.699,18.715,19.208,18.178,18.598,18.178"/>
	</g>
	<g>
		<defs>
			<rect id="SVGID_39_" x="5.606" y="5.74" width="18.786" height="19.479"/>
		</defs>
		<clipPath id="SVGID_40_">
			<use xlink:href="#SVGID_39_"  overflow="visible"/>
		</clipPath>
		
			<ellipse clip-path="url(#SVGID_40_)" fill="none" stroke="#EE3E0E" stroke-width="0.1797" stroke-miterlimit="10" cx="18.598" cy="19.377" rx="1.103" ry="1.199"/>
	</g>
</g>
</svg>
