<?xml version="1.0" encoding="utf-8"?>
<!-- Generator: Adobe Illustrator 16.0.0, SVG Export Plug-In . SVG Version: 6.00 Build 0)  -->
<!DOCTYPE svg PUBLIC "-//W3C//DTD SVG 1.1//EN" "http://www.w3.org/Graphics/SVG/1.1/DTD/svg11.dtd">
<svg version="1.1" id="Слой_1" xmlns="http://www.w3.org/2000/svg" xmlns:xlink="http://www.w3.org/1999/xlink" x="0px" y="0px"
	 width="30px" height="30px" viewBox="0 0 30 30" enable-background="new 0 0 30 30" xml:space="preserve">
<path fill="#EE3E0E" d="M27.787,15.39c-0.441,0.08-0.887,0.158-1.327,0.242c-1.073,0.199-2.149,0.402-3.222,0.604
	c-0.014,0.002-0.025,0-0.059,0.003c-0.078-0.412-0.156-0.826-0.238-1.255c1.535-0.288,3.065-0.574,4.606-0.863
	c0.072,0.382,0.142,0.752,0.213,1.122c0.005,0.023,0.017,0.046,0.025,0.07L27.787,15.39L27.787,15.39z"/>
<path fill="#EE3E0E" d="M21.088,12.668c-0.262-0.349-0.514-0.684-0.77-1.024c1.826-1.373,3.646-2.739,5.475-4.11
	c0.257,0.342,0.51,0.677,0.771,1.024C24.738,9.927,22.919,11.293,21.088,12.668"/>
<path fill="#EE3E0E" d="M18.234,9.27c-0.399-0.169-0.785-0.331-1.185-0.5c0.646-1.522,1.283-3.034,1.929-4.562
	c0.395,0.166,0.78,0.33,1.182,0.498C19.52,6.228,18.881,7.741,18.234,9.27"/>
<path fill="#EE3E0E" d="M23.9,20.111c-0.043-0.385-0.219-0.709-0.448-1.01c-2.774-3.63-5.548-7.262-8.322-10.893
	c-0.362-0.473-0.71-0.961-1.098-1.412c-0.457-0.531-1.044-0.74-1.736-0.531c-0.474,0.142-0.789,0.48-1.037,0.894
	c-2.739,4.567-5.477,9.135-8.22,13.699C2.778,21.295,2.6,21.75,2.56,22.256c-0.06,0.781,0.092,1.512,0.56,2.155
	c0.226,0.313,0.452,0.626,0.694,0.926c0.733,0.901,1.694,1.278,2.836,1.151c0.392-0.043,0.771-0.191,1.156-0.295
	c0.221-0.061,0.439-0.127,0.664-0.191c0.135,0.258,0.256,0.51,0.396,0.75c0.099,0.17,0.2,0.346,0.339,0.482
	c0.713,0.699,1.581,0.924,2.536,0.699c1.79-0.42,3.569-0.877,5.354-1.32c0.482-0.121,0.889-0.37,1.16-0.795
	c0.387-0.604,0.374-1.231,0.07-1.862c-0.113-0.235-0.247-0.461-0.379-0.703c0.059-0.019,0.103-0.032,0.146-0.046
	c1.407-0.408,2.814-0.816,4.223-1.225c0.301-0.088,0.604-0.168,0.865-0.353C23.711,21.262,23.971,20.764,23.9,20.111 M16.839,25.354
	c-0.217,0.065-0.438,0.114-0.659,0.168c-1.556,0.388-3.111,0.772-4.666,1.158c-0.309,0.076-0.613,0.066-0.912-0.037
	c-0.278-0.095-0.504-0.252-0.629-0.531c-0.07-0.154-0.158-0.305-0.244-0.473c0.418-0.123,0.82-0.24,1.224-0.356
	c1.868-0.542,3.735-1.082,5.604-1.63c0.105-0.029,0.148-0.008,0.196,0.088c0.12,0.236,0.252,0.468,0.379,0.699
	c0.022,0.043,0.046,0.084,0.065,0.127C17.357,24.93,17.221,25.24,16.839,25.354 M22.456,20.573c-0.093,0.052-0.194,0.09-0.296,0.118
	c-1.977,0.576-3.95,1.148-5.926,1.723c-3.168,0.92-6.336,1.84-9.504,2.759c-0.679,0.196-1.487-0.075-1.912-0.637
	c-0.198-0.265-0.396-0.528-0.595-0.793c-0.054-0.07-0.101-0.142-0.142-0.209c-0.18-0.298-0.252-0.589-0.252-0.976
	c-0.004-0.304,0.065-0.586,0.203-0.852c0.02-0.038,0.041-0.076,0.063-0.113c2.748-4.576,5.494-9.154,8.241-13.732
	c0.048-0.082,0.097-0.163,0.157-0.234c0.16-0.189,0.341-0.203,0.523-0.036c0.064,0.06,0.123,0.132,0.178,0.202
	c2.734,3.58,5.47,7.16,8.203,10.74c0.348,0.452,0.694,0.905,1.039,1.36c0.06,0.078,0.114,0.162,0.153,0.25
	C22.676,20.332,22.632,20.473,22.456,20.573"/>
</svg>
