<?xml version="1.0" standalone="no"?>
<!DOCTYPE svg PUBLIC "-//W3C//DTD SVG 1.1//EN" "http://www.w3.org/Graphics/SVG/1.1/DTD/svg11.dtd" >
<svg xmlns="http://www.w3.org/2000/svg" xmlns:xlink="http://www.w3.org/1999/xlink" version="1.1">
<metadata>
Created by FontForge 20170731 at Thu Jun  8 00:58:44 2017
 By Aleksey,,,
Copyright (c) 1994 Carter &#38; Cone Type, Inc. All rights reserved.

The digitally encoded machine readable software for producing the Typefaces licensed to you is the property of Carter &#38; Cone Type, Inc. and their licensors and may not be reproduced, used, displayed, modified, disclosed or transferred without the express written approval of Carter &#38; Cone Type, Inc.
</metadata>
<defs>
<font id="BigCaslon-Medium" horiz-adv-x="0" >
  <font-face 
    font-family="Big Caslon"
    font-weight="500"
    font-stretch="normal"
    units-per-em="1000"
    panose-1="2 0 6 3 9 0 0 2 0 3"
    ascent="800"
    descent="-200"
    x-height="473"
    cap-height="720"
    bbox="-399 -391 1814 1174"
    underline-thickness="20"
    underline-position="-163"
    unicode-range="U+001D-10089"
  />
<missing-glyph horiz-adv-x="500" 
d="M428 0h-356v758h356v-758zM355 685h-210v-612h210v612z" />
    <glyph glyph-name="ff" unicode="ff" horiz-adv-x="539" 
d="M648 676q0 14 -7.5 24t-19 16t-26 9t-29.5 3q-44 0 -83.5 -15.5t-68.5 -40.5q-8 23 -37 37t-80 14q-31 0 -61 -9.5t-56.5 -26.5t-47 -41.5t-32.5 -53.5q-9 -22 -11.5 -50t-2.5 -70h-57l-16 -43h72v-387q0 -8 -7.5 -13.5t-19 -9t-24.5 -6t-25 -3.5v-10h235v10
q-10 1 -22.5 2.5t-24 4.5t-19.5 8t-10 13v391h186v-387q0 -8 -7.5 -13.5t-18.5 -9t-24 -6t-25 -3.5v-10h244v10q-10 2 -24 2.5t-27 3t-23 7.5t-12 15v391h103l16 43h-118v33v29q0 15 0.5 31t1.5 36q2 34 11 54t20.5 30t22.5 12.5t17 2.5q14 -3 24 -14t19.5 -22.5t21.5 -20.5
t30 -9q19 0 30.5 12t11.5 30zM375 624q-13 -24 -16 -67t-3 -85h-188v28q0 11 0.5 20.5t1.5 21.5t2 32q3 47 18 73t32.5 39t33.5 15.5t22 2.5q23 -3 34.5 -14.5t19.5 -25t17 -25.5t26 -15z" />
    <glyph glyph-name="fi" unicode="fi" horiz-adv-x="520" 
d="M499 0v10q-10 2 -20.5 2.5t-19.5 2.5t-15.5 6.5t-8.5 14.5v448h-6l-29 -11h-231v29t0.5 21.5t1.5 23t2 32.5q3 47 18 73.5t34 39.5t39 15.5t34 2.5q16 -10 22.5 -25.5t13 -29t17.5 -23.5t35 -10q14 0 26.5 11.5t12.5 31.5q0 30 -35.5 46.5t-91.5 16.5q-63 0 -117.5 -34.5
t-80.5 -96.5q-9 -22 -11.5 -52t-2.5 -72h-61l-16 -44h76v-387q0 -8 -7.5 -13.5t-19 -9t-24.5 -6t-25 -3.5v-10h235v10q-10 2 -22.5 2.5t-23.5 3t-19.5 7.5t-10.5 15v393h169q9 -2 12 -7t3 -13v-369q0 -9 -6.5 -15t-16 -9.5t-21.5 -5t-24 -2.5v-10h215z" />
    <glyph glyph-name="fl" unicode="fl" horiz-adv-x="520" 
d="M510 0v11q-19 2 -33 2.5t-23 2.5t-13.5 7t-4.5 15v692h-6l-25 -35q-17 12 -43.5 21t-64.5 9q-31 0 -61 -9t-56 -26t-47 -41.5t-33 -54.5q-9 -22 -11.5 -50.5t-2.5 -70.5h-60l-16 -44h75v-387q0 -8 -7.5 -13.5t-19 -9t-24.5 -6t-25 -3.5v-10h236v10q-10 2 -22.5 2.5t-24 3
t-20 7.5t-10.5 15v393h185v-388q0 -16 -15 -22.5t-61 -9.5v-11h233zM354 473h-185v29t0.5 20.5t1.5 21.5t2 32q3 47 18 73t32.5 39t33.5 15.5t22 2.5q27 -11 44 -28t31 -40v-165z" />
    <glyph glyph-name="ffi" unicode="ffi" horiz-adv-x="793" 
d="M772 0v10q-10 2 -20.5 2.5t-19.5 2.5t-15.5 6.5t-8.5 14.5v460h-8q-4 -9 -8.5 -14.5t-16.5 -9.5h-235v28q0 11 0.5 20.5t1 21t1.5 31.5q2 37 13 63t27 42t33 23.5t31 7.5h10q5 0 10 -2q19 -12 25.5 -27t12.5 -28t16.5 -21.5t36.5 -8.5q14 0 26.5 11.5t12.5 31.5
q0 25 -29 44t-96 19q-42 0 -82 -20t-66 -58q-7 11 -15 23.5t-22 23.5t-35.5 18.5t-54.5 7.5q-31 0 -61 -9.5t-56.5 -26.5t-47 -41.5t-32.5 -53.5q-9 -22 -11.5 -50t-2.5 -70h-49l-24 -44h72v-386q0 -8 -7.5 -13.5t-19 -9t-24.5 -6t-25 -3.5v-10h233v10q-10 2 -22 2.5t-23 3
t-19 7.5t-10 15v390h189v-386q0 -8 -7 -13.5t-18 -9t-24 -6t-25 -3.5v-10h233v10q-10 2 -22.5 2.5t-23.5 3t-19.5 7.5t-10.5 15v392h170q8 0 11.5 -5.5t3.5 -13.5v-369q0 -9 -6.5 -15t-16 -9.5t-21.5 -5t-24 -2.5v-10h215zM358 472h-190v27t0.5 20t1.5 22.5t2 32.5
q3 47 18 73t32.5 39t33.5 15.5t22 2.5q22 -3 36.5 -13t23.5 -21.5t14 -23t6 -18.5v-156z" />
    <glyph glyph-name="ffl" unicode="ffl" horiz-adv-x="792" 
d="M782 0v11q-38 4 -56 7t-18 19v693h-6l-25 -35q-17 12 -44.5 21t-65.5 9q-46 0 -82.5 -19.5t-62.5 -48.5q-14 30 -43 48t-82 18q-31 0 -61 -9.5t-56.5 -26.5t-47 -41.5t-32.5 -53.5q-9 -22 -11.5 -50t-2.5 -70h-57l-16 -43h72v-387q0 -8 -7.5 -13.5t-19 -9t-24.5 -6
t-25 -3.5v-10h235v10q-10 2 -22.5 2.5t-23.5 3t-19.5 7.5t-10.5 15v391h187v-387q0 -8 -7.5 -13.5t-19 -9t-24.5 -6t-25 -3.5v-10h236v10q-10 2 -22.5 2.5t-24 3t-20 7.5t-10.5 15v393h187v-388q0 -16 -14 -22.5t-60 -9.5v-11h231zM626 472h-188v29t0.5 21t1 22t1.5 32
q3 47 18 73t33 39t34.5 15.5t22.5 2.5q27 -11 45 -28t32 -40v-166zM357 472h-189v28q0 11 0.5 20.5t1.5 21.5t2 32q4 47 18.5 73.5t32 39t33.5 15.5t22 3q19 -3 33.5 -13.5t24.5 -23.5t15 -25t6 -18v-153z" />
    <glyph glyph-name=".notdef" horiz-adv-x="500" 
d="M428 0h-356v758h356v-758zM355 685h-210v-612h210v612z" />
    <glyph glyph-name=".null" 
 />
    <glyph glyph-name=".null" 
 />
    <glyph glyph-name=".null" 
 />
    <glyph glyph-name="nonmarkingreturn" horiz-adv-x="500" 
 />
    <glyph glyph-name="space" unicode=" " horiz-adv-x="210" 
 />
    <glyph glyph-name="space" unicode="&#xd;" horiz-adv-x="210" 
 />
    <glyph glyph-name="space" unicode="&#x9;" horiz-adv-x="210" 
 />
    <glyph glyph-name="exclam" unicode="!" horiz-adv-x="303" 
d="M219 562q0 23 -6 49t-15 48.5t-20 37.5t-21 15q-11 0 -22.5 -15t-20.5 -37.5t-15 -48.5t-6 -49q2 -3 9.5 -22.5t17.5 -62t19 -112.5t13 -174h12q4 105 12.5 175t17.5 112.5t16.5 61.5t8.5 22zM216 55q0 26 -16.5 44.5t-42.5 18.5t-43 -17.5t-17 -43.5t17 -41.5t43 -15.5
t42.5 14.5t16.5 40.5z" />
    <glyph glyph-name="quotedbl" unicode="&#x22;" horiz-adv-x="356" 
d="M292 676q0 21 -15 35.5t-30 14.5t-29.5 -14.5t-14.5 -36.5q0 -19 13.5 -83.5t24.5 -167.5h12q6 51 12.5 94t12.5 75t10 53.5t4 29.5zM153 676q0 21 -15 35.5t-30 14.5t-29.5 -14.5t-14.5 -36.5q0 -19 13.5 -83.5t24.5 -167.5h12q6 51 12.5 94t12.5 75t10 53.5t4 29.5z
" />
    <glyph glyph-name="numbersign" unicode="#" horiz-adv-x="749" 
d="M660 431h-152l69 191l-24 6l-71 -197h-119l67 191l-24 6l-71 -197h-154l-27 -69h157l-45 -127h-147l-28 -68h151l-68 -190l24 -6l70 196h121l-68 -190l24 -6l70 196h154l28 68h-158l44 127h149zM460 362l-45 -127h-127l47 127h125z" />
    <glyph glyph-name="dollar" unicode="$" horiz-adv-x="482" 
d="M438 145q0 51 -30.5 86.5t-84.5 52.5q-11 3 -19.5 6t-19.5 7v217q29 -9 41.5 -32t12.5 -52q0 -11 -1.5 -18.5t-4.5 -15.5q4 -15 15.5 -25t28.5 -10q21 0 35 15.5t14 36.5q0 49 -40.5 79t-100.5 38l1 118h-19l1 -116q-6 1 -13 1h-12h-13q-6 0 -12 -1l1 116h-19l1 -118
q-31 -5 -58 -17t-46.5 -31t-31 -44.5t-11.5 -57.5q0 -49 30.5 -82.5t75.5 -50.5q7 -2 18.5 -6.5t22.5 -7.5v-222q-40 8 -54 32.5t-14 54.5q0 11 1.5 18.5t4.5 15.5q-4 15 -16.5 25t-29.5 10q-20 0 -35 -15.5t-15 -36.5q0 -51 43 -82t115 -36l-1 -142h19l-1 140h22h14t14 1
l-1 -141h19l-1 143q69 9 111.5 49.5t42.5 97.5zM200 321q-32 13 -52.5 35.5t-20.5 60.5t19.5 62.5t53.5 34.5v-193zM267 301q-25 7 -50 15v201q5 1 11.5 1.5t12.5 0.5q7 0 14 -0.5t12 -1.5v-216zM267 10q-6 -1 -13.5 -1.5t-15.5 -0.5h-11q-5 0 -10 1v219q13 -3 25 -6t25 -8
v-204zM359 116q0 -36 -19 -63.5t-56 -38.5v195q31 -11 53 -32.5t22 -60.5z" />
    <glyph glyph-name="percent" unicode="%" horiz-adv-x="647" 
d="M308 526q0 32 -11 56.5t-28.5 41t-40 25.5t-46.5 9q-28 0 -52.5 -10.5t-42 -28.5t-27.5 -41.5t-10 -49.5q0 -36 12.5 -62.5t32 -43t42.5 -24.5t44 -8q25 0 48 10t40.5 28t28 43t10.5 55zM550 624l-24 16l-425 -618l24 -15zM607 132q0 32 -11 56.5t-28.5 41t-40 25.5
t-46.5 9q-28 0 -52.5 -10.5t-42 -28.5t-27.5 -41.5t-10 -49.5q0 -36 12.5 -62.5t32 -43t42.5 -23.5t44 -7q25 0 48 9t40.5 27t28 43t10.5 55zM274 523q0 -21 -6.5 -40t-18.5 -33.5t-29.5 -23.5t-38.5 -9t-39 9t-30.5 23.5t-19.5 33.5t-7 40t7 40.5t19.5 34.5t30 24t38.5 9
t38.5 -9t30 -24t19 -34.5t6.5 -40.5zM573 129q0 -21 -6.5 -40t-18.5 -33.5t-29.5 -23.5t-38.5 -9t-39 9t-30.5 23.5t-19.5 33.5t-7 40t7 40.5t19.5 34.5t30 24t38.5 9t38.5 -9t30 -24t19 -34.5t6.5 -40.5z" />
    <glyph glyph-name="ampersand" unicode="&#x26;" horiz-adv-x="854" 
d="M875 484v12l-349 -8v-12q23 -1 46 -2.5t42 -7.5t30.5 -18t11.5 -34q0 -13 -9 -34.5t-24.5 -47.5t-36 -55t-43.5 -58q-17 28 -40.5 61t-51.5 65q-25 28 -51 54.5t-57 50.5q10 6 29 19t37.5 32.5t32.5 45.5t14 58t-13 56t-33.5 39.5t-46.5 23.5t-53 8q-31 0 -61.5 -11
t-55 -30.5t-40 -47t-15.5 -60.5t8.5 -57t22.5 -44t33 -38.5t41 -41.5q-34 -17 -69 -39.5t-63.5 -51t-46 -64t-17.5 -77.5q0 -36 13.5 -69t38.5 -57.5t62 -38t83 -13.5q41 0 78 13.5t67.5 34.5t53.5 45t36 43q17 -27 38 -52.5t45.5 -45.5t52.5 -31.5t61 -11.5q35 0 67.5 14
t58.5 36t44.5 47.5t25.5 45.5l-9 4q-7 -12 -19 -26t-27 -26t-32.5 -20t-37.5 -8q-39 0 -65.5 17t-52.5 44q-27 28 -45 51.5t-32 41.5q40 46 76 92.5t73.5 85t79.5 65t94 33.5zM383 585q0 -42 -11.5 -71t-37.5 -56q-27 24 -46.5 41.5t-36.5 41.5q-15 21 -21 39t-6 50
q0 12 4 26t12 26t21 20t31 8q20 0 37 -11t29 -28.5t18.5 -40t6.5 -45.5zM472 139q-21 -19 -40 -33.5t-39.5 -24t-44.5 -14.5t-55 -5t-57 11.5t-45 32t-29 47.5t-10 57t9.5 57.5t24.5 50.5t33 42t35 33q10 -9 24.5 -22t30 -27.5t30 -29.5t24.5 -27q18 -22 32.5 -39.5t27 -34
t24.5 -34t25 -40.5z" />
    <glyph glyph-name="quotesingle" unicode="'" horiz-adv-x="222" 
d="M155 676q0 21 -15 35.5t-30 14.5t-29.5 -14.5t-14.5 -36.5q0 -19 13.5 -83.5t24.5 -167.5h12q6 51 12.5 94t12.5 75t10 53.5t4 29.5z" />
    <glyph glyph-name="parenleft" unicode="(" horiz-adv-x="313" 
d="M293 -128q-40 28 -79 67t-70.5 90.5t-51 118t-19.5 147.5q0 80 18.5 144t49 115.5t70.5 92t82 71.5l-14 13q-46 -34 -89.5 -75t-77.5 -93.5t-55 -118t-21 -149.5q0 -87 22 -154t56.5 -118.5t78.5 -91.5t87 -72z" />
    <glyph glyph-name="parenright" unicode=")" horiz-adv-x="313" 
d="M277 295q0 84 -21 149.5t-55 118t-77.5 93.5t-89.5 75l-14 -13q42 -31 82 -71.5t70.5 -92t49 -115.5t18.5 -144q0 -81 -19.5 -147.5t-51 -118t-70.5 -90.5t-79 -67l13 -13q44 32 87.5 72t78 91.5t56.5 118.5t22 154z" />
    <glyph glyph-name="asterisk" unicode="*" horiz-adv-x="388" 
d="M348 470q-10 20 -21 28.5t-32 21.5t-39.5 16.5t-42.5 10.5v13q23 8 41.5 12t40.5 17q20 12 31 22t22 28l-4 7q-10 0 -18 -1.5t-15.5 -3.5t-16 -6.5t-19.5 -10.5q-12 -7 -20.5 -13.5t-15.5 -13.5l-14 -14t-16 -15l-11 6q5 24 11 44t6 41t-4.5 37t-13.5 35h-8
q-9 -19 -13 -35t-4 -37q0 -24 6 -43t11 -42l-10 -6q-10 8 -16.5 14.5l-13 13t-15 13.5t-21.5 15q-18 11 -33 16t-37 6l-3 -7q11 -18 22.5 -28.5t29.5 -21.5q19 -12 39.5 -16.5t43.5 -12.5v-13q-24 -7 -42.5 -10.5t-40.5 -16.5q-18 -10 -29.5 -20t-23.5 -29l4 -6q22 1 37.5 5
t32.5 15q19 11 33 25.5t34 29.5l9 -4q-5 -25 -11 -42.5t-6 -42.5q0 -21 4 -37.5t13 -35.5h8q9 19 13.5 35.5t4.5 37.5q0 22 -6.5 41.5t-11.5 43.5l10 5q18 -16 33.5 -30.5t34.5 -25.5q17 -11 32.5 -15.5t36.5 -5.5z" />
    <glyph glyph-name="plus" unicode="+" horiz-adv-x="700" 
d="M575 241v39h-205v205h-40v-205h-205v-39h205v-206h40v206h205z" />
    <glyph glyph-name="comma" unicode="," horiz-adv-x="243" 
d="M206 0q0 20 -6.5 40t-18.5 35.5t-28.5 25t-37.5 9.5q-26 0 -45 -15.5t-19 -44.5q0 -23 13.5 -36.5t34.5 -13.5q23 0 35.5 11.5t14.5 31.5q11 -2 18 -18.5t7 -32.5q0 -41 -17.5 -70t-46.5 -55l7 -7q17 12 32.5 26.5t28.5 32t20.5 38t7.5 43.5z" />
    <glyph glyph-name="hyphen" unicode="-" horiz-adv-x="256" 
d="M243 225v70h-231v-70h231z" />
    <glyph glyph-name="period" unicode="." horiz-adv-x="243" 
d="M182 54q0 26 -16 44.5t-42 18.5t-43 -17.5t-17 -43.5t17 -41.5t43 -15.5t42 14.5t16 40.5z" />
    <glyph glyph-name="slash" unicode="/" horiz-adv-x="311" 
d="M353 747l-33 13l-370 -891l33 -12z" />
    <glyph glyph-name="zero" unicode="0" horiz-adv-x="533" 
d="M506 243q0 57 -20 101.5t-53 75t-75 46.5t-86 16q-54 0 -99 -19.5t-77.5 -52t-50.5 -75t-18 -89.5q0 -66 23 -113.5t59 -78t78.5 -44t81.5 -13.5q47 0 90 17.5t75.5 50.5t52 78.5t19.5 99.5zM458 238q0 -40 -13.5 -76.5t-38.5 -64t-60 -44t-77 -16.5t-77.5 16.5t-61.5 44
t-40.5 64t-14.5 76.5t14.5 76.5t40 64.5t60.5 44.5t77 16.5q43 0 78 -16.5t60 -44.5t39 -64.5t14 -76.5z" />
    <glyph glyph-name="one" unicode="1" horiz-adv-x="316" 
d="M281 0v11q-12 0 -26 2t-26 7t-20 13t-8 21v364q0 12 7.5 20t19.5 13.5t26 8t27 2.5v11h-243v-11q14 0 28 -2.5t25.5 -7.5t19 -13t7.5 -20v-364q0 -11 -7 -19.5t-17.5 -13.5t-24 -8t-27.5 -3v-11h239z" />
    <glyph glyph-name="two" unicode="2" horiz-adv-x="436" 
d="M437 134l-10 3q-5 -11 -10.5 -20.5t-15 -17t-25 -11.5t-42.5 -4h-180v2q32 30 66.5 62t63 66.5t47 72.5t18.5 80q0 54 -33.5 85t-83.5 31q-37 0 -70 -17.5t-60.5 -42.5t-47.5 -52.5t-31 -47.5l10 -6q24 39 59.5 66.5t86.5 27.5q24 0 42 -9t29.5 -24t17.5 -34.5t6 -39.5
q0 -37 -23.5 -77.5t-58.5 -79.5t-75 -74.5t-74 -64.5l3 -8h341z" />
    <glyph glyph-name="three" unicode="3" horiz-adv-x="396" 
d="M370 -1q0 32 -14 61t-37.5 51.5t-54 37.5t-63.5 22q31 24 56.5 46t44 44t28.5 45t10 49q0 57 -43 92.5t-111 35.5q-32 0 -57.5 -11t-45.5 -29t-35.5 -40.5t-26.5 -46.5l9 -5q22 34 51 47.5t72 13.5q44 0 74.5 -24t30.5 -65q0 -37 -16 -68t-40.5 -58t-54 -50t-55.5 -43
l3 -6h13q36 0 68.5 -11t57 -31.5t39 -48.5t14.5 -64q0 -53 -19.5 -85.5t-45 -50.5t-49 -24.5t-31.5 -6.5q-21 0 -36 11.5t-27 25.5t-24 25.5t-29 11.5q-20 0 -27.5 -11t-7.5 -27t7 -27.5t19.5 -19t28 -11.5t29.5 -4q59 0 112 18t94 50.5t65 78.5t24 102z" />
    <glyph glyph-name="four" unicode="4" horiz-adv-x="551" 
d="M525 5v77h-138v401h-29l-312 -399l-46 -67q-5 -8 -2.5 -10t9.5 -2h294v-231h88v231h136zM301 82h-235l235 297v-297z" />
    <glyph glyph-name="five" unicode="5" horiz-adv-x="393" 
d="M385 511l-12 4q-9 -21 -20 -31.5t-44 -10.5h-213l-44 -431l10 -2q6 17 14 29.5t19 21t27.5 13t39.5 4.5q22 0 45 -8t42 -26t31 -47t12 -74q0 -32 -7 -64.5t-22.5 -58t-39 -41.5t-56.5 -16t-48.5 15.5t-26 34t-21.5 34t-35 15.5q-16 0 -26 -11.5t-10 -27.5
q0 -23 12.5 -38.5t32 -25.5t44 -14.5t49.5 -4.5q40 0 82 18t76 50.5t55.5 77.5t21.5 99q0 41 -14 78t-41 64.5t-68 43.5t-95 16q-20 0 -35.5 -1.5t-33.5 -4.5l17 186h239q14 47 25 81.5t18 52.5z" />
    <glyph glyph-name="six" unicode="6" horiz-adv-x="512" 
d="M487 237q0 44 -16 82.5t-45 67.5t-69.5 45.5t-90.5 16.5q-23 0 -38.5 -2.5t-32.5 -7.5q27 53 60.5 96.5t71.5 78t77.5 60t78.5 42.5l-8 12q-47 -13 -98 -37t-101 -57t-95 -75.5t-79.5 -91.5t-54.5 -104t-20 -115q0 -49 18 -94.5t49 -80t72.5 -54t87.5 -19.5q52 0 95 18.5
t73.5 51.5t47.5 76t17 91zM396 196q0 -91 -39 -136.5t-100 -45.5q-64 0 -101.5 49.5t-37.5 139.5q0 54 14 108.5t53 97.5q11 12 25 16.5t31 4.5q41 0 70.5 -21.5t48 -55t27.5 -75t9 -82.5z" />
    <glyph glyph-name="seven" unicode="7" horiz-adv-x="444" 
d="M459 473h-390l-65 -168l12 -4q5 12 12.5 27t20.5 28.5t33.5 22.5t52.5 9h271q-21 -51 -50.5 -115t-61.5 -131t-64 -131.5t-58.5 -118t-45 -90.5l-23.5 -47l67 -3q30 78 62 160t63.5 159t59.5 147t50.5 124.5t36.5 89t17 41.5z" />
    <glyph glyph-name="eight" unicode="8" horiz-adv-x="486" 
d="M453 193q0 40 -17.5 71t-42 55t-52.5 40.5t-49 28.5q29 18 56.5 37.5t48.5 42t33.5 48t12.5 55.5q0 32 -14 60.5t-39.5 49.5t-62.5 33.5t-84 12.5q-37 0 -73 -14.5t-64 -39.5t-45 -59t-17 -74q0 -36 11.5 -65t30.5 -52.5t43.5 -43.5t50.5 -38q-25 -17 -50.5 -36
t-46.5 -41.5t-34 -48.5t-13 -57q0 -37 17.5 -67.5t46 -52t64 -32t70.5 -10.5q45 0 85 14t69.5 40.5t47 63t17.5 79.5zM375 571q0 -60 -24.5 -102.5t-75.5 -71.5q-24 14 -51.5 31t-51.5 40.5t-39.5 53.5t-15.5 69q0 29 10.5 51t28.5 37t41 23t48 8q31 0 55.5 -11t41 -30
t25 -44.5t8.5 -53.5zM371 138q0 -23 -6.5 -45.5t-20.5 -40.5t-37.5 -29.5t-56.5 -11.5q-62 0 -102 40t-40 112q0 21 5.5 45t16.5 47.5t27.5 44t39.5 33.5q40 -19 72 -39t54.5 -43.5t35 -50.5t12.5 -62z" />
    <glyph glyph-name="nine" unicode="9" horiz-adv-x="512" 
d="M486 231q0 50 -18 96t-49 80.5t-73.5 55t-91.5 20.5q-48 0 -90 -19t-72.5 -51t-48 -74t-17.5 -89q0 -46 15 -86t43.5 -69.5t69 -46.5t92.5 -17q23 0 43.5 3t42.5 12q-26 -58 -58 -104.5t-69 -81.5t-77.5 -59.5t-82.5 -42.5l6 -15q73 19 150 63t140.5 107.5t104 144
t40.5 173.5zM393 261q0 -51 -10.5 -97t-42.5 -87q-12 -15 -29 -20t-38 -5q-41 0 -71 23t-50 58.5t-29.5 78.5t-9.5 84q0 81 38.5 126t102.5 45q36 0 62 -18t43.5 -47t25.5 -66t8 -75z" />
    <glyph glyph-name="colon" unicode=":" horiz-adv-x="263" 
d="M192 364q0 23 -17.5 40t-40.5 17t-41 -15.5t-18 -41.5t18 -41.5t41 -15.5t40.5 16t17.5 41zM192 54q0 23 -17.5 40t-40.5 17t-41 -15.5t-18 -41.5q0 -27 18 -41t41 -14t40.5 15t17.5 40z" />
    <glyph glyph-name="semicolon" unicode=";" horiz-adv-x="263" 
d="M174 250q0 23 -16.5 39t-39.5 16t-40 -15t-17 -40q0 -26 17 -40.5t40 -14.5t39.5 15.5t16.5 39.5zM201 8q0 20 -7 36.5t-18.5 28.5t-26 19t-30.5 7q-23 0 -41 -16t-18 -39q0 -20 13 -34.5t35 -14.5q13 0 25.5 6.5t18.5 21.5q10 -4 13 -13.5t3 -23.5q0 -43 -27.5 -76
t-70.5 -41l3 -10q23 2 46 14.5t41 32.5t29.5 46.5t11.5 55.5z" />
    <glyph glyph-name="less" unicode="&#x3c;" horiz-adv-x="667" 
d="M606 545l-545 -272l545 -273v61l-431 212l431 217v55z" />
    <glyph glyph-name="equal" unicode="=" horiz-adv-x="700" 
d="M555 300v39h-410v-39h410zM555 186v39h-410v-39h410z" />
    <glyph glyph-name="greater" unicode="&#x3e;" horiz-adv-x="667" 
d="M61 0l545 273l-545 272v-61l431 -211l-431 -217v-56z" />
    <glyph glyph-name="question" unicode="?" horiz-adv-x="383" 
d="M311 447q0 22 -1.5 47.5t-7.5 51t-16.5 48.5t-28.5 39q-26 25 -55.5 33t-74.5 8v49h-17v-156q17 2 33 3t23 1q22 0 44.5 -3.5t40.5 -14.5t29 -31t11 -52q0 -25 -4.5 -42t-14.5 -29t-25 -20.5t-35 -14.5q-24 -8 -49.5 -12.5t-51.5 -9.5v-175h18v81q60 12 94.5 23t54.5 30
q10 9 16.5 26.5t10 38.5t5 42.5t1.5 38.5zM192 55q0 26 -16.5 44.5t-42.5 18.5t-43 -17.5t-17 -43.5t17 -41.5t43 -15.5t42.5 14.5t16.5 40.5z" />
    <glyph glyph-name="at" unicode="@" horiz-adv-x="868" 
d="M825 337q0 64 -25.5 117t-69 90.5t-102 58t-125.5 20.5q-93 0 -174.5 -36.5t-142.5 -98.5t-96.5 -145.5t-35.5 -176.5q0 -76 25.5 -138.5t72.5 -108t113 -71t146 -25.5q186 0 311 120l-8 9q-64 -53 -131.5 -82t-154.5 -29q-70 0 -129.5 21.5t-103 61.5t-67.5 96.5
t-24 128.5q0 84 31.5 165t87 144t132 102t166.5 39q60 0 112 -18.5t90 -52.5t59.5 -81.5t21.5 -105.5q0 -55 -18 -106t-51.5 -91t-81 -64t-107.5 -24q-8 0 -14.5 1t-14.5 2l170 408h-59l-25 -35q-10 12 -23.5 21t-30.5 9q-29 0 -66 -19t-75.5 -51t-75.5 -73t-66 -84.5
t-46.5 -86.5t-17.5 -78q0 -20 10 -35t39 -15q32 0 66.5 17t68 43t64.5 58.5t56 62.5l6 -2l-71 -164q32 -17 75 -17q68 0 124.5 26t97.5 69.5t64 101.5t23 122zM570 389q0 -31 -14 -66.5t-36 -71.5t-50 -69t-56 -58.5t-53 -41t-42 -15.5q-18 0 -27 11t-9 26q0 27 13 62.5
t34 73t47.5 74t53.5 65t52 46t43 17.5q22 0 33 -17t11 -36z" />
    <glyph glyph-name="A" unicode="A" horiz-adv-x="704" 
d="M444 0v10q3 0 14.5 2t24 7t22 14t9.5 23q0 9 -5.5 29.5t-15.5 50t-23 65.5t-28 75h-266q-15 -38 -29 -72.5t-28 -69.5q-21 -54 -21 -76q0 -13 8 -21.5t20.5 -14t27 -8t27.5 -4.5v-10h-213v11q26 3 44.5 14t21.5 15q7 7 23 33t39 77q21 47 47 107t53.5 123.5t54.5 128
t51 120.5l-10 22q18 8 32.5 19t25.5 23t18.5 23t11.5 18h8q31 -83 59 -157.5t53.5 -143.5t49.5 -133.5t48 -127.5q11 -31 20.5 -51.5t21.5 -46.5q2 -4 9 -14t18.5 -20.5t28.5 -18.5t40 -9v-12h-292zM313 606q-6 -13 -17.5 -41t-28.5 -68t-37.5 -90.5t-44.5 -109.5h249
q-17 45 -34.5 90t-34 86.5t-30 76t-22.5 56.5z" />
    <glyph glyph-name="B" unicode="B" horiz-adv-x="745" 
d="M684 197q0 40 -16.5 71.5t-44 54.5t-62.5 36.5t-71 17.5v4q68 14 110.5 54.5t42.5 106.5q0 60 -33 99t-84 58q-32 12 -66.5 16.5t-72.5 4.5h-337v-10q27 -3 42 -8.5t30 -21.5q6 -6 9.5 -19.5t6 -30.5t3.5 -35.5t1 -36.5q0 -30 0.5 -53t0.5 -45v-44v-53v-58
q0 -30 -0.5 -58.5t-1 -52.5t-0.5 -38q0 -16 -1 -32.5t-3.5 -31.5t-5.5 -26.5t-8 -17.5q-14 -16 -36.5 -25t-47.5 -13v-10h345q44 0 91 3t85 17q22 8 44 23.5t40 37.5t29 51t11 65zM528 542q0 -68 -46.5 -114t-136.5 -51q-14 -1 -37 -1h-56v32v64q0 38 0.5 80t1.5 77
q1 18 1.5 29t1 18.5t1.5 12.5t2 11q9 3 26 5t38 2q70 0 115 -20q38 -17 63.5 -56t25.5 -89zM567 186q0 -51 -23 -87.5t-65 -58.5q-32 -17 -66 -21t-63 -4q-34 0 -52 7.5t-27 18.5q-12 16 -14.5 40.5t-3.5 62.5q0 17 -0.5 40.5t-0.5 51.5v61v64h97q29 0 50.5 -2.5t43.5 -9.5
q27 -9 49.5 -24.5t39 -37t26 -47t9.5 -54.5z" />
    <glyph glyph-name="C" unicode="C" horiz-adv-x="776" 
d="M727 489v224h-11q-6 -9 -13 -17.5t-13.5 -15t-12 -11t-7.5 -4.5t-18 11t-46 24t-75 24t-105 11q-66 0 -119 -14t-95 -37.5t-73 -54.5t-52 -65q-18 -29 -29.5 -57.5t-18 -54.5t-9 -49t-2.5 -41q0 -81 28 -148.5t80.5 -116t127.5 -75t168 -26.5q56 0 99 9.5t73 22t46 23
t18 10.5q5 0 18 -14t25 -31h12l3 220h-12q-9 -43 -33.5 -83.5t-60 -71.5t-81 -50t-97.5 -19q-66 0 -120 27t-92 73.5t-58.5 109.5t-20.5 135q0 68 19.5 132.5t56 115.5t90.5 82t123 31q50 0 94.5 -18t80 -49t61.5 -73t39 -90z" />
    <glyph glyph-name="D" unicode="D" horiz-adv-x="852" 
d="M822 370q0 65 -16.5 115.5t-44 89t-64.5 66.5t-79 46q-32 14 -65 21t-66 10t-66 3h-64q-112 0 -191 -0.5t-121 -0.5v-10q26 -3 47 -10t36 -25q6 -7 9 -19.5t4.5 -28t1.5 -33.5v-36v-195v-58q0 -30 -0.5 -58.5t-1 -52.5t-0.5 -38q0 -16 -1 -33t-3 -32t-4.5 -27t-7.5 -17
q-12 -14 -35.5 -24t-48.5 -13v-10h365q46 0 95 6.5t95 22.5t87 43t72 68t49 98t18 132zM699 368q0 -131 -53.5 -220.5t-161.5 -120.5q-23 -7 -49.5 -9.5t-51.5 -2.5q-27 0 -57.5 5.5t-50.5 25.5q-6 6 -10.5 18.5t-6.5 28t-3.5 32t-1.5 30.5q-1 33 -1 85v117q0 119 1 205
t6 135q7 2 18.5 3t25 2.5t27.5 2t26 0.5q35 0 59 -2.5t44 -6.5q52 -9 96 -40t76 -75.5t50 -99.5t18 -113z" />
    <glyph glyph-name="E" unicode="E" horiz-adv-x="711" 
d="M703 191l-11 3q-25 -43 -48.5 -73.5t-48.5 -51.5t-52 -32.5t-59 -15.5q-29 -4 -55.5 -5t-43.5 -1q-40 0 -74 6t-43 20t-11.5 42.5t-3.5 60.5q0 10 -0.5 24.5t-0.5 30.5v34v30v56t2 41h26h20q10 0 20 -0.5t25 -1.5q30 -2 52.5 -11t38.5 -23q18 -17 34.5 -51t24.5 -66h12
v315h-12q-6 -28 -13.5 -50.5t-20 -39.5t-32.5 -29t-50 -19q-13 -3 -32.5 -4.5t-39 -2.5t-34.5 -1h-20v11q0 9 -0.5 25.5t-0.5 42.5v64q0 66 1.5 116t3.5 66q10 2 32.5 3.5t43.5 1.5q66 0 112 -6t63 -14q71 -35 152 -136l10 5l-68 165h-552v-10q27 -4 44 -8.5t32 -20.5
q6 -6 9.5 -19.5t5 -30.5t2 -36t0.5 -37v-195v-58q0 -30 -0.5 -58.5t-1 -52.5t-0.5 -38q0 -16 -1 -32.5t-3.5 -31.5t-5.5 -26.5t-8 -17.5q-14 -16 -35.5 -25t-46.5 -13v-10h612z" />
    <glyph glyph-name="F" unicode="F" horiz-adv-x="656" 
d="M674 552l-68 168h-556v-10q27 -4 44 -8.5t32 -20.5q6 -6 9.5 -19.5t5 -30.5t2 -36t0.5 -37v-195v-58q0 -30 -0.5 -58.5t-1 -52.5t-0.5 -38q0 -16 -1 -32.5t-3.5 -31.5t-5.5 -26.5t-8 -17.5q-14 -16 -35.5 -25t-46.5 -13v-10h320v10q-41 2 -62.5 9.5t-30.5 21.5
t-11.5 42.5t-3.5 60.5q0 17 -0.5 40.5t-0.5 51.5v60v64h27h21t21 -0.5t26 -1.5q29 -2 50.5 -10.5t40.5 -25.5q21 -19 36 -54.5t23 -67.5h12v322h-12q-4 -25 -9 -46.5t-17 -39.5t-33 -31t-57 -21q-14 -3 -35 -4.5t-40.5 -2.5t-35.5 -1h-18v31v64t0.5 78.5t1.5 76.5
q1 18 2 30.5t2 20.5t2.5 14t2.5 12q5 0 15.5 0.5t22.5 1t25 1t23 0.5q59 0 103.5 -5.5t61.5 -13.5q35 -17 72 -53t78 -87z" />
    <glyph glyph-name="G" unicode="G" horiz-adv-x="825" 
d="M791 333v10h-293v-10q58 -5 81 -31q17 -18 20.5 -46t3.5 -63t-4 -68t-12 -46q-24 -37 -65.5 -53.5t-89.5 -16.5q-67 0 -119 25.5t-88 71.5t-55 110.5t-19 142.5q0 71 20 135.5t57 114t90 79t119 29.5q62 0 112 -21t82 -55q25 -26 47 -66t33 -85h12v218h-9
q-13 -17 -22 -29t-11 -12t-19 10.5t-48.5 23t-77.5 23t-106 10.5q-100 0 -170 -28.5t-118 -75.5q-34 -33 -56.5 -70t-35 -73t-17.5 -68.5t-5 -57.5q0 -85 27.5 -153.5t79 -116t126.5 -72t170 -24.5q48 0 96 10t87.5 24.5t67 28.5t34.5 20v146q0 23 1 46t8 34q9 14 29 20.5
t37 8.5z" />
    <glyph glyph-name="H" unicode="H" horiz-adv-x="900" 
d="M850 0v10q-26 3 -48 11t-35 28q-6 9 -7.5 33.5t-1.5 53.5q0 36 -0.5 66t-0.5 58v58v67v171v31t1 31.5t3 28t6 19.5q11 20 34 30.5t47 13.5v10h-301v-10q23 -1 46 -7.5t41 -33.5q8 -13 9.5 -33.5t2.5 -39.5q1 -33 1 -59v-51v-52v-58h-395v37v64q0 37 0.5 77.5t1.5 75.5
q1 23 10 38t22 23.5t29 12.5t30 6v10h-298v-10q26 -3 46.5 -10.5t34.5 -24.5q6 -7 9 -19.5t4.5 -28t1.5 -33.5v-36v-195v-58q0 -30 -0.5 -58.5t-1 -52.5t-0.5 -38q0 -16 -1 -33.5t-2.5 -32.5t-4 -26.5t-6.5 -16.5q-12 -14 -35 -23.5t-48 -13.5v-10h295v10q-21 2 -43 11
t-34 26q-8 11 -9 38t-1 56v215h395v-35v-56v-67q0 -35 -1 -68q0 -12 -0.5 -25t-1.5 -25t-2.5 -21t-3.5 -12q-8 -13 -33 -23.5t-62 -13.5v-10h307z" />
    <glyph glyph-name="I" unicode="I" horiz-adv-x="399" 
d="M349 0v10q-21 2 -47 11t-38 26q-8 11 -9 38t-1 56v226v57v52t0.5 49.5t0.5 49.5q1 23 1.5 49t9.5 43q13 24 37 32t45 11v10h-299v-10q26 -3 46.5 -10.5t34.5 -24.5q6 -7 9 -19.5t4.5 -28t1.5 -33.5v-36v-195v-58q0 -30 -0.5 -58.5t-1 -52.5t-0.5 -38q0 -16 -0.5 -32.5
t-2 -31.5t-4 -26t-7.5 -17q-15 -17 -36.5 -26t-46.5 -13v-10h303z" />
    <glyph glyph-name="J" unicode="J" horiz-adv-x="399" 
d="M380 710v10h-308v-10q26 -3 50.5 -9t38.5 -23q6 -7 8.5 -20t4 -29.5t1.5 -34.5v-36v-195v-58v-59q0 -28 -0.5 -52t-0.5 -38q-1 -28 -3.5 -56t-8.5 -50q-7 -23 -22.5 -39t-40.5 -16q-8 0 -17 3.5t-14 10.5v3q21 3 35 13.5t14 33.5q0 20 -14.5 34.5t-34.5 14.5
q-23 0 -41 -15t-18 -39q0 -19 7.5 -32.5t20 -21t28 -11.5t31.5 -4q29 0 63.5 11t66.5 36q26 20 42 43.5t16 56.5v235v57v52t0.5 49.5t0.5 49.5q1 23 2 49.5t9 42.5q13 24 38 32t46 11z" />
    <glyph glyph-name="K" unicode="K" horiz-adv-x="767" 
d="M805 0v10q-28 2 -50.5 7t-35.5 10q-3 1 -12 8t-21 16.5t-25 21.5t-23 24q-42 47 -87.5 98t-85.5 96t-69 78.5t-37 43.5q17 18 37.5 38.5t42 42.5t43.5 44t43 41q54 50 106 88t103 43v10h-268v-10q26 -4 46 -17t20 -42q0 -17 -13.5 -38t-30.5 -41q-24 -26 -57 -61
t-66.5 -68t-64 -59.5t-48.5 -37.5v92v63t0.5 46t1.5 43q1 42 10.5 65t23.5 34.5t32 15t37 5.5v10h-310v-10q26 -3 46 -11t34 -25q11 -14 13.5 -46t2.5 -70v-195v-58v-59q0 -28 -0.5 -52t-0.5 -38q0 -16 -0.5 -33.5t-2 -33t-4.5 -27.5t-8 -18q-12 -14 -35 -22t-48 -12v-10
h321v10q-10 1 -23.5 3.5t-27.5 7t-26 11.5t-19 17q-10 13 -13 38t-4 54q-1 33 -1 79v99q3 8 5.5 11.5t10.5 3.5q7 0 16.5 -7t35.5 -36q62 -68 119.5 -134.5t121.5 -140.5q6 -7 11 -10.5t9 -5.5h225z" />
    <glyph glyph-name="L" unicode="L" horiz-adv-x="708" 
d="M713 206l-10 3q-12 -30 -25 -57.5t-32 -51t-45.5 -41.5t-66.5 -29q-17 -5 -39 -8t-43 -4.5t-38.5 -2t-25.5 -0.5q-20 0 -40 2.5t-37 6t-29 8.5t-16 10q-9 14 -10.5 43t-2.5 61q0 34 -0.5 61.5t-0.5 53.5v53v62v67t0.5 58t1 57t1.5 64q1 27 12.5 43.5t27.5 25.5t34 13
t31 6v10h-319v-10q26 -3 49.5 -12t37.5 -26q6 -7 9 -19t4.5 -27.5t1.5 -33.5v-35v-194v-58q0 -30 -0.5 -58.5t-1 -52.5t-0.5 -38q0 -16 -1.5 -32.5t-3.5 -31.5t-5.5 -26.5t-8.5 -17.5q-14 -16 -38.5 -25t-49.5 -13v-10h642z" />
    <glyph glyph-name="M" unicode="M" horiz-adv-x="991" 
d="M959 0v10q-24 1 -42 7.5t-30 15t-18.5 16t-7.5 9.5q-6 11 -8.5 30.5t-2.5 38.5q-1 59 -1 112v108v91t1 93q1 35 3 71t8 53q8 22 29.5 38t62.5 17v10h-213q-3 -8 -24.5 -58.5t-55 -126.5t-75.5 -170t-86 -189l-239 544h-213v-10q12 -2 29 -6.5t32 -14.5t26 -27.5t12 -45.5
q1 -29 1 -49v-39v-38v-49q0 -67 -1 -125.5t-3 -101.5q-1 -51 -7 -86.5t-19 -59.5t-35 -37.5t-57 -20.5v-10h261v10q-43 6 -67.5 19.5t-36.5 37t-15 58t-3 81.5v128t0.5 104.5t1 100t0.5 116.5q5 -11 18.5 -42t34.5 -77t47 -105t56 -126.5t61.5 -140.5t63.5 -147h6
q2 6 10 24.5t17 41t18 44t14 31.5q33 74 60.5 135.5t54.5 120.5t54.5 121t60.5 136v-283v-124t-2 -126q-1 -20 -4 -39.5t-9 -32.5q-10 -21 -39 -37t-72 -18v-11h343z" />
    <glyph glyph-name="N" unicode="N" horiz-adv-x="875" 
d="M846 710v10h-248v-10q48 -7 73.5 -24.5t35.5 -45.5q8 -21 9 -57.5t1 -76.5v-340l-474 554h-203v-10q16 -2 33.5 -6.5t32.5 -15t26 -29t14 -47.5q1 -29 1 -49v-37v-37v-48q0 -67 -1 -125.5t-3 -101.5q-2 -57 -6 -98t-18 -62q-14 -22 -38 -31.5t-48 -12.5v-10h246v10
q-41 5 -64.5 16.5t-34.5 34.5q-10 20 -12.5 61t-2.5 92v422q68 -76 129 -147t124.5 -145.5t133.5 -156.5t155 -180q10 -10 18 -10q5 0 7.5 2.5t2.5 6.5v65t-0.5 72.5t-0.5 71.5v64q0 67 1.5 125.5t3.5 101.5q2 46 4 86.5t9 55.5q12 29 34.5 43t59.5 19z" />
    <glyph glyph-name="O" unicode="O" horiz-adv-x="808" 
d="M779 365q0 72 -25 138t-72 116.5t-114.5 80.5t-152.5 30q-78 0 -148.5 -25.5t-123 -73t-83.5 -116t-31 -154.5q0 -81 29.5 -148.5t80.5 -116t119 -75t144 -26.5q77 0 145.5 27t120 77t81.5 118t30 148zM655 364q0 -63 -15.5 -126t-46.5 -113.5t-77.5 -82.5t-109.5 -32
t-110.5 29t-79 77t-47.5 111t-16 131q0 65 14.5 128.5t45 113.5t78 81.5t112.5 31.5q64 0 111 -31.5t78.5 -82t47 -112.5t15.5 -123z" />
    <glyph glyph-name="P" unicode="P" horiz-adv-x="656" 
d="M636 512q0 60 -29 104t-73 68q-45 25 -96 31.5t-117 6.5h-45q-26 0 -55.5 -0.5t-59.5 -0.5t-55.5 -0.5t-44.5 -0.5h-24v-10q27 -4 50.5 -9.5t38.5 -21.5q6 -6 9.5 -19.5t5 -30t2 -35t0.5 -36.5v-195v-58q0 -30 -0.5 -58.5t-1 -52.5t-0.5 -38q0 -16 -1 -33t-2.5 -32
t-4.5 -27t-8 -18q-13 -16 -36 -24t-48 -12v-10h320v10q-41 2 -64 15t-31 26q-10 15 -11 38t-2 55q0 17 -0.5 31.5t-0.5 31.5v39v55h54q31 0 63.5 2.5t64.5 7.5t60 15q27 10 53 26.5t45.5 39.5t31.5 53t12 67zM528 517q0 -63 -34 -113.5t-98 -72.5q-31 -11 -67 -13.5
t-77 -2.5v44v84t0.5 98t1.5 85q1 23 2 35.5t2 19.5t2.5 11.5t2.5 10.5q7 1 18.5 2.5t32.5 1.5q29 0 56 -4t51 -15q48 -23 77.5 -68t29.5 -103z" />
    <glyph glyph-name="Q" unicode="Q" horiz-adv-x="808" 
d="M779 365q0 72 -25 138t-72 116.5t-114.5 80.5t-152.5 30q-72 0 -137.5 -22t-118.5 -67q-130 -111 -130 -280q0 -71 23.5 -131t64 -106.5t94.5 -78t115 -44.5q5 -40 22 -69.5t43.5 -47.5t60.5 -26.5t73 -8.5q48 0 86 14.5t67 34.5l-5 8q-20 -8 -37 -10.5t-35 -2.5
q-25 0 -49 7t-43 20.5t-30 34.5t-11 47q66 12 123 43.5t98.5 79t65.5 108.5t24 132zM655 364q0 -60 -13.5 -123.5t-43 -115.5t-77 -85.5t-115.5 -33.5q-58 0 -105 29.5t-80 78.5t-50.5 112.5t-17.5 131.5q0 65 14.5 128.5t45 113.5t78 81.5t112.5 31.5q64 0 111 -31.5
t78.5 -82t47 -112.5t15.5 -123z" />
    <glyph glyph-name="R" unicode="R" horiz-adv-x="762" 
d="M797 0v10q-47 7 -82 31t-72 76q-24 34 -54.5 78t-56.5 82q-15 21 -31 38t-33 26v3q33 11 63 27t52.5 38.5t36 52t13.5 66.5q0 60 -27 99.5t-71 62.5q-43 23 -95 27t-119 4h-70t-86 -0.5t-77 -0.5h-41v-10q27 -4 45.5 -9.5t33.5 -21.5q6 -6 9.5 -19.5t5 -30t2 -35
t0.5 -36.5v-195v-58q0 -30 -0.5 -58.5t-1 -52.5t-0.5 -38q0 -16 -1 -33t-2.5 -32t-4.5 -27t-8 -18q-13 -16 -36 -24t-48 -12v-10h320v10q-41 2 -64 15.5t-31 26.5q-10 15 -11 38t-2 55q-1 33 -1 81v113q14 -1 23 -1q10 0 29 -4q26 -5 49.5 -25t43.5 -43q24 -28 41.5 -50.5
t32.5 -44.5t29.5 -44.5t33.5 -50.5q16 -23 23.5 -34.5t12.5 -17.5t9 -10.5t13 -13.5h205zM518 534q0 -27 -7 -52t-21.5 -46.5t-37.5 -38.5t-55 -27q-33 -11 -68.5 -14.5t-76.5 -3.5v38v72t0.5 85t1.5 79q1 23 1.5 35.5t1 19.5t1.5 11.5t2 10.5q7 1 20 2t34 1q29 0 55.5 -5
t50.5 -16q48 -23 73 -62t25 -89z" />
    <glyph glyph-name="S" unicode="S" horiz-adv-x="605" 
d="M558 197q0 71 -37.5 118.5t-105.5 72.5q-19 7 -36.5 13t-34.5 11.5t-34.5 11.5t-37.5 14q-51 19 -83 51t-32 85q0 34 11.5 60.5t32 44.5t48 27t58.5 9q39 0 71 -16t57 -41.5t44 -58t31 -65.5h11v185h-11q-8 -12 -17.5 -24t-12.5 -12q-1 0 -11.5 7.5t-31 16.5t-52.5 16.5
t-77 7.5q-48 0 -91.5 -12.5t-76.5 -38.5t-52.5 -65t-19.5 -93q0 -32 11 -60.5t29 -52t42 -41t50 -27.5q23 -9 39.5 -14.5t32 -11t33.5 -11.5t42 -15t45 -20t36.5 -26.5t24.5 -36.5t9 -49q0 -69 -46 -109.5t-120 -40.5q-26 0 -54 9t-45 18t-35.5 26t-35 39.5t-30.5 48
t-23 52.5h-10l3 -199h9q8 11 18 23t13 12t14.5 -7t34.5 -15.5t58 -14.5t84 -6q57 0 105 13t82.5 40t54 65t19.5 86z" />
    <glyph glyph-name="T" unicode="T" horiz-adv-x="737" 
d="M750 535l-32 195q-23 -7 -44.5 -11.5t-54.5 -5.5q-38 0 -68 -0.5t-58 -1t-58 -0.5h-66h-67h-57t-58 0.5t-68 1.5q-37 1 -56.5 4t-42.5 8l-30 -190l9 -3q6 18 16.5 37t22 35.5t22 30.5t18.5 21q21 20 45.5 28t62.5 9q19 0 33.5 0.5t27.5 0.5h29h37v-331v-57t-0.5 -58
t-1 -51t-0.5 -37q0 -16 -0.5 -33t-2 -31.5t-4 -26t-7.5 -16.5q-23 -26 -47 -33t-50 -10v-10h325v10q-22 4 -49.5 12t-42.5 30q-8 11 -9.5 37.5t-1.5 55.5v222v76v93t0.5 90t0.5 68h37h29q14 0 28 -0.5t33 -0.5q38 -1 62.5 -7.5t45.5 -26.5q8 -7 19 -21.5t22.5 -31.5
t22.5 -36.5t19 -37.5z" />
    <glyph glyph-name="U" unicode="U" horiz-adv-x="834" 
d="M824 710v10h-248v-10q48 -7 72.5 -24.5t34.5 -45.5q4 -10 6 -26.5t3 -35.5t1.5 -40t0.5 -41v-41v-39v-41v-49q0 -34 -2.5 -69.5t-10 -69.5t-23 -64t-42 -53t-66 -36t-96.5 -13q-50 0 -89 16.5t-66 47t-42 74t-16 96.5q0 24 -0.5 45.5t-0.5 44.5v51v61v47v40t0.5 39
t1.5 46q1 23 10 38t22 23.5t29 12.5t30 6v10h-298v-10q26 -3 46.5 -10.5t34.5 -24.5q6 -7 9 -19.5t4.5 -28t1.5 -33.5v-36v-133q0 -55 -0.5 -100t-0.5 -73q0 -12 1.5 -36.5t10 -54t26 -60t49.5 -56t81.5 -40.5t121.5 -15q73 0 123 15.5t82 42t49.5 59t25.5 65t9.5 61.5
t2.5 48q2 67 3.5 120t2.5 96q0 23 1 46.5t3 44.5t4.5 37t5.5 23q12 29 33.5 43t58.5 19z" />
    <glyph glyph-name="V" unicode="V" horiz-adv-x="667" 
d="M702 709v11h-233v-10q13 -1 29.5 -4.5t31.5 -10t25 -16.5t10 -25q0 -11 -6 -39.5t-26 -83.5q-27 -72 -52 -138t-45.5 -118t-34 -87t-18.5 -46q-11 30 -30 77t-40.5 101.5t-43.5 111t-39.5 104t-28.5 81t-11 42.5q0 15 10.5 25t24 15.5t26.5 7.5t18 3v10h-299v-11
q23 -1 38 -7.5t25.5 -15.5t16.5 -18t9 -15l11.5 -23t11 -23t11.5 -26t13 -33q25 -64 50 -127.5t52 -131.5t55.5 -141.5t61.5 -154.5h12l49 100q22 57 46.5 120.5t49.5 126.5t49 122.5t44 107.5q12 29 21.5 48t16.5 31.5t12.5 19t8.5 9.5q3 4 22.5 16t45.5 15z" />
    <glyph glyph-name="W" unicode="W" horiz-adv-x="991" 
d="M1021 710v10h-220v-10q12 -1 27 -4.5t28 -10t22 -16t9 -24.5q0 -10 -2 -31t-16 -67q-11 -36 -24.5 -77.5l-27 -83t-27 -81.5t-25 -72.5t-19 -55t-10.5 -29.5q-7 19 -22.5 61.5t-34.5 96t-40 111.5t-38 107.5t-28 84t-11 40.5q0 15 12.5 25t28 15.5t31 7.5t21.5 3v10h-313
v-11q24 -1 41 -6.5t28.5 -14t18 -17.5t10.5 -17q14 -29 26 -59.5t27 -70.5q-22 -69 -44 -132.5t-40 -114t-30 -84t-15 -41.5q-11 30 -29 76.5t-38.5 100t-41 108.5t-37.5 101.5t-27.5 79t-10.5 41.5q0 17 9.5 27t22.5 15t25 7t17 2v10h-282v-11q22 -1 36 -7.5t24 -15
t15.5 -17.5t8.5 -15q6 -12 11 -23t9.5 -23t10 -26t12.5 -33q24 -63 48 -126.5t49.5 -131t53 -140.5t58.5 -154h12l44 98q17 47 35 97.5t36 102.5t36 102.5t34 96.5q21 -56 41 -113.5t41.5 -118.5t45 -127t50.5 -138h10l42 96q19 57 41 120.5t43.5 126.5t42.5 122.5t37 108.5
q10 29 19 48.5t17 32t14 19.5t9 10q3 4 20.5 15t42.5 14z" />
    <glyph glyph-name="X" unicode="X" horiz-adv-x="708" 
d="M734 710v10h-261v-10q13 -2 29 -6t29.5 -11t23 -17t9.5 -24q0 -16 -14 -40t-26 -40q-26 -33 -60.5 -78t-67.5 -83q-37 53 -63 90.5t-51 73.5q-18 26 -32 49t-14 37t10 23t24 14t31 8t30 4v10h-326v-10q23 -7 40.5 -17.5t33 -26t32 -37.5t37.5 -51q16 -22 42.5 -59.5
t53.5 -75.5t48.5 -68.5t27.5 -38.5q-15 -18 -37 -45t-46 -55.5t-46 -55t-37 -43.5q-45 -51 -88 -83.5t-83 -43.5v-10h265v10q-14 2 -30 6t-30 11t-23 17.5t-9 24.5q0 18 11 38t25 40q12 17 29.5 39t36.5 45.5t38 46.5t35 42q38 -53 67.5 -95.5t52.5 -78.5q17 -26 30 -49.5
t13 -37.5t-9 -23t-23 -14t-30 -7.5t-30 -4.5v-10h324v10q-21 3 -38 13.5t-33 27t-32.5 39.5t-36.5 52q-7 11 -22 32t-33.5 47t-38.5 54.5t-37 53.5t-30 43t-17 24q15 18 34 41.5t40 48.5t41.5 50t37.5 45q44 53 83 85.5t90 43.5z" />
    <glyph glyph-name="Y" unicode="Y" horiz-adv-x="649" 
d="M682 710v10h-231v-10q14 -2 29 -4.5t27.5 -7.5t20.5 -14t8 -25q0 -10 -4 -22t-9.5 -23.5t-11.5 -22t-11 -18.5q-9 -16 -26.5 -44t-37 -58.5t-38.5 -60t-32 -48.5q-16 27 -34.5 57t-36.5 58.5t-33 54t-26 43.5q-16 27 -30.5 53.5t-14.5 39.5t8 20.5t21 12t28 6.5t30 3v10
h-303v-10q20 -1 35.5 -11t31.5 -27t31.5 -41t34.5 -53q10 -15 25 -39t32 -51.5t34.5 -56.5t32 -52.5t24.5 -39.5t12 -19q0 -55 -0.5 -93.5t-1.5 -66.5q0 -16 -0.5 -33t-2 -32t-4 -27t-7.5 -17q-22 -25 -41.5 -31.5t-45.5 -9.5v-10h308v10q-22 4 -46 11t-39 29
q-8 11 -9.5 38.5t-1.5 56.5v201q12 18 33 50t43.5 67t44 67.5t33.5 51.5q18 28 33.5 50t32.5 38t37 26t48 14z" />
    <glyph glyph-name="Z" unicode="Z" horiz-adv-x="694" 
d="M695 225l-11 4q-50 -86 -114.5 -142t-145.5 -65q-29 -3 -55.5 -4t-43.5 -1h-81q-40 0 -90 1l505 694l-3 6h-90h-111h-119q-59 0 -110 0.5t-88 1t-51 1.5l-73 -213l11 -4q11 18 27.5 39.5t34.5 42.5t35.5 38.5t29.5 27.5q25 20 55.5 33t68.5 15q19 1 51.5 1.5t68.5 0.5h70
h56l-506 -695l4 -7h603z" />
    <glyph glyph-name="bracketleft" unicode="[" horiz-adv-x="286" 
d="M276 -106v24h-199v778h199v24h-227v-826h227z" />
    <glyph glyph-name="backslash" unicode="\" horiz-adv-x="311" 
d="M362 -131l-370 891l-33 -13l370 -890z" />
    <glyph glyph-name="bracketright" unicode="]" horiz-adv-x="286" 
d="M237 -106v826h-227v-24h199v-778h-199v-24h227z" />
    <glyph glyph-name="asciicircum" unicode="^" horiz-adv-x="254" 
d="M218 527l-89 171h-15l-91 -170l12 -7l86 112l85 -113z" />
    <glyph glyph-name="underscore" unicode="_" horiz-adv-x="500" 
d="M500 -130v34h-500v-34h500z" />
    <glyph glyph-name="grave" unicode="`" horiz-adv-x="500" 
d="M305 520l-101 176q-22 0 -31 -8t-15 -16v-5l137 -153z" />
    <glyph glyph-name="a" unicode="a" horiz-adv-x="448" 
d="M465 98h-6q-4 -15 -15 -24.5t-34 -9.5q-20 0 -35.5 14.5t-15.5 59.5q0 34 0.5 62.5t0.5 55.5t0.5 56t0.5 65q0 17 -1 34.5t-5 24.5q-10 20 -33 33.5t-49 13.5q-13 0 -33.5 -6t-45 -16t-51.5 -24t-53 -29q-8 -5 -18.5 -11t-19.5 -14t-15 -18t-6 -22q0 -15 11.5 -26.5
t27.5 -11.5q17 0 31.5 11t14.5 25v45q0 6 7 14.5t19 17t27.5 14t31.5 5.5q24 0 39 -6.5t23.5 -14.5t12 -15.5t3.5 -9.5v-103q-10 -6 -24.5 -13.5t-33.5 -18t-44.5 -25.5t-58.5 -36t-55.5 -47t-22.5 -54q0 -26 8.5 -44t22 -29.5t30 -16t32.5 -4.5q27 0 49.5 8.5t41 22.5
t32 30t21.5 29l2 -1q0 -50 26.5 -70t60.5 -20q21 0 38.5 7.5t30.5 22t21 32.5t9 37zM279 118q0 -17 -12 -28q-17 -17 -37 -23t-46 -6q-29 0 -47 21t-18 47t18.5 46.5t44 37.5t52.5 31.5t45 27.5v-154z" />
    <glyph glyph-name="b" unicode="b" horiz-adv-x="538" 
d="M519 242q0 47 -13 90.5t-38 77t-61 53.5t-83 20q-28 0 -56 -10t-51.5 -26.5t-41.5 -36.5t-27 -41l-2 1l3 356h-8l-134 -61v-6q17 -9 33 -18t25 -15v-623h7l24 54h5q32 -27 79 -42.5t104 -15.5q51 0 94 18.5t74.5 51.5t49 77.5t17.5 95.5zM427 228q0 -46 -10 -85.5
t-28.5 -68.5t-44 -45t-57.5 -16q-37 0 -63 15.5t-42.5 41t-24.5 58t-9 65.5q-1 19 -1 38v40v36q0 23 1 35q0 6 7.5 19t22 26t37 23t53.5 10q41 0 71 -16t49.5 -42.5t29 -61t9.5 -72.5z" />
    <glyph glyph-name="c" unicode="c" horiz-adv-x="432" 
d="M441 143l-8 4q-24 -40 -60 -60.5t-98 -20.5q-39 0 -70.5 14.5t-53.5 41t-34 64t-12 82.5q0 41 11 77t30 63t45 43t57 16q42 0 61.5 -24.5t19.5 -61.5q0 -20 -5 -34q4 -15 17.5 -25t30.5 -10q21 0 36.5 15.5t15.5 36.5q0 29 -15.5 51t-40.5 37t-57 23t-65 8
q-49 0 -90.5 -20t-71.5 -53t-47 -76.5t-17 -91.5q0 -51 16.5 -96t45.5 -78.5t70 -52t89 -18.5q38 0 70.5 11t58.5 31.5t44 47t27 56.5z" />
    <glyph glyph-name="d" unicode="d" horiz-adv-x="546" 
d="M533 39v7q-19 8 -41 17t-30 14v649h-8l-159 -44v-6l82 -31v-35v-50t0.5 -53t1.5 -41q-22 7 -48.5 12t-56.5 5q-57 0 -104 -19t-80.5 -52.5t-52 -78.5t-18.5 -97q0 -58 16 -102.5t43 -75t61.5 -45t71.5 -14.5q59 0 98.5 24t68.5 74h1v-100h6zM378 135q-8 -43 -37.5 -71
t-70.5 -28q-39 0 -68.5 18t-49.5 47.5t-30 68t-10 79.5t8.5 80t26.5 69t45.5 48t66.5 18q29 0 63 -25t56 -66v-238z" />
    <glyph glyph-name="e" unicode="e" horiz-adv-x="435" 
d="M433 152l-8 2q-12 -37 -49.5 -62.5t-87.5 -25.5q-46 0 -81 17t-58 46.5t-35 68t-12 80.5q0 11 1 21.5t1 18.5h321q-3 42 -19 73t-41.5 51.5t-60 30.5t-73.5 10q-48 0 -87.5 -20.5t-67 -53.5t-42.5 -74.5t-15 -83.5q0 -52 16 -98.5t45.5 -81t71.5 -53.5t93 -19
q41 0 74.5 15t57.5 38t38 50.5t18 49.5zM326 376q0 -14 -3.5 -21t-10.5 -15q-10 -4 -23 -5t-28 -1q-23 0 -42 -0.5t-36.5 -1t-35.5 -0.5h-41q2 12 11 34.5t25.5 44.5t39 38.5t50.5 16.5q43 0 68.5 -26.5t25.5 -63.5z" />
    <glyph glyph-name="f" unicode="f" horiz-adv-x="270" 
d="M379 675q0 14 -7.5 23.5t-19 15.5t-26 9t-29.5 3q-32 0 -62.5 -8.5t-56 -23t-45.5 -34t-31 -42.5q-11 -22 -13.5 -62.5t-2.5 -82.5h-62l-11 -44h72v-387q0 -8 -9 -13.5t-22.5 -9t-28 -6t-25.5 -3.5v-10h254v10q-15 2 -29.5 3t-26.5 4t-20 8t-10 14v390h106l13 44h-118
q0 36 0.5 64.5t2.5 68.5q2 31 10.5 49.5t20 28t22.5 12.5t17 3q12 -4 21.5 -16t20 -24.5t23 -22t30.5 -9.5q19 0 30.5 15t11.5 33z" />
    <glyph glyph-name="g" unicode="g" horiz-adv-x="525" 
d="M535 428q0 17 -11 29t-28 12q-12 0 -21 -3.5t-17 -8t-17.5 -8t-21.5 -3.5t-20.5 1t-20.5 5q-32 17 -61.5 24t-67.5 7q-42 0 -77.5 -12t-61.5 -32.5t-40.5 -48.5t-14.5 -60q0 -51 24.5 -84t68.5 -50v-3q-25 -3 -46.5 -12.5t-37.5 -23.5t-25 -31t-9 -36q0 -38 27.5 -61
t78.5 -29v-2q-21 -13 -42.5 -26.5t-39 -29t-29 -32.5t-11.5 -38q0 -57 60.5 -89.5t169.5 -32.5q57 0 104.5 15.5t82.5 42.5t54.5 62.5t19.5 74.5q0 30 -10.5 54.5t-30.5 43.5t-48 30t-63 11h-160q-17 0 -35 2t-33 8t-25 16.5t-10 26.5q0 20 19 33t51 15q20 0 34.5 -2
t28.5 -2q97 0 152 39.5t55 118.5q0 32 -10.5 52t-25.5 43l4 4q12 -7 27 -15.5t29.5 -15.5t26.5 -12t18 -5q15 0 25.5 11.5t10.5 26.5zM350 339q0 -28 -7 -53.5t-21 -45.5t-34.5 -32t-47.5 -12q-44 0 -74.5 36.5t-30.5 96.5q0 26 7 51t20.5 44.5t33.5 31t45 11.5
q27 0 47.5 -10.5t34 -28t20.5 -40.5t7 -49zM438 -96q0 -43 -26.5 -74t-61.5 -45q-17 -6 -38.5 -9t-51.5 -3q-25 0 -54.5 8t-55.5 24.5t-43.5 40.5t-17.5 56q0 31 18 57t65 38q14 2 36 4t43 2q58 0 91 -4.5t55 -15.5q17 -8 29 -29t12 -50z" />
    <glyph glyph-name="h" unicode="h" horiz-adv-x="524" 
d="M514 0v9q-9 1 -19 2.5t-19 4t-15 7.5t-6 12v295q0 33 -5.5 61t-19 48.5t-36 32t-55.5 11.5q-34 0 -62.5 -11.5t-50.5 -27.5t-36.5 -34t-21.5 -32l-2 1l3 347h-8l-134 -61v-6q13 -8 26.5 -14.5t21.5 -13.5q7 -5 8.5 -9t1.5 -12v-568q0 -19 -18.5 -24.5t-41.5 -7.5v-10h199
v10q-10 2 -20 3t-18 3.5t-13 7.5t-5 14v307q0 8 3.5 17.5t5.5 12.5q15 22 40 35t61 13q28 0 46 -10t28.5 -28t14.5 -43t4 -54v-250q0 -16 -18 -20.5t-45 -6.5v-11h206z" />
    <glyph glyph-name="i" unicode="i" horiz-adv-x="254" 
d="M177 641q0 23 -15.5 38t-38.5 15t-38.5 -15t-15.5 -38q0 -22 16 -38t38 -16q23 0 38.5 15.5t15.5 38.5zM233 0v10q-10 2 -20.5 2.5t-19.5 2.5t-15.5 6.5t-8.5 14.5v447h-6l-135 -44v-6q14 -5 26.5 -11t21.5 -12q7 -5 8.5 -11t1.5 -14v-343q0 -9 -6.5 -15t-16 -9.5
t-21.5 -5t-24 -2.5v-10h215z" />
    <glyph glyph-name="j" unicode="j" horiz-adv-x="246" 
d="M179 639q0 23 -15.5 38t-38.5 15t-38.5 -15t-15.5 -38q0 -22 16 -38t38 -16q23 0 38.5 15.5t15.5 38.5zM172 -61v62v100q0 57 -0.5 118t-0.5 115v95v54h-6l-140 -54v-7q12 -7 28.5 -16t24.5 -16q7 -6 8.5 -9.5t1.5 -11.5v-325q0 -19 -0.5 -56t-2.5 -76q-1 -19 -2 -39.5
t-6.5 -38.5t-16 -31t-29.5 -17q-17 1 -24 14t-12.5 28.5t-15.5 28t-31 12.5q-25 0 -37.5 -13t-12.5 -35q0 -15 7.5 -26.5t19.5 -19.5t27 -12t30 -4q33 0 67.5 18.5t61.5 45.5t44 58.5t17 57.5z" />
    <glyph glyph-name="k" unicode="k" horiz-adv-x="488" 
d="M528 0v10q-19 0 -36 2t-25 4q-24 18 -59 64q-29 38 -68 96.5t-83 125.5q27 25 58 53.5t63 55.5q21 18 45.5 28t46 15.5t37.5 7t19 1.5v10h-245v-10q12 0 26 -2t26 -5t20 -7.5t8 -11.5t-19 -28.5t-48 -50t-63 -59t-63 -54.5v478h-8l-133 -61v-6q13 -7 27.5 -14.5
t21.5 -12.5t8 -9.5t1 -12.5v-565q0 -19 -18.5 -24.5t-41.5 -7.5v-10h199v10q-10 2 -20 3t-18 3.5t-13 7.5t-5 14v196q4 2 7.5 2.5t8.5 0.5q13 0 29 -22q15 -20 35.5 -49.5t39 -57.5t32 -49.5t13.5 -27.5q0 -14 -13.5 -17t-33.5 -4v-10h242z" />
    <glyph glyph-name="l" unicode="l" horiz-adv-x="246" 
d="M240 0v11q-19 2 -33 2.5t-23 2.5t-13.5 7t-4.5 15v685h-7l-143 -47v-6q12 -5 30 -15.5t27 -15.5q7 -5 8.5 -9t1.5 -12v-575q0 -16 -15 -22.5t-61 -9.5v-11h233z" />
    <glyph glyph-name="m" unicode="m" horiz-adv-x="794" 
d="M782 0v9q-9 1 -19 2.5t-18.5 4t-14.5 7.5t-6 12v298q0 66 -29.5 108t-87.5 42q-27 0 -52.5 -11t-46.5 -28.5t-37 -38t-25 -38.5h-3q-7 53 -36.5 84.5t-77.5 31.5q-27 0 -51.5 -10.5t-45.5 -26t-37 -35t-26 -37.5l-2 1v108h-6l-131 -47v-8q12 -5 24 -11.5t21 -11.5
q7 -5 8.5 -9t1.5 -12v-342q0 -16 -16.5 -23t-39.5 -9v-10h194v10q-10 2 -19 2.5t-16.5 2.5t-12.5 6.5t-7 14.5v328q26 28 47 42t54 14q52 0 72.5 -33.5t20.5 -92.5v-256q0 -16 -16 -20.5t-43 -6.5v-11h197v9q-9 1 -18.5 2.5t-17.5 4t-13 7.5t-5 12v323q24 27 46 44.5
t55 17.5q52 0 72.5 -34.5t20.5 -92.5v-255q0 -16 -14 -20.5t-41 -6.5v-11h197z" />
    <glyph glyph-name="n" unicode="n" horiz-adv-x="521" 
d="M512 0v9q-9 1 -19.5 2.5t-19.5 4t-15.5 7.5t-6.5 12v294q0 68 -31 111t-89 43q-27 0 -52 -10.5t-46 -26.5t-37.5 -35.5t-27.5 -36.5l-2 1v108h-6l-131 -47v-6q12 -5 24 -11.5t21 -11.5q7 -5 8.5 -9t1.5 -12v-344q0 -16 -16.5 -23t-39.5 -9v-10h193v10q-10 2 -19 2.5
t-16 2.5t-12 6.5t-7 14.5v328q27 27 49 41t55 14q52 0 74 -35.5t22 -93.5v-252q0 -16 -16 -20.5t-43 -6.5v-11h204z" />
    <glyph glyph-name="o" unicode="o" horiz-adv-x="511" 
d="M492 245q0 60 -21.5 104.5t-55 74t-74.5 44.5t-81 15q-54 0 -98.5 -20t-76 -53t-49 -76t-17.5 -89q0 -64 22.5 -111.5t58 -78t77.5 -44.5t81 -14q47 0 89.5 19t74.5 53t51 79.5t19 96.5zM399 246q0 -35 -7.5 -76t-24 -76.5t-43 -59t-65.5 -23.5t-67 18.5t-46 50t-26 72.5
t-8 87q0 42 9.5 82.5t28 73t44.5 52.5t59 20q41 0 69 -21.5t45 -54.5t24.5 -72t7.5 -73z" />
    <glyph glyph-name="p" unicode="p" horiz-adv-x="534" 
d="M514 265q0 40 -11 79t-33.5 70t-57 50t-81.5 19q-29 0 -53.5 -11t-45.5 -27.5t-38 -36.5t-31 -39l-1 2v112h-6l-147 -58v-6q12 -5 32 -14.5t29 -14.5q7 -5 8.5 -9t1.5 -12v-554q0 -8 -8.5 -14t-21 -10t-26.5 -6.5t-24 -3.5v-11h246v11q-10 1 -23.5 2t-26 3.5t-21.5 7
t-11 13.5v47t-0.5 59t-1 57t-0.5 41q19 -4 36.5 -5t35.5 -1q65 0 117 19.5t88 54t55.5 82.5t19.5 104zM424 236q0 -46 -12.5 -85t-33.5 -67t-48 -44t-56 -16q-33 0 -54 11.5t-33 30t-17 41t-7 43.5q-1 23 -1 46v64q0 17 0.5 39.5t0.5 42.5q0 6 7.5 19t22 25.5t35 22
t46.5 9.5q38 0 66.5 -14.5t47 -39t27.5 -57.5t9 -71z" />
    <glyph glyph-name="q" unicode="q" horiz-adv-x="548" 
d="M543 -230v11q-12 1 -24.5 3.5t-23 6.5t-17.5 10t-7 14v668h-7l-31 -55h-3q-26 23 -71.5 39t-103.5 16q-52 0 -95.5 -20t-74.5 -53.5t-48.5 -78t-17.5 -93.5q0 -47 14 -90.5t39.5 -76.5t61.5 -52t81 -19q33 0 61 9.5t50 25.5t38 36t24 40l2 -1q0 -10 -0.5 -33.5t-1 -52
t-0.5 -61.5t-0.5 -63.5t-0.5 -54.5v-37q-2 -8 -11.5 -13t-22 -7.5t-26.5 -4t-24 -2.5v-11h240zM388 138q0 -6 -7.5 -19t-21.5 -26t-36.5 -23t-52.5 -10q-40 0 -70 16t-50 42.5t-30 61.5t-10 72q0 47 10.5 86t29 68t45 45t57.5 16q38 0 63.5 -15.5t41 -41t23 -58t8.5 -65.5
q1 -17 1 -35v-34v-44t-1 -36z" />
    <glyph glyph-name="r" unicode="r" horiz-adv-x="357" 
d="M367 430q0 23 -17.5 38t-42.5 15q-31 0 -55 -17t-41 -40.5t-28 -46.5t-16 -35h-2l2 139h-6l-131 -51v-6q12 -5 24 -12.5t21 -12.5q7 -5 8.5 -9t1.5 -12v-338q0 -16 -16.5 -23t-39.5 -9v-10h224v10q-10 2 -23.5 2.5t-26 2.5t-22.5 7t-13 14v288q6 15 14 31.5t18 29.5
t21.5 21.5t23.5 8.5q14 0 22 -5.5t15 -12.5t16.5 -12.5t25.5 -5.5q17 0 30 14.5t13 36.5z" />
    <glyph glyph-name="s" unicode="s" horiz-adv-x="382" 
d="M369 146q0 51 -31.5 86t-76.5 46q-19 5 -45 10.5t-48 10.5q-32 8 -53 24t-21 53q0 23 8 40.5t20.5 29t29 17.5t33.5 6q28 0 49.5 -10t38.5 -28.5t31 -44t28 -55.5l8 2l-12 124q-29 11 -61 18.5t-74 7.5q-33 0 -62 -9.5t-51 -27.5t-35 -43t-13 -56q0 -45 23.5 -77
t61.5 -45q20 -7 45 -13t52 -11q34 -7 53.5 -27.5t19.5 -51.5q0 -57 -28.5 -84.5t-76.5 -27.5q-33 0 -57 14.5t-41 37t-29 49t-20 50.5h-8v-132q33 -15 72 -23t83 -8q37 0 70.5 8t59.5 26t41.5 46.5t15.5 67.5z" />
    <glyph glyph-name="t" unicode="t" horiz-adv-x="324" 
d="M351 473h-185v87h-8l-145 -137v-11h73q0 -66 -1 -150.5t-1 -178.5q0 -16 9.5 -31.5t24.5 -28t34.5 -19t40.5 -6.5q32 0 55.5 7.5t41 21t28 30t16.5 31.5l-6 3q-14 -20 -33 -29.5t-48 -9.5q-35 0 -57 23t-22 74v263h152z" />
    <glyph glyph-name="u" unicode="u" horiz-adv-x="523" 
d="M506 25v6q-12 5 -29.5 13t-26.5 13q-7 5 -8.5 9t-1.5 12v395h-168v-11q22 -2 42.5 -5t32.5 -8q6 -8 8 -23.5t2 -25.5v-285q-9 -12 -19.5 -23t-23 -19.5t-28 -14t-36.5 -5.5q-55 0 -75 31.5t-20 97.5v291h-155v-11q9 -1 19 -1.5t19 -2.5t16.5 -6t11.5 -13q2 -3 2.5 -9.5
t1.5 -14t1 -14.5v-11v-244q0 -73 30.5 -111t94.5 -38q28 0 52.5 9t44.5 24.5t36 34.5t27 36l1 -1v-101h7z" />
    <glyph glyph-name="v" unicode="v" horiz-adv-x="443" 
d="M493 462v11h-194v-10q9 -1 21 -1t23 -3t18.5 -10.5t7.5 -21.5q0 -9 -12.5 -46t-30.5 -86t-38 -100t-35 -88q-9 24 -22 56t-26.5 66t-26.5 68t-23.5 62t-17 47t-6.5 24q0 11 8.5 16.5t20.5 8.5t25.5 4.5l22.5 2.5v11h-241v-11q33 -2 45.5 -9.5t18.5 -13.5q5 -9 11 -23
t12 -29t11.5 -28.5t8.5 -21.5q21 -55 38 -99t32 -82.5t29 -75t30 -77.5q1 -2 3 -4.5t6 -2.5q7 0 10 6q6 13 10.5 23t9.5 21t10.5 23.5t13.5 30.5q14 35 30.5 77t33.5 84t32.5 80t27.5 66q8 18 21 29t28 16.5t29.5 7.5t24.5 2z" />
    <glyph glyph-name="w" unicode="w" horiz-adv-x="739" 
d="M765 462v11h-183v-11q9 -1 20 -2t20.5 -4.5t16 -11t6.5 -21.5q0 -9 -7 -32t-17.5 -52.5t-24 -63t-26 -65t-23.5 -57t-17 -38.5q-9 24 -20.5 55.5t-23.5 64.5t-23.5 66t-20.5 60t-14.5 45.5t-5.5 23.5q0 11 8.5 16.5t20 8.5t23.5 4.5l20 2.5v11h-228v-11q18 -1 28 -3.5
t15.5 -6t8 -7t5.5 -6.5q10 -18 18 -36.5t15 -38.5q-13 -36 -26.5 -73t-26.5 -71t-24 -62t-19 -48q-19 46 -42 101t-43 104t-33.5 84.5t-15.5 43.5q5 5 13.5 8t18 5.5t19 3.5t16.5 2v11h-225v-11q33 -1 44.5 -8.5t17.5 -12.5q8 -13 15.5 -29.5t13.5 -30.5q42 -101 79 -191
t76 -185q4 -7 9 -7q6 0 10 6q10 22 17 41t21 46l95 248q20 -58 35 -103t28 -83t25 -73.5t25 -74.5q1 -3 2.5 -5t6.5 -2t9 6q6 12 10.5 22t9.5 20.5t11 24t15 32.5q14 35 31.5 75.5t35 81.5t34 78.5t28.5 65.5q9 21 20.5 32.5t23.5 17t24.5 6.5t24.5 2z" />
    <glyph glyph-name="x" unicode="x" horiz-adv-x="458" 
d="M483 462v11h-191v-11q28 -2 43 -8.5t18 -27.5q0 -8 -9 -25t-21.5 -38t-28 -44t-29.5 -44q-16 26 -30 52.5t-25.5 48.5t-18 37.5t-7.5 21.5q4 9 11 14.5t14.5 8t14.5 3.5t11 1v11h-239v-11q19 -3 38.5 -6.5t38.5 -17.5q7 -8 15.5 -20t15.5 -23q16 -27 28.5 -49t25 -43.5
t25 -43.5t28.5 -49q-16 -23 -39.5 -55.5t-52.5 -67.5q-25 -31 -43.5 -46.5t-32.5 -22t-26.5 -7t-24.5 -0.5v-11h195v11q-26 1 -40 6.5t-21 27.5q0 9 9.5 27.5t24 40t30.5 44t28 40.5q12 -22 24.5 -44t23 -42.5t18 -37.5t8.5 -30q-2 -13 -8 -19.5t-13 -9t-14 -3t-12 -0.5v-11
h233v11q-18 1 -30.5 2.5t-24.5 9.5t-25 25t-31 48q-14 24 -26 44t-23.5 38.5t-22.5 39t-24 46.5q12 17 21 29.5t18 24.5l19.5 26t25.5 33q27 34 44.5 51t30.5 24t25 8t28 2z" />
    <glyph glyph-name="y" unicode="y" horiz-adv-x="416" 
d="M443 462v11h-154v-11q9 -1 19 -2t18.5 -4t13.5 -8.5t5 -14.5q0 -6 -6.5 -30.5t-16.5 -59t-22 -73.5t-23 -74.5t-19 -61.5t-11 -34q-9 24 -21 56.5t-24.5 67.5t-25 69.5t-22.5 63.5t-16 48.5t-6 24.5q0 19 15.5 24t36.5 8v11h-218v-11q34 -2 46.5 -8t21.5 -16
q15 -41 33 -90t36.5 -99.5t36.5 -98.5t32 -86.5t23 -63t11 -28.5q-1 -5 -5 -20t-10.5 -36.5t-15 -48t-19.5 -53.5h-2q-14 13 -27.5 25t-33.5 12t-32 -13t-12 -33t17 -32.5t37 -12.5q23 0 45 17t34 55q17 53 35.5 112t37 119t36.5 117l33 104.5t26 82.5t16 51t13 24.5
t18.5 12.5t22 5t23.5 2z" />
    <glyph glyph-name="z" unicode="z" horiz-adv-x="433" 
d="M437 149l-10 1q-8 -25 -18 -49t-26.5 -42t-42.5 -29t-66 -11h-151l282 444l-1 9q-42 0 -76.5 -0.5t-68.5 -0.5h-71h-85q-18 0 -29 1.5t-17 4.5t-8.5 6t-4.5 6l-9 -1l-18 -138l10 -2q10 29 19 49t23.5 32.5t37 18t58.5 5.5h135l-279 -445l3 -7h83q37 0 72.5 0.5t73.5 0.5
h87h24t22.5 -1t18.5 -1t10 -3h9z" />
    <glyph glyph-name="braceleft" unicode="{" horiz-adv-x="286" 
d="M205 179q0 23 -9.5 43t-25.5 35.5t-37.5 26t-45.5 16.5v2q50 13 84 43.5t34 77.5q0 40 -17 65.5t-37.5 46.5t-37.5 42t-17 52q0 25 10.5 37t25.5 16.5t32.5 4t31.5 -0.5q5 10 5 20q0 8 -6 13t-15 5q-13 0 -32.5 -9t-37.5 -24.5t-31 -36t-13 -42.5q0 -34 15.5 -55.5
t34.5 -40.5t34.5 -40t15.5 -54q0 -28 -12.5 -50t-31 -36t-41 -21.5t-42.5 -7.5v-12q20 0 42.5 -7.5t41 -22.5t31 -36.5t12.5 -48.5q0 -33 -15.5 -54t-33.5 -39.5t-33.5 -40.5t-15.5 -54q0 -22 12.5 -42.5t30.5 -36t37 -24.5t32 -9q9 0 15 5t6 13q0 10 -5 20h-34
q-17 0 -32 4.5t-24.5 16.5t-9.5 36q0 29 17 50t37.5 42t37.5 46.5t17 65.5z" />
    <glyph glyph-name="bar" unicode="|" horiz-adv-x="246" 
d="M83 -21h80v801h-80v-801z" />
    <glyph glyph-name="braceright" unicode="}" horiz-adv-x="286" 
d="M247 295v12q-20 0 -42.5 7.5t-41 21.5t-31 36t-12.5 50q0 33 15.5 54t34.5 40t34.5 40.5t15.5 55.5q0 22 -13 42.5t-31 36t-37.5 24.5t-32.5 9q-9 0 -15 -5t-6 -13q0 -10 5 -20h32q18 0 33 -4.5t25 -16.5t10 -36q0 -31 -17 -52t-37.5 -42t-37.5 -46.5t-17 -65.5
q0 -47 34 -77.5t84 -43.5v-2q-24 -6 -45.5 -16.5t-37.5 -26t-25.5 -35.5t-9.5 -43q0 -40 17 -65.5t37.5 -46.5t37.5 -42t17 -50q0 -24 -9.5 -36t-24.5 -16.5t-33 -4.5h-33q-5 -10 -5 -20q0 -8 6 -13t15 -5q13 0 32 9t37 24.5t30.5 36t12.5 42.5q0 32 -15.5 54t-33.5 40.5
t-33.5 39.5t-15.5 54q0 27 12.5 48.5t31 36.5t41 22.5t42.5 7.5z" />
    <glyph glyph-name="asciitilde" unicode="~" horiz-adv-x="522" 
d="M422 665h-14q-7 -34 -28 -42.5t-58 -8.5l-89 19q-47 0 -73 -27.5t-37 -70.5h13q7 18 13 27t15 13.5t22 5t32 0.5l91 -19q28 0 47 8.5t32 23t21 33t13 38.5z" />
    <glyph glyph-name="nonbreakingspace" unicode="&#xa0;" horiz-adv-x="210" 
 />
    <glyph glyph-name="exclamdown" unicode="&#xa1;" horiz-adv-x="303" 
d="M206 669q0 26 -17 42.5t-43 16.5t-42.5 -15.5t-16.5 -41.5t16.5 -44.5t42.5 -18.5t43 17.5t17 43.5zM210 150q-2 5 -10 26t-18 64.5t-19 112t-12 168.5h-12q-3 -98 -11 -166t-17 -111.5t-16.5 -65.5t-10.5 -28q0 -23 6 -49t15 -48.5t20 -37.5t21 -15q11 0 22.5 15
t20.5 37.5t15 48.5t6 49z" />
    <glyph glyph-name="cent" unicode="&#xa2;" horiz-adv-x="526" 
d="M481 150l-8 4q-23 -40 -59.5 -65t-99.5 -25q-37 0 -68 14l92 371q34 -19 34 -69q0 -11 -1.5 -18.5t-4.5 -15.5q4 -15 16.5 -25t29.5 -10q21 0 35.5 15.5t14.5 36.5q0 22 -10 39.5t-26.5 31t-37.5 22.5t-44 14l30 114l-20 5l-27 -116q-21 3 -41 3q-49 0 -90.5 -19.5
t-71.5 -52t-47 -74.5t-17 -88q0 -85 41.5 -145.5t110.5 -83.5l-36 -135l19 -4l34 134q26 -6 53 -6q39 0 71.5 12.5t58 33t43 47t26.5 55.5zM321 455l-92 -371q-42 25 -64 74.5t-22 109.5q0 40 10.5 74.5t29.5 60.5t45.5 41t57.5 15q20 0 35 -4z" />
    <glyph glyph-name="sterling" unicode="&#xa3;" horiz-adv-x="678" 
d="M700 666q0 19 -11 31.5t-27.5 19.5t-36.5 9.5t-38 2.5q-42 0 -80 -20.5t-70 -54t-57.5 -76.5t-42.5 -89q-22 -59 -42.5 -114t-37 -100t-28 -76.5t-15.5 -43.5h-93l-9 -31h92q-16 -54 -38 -104.5t-39 -81.5q-25 -10 -52.5 -16t-49.5 -12.5t-35.5 -15.5t-13.5 -25
q0 -15 13 -22t28 -7q21 0 40.5 8t36 20t29.5 27t22 29h37q37 0 63.5 -16.5t51 -36t51.5 -35.5t66 -16t70.5 11t53.5 30.5t34 46t12 56.5q0 19 -12 33t-35 14q-20 0 -32.5 -12t-12.5 -30q0 -19 9.5 -26t21.5 -10t21.5 -6t9.5 -13q0 -12 -7 -22.5t-18.5 -18.5t-25 -13
t-25.5 -5q-29 0 -47 14.5t-37.5 32t-47 32t-75.5 14.5q-28 0 -49 -2.5t-49 -4.5l-2 4q12 10 28 28t32.5 40.5t31 50t23.5 57.5h136l11 34h-134q3 9 11.5 32t20.5 55.5t27 72.5t31.5 82t33.5 85t33 81q8 18 19.5 44t27.5 50t36.5 41t44.5 17q12 0 19 -4.5t11.5 -11t6.5 -14
t3 -13.5q5 -22 14 -31t26 -9q13 0 24.5 10.5t11.5 23.5z" />
    <glyph glyph-name="currency" unicode="&#xa4;" horiz-adv-x="659" 
d="M188 198q65 -47 142 -47q74 0 141 47l123 -122l37 37l-123 121q49 64 49 142q0 80 -48 138l123 123l-39 37l-122 -120q-67 52 -141 52q-75 0 -142 -52l-122 120l-39 -37l123 -123q-47 -59 -47 -138q0 -77 48 -142l-123 -121l37 -37zM330 205q-73 0 -124 51
q-50 52 -50 123t50 123q51 51 124 51q71 0 122 -51t51 -123t-51 -123t-122 -51z" />
    <glyph glyph-name="yen" unicode="&#xa5;" horiz-adv-x="520" 
d="M520 535v9h-176v-9q10 -1 20.5 -2.5t19.5 -5t15 -10t6 -17.5q0 -13 -9 -31t-15 -29q-14 -25 -28 -49t-26 -44t-21 -34.5t-13 -20.5q-12 19 -25.5 40.5t-26.5 41.5t-23.5 38t-18.5 30q-11 20 -21.5 37.5t-10.5 26.5q0 17 20.5 22t41.5 7v9h-236v-9q14 0 26.5 -5.5t25 -17
t25 -28t28.5 -39.5q11 -15 27 -41t33.5 -53.5t32.5 -52t22 -36.5l1 -20l-158 1v-20l158 1v-54l-158 1v-20l157 1v-33q0 -17 -0.5 -33.5t-3 -29t-7.5 -18.5q-17 -19 -32 -23t-34 -6v-9h238v9q-16 2 -35 8t-30 21q-8 11 -8 44v70l157 -1v20l-158 -1v54l158 -1v20l-158 -1l1 33
q16 26 33 52.5t32 50.5t27 42.5t18 26.5q13 19 24.5 34t23.5 26t26.5 18t34.5 10z" />
    <glyph glyph-name="brokenbar" unicode="&#xa6;" horiz-adv-x="243" 
d="M142 389v395h-41v-395h41zM142 -135v394h-41v-394h41z" />
    <glyph glyph-name="section" unicode="&#xa7;" horiz-adv-x="468" 
d="M407 123q0 50 -10 95.5t-42 93.5q-14 21 -26.5 37.5t-25 32.5t-26.5 32t-30 35q-29 35 -50 67.5t-21 71.5q0 14 7 26.5t18 22t25 15.5t28 6q7 0 12 -0.5t12 -1.5q12 -20 25.5 -35t38.5 -15q20 0 36.5 17.5t16.5 41.5q0 25 -15 44t-41 19q-47 0 -94.5 -33.5t-86 -87.5
t-63 -123t-24.5 -140q0 -45 9 -78t30 -73q14 -26 28 -46t29 -38t31.5 -36t34.5 -41q24 -30 44.5 -58t20.5 -59q0 -15 -9.5 -27.5t-23.5 -21t-28.5 -14t-25.5 -6.5q-17 10 -28 25t-21 28t-21 22.5t-28 9.5q-21 0 -35 -16.5t-14 -38.5q0 -33 25 -50.5t59 -17.5q38 0 83.5 21.5
t84.5 62t65 98.5t26 133zM380 54q0 -22 -7 -42.5t-13 -28.5h-8q-8 36 -27.5 64t-45.5 62q-19 25 -35.5 45t-32 38.5t-31 38t-31.5 43.5q-23 35 -34 65t-11 73q0 24 4 43t12 41h8q14 -37 32.5 -62.5t43.5 -57.5q18 -23 33.5 -42.5t30 -38.5t28.5 -39t29 -44q13 -21 23 -39
t17 -36t11 -38t4 -45z" />
    <glyph glyph-name="dieresis" unicode="&#xa8;" horiz-adv-x="500" 
d="M380 600q0 19 -13.5 32.5t-32.5 13.5t-32.5 -13.5t-13.5 -32.5t13.5 -32.5t32.5 -13.5t32.5 13.5t13.5 32.5zM213 600q0 19 -13.5 32.5t-32.5 13.5t-32.5 -13.5t-13.5 -32.5t13.5 -32.5t32.5 -13.5t32.5 13.5t13.5 32.5z" />
    <glyph glyph-name="copyright" unicode="&#xa9;" horiz-adv-x="1000" 
d="M878 230q0 79 -30 149t-82 122t-121.5 82t-148.5 30t-149 -30t-122 -82t-82 -122t-30 -149t30 -149t82 -121t122 -81t149 -30t148.5 30t121.5 81t82 121t30 149zM847 230q0 -73 -27.5 -137.5t-75 -111.5t-111.5 -74.5t-137 -27.5t-137.5 27.5t-112 74.5t-75 111.5
t-27.5 137.5t27.5 137t75 112t112 75.5t137.5 27.5t137 -27.5t111.5 -75.5t75 -112t27.5 -137zM689 166h-11q-6 -27 -19.5 -54.5t-34 -49t-48 -35t-62.5 -13.5q-40 0 -71 17.5t-52 46.5t-31.5 68.5t-10.5 82.5q0 41 10 81.5t30 72t51 51t73 19.5q48 0 82 -25t56 -60
q8 -13 15 -32t12 -36h11v158h-9q-8 -10 -17.5 -20t-12.5 -10q-1 0 -10.5 6.5t-27.5 14t-43 13.5t-58 6q-42 0 -75.5 -9t-60 -24t-46.5 -35t-34 -42q-24 -38 -30.5 -71t-6.5 -55q0 -51 16.5 -93.5t49 -74t80 -48t108.5 -16.5q32 0 57 5.5t42.5 13t27 13.5t10.5 6
q3 0 11.5 -11t16.5 -22h9z" />
    <glyph glyph-name="ordfeminine" unicode="&#xaa;" horiz-adv-x="248" 
d="M262 446h-7q-2 -7 -7.5 -13t-16.5 -6q-9 0 -16 7t-7 27q0 33 0.5 59.5t0.5 61.5q0 8 -0.5 17.5t-2.5 13.5q-5 8 -18.5 16t-27.5 8t-42 -11t-55 -26q-10 -5 -21.5 -13.5t-11.5 -21.5q0 -9 6.5 -15.5t16.5 -6.5q11 0 19 6.5t8 14.5v23q0 6 13 14t29 8q22 0 30 -9t8 -11v-52
l-31 -15.5t-53 -28.5q-17 -10 -29 -23.5t-12 -29.5q0 -27 17 -38.5t34 -11.5q29 0 46.5 14t26.5 26h3q0 -20 13.5 -30t32.5 -10q23 0 37.5 16.5t16.5 39.5zM160 451q0 -7 -5 -12q-8 -8 -19 -10.5t-23 -2.5q-14 0 -22.5 9t-8.5 22q0 12 7 21t18 16.5t25 15t28 14.5v-73z" />
    <glyph glyph-name="guillemotleft" unicode="&#xab;" horiz-adv-x="393" 
d="M347 99l-87 157l86 156l-6 5l-167 -159v-5l167 -159zM227 106l-87 150l86 149l-6 5l-167 -152v-5l167 -152z" />
    <glyph glyph-name="logicalnot" unicode="&#xac;" horiz-adv-x="700" 
d="M570 55v245h-447v-39h404v-206h43z" />
    <glyph glyph-name="softhyphen" unicode="&#xad;" horiz-adv-x="318" 
d="M294 331v68h-271v-68h271z" />
    <glyph glyph-name="registered" unicode="&#xae;" horiz-adv-x="514" 
d="M470 594q0 44 -16.5 83t-45.5 67.5t-68 45t-83 16.5t-82.5 -16.5t-67.5 -45t-46 -67.5t-17 -83t17 -82.5t46 -67.5t67.5 -45.5t82.5 -16.5t83 16.5t68 45.5t45.5 67.5t16.5 82.5zM314 656q0 -17 -8 -30.5t-30 -21.5q-11 -3 -21.5 -3.5t-24.5 -0.5v84q0 11 0.5 16.5
t1.5 8.5q4 1 17 1q10 0 18 -0.5t16 -4.5q31 -15 31 -49zM451 594q0 -62 -32 -109q-16 2 -29 9t-27 23q-8 12 -18.5 26.5t-20.5 26.5q-11 13 -22 23v1q23 5 40.5 20.5t17.5 39.5q0 41 -35 57q-15 7 -33 9t-42 2q-9 0 -24 -0.5t-30 -0.5t-27.5 -0.5t-16.5 -0.5v-8
q20 -3 29 -11q5 -5 6 -17t1 -23v-126q0 -11 -1.5 -22.5t-5.5 -16.5q-5 -5 -14 -7.5t-17 -2.5v-10h117v10q-14 0 -22 3.5t-11 8.5t-3.5 13.5t-0.5 19.5v58q5 0 8 0.5t9 -1.5q7 -2 15 -8t14 -13q16 -18 24.5 -31t20.5 -31q5 -8 8 -12.5t4.5 -6.5t2.5 -4t4 -6h73
q-27 -35 -67.5 -55.5t-88.5 -20.5q-40 0 -75 15.5t-61 41.5t-41.5 61.5t-15.5 75.5t15.5 75t41.5 61.5t61 42t75 15.5t75 -15.5t61.5 -42t42 -61.5t15.5 -75z" />
    <glyph glyph-name="macron" unicode="&#xaf;" horiz-adv-x="500" 
d="M391 576v45h-281v-45h281z" />
    <glyph glyph-name="degree" unicode="&#xb0;" horiz-adv-x="408" 
d="M345 584q0 29 -11 55t-30 45t-45 30t-55 11t-55 -11t-45 -29.5t-30 -44.5t-11 -56t11 -55.5t29.5 -44.5t44 -30t55.5 -11t56 11t45 30.5t30 45t11 54.5zM304 584q0 -21 -7.5 -39.5t-21 -32.5t-32 -22t-39.5 -8t-39 8t-32 21.5t-22 32.5t-8 40t8 39.5t22 32t32 21.5t39 8
t39.5 -8t32 -22t21 -32t7.5 -39z" />
    <glyph glyph-name="plusminus" unicode="&#xb1;" horiz-adv-x="667" 
d="M606 405h-246v246h-53v-246h-246v-53h246v-246h53v246h246v53zM606 53h-545v-53h545v53z" />
    <glyph glyph-name="twosuperior" unicode="&#xb2;" horiz-adv-x="267" 
d="M274 468l-9 4q-7 -12 -17.5 -23.5t-40.5 -11.5h-96v2q22 15 38 27t29 24t24 24t22 26q5 7 7 17.5t2 15.5q0 21 -8 37.5t-21.5 27t-31.5 16t-37 5.5q-42 0 -72.5 -26t-31.5 -75h8q10 31 31.5 45t47.5 14q29 0 46.5 -16.5t17.5 -42.5q0 -27 -16.5 -50.5t-40.5 -43.5
t-50 -35.5t-45 -26.5l2 -8h205z" />
    <glyph glyph-name="threesuperior" unicode="&#xb3;" horiz-adv-x="242" 
d="M235 408q0 19 -8 34.5t-20 28.5t-26 22t-27 15q22 19 35 33.5t22 28.5q2 3 3 8.5t1 7.5q0 34 -27.5 53.5t-63.5 19.5q-19 0 -36.5 -6t-31 -18t-21.5 -29t-8 -40h8q9 29 30 40.5t43 11.5q24 0 41 -12.5t17 -34.5q0 -34 -18.5 -53t-48.5 -39l3 -7q37 -8 60.5 -33t23.5 -60
q0 -22 -9 -36t-20.5 -22t-22 -10.5t-13.5 -2.5q-19 0 -31.5 7t-21 17t-12.5 21t-7 19q-21 0 -29.5 -8.5t-8.5 -18.5q0 -23 25 -37.5t63 -14.5q26 0 50 7.5t43.5 22t31 36t11.5 49.5z" />
    <glyph glyph-name="acute" unicode="&#xb4;" horiz-adv-x="500" 
d="M346 667v5q-6 8 -15 16t-31 8l-104 -176l10 -6z" />
    <glyph glyph-name="mu" unicode="&#xb5;" horiz-adv-x="630" 
d="M598 184h-10q-11 -59 -35 -83.5t-63 -24.5q-23 0 -43.5 20.5t-20.5 67.5q0 6 7 22t18.5 42.5t26 63t29.5 81.5q3 10 8.5 28.5t6.5 36.5t-7 31t-31 13q-19 0 -31 -10.5t-19.5 -26.5t-11 -33.5t-6.5 -31.5q-3 -13 -6.5 -32.5t-7 -37.5t-6.5 -32.5t-4 -17.5
q-7 -24 -22 -55.5t-36 -59t-46.5 -47t-53.5 -19.5q-35 0 -59.5 21t-24.5 60q0 21 10 49q13 40 29 74.5t30 80.5q5 15 10.5 35.5t6.5 39t-6.5 31.5t-29.5 13q-20 0 -32.5 -12t-20 -30t-11 -38t-6.5 -36q-3 -22 -6.5 -48.5t-6.5 -50t-5 -41.5t-4 -24q-2 -12 -9 -33.5
t-16 -49.5t-19.5 -60.5t-20.5 -65.5q-20 -70 -31 -118t-11 -79q0 -23 12 -33t28 -10q13 0 24 13t11 39q0 6 -2 15t-5 19.5l-6 21t-4 19.5q1 10 4.5 39.5t10 67.5t17.5 83.5t28 87.5h9q-2 -11 -3 -20.5t-1 -18.5q0 -61 25 -92.5t67 -31.5q62 0 112.5 42t79.5 113h3
q-2 -8 -3.5 -21.5t-1.5 -22.5q0 -23 3.5 -43.5t12 -35.5t23 -23t36.5 -8q21 0 41 7.5t38 30.5q19 24 28.5 59.5t9.5 89.5z" />
    <glyph glyph-name="paragraph" unicode="&#xb6;" horiz-adv-x="530" 
d="M476 709v11q-23 0 -56 0.5t-60 0.5q-75 0 -131.5 -17.5t-95 -49t-57.5 -75t-19 -94.5q0 -55 20.5 -101.5t56 -80t83 -52t102.5 -18.5h37v-144q0 -55 -8 -101.5t-25.5 -82t-44.5 -56t-65 -20.5q-17 0 -34.5 4t-25.5 17q5 3 10 9.5t5 23.5q0 18 -14.5 30.5t-36.5 12.5
q-23 0 -38.5 -16t-15.5 -36q0 -17 8 -30t21.5 -22.5t30 -14.5t33.5 -5q63 0 108 22t73.5 59t42 84t13.5 99v585q0 23 12 35t27 17t28 5.5t16 0.5z" />
    <glyph glyph-name="periodcentered" unicode="&#xb7;" horiz-adv-x="263" 
d="M192 258q0 26 -16 44.5t-42 18.5t-43 -17.5t-17 -43.5t17 -42.5t43 -16.5t42 15.5t16 41.5z" />
    <glyph glyph-name="cedilla" unicode="&#xb8;" horiz-adv-x="500" 
d="M330 -132q0 6 -2 17t-9.5 24t-22.5 26.5t-40 23.5l45 47h-20l-80 -81q36 -12 54.5 -33t18.5 -47q0 -27 -13 -41t-31 -14q-22 0 -22 31q0 4 0.5 9t0.5 11q-9 11 -29 11q-17 0 -24 -9.5t-7 -19.5q0 -24 21 -34.5t55 -10.5q14 0 32 5.5t34.5 16.5t27.5 28t11 40z" />
    <glyph glyph-name="onesuperior" unicode="&#xb9;" horiz-adv-x="201" 
d="M189 394v10q-4 0 -11.5 1t-15.5 2.5t-14 3.5t-8 4q-3 4 -3.5 12t-0.5 18v81q0 21 0.5 40.5t0.5 32.5v16q0 9 4 15q5 8 22.5 10t25.5 3v10h-156v-10q9 -1 25.5 -3t21.5 -7q4 -5 4.5 -15.5t0.5 -21.5v-72q0 -19 -0.5 -42t-0.5 -33t-0.5 -19.5t-4.5 -14.5q-5 -5 -21.5 -7.5
t-25.5 -3.5v-10h157z" />
    <glyph glyph-name="ordmasculine" unicode="&#xba;" horiz-adv-x="280" 
d="M276 516q0 30 -11.5 52.5t-29.5 38t-40 23t-43 7.5q-29 0 -52.5 -10.5t-40.5 -27.5t-26 -38.5t-9 -44.5q0 -32 12 -56t31 -39.5t41 -23t43 -7.5q26 0 48.5 10t39.5 27t27 40t10 49zM221 517q0 -17 -3.5 -37t-12 -37t-21.5 -28.5t-32 -11.5q-20 0 -34 9t-23 24t-13 35
t-4 42q0 20 5 39.5t14 35.5t22 26t30 10q21 0 34.5 -10.5t22 -26.5t12 -35t3.5 -35z" />
    <glyph glyph-name="guillemotright" unicode="&#xbb;" horiz-adv-x="393" 
d="M341 253v5l-167 152l-6 -5l86 -149l-87 -150l7 -5zM221 253v5l-167 159l-6 -5l86 -156l-87 -157l7 -5z" />
    <glyph glyph-name="onequarter" unicode="&#xbc;" horiz-adv-x="500" 
d="M36 274v-27h432v27h-432zM364 332v11q-9 0 -21.5 1.5t-23.5 5t-18.5 9.5t-7.5 16v270q0 9 7.5 15t18 10t23 6t22.5 2v11h-213v-11q11 0 23 -2t23 -5.5t18 -9.5t7 -15v-270q0 -9 -6.5 -15t-17 -10t-22 -6t-22.5 -2v-11h210zM430 -76v47h-96v236h-13l-217 -234l-30 -42
l2 -7h194v-116h66v116h94zM270 -29h-148l148 157v-157z" />
    <glyph glyph-name="onehalf" unicode="&#xbd;" horiz-adv-x="500" 
d="M36 274v-27h432v27h-432zM364 332v11q-9 0 -21.5 1.5t-23.5 5t-18.5 9.5t-7.5 16v270q0 9 7.5 15t18 10t23 6t22.5 2v11h-213v-11q11 0 23 -2t23 -5.5t18 -9.5t7 -15v-270q0 -9 -6.5 -15t-17 -10t-22 -6t-22.5 -2v-11h210zM446 -62l-11 4q-4 -9 -8.5 -18t-12.5 -16.5
t-21 -12.5t-35 -5h-147v1q27 21 56.5 43t54 46t40.5 54t16 67q0 41 -28.5 66.5t-72.5 25.5q-31 0 -57 -11t-47 -28.5t-37.5 -39.5t-28.5 -43l10 -5q20 29 48.5 49t67.5 20t58.5 -24t19.5 -56q0 -28 -19 -57t-47.5 -58t-61.5 -55.5t-61 -48.5l1 -9h282z" />
    <glyph glyph-name="threequarters" unicode="&#xbe;" horiz-adv-x="500" 
d="M399 443q0 19 -9.5 35.5t-24 29t-33 22t-36.5 15.5q35 21 55.5 36.5t20.5 40.5q0 18 -8.5 33.5t-23 26.5t-34 17.5t-40.5 6.5q-20 0 -40.5 -6.5t-37 -19.5t-27.5 -32.5t-12 -45.5l9 -1q10 32 34.5 44.5t50.5 12.5q28 0 46 -15t18 -38q0 -32 -19 -52.5t-58 -45.5l1 -7
q50 -7 76 -29.5t26 -58.5q0 -22 -10.5 -37t-23.5 -23t-25 -11.5t-15 -3.5q-21 0 -35 8t-23.5 19.5t-15.5 24t-11 21.5q-31 0 -40 -11t-9 -22q0 -25 30 -40.5t76 -15.5q32 0 62 8t53.5 23t38 38t14.5 53zM468 247v27h-432v-27h432zM430 -76v47h-96v236h-13l-217 -234l-30 -42
l2 -7h194v-116h66v116h94zM270 -29h-148l148 157v-157z" />
    <glyph glyph-name="questiondown" unicode="&#xbf;" horiz-adv-x="383" 
d="M310 669q0 26 -17 42.5t-43 16.5t-42.5 -15.5t-16.5 -41.5t16.5 -44.5t42.5 -18.5t43 17.5t17 43.5zM273 -3v154q-17 -2 -33 -3t-23 -1q-22 0 -44.5 3.5t-40.5 14.5t-29 31t-11 52q0 25 5 42t14.5 29t24.5 20.5t35 14.5q24 8 49.5 12.5t51.5 9.5v175h-18v-81
q-60 -12 -94.5 -23t-54.5 -30q-10 -9 -16 -26.5t-10 -38.5t-5.5 -42.5t-1.5 -38.5q0 -22 1.5 -47.5t7.5 -51t16.5 -48t28.5 -39.5q26 -25 55.5 -33t74.5 -8v-47h17z" />
    <glyph glyph-name="Agrave" unicode="&#xc0;" horiz-adv-x="704" 
d="M428 767l-136 167q-22 0 -34 -9t-17 -17v-5l176 -143zM736 0v12q-23 1 -40 9t-28.5 18.5t-18.5 20.5t-9 14q-12 26 -21.5 46.5t-20.5 51.5q-24 63 -48 127.5t-49.5 133.5t-53.5 143.5t-59 157.5h-8q-4 -7 -11.5 -18t-18.5 -23t-25.5 -23t-32.5 -19l10 -22
q-24 -56 -51 -120.5t-54.5 -128t-53.5 -123.5t-47 -107q-23 -51 -39 -77t-23 -33q-3 -4 -21.5 -15t-44.5 -14v-11h213v10q-13 2 -27.5 4.5t-27 8t-20.5 14t-8 21.5q0 22 21 76q14 35 28 69.5t29 72.5h266q15 -39 28 -75t23 -65.5t15.5 -50t5.5 -29.5q0 -14 -9.5 -23t-22 -14
t-24 -7t-14.5 -2v-10h292zM434 297h-249q24 59 44.5 109.5t37.5 90.5t28.5 68t17.5 41q9 -22 22.5 -56.5t30 -76t34 -86.5t34.5 -90z" />
    <glyph glyph-name="Aacute" unicode="&#xc1;" horiz-adv-x="704" 
d="M473 903v5q-5 8 -17 17t-34 9l-136 -167l11 -7zM736 0v12q-23 1 -40 9t-28.5 18.5t-18.5 20.5t-9 14q-12 26 -21.5 46.5t-20.5 51.5q-24 63 -48 127.5t-49.5 133.5t-53.5 143.5t-59 157.5h-8q-4 -7 -11.5 -18t-18.5 -23t-25.5 -23t-32.5 -19l10 -22q-24 -56 -51 -120.5
t-54.5 -128t-53.5 -123.5t-47 -107q-23 -51 -39 -77t-23 -33q-3 -4 -21.5 -15t-44.5 -14v-11h213v10q-13 2 -27.5 4.5t-27 8t-20.5 14t-8 21.5q0 22 21 76q14 35 28 69.5t29 72.5h266q15 -39 28 -75t23 -65.5t15.5 -50t5.5 -29.5q0 -14 -9.5 -23t-22 -14t-24 -7t-14.5 -2
v-10h292zM434 297h-249q24 59 44.5 109.5t37.5 90.5t28.5 68t17.5 41q9 -22 22.5 -56.5t30 -76t34 -86.5t34.5 -90z" />
    <glyph glyph-name="Acircumflex" unicode="&#xc2;" horiz-adv-x="704" 
d="M470 761l-106 163h-15l-106 -163l13 -7l100 104l101 -104zM736 0v12q-23 1 -40 9t-28.5 18.5t-18.5 20.5t-9 14q-12 26 -21.5 46.5t-20.5 51.5q-24 63 -48 127.5t-49.5 133.5t-53.5 143.5t-59 157.5h-8q-4 -7 -11.5 -18t-18.5 -23t-25.5 -23t-32.5 -19l10 -22
q-24 -56 -51 -120.5t-54.5 -128t-53.5 -123.5t-47 -107q-23 -51 -39 -77t-23 -33q-3 -4 -21.5 -15t-44.5 -14v-11h213v10q-13 2 -27.5 4.5t-27 8t-20.5 14t-8 21.5q0 22 21 76q14 35 28 69.5t29 72.5h266q15 -39 28 -75t23 -65.5t15.5 -50t5.5 -29.5q0 -14 -9.5 -23t-22 -14
t-24 -7t-14.5 -2v-10h292zM434 297h-249q24 59 44.5 109.5t37.5 90.5t28.5 68t17.5 41q9 -22 22.5 -56.5t30 -76t34 -86.5t34.5 -90z" />
    <glyph glyph-name="Atilde" unicode="&#xc3;" horiz-adv-x="704" 
d="M536 888h-15q-8 -36 -29.5 -44.5t-59.5 -8.5l-105 21q-48 0 -75.5 -28.5t-38.5 -73.5h14q7 18 13.5 28t15.5 14.5t22.5 5t33.5 0.5l107 -21q29 0 48.5 9t33 23.5t22 34t13.5 40.5zM736 0v12q-23 1 -40 9t-28.5 18.5t-18.5 20.5t-9 14q-12 26 -21.5 46.5t-20.5 51.5
q-24 63 -48 127.5t-49.5 133.5t-53.5 143.5t-59 157.5h-8q-4 -7 -11.5 -18t-18.5 -23t-25.5 -23t-32.5 -19l10 -22q-24 -56 -51 -120.5t-54.5 -128t-53.5 -123.5t-47 -107q-23 -51 -39 -77t-23 -33q-3 -4 -21.5 -15t-44.5 -14v-11h213v10q-13 2 -27.5 4.5t-27 8t-20.5 14
t-8 21.5q0 22 21 76q14 35 28 69.5t29 72.5h266q15 -39 28 -75t23 -65.5t15.5 -50t5.5 -29.5q0 -14 -9.5 -23t-22 -14t-24 -7t-14.5 -2v-10h292zM434 297h-249q24 59 44.5 109.5t37.5 90.5t28.5 68t17.5 41q9 -22 22.5 -56.5t30 -76t34 -86.5t34.5 -90z" />
    <glyph glyph-name="Adieresis" unicode="&#xc4;" horiz-adv-x="704" 
d="M496 815q0 19 -13.5 32.5t-32.5 13.5t-32.5 -13.5t-13.5 -32.5t13.5 -32.5t32.5 -13.5t32.5 13.5t13.5 32.5zM320 815q0 19 -13.5 32.5t-32.5 13.5t-32.5 -13.5t-13.5 -32.5t13.5 -32.5t32.5 -13.5t32.5 13.5t13.5 32.5zM736 0v12q-23 1 -40 9t-28.5 18.5t-18.5 20.5
t-9 14q-12 26 -21.5 46.5t-20.5 51.5q-24 63 -48 127.5t-49.5 133.5t-53.5 143.5t-59 157.5h-8q-4 -7 -11.5 -18t-18.5 -23t-25.5 -23t-32.5 -19l10 -22q-24 -56 -51 -120.5t-54.5 -128t-53.5 -123.5t-47 -107q-23 -51 -39 -77t-23 -33q-3 -4 -21.5 -15t-44.5 -14v-11h213
v10q-13 2 -27.5 4.5t-27 8t-20.5 14t-8 21.5q0 22 21 76q14 35 28 69.5t29 72.5h266q15 -39 28 -75t23 -65.5t15.5 -50t5.5 -29.5q0 -14 -9.5 -23t-22 -14t-24 -7t-14.5 -2v-10h292zM434 297h-249q24 59 44.5 109.5t37.5 90.5t28.5 68t17.5 41q9 -22 22.5 -56.5t30 -76
t34 -86.5t34.5 -90z" />
    <glyph glyph-name="Aring" unicode="&#xc5;" horiz-adv-x="704" 
d="M424 819q0 33 -22 54t-55 21q-32 0 -54.5 -21.5t-22.5 -53.5q0 -33 21 -54t56 -21q34 0 55.5 21.5t21.5 53.5zM396 819q0 -23 -13 -38.5t-36 -15.5t-36 15.5t-13 38.5t13.5 38.5t35.5 15.5q23 0 36 -15.5t13 -38.5zM736 0v12q-23 1 -40 9t-28.5 18.5t-18.5 20.5t-9 14
q-12 26 -21.5 46.5t-20.5 51.5q-24 63 -48 127.5t-49.5 133.5t-53.5 143.5t-59 157.5h-8q-4 -7 -11.5 -18t-18.5 -23t-25.5 -23t-32.5 -19l10 -22q-24 -56 -51 -120.5t-54.5 -128t-53.5 -123.5t-47 -107q-23 -51 -39 -77t-23 -33q-3 -4 -21.5 -15t-44.5 -14v-11h213v10
q-13 2 -27.5 4.5t-27 8t-20.5 14t-8 21.5q0 22 21 76q14 35 28 69.5t29 72.5h266q15 -39 28 -75t23 -65.5t15.5 -50t5.5 -29.5q0 -14 -9.5 -23t-22 -14t-24 -7t-14.5 -2v-10h292zM434 297h-249q24 59 44.5 109.5t37.5 90.5t28.5 68t17.5 41q9 -22 22.5 -56.5t30 -76
t34 -86.5t34.5 -90z" />
    <glyph glyph-name="AE" unicode="&#xc6;" horiz-adv-x="1016" 
d="M1007 199l-11 3q-41 -85 -88 -129t-110 -52q-29 -4 -55.5 -5t-43.5 -1q-78 0 -95 26q-8 12 -9.5 41.5t-2.5 61.5q-1 33 -1 91v123h23h17t17 -0.5t24 -1.5q58 -3 91 -33q18 -17 33 -51.5t23 -66.5h12v315h-12q-6 -28 -13 -50.5t-19 -39.5t-31.5 -29t-49.5 -19
q-14 -3 -31.5 -5t-33.5 -2.5t-30 -0.5h-20v327q11 2 30.5 3.5t40.5 1.5q66 0 109 -6.5t60 -14.5q35 -17 64.5 -51t69.5 -85l10 5l-49 166h-544v-10q25 -3 44.5 -7.5t36.5 -13.5q-39 -58 -89 -132t-101 -149.5t-97 -143.5t-78 -114q-36 -51 -59.5 -77t-31.5 -33
q-5 -4 -20.5 -15t-42.5 -14v-11h220v10q-13 2 -26 4.5t-23.5 8t-17.5 14t-7 21.5q0 12 9.5 36t38.5 70q16 26 36.5 60t40.5 63h268q0 -38 -0.5 -76t-1.5 -55q0 -16 -0.5 -33.5t-1.5 -33.5t-3.5 -28t-7.5 -18q-15 -18 -33.5 -23.5t-43.5 -9.5v-10h576zM483 308h-253
q34 52 73 110.5l74 111t62.5 92.5t38.5 55h5v-369z" />
    <glyph glyph-name="Ccedilla" unicode="&#xc7;" horiz-adv-x="776" 
d="M727 489v224h-11q-6 -9 -13 -17.5t-13.5 -15t-12 -11t-7.5 -4.5t-18 11t-46 24t-75 24t-105 11q-66 0 -119 -14t-95 -37.5t-73 -54.5t-52 -65q-18 -29 -29.5 -57.5t-18 -54.5t-9 -49t-2.5 -41q0 -80 28 -147.5t79.5 -116t126 -75t167.5 -26.5l-66 -80q42 -8 64 -28.5
t22 -49.5t-14 -44t-34 -15q-27 0 -27 33q0 4 0.5 9t0.5 12q-5 5 -12 8.5t-19 3.5q-17 0 -24.5 -10t-7.5 -21q0 -26 24 -37t60 -11q15 0 34 6t36.5 18t29.5 30t12 42q0 12 -5 25.5t-15.5 27t-27.5 24.5t-42 17l28 40q53 1 93.5 11t68.5 22t43 21.5t17 9.5q5 0 18 -14t25 -31
h12l3 220h-12q-9 -43 -33.5 -83.5t-60 -71.5t-81 -50t-97.5 -19q-66 0 -120 27t-92 73.5t-58.5 109.5t-20.5 135q0 68 19.5 132.5t56 115.5t90.5 82t123 31q50 0 94.5 -18t80 -49t61.5 -73t39 -90z" />
    <glyph glyph-name="Egrave" unicode="&#xc8;" horiz-adv-x="711" 
d="M443 767l-136 167q-22 0 -34 -9t-17 -17v-5l176 -143zM703 191l-11 3q-25 -43 -48.5 -73.5t-48.5 -51.5t-52 -32.5t-59 -15.5q-29 -4 -55.5 -5t-43.5 -1q-40 0 -74 6t-43 20t-11.5 42.5t-3.5 60.5q0 17 -0.5 40.5t-0.5 51.5v60v64h27h20q10 0 20.5 -0.5t25.5 -1.5
q30 -2 52.5 -11t38.5 -23q18 -17 34.5 -51t24.5 -66h12v315h-12q-6 -28 -13.5 -50.5t-20 -39.5t-32.5 -29t-50 -19q-14 -3 -33.5 -5t-38 -2.5t-34.5 -0.5h-21v37v64t0.5 76.5t1.5 75.5q1 18 2 29.5t2 18.5t2 12.5t2 11.5q9 3 29.5 4t41.5 1q66 0 112 -6t63 -14
q71 -35 152 -136l10 5l-68 165h-552v-10q27 -4 44 -8.5t32 -20.5q6 -6 9.5 -19.5t5 -30.5t2 -36t0.5 -37v-195v-58q0 -30 -0.5 -58.5t-1 -52.5t-0.5 -38q0 -16 -1 -32.5t-3.5 -31.5t-5.5 -26.5t-8 -17.5q-14 -16 -35.5 -25t-46.5 -13v-10h612z" />
    <glyph glyph-name="Eacute" unicode="&#xc9;" horiz-adv-x="711" 
d="M498 903v5q-5 8 -17 17t-34 9l-136 -167l11 -7zM703 191l-11 3q-25 -43 -48.5 -73.5t-48.5 -51.5t-52 -32.5t-59 -15.5q-29 -4 -55.5 -5t-43.5 -1q-40 0 -74 6t-43 20t-11.5 42.5t-3.5 60.5q0 17 -0.5 40.5t-0.5 51.5v60v64h27h20q10 0 20.5 -0.5t25.5 -1.5
q30 -2 52.5 -11t38.5 -23q18 -17 34.5 -51t24.5 -66h12v315h-12q-6 -28 -13.5 -50.5t-20 -39.5t-32.5 -29t-50 -19q-14 -3 -34.5 -5t-39.5 -2.5t-34 -0.5h-19v34v64t0.5 78.5t1.5 76.5q1 18 2 29.5t2 18.5t2 12.5t2 11.5q9 3 29.5 4t41.5 1q66 0 112 -6t63 -14
q71 -35 152 -136l10 5l-68 165h-552v-10q27 -4 44 -8.5t32 -20.5q6 -6 9.5 -19.5t5 -30.5t2 -36t0.5 -37v-195v-58q0 -30 -0.5 -58.5t-1 -52.5t-0.5 -38q0 -16 -1 -32.5t-3.5 -31.5t-5.5 -26.5t-8 -17.5q-14 -16 -35.5 -25t-46.5 -13v-10h612z" />
    <glyph glyph-name="Ecircumflex" unicode="&#xca;" horiz-adv-x="711" 
d="M494 771l-106 163h-15l-106 -163l13 -7l100 104l101 -104zM703 191l-11 3q-25 -43 -48.5 -73.5t-48.5 -51.5t-52 -32.5t-59 -15.5q-29 -4 -55.5 -5t-43.5 -1q-40 0 -74 6t-43 20t-11.5 42.5t-3.5 60.5q0 17 -0.5 40.5t-0.5 51.5v60v64h27h20q10 0 20.5 -0.5t25.5 -1.5
q30 -2 52.5 -11t38.5 -23q18 -17 34.5 -51t24.5 -66h12v315h-12q-6 -28 -13.5 -50.5t-20 -39.5t-32.5 -29t-50 -19q-14 -3 -34.5 -5t-40 -2.5t-34.5 -0.5h-18v35v64q0 37 0.5 78t1.5 76q1 18 2 29.5t2 18.5t2 12.5t2 11.5q9 3 29.5 4t41.5 1q66 0 112 -6t63 -14
q71 -35 152 -136l10 5l-68 165h-552v-10q27 -4 44 -8.5t32 -20.5q6 -6 9.5 -19.5t5 -30.5t2 -36t0.5 -37v-195v-58q0 -30 -0.5 -58.5t-1 -52.5t-0.5 -38q0 -16 -1 -32.5t-3.5 -31.5t-5.5 -26.5t-8 -17.5q-14 -16 -35.5 -25t-46.5 -13v-10h612z" />
    <glyph glyph-name="Edieresis" unicode="&#xcb;" horiz-adv-x="711" 
d="M520 830q0 19 -13.5 32.5t-32.5 13.5t-32.5 -13.5t-13.5 -32.5t13.5 -32.5t32.5 -13.5t32.5 13.5t13.5 32.5zM343 830q0 19 -13.5 32.5t-32.5 13.5t-32.5 -13.5t-13.5 -32.5t13.5 -32.5t32.5 -13.5t32.5 13.5t13.5 32.5zM703 191l-11 3q-25 -43 -48.5 -73.5t-48.5 -51.5
t-52 -32.5t-59 -15.5q-29 -4 -55.5 -5t-43.5 -1q-40 0 -74 6t-43 20t-11.5 42.5t-3.5 60.5q0 17 -0.5 40.5t-0.5 51.5v60v64h27h20q10 0 20.5 -0.5t25.5 -1.5q30 -2 52.5 -11t38.5 -23q18 -17 34.5 -51t24.5 -66h12v315h-12q-6 -28 -13.5 -50.5t-20 -39.5t-32.5 -29t-50 -19
q-14 -3 -33.5 -5t-38 -2.5t-34.5 -0.5h-21v35v64t0.5 78t1.5 76q1 18 2 29.5t2 18.5t2 12.5t2 11.5q9 3 29.5 4t41.5 1q66 0 112 -6t63 -14q71 -35 152 -136l10 5l-68 165h-552v-10q27 -4 44 -8.5t32 -20.5q6 -6 9.5 -19.5t5 -30.5t2 -36t0.5 -37v-195v-58q0 -30 -0.5 -58.5
t-1 -52.5t-0.5 -38q0 -16 -1 -32.5t-3.5 -31.5t-5.5 -26.5t-8 -17.5q-14 -16 -35.5 -25t-46.5 -13v-10h612z" />
    <glyph glyph-name="Igrave" unicode="&#xcc;" horiz-adv-x="399" 
d="M256 767l-131 167q-22 0 -33.5 -9t-16.5 -17v-5l170 -143zM349 0v10q-21 2 -47 11t-38 26q-8 11 -9 38t-1 56v226v57v52t0.5 49.5t0.5 49.5q1 23 1.5 49t9.5 43q13 24 37 32t45 11v10h-299v-10q26 -3 46.5 -10.5t34.5 -24.5q6 -7 9 -19.5t4.5 -28t1.5 -33.5v-36v-195v-58
q0 -30 -0.5 -58.5t-1 -52.5t-0.5 -38q0 -16 -0.5 -32.5t-2 -31.5t-4 -26t-7.5 -17q-15 -17 -36.5 -26t-46.5 -13v-10h303z" />
    <glyph glyph-name="Iacute" unicode="&#xcd;" horiz-adv-x="399" 
d="M322 903v5q-5 8 -16.5 17t-33.5 9l-131 -167l11 -7zM349 0v10q-21 2 -47 11t-38 26q-8 11 -9 38t-1 56v226v57v52t0.5 49.5t0.5 49.5q1 23 1.5 49t9.5 43q13 24 37 32t45 11v10h-299v-10q26 -3 46.5 -10.5t34.5 -24.5q6 -7 9 -19.5t4.5 -28t1.5 -33.5v-36v-195v-58
q0 -30 -0.5 -58.5t-1 -52.5t-0.5 -38q0 -16 -0.5 -32.5t-2 -31.5t-4 -26t-7.5 -17q-15 -17 -36.5 -26t-46.5 -13v-10h303z" />
    <glyph glyph-name="Icircumflex" unicode="&#xce;" horiz-adv-x="399" 
d="M306 771l-101 163h-15l-101 -163l13 -7l95 104l96 -104zM349 0v10q-21 2 -47 11t-38 26q-8 11 -9 38t-1 56v226v57v52t0.5 49.5t0.5 49.5q1 23 1.5 49t9.5 43q13 24 37 32t45 11v10h-299v-10q26 -3 46.5 -10.5t34.5 -24.5q6 -7 9 -19.5t4.5 -28t1.5 -33.5v-36v-195v-58
q0 -30 -0.5 -58.5t-1 -52.5t-0.5 -38q0 -16 -0.5 -32.5t-2 -31.5t-4 -26t-7.5 -17q-15 -17 -36.5 -26t-46.5 -13v-10h303z" />
    <glyph glyph-name="Idieresis" unicode="&#xcf;" horiz-adv-x="399" 
d="M329 830q0 19 -13.5 32.5t-32.5 13.5t-32.5 -13.5t-13.5 -32.5t13.5 -32.5t32.5 -13.5t32.5 13.5t13.5 32.5zM162 830q0 19 -13.5 32.5t-32.5 13.5t-32.5 -13.5t-13.5 -32.5t13.5 -32.5t32.5 -13.5t32.5 13.5t13.5 32.5zM349 0v10q-21 2 -47 11t-38 26q-8 11 -9 38t-1 56
v226v57v52t0.5 49.5t0.5 49.5q1 23 1.5 49t9.5 43q13 24 37 32t45 11v10h-299v-10q26 -3 46.5 -10.5t34.5 -24.5q6 -7 9 -19.5t4.5 -28t1.5 -33.5v-36v-195v-58q0 -30 -0.5 -58.5t-1 -52.5t-0.5 -38q0 -16 -0.5 -32.5t-2 -31.5t-4 -26t-7.5 -17q-15 -17 -36.5 -26t-46.5 -13
v-10h303z" />
    <glyph glyph-name="Eth" unicode="&#xd0;" horiz-adv-x="852" 
d="M822 370q0 65 -16.5 115.5t-44 89t-64.5 66.5t-79 46q-32 14 -65 21t-66 10t-66 3h-64h-108q-51 0 -93 -0.5t-71 -0.5h-40v-10q26 -3 47 -10t36 -25q6 -7 9 -19.5t4.5 -28t1.5 -33.5v-36v-179l-114 1v-27l114 1v-57q0 -29 -0.5 -56t-1 -49.5t-0.5 -35.5q0 -16 -1 -33
t-3 -32t-4.5 -27t-7.5 -17q-12 -14 -35.5 -24t-48.5 -13v-10h365q46 0 95 6.5t95 22.5t87 43t72 68t49 98t18 132zM699 368q0 -131 -53.5 -220.5t-161.5 -120.5q-23 -7 -49.5 -9.5t-51.5 -2.5q-27 0 -57.5 5.5t-50.5 25.5q-6 6 -10.5 18.5t-6.5 28t-3.5 32t-1.5 30.5
q-1 32 -1 84v115l179 -1v27l-179 -1q0 112 1 191t6 127q7 2 18.5 3t25 2.5t27.5 2t26 0.5q35 0 59 -2.5t44 -6.5q52 -9 96 -40t76 -75.5t50 -99.5t18 -113z" />
    <glyph glyph-name="Ntilde" unicode="&#xd1;" horiz-adv-x="875" 
d="M638 898h-15q-8 -36 -29.5 -44.5t-59.5 -8.5l-105 21q-48 0 -75.5 -28.5t-38.5 -73.5h14q7 18 13.5 28t15.5 14.5t22.5 5t33.5 0.5l107 -21q29 0 48.5 9t33 23.5t22 34t13.5 40.5zM846 710v10h-248v-10q48 -7 73.5 -24.5t35.5 -45.5q8 -21 9 -57.5t1 -76.5v-340l-474 554
h-203v-10q16 -2 33.5 -6.5t32.5 -15t26 -29t14 -47.5q1 -29 1 -49v-37v-37v-48q0 -67 -1 -125.5t-3 -101.5q-2 -57 -6 -98t-18 -62q-14 -22 -38 -31.5t-48 -12.5v-10h246v10q-41 5 -64.5 16.5t-34.5 34.5q-10 20 -12.5 61t-2.5 92v422q68 -76 129 -147t124.5 -145.5
t133.5 -156.5t155 -180q10 -10 18 -10q5 0 7.5 2.5t2.5 6.5v65t-0.5 72.5t-0.5 71.5v64q0 67 1.5 125.5t3.5 101.5q2 46 4 86.5t9 55.5q12 29 34.5 43t59.5 19z" />
    <glyph glyph-name="Ograve" unicode="&#xd2;" horiz-adv-x="808" 
d="M491 767l-136 167q-22 0 -34 -9t-17 -17v-5l176 -143zM779 365q0 72 -25 138t-72 116.5t-114.5 80.5t-152.5 30q-78 0 -148.5 -25.5t-123 -73t-83.5 -116t-31 -154.5q0 -81 29.5 -148.5t80.5 -116t119 -75t144 -26.5q77 0 145.5 27t120 77t81.5 118t30 148zM655 364
q0 -63 -15.5 -126t-46.5 -113.5t-77.5 -82.5t-109.5 -32t-110.5 29t-79 77t-47.5 111t-16 131q0 65 14.5 128.5t45 113.5t78 81.5t112.5 31.5q64 0 111 -31.5t78.5 -82t47 -112.5t15.5 -123z" />
    <glyph glyph-name="Oacute" unicode="&#xd3;" horiz-adv-x="808" 
d="M514 903v5q-5 8 -17 17t-34 9l-136 -167l11 -7zM779 365q0 72 -25 138t-72 116.5t-114.5 80.5t-152.5 30q-78 0 -148.5 -25.5t-123 -73t-83.5 -116t-31 -154.5q0 -81 29.5 -148.5t80.5 -116t119 -75t144 -26.5q77 0 145.5 27t120 77t81.5 118t30 148zM655 364
q0 -63 -15.5 -126t-46.5 -113.5t-77.5 -82.5t-109.5 -32t-110.5 29t-79 77t-47.5 111t-16 131q0 65 14.5 128.5t45 113.5t78 81.5t112.5 31.5q64 0 111 -31.5t78.5 -82t47 -112.5t15.5 -123z" />
    <glyph glyph-name="Ocircumflex" unicode="&#xd4;" horiz-adv-x="808" 
d="M518 771l-106 163h-15l-106 -163l13 -7l100 104l101 -104zM779 365q0 72 -25 138t-72 116.5t-114.5 80.5t-152.5 30q-78 0 -148.5 -25.5t-123 -73t-83.5 -116t-31 -154.5q0 -81 29.5 -148.5t80.5 -116t119 -75t144 -26.5q77 0 145.5 27t120 77t81.5 118t30 148zM655 364
q0 -63 -15.5 -126t-46.5 -113.5t-77.5 -82.5t-109.5 -32t-110.5 29t-79 77t-47.5 111t-16 131q0 65 14.5 128.5t45 113.5t78 81.5t112.5 31.5q64 0 111 -31.5t78.5 -82t47 -112.5t15.5 -123z" />
    <glyph glyph-name="Otilde" unicode="&#xd5;" horiz-adv-x="808" 
d="M570 898h-15q-8 -36 -29.5 -44.5t-59.5 -8.5l-105 21q-48 0 -75.5 -28.5t-38.5 -73.5h14q7 18 13.5 28t15.5 14.5t22.5 5t33.5 0.5l107 -21q29 0 48.5 9t33 23.5t22 34t13.5 40.5zM779 365q0 72 -25 138t-72 116.5t-114.5 80.5t-152.5 30q-78 0 -148.5 -25.5t-123 -73
t-83.5 -116t-31 -154.5q0 -81 29.5 -148.5t80.5 -116t119 -75t144 -26.5q77 0 145.5 27t120 77t81.5 118t30 148zM655 364q0 -63 -15.5 -126t-46.5 -113.5t-77.5 -82.5t-109.5 -32t-110.5 29t-79 77t-47.5 111t-16 131q0 65 14.5 128.5t45 113.5t78 81.5t112.5 31.5
q64 0 111 -31.5t78.5 -82t47 -112.5t15.5 -123z" />
    <glyph glyph-name="Odieresis" unicode="&#xd6;" horiz-adv-x="808" 
d="M542 830q0 19 -13.5 32.5t-32.5 13.5t-32.5 -13.5t-13.5 -32.5t13.5 -32.5t32.5 -13.5t32.5 13.5t13.5 32.5zM365 830q0 19 -13.5 32.5t-32.5 13.5t-32.5 -13.5t-13.5 -32.5t13.5 -32.5t32.5 -13.5t32.5 13.5t13.5 32.5zM779 365q0 72 -25 138t-72 116.5t-114.5 80.5
t-152.5 30q-78 0 -148.5 -25.5t-123 -73t-83.5 -116t-31 -154.5q0 -81 29.5 -148.5t80.5 -116t119 -75t144 -26.5q77 0 145.5 27t120 77t81.5 118t30 148zM655 364q0 -63 -15.5 -126t-46.5 -113.5t-77.5 -82.5t-109.5 -32t-110.5 29t-79 77t-47.5 111t-16 131
q0 65 14.5 128.5t45 113.5t78 81.5t112.5 31.5q64 0 111 -31.5t78.5 -82t47 -112.5t15.5 -123z" />
    <glyph glyph-name="multiply" unicode="&#xd7;" horiz-adv-x="700" 
d="M544 94l-168 166l168 166l-28 28l-166 -168l-166 168l-28 -27l168 -166l-168 -167l28 -28l167 168l166 -168z" />
    <glyph glyph-name="Oslash" unicode="&#xd8;" horiz-adv-x="808" 
d="M779 365q0 90 -38 169t-110 130l55 74l-19 13l-53 -76q-41 26 -90.5 40.5t-108.5 14.5q-78 0 -148.5 -25.5t-123 -73t-83.5 -116t-31 -154.5q0 -97 41 -173t110 -125l-64 -84l19 -13l61 86q45 -29 97 -43t109 -14q77 0 145.5 27t120 77t81.5 118t30 148zM577 622
l-361 -509q-32 49 -47.5 112.5t-15.5 132.5q0 65 14.5 128.5t45 113.5t78 81.5t112.5 31.5q56 0 100 -24.5t74 -66.5zM655 364q0 -63 -15.5 -126t-46.5 -113.5t-77.5 -82.5t-109.5 -32q-58 0 -101.5 22.5t-75.5 65.5l361 508q33 -51 49 -115t16 -127z" />
    <glyph glyph-name="Ugrave" unicode="&#xd9;" horiz-adv-x="834" 
d="M496 767l-136 167q-22 0 -34 -9t-17 -17v-5l176 -143zM824 710v10h-248v-10q48 -7 72.5 -24.5t34.5 -45.5q4 -10 6 -26.5t3 -35.5t1.5 -40t0.5 -41v-41v-39v-41v-49q0 -34 -2.5 -69.5t-10 -69.5t-23 -64t-42 -53t-66 -36t-96.5 -13q-50 0 -89 16.5t-66 47t-42 74
t-16 96.5q0 24 -0.5 45.5t-0.5 44.5v51v61v61v42t0.5 33.5t1.5 35.5q1 23 10 38t22 23.5t29 12.5t30 6v10h-298v-10q26 -3 46.5 -10.5t34.5 -24.5q6 -7 9 -19.5t4.5 -28t1.5 -33.5v-36v-133q0 -55 -0.5 -100t-0.5 -73q0 -12 1.5 -36.5t10 -54t26 -60t49.5 -56t81.5 -40.5
t121.5 -15q73 0 123 15.5t82 42t49.5 59t25.5 65t9.5 61.5t2.5 48q2 67 3.5 120t2.5 96q0 23 1 46.5t3 44.5t4.5 37t5.5 23q12 29 33.5 43t58.5 19z" />
    <glyph glyph-name="Uacute" unicode="&#xda;" horiz-adv-x="834" 
d="M575 903v5q-5 8 -17 17t-34 9l-136 -167l11 -7zM824 710v10h-248v-10q48 -7 72.5 -24.5t34.5 -45.5q4 -10 6 -26.5t3 -35.5t1.5 -40t0.5 -41v-41v-39v-41v-49q0 -34 -2.5 -69.5t-10 -69.5t-23 -64t-42 -53t-66 -36t-96.5 -13q-50 0 -89 16.5t-66 47t-42 74t-16 96.5
q0 24 -0.5 45.5t-0.5 44.5v51v61v59v40t0.5 33t1.5 40q1 23 10 38t22 23.5t29 12.5t30 6v10h-298v-10q26 -3 46.5 -10.5t34.5 -24.5q6 -7 9 -19.5t4.5 -28t1.5 -33.5v-36v-133q0 -55 -0.5 -100t-0.5 -73q0 -12 1.5 -36.5t10 -54t26 -60t49.5 -56t81.5 -40.5t121.5 -15
q73 0 123 15.5t82 42t49.5 59t25.5 65t9.5 61.5t2.5 48q2 67 3.5 120t2.5 96q0 23 1 46.5t3 44.5t4.5 37t5.5 23q12 29 33.5 43t58.5 19z" />
    <glyph glyph-name="Ucircumflex" unicode="&#xdb;" horiz-adv-x="834" 
d="M564 771l-106 163h-15l-106 -163l13 -7l100 104l101 -104zM824 710v10h-248v-10q48 -7 72.5 -24.5t34.5 -45.5q4 -10 6 -26.5t3 -35.5t1.5 -40t0.5 -41v-41v-39v-41v-49q0 -34 -2.5 -69.5t-10 -69.5t-23 -64t-42 -53t-66 -36t-96.5 -13q-50 0 -89 16.5t-66 47t-42 74
t-16 96.5q0 24 -0.5 45.5t-0.5 44.5v51v61v61v41q0 18 0.5 33.5t1.5 36.5q1 23 10 38t22 23.5t29 12.5t30 6v10h-298v-10q26 -3 46.5 -10.5t34.5 -24.5q6 -7 9 -19.5t4.5 -28t1.5 -33.5v-36v-133q0 -55 -0.5 -100t-0.5 -73q0 -12 1.5 -36.5t10 -54t26 -60t49.5 -56
t81.5 -40.5t121.5 -15q73 0 123 15.5t82 42t49.5 59t25.5 65t9.5 61.5t2.5 48q2 67 3.5 120t2.5 96q0 23 1 46.5t3 44.5t4.5 37t5.5 23q12 29 33.5 43t58.5 19z" />
    <glyph glyph-name="Udieresis" unicode="&#xdc;" horiz-adv-x="834" 
d="M585 830q0 19 -13.5 32.5t-32.5 13.5t-32.5 -13.5t-13.5 -32.5t13.5 -32.5t32.5 -13.5t32.5 13.5t13.5 32.5zM408 830q0 19 -13.5 32.5t-32.5 13.5t-32.5 -13.5t-13.5 -32.5t13.5 -32.5t32.5 -13.5t32.5 13.5t13.5 32.5zM824 710v10h-248v-10q48 -7 72.5 -24.5
t34.5 -45.5q4 -10 6 -26.5t3 -35.5t1.5 -40t0.5 -41v-41v-39v-41v-49q0 -34 -2.5 -69.5t-10 -69.5t-23 -64t-42 -53t-66 -36t-96.5 -13q-50 0 -89 16.5t-66 47t-42 74t-16 96.5q0 24 -0.5 45.5t-0.5 44.5v51v61v51v38t0.5 36t1.5 47q1 23 10 38t22 23.5t29 12.5t30 6v10
h-298v-10q26 -3 46.5 -10.5t34.5 -24.5q6 -7 9 -19.5t4.5 -28t1.5 -33.5v-36v-133q0 -55 -0.5 -100t-0.5 -73q0 -12 1.5 -36.5t10 -54t26 -60t49.5 -56t81.5 -40.5t121.5 -15q73 0 123 15.5t82 42t49.5 59t25.5 65t9.5 61.5t2.5 48q2 67 3.5 120t2.5 96q0 23 1 46.5t3 44.5
t4.5 37t5.5 23q12 29 33.5 43t58.5 19z" />
    <glyph glyph-name="Yacute" unicode="&#xdd;" horiz-adv-x="649" 
d="M476 903v5q-5 8 -17 17t-34 9l-136 -167l11 -7zM682 710v10h-231v-10q14 -2 29 -4.5t27.5 -7.5t20.5 -14t8 -25q0 -10 -4 -22t-9.5 -23.5t-11.5 -22t-11 -18.5q-9 -16 -26.5 -44t-37 -58.5t-38.5 -60t-32 -48.5q-16 27 -34.5 57t-36.5 58.5t-33 54t-26 43.5
q-16 27 -30.5 53.5t-14.5 39.5t8 20.5t21 12t28 6.5t30 3v10h-303v-10q20 -1 35.5 -11t31.5 -27t31.5 -41t34.5 -53q10 -15 24.5 -38t31 -50t33.5 -54.5t31.5 -51.5t25 -41t14.5 -23q0 -55 -0.5 -93.5t-1.5 -66.5q0 -16 -0.5 -33t-2 -32t-4 -27t-7.5 -17
q-22 -25 -41.5 -31.5t-45.5 -9.5v-10h308v10q-22 4 -46 11t-39 29q-8 11 -9.5 38.5t-1.5 56.5v201q12 18 33 50t43.5 67t44 67.5t33.5 51.5q18 28 33.5 50t32.5 38t37 26t48 14z" />
    <glyph glyph-name="Thorn" unicode="&#xde;" horiz-adv-x="656" 
d="M633 383q0 62 -28.5 105t-73.5 66t-96 29.5t-117 6.5q-13 0 -27.5 -0.5t-38.5 -0.5q0 42 4 61.5t11 27.5q13 16 35.5 22.5t49.5 9.5v10h-315v-10q27 -4 50.5 -9.5t38.5 -21.5q6 -6 9.5 -19.5t5 -30t2 -35t0.5 -36.5v-195v-58q0 -30 -0.5 -58.5t-1 -52.5t-0.5 -38
q0 -16 -1 -33t-2.5 -32t-4.5 -27t-8 -18q-13 -16 -36 -24t-48 -12v-10h322v10q-41 2 -65.5 15t-32.5 26q-6 9 -8.5 24.5t-3.5 32.5t-1 33v25h54t61.5 2.5t63.5 7.5t60 15q27 10 53 27.5t45.5 41.5t31.5 55t12 68zM522 384q0 -63 -32.5 -114.5t-96.5 -73.5
q-31 -11 -65.5 -13.5t-75.5 -2.5v60v76v82v77t0.5 61t0.5 35q7 1 20 2t34 1q29 0 58 -4t53 -15q48 -23 76 -68t28 -103z" />
    <glyph glyph-name="germandbls" unicode="&#xdf;" horiz-adv-x="536" 
d="M527 138q0 47 -18 73.5t-52 52.5q-22 17 -38 28.5t-37 28.5q-17 14 -31.5 33.5t-14.5 49.5q0 23 7.5 39t19.5 28.5t25 24.5t25 27t19.5 35t7.5 50q0 16 -5.5 37t-21 39.5t-43.5 31t-73 12.5q-31 0 -61 -9.5t-56.5 -26.5t-47 -41.5t-32.5 -53.5q-9 -22 -11.5 -51t-2.5 -65
l-73 -41v-11h72v-387q0 -8 -7.5 -13.5t-19 -9t-24.5 -6t-25 -3.5v-10h215v10q-19 2 -37.5 9t-18.5 20v434v26t1 22t2 24.5t2 33.5q3 47 18 73t32 39t33 15.5t22 2.5q47 -5 73.5 -36.5t26.5 -82.5q0 -39 -4.5 -60.5t-13 -34.5t-21 -22.5t-29.5 -24.5q-21 -20 -34 -38t-13 -48
q0 -38 21 -64t47 -48q25 -21 49 -37.5t47 -35.5q32 -26 32 -75q0 -18 -5 -34t-14.5 -28.5t-23.5 -20t-33 -7.5q-22 0 -41.5 11t-35 28.5t-28 40.5t-20.5 47h-9v-118q14 -7 30 -12t31 -7t28.5 -2.5t20.5 -0.5q39 0 70 9.5t52.5 28.5t33.5 45t12 56z" />
    <glyph glyph-name="agrave" unicode="&#xe0;" horiz-adv-x="448" 
d="M285 520l-101 176q-22 0 -31 -8t-15 -16v-5l137 -153zM465 98h-6q-4 -15 -15 -24.5t-34 -9.5q-19 0 -35 14.5t-16 59.5q0 34 0.5 62.5t0.5 55.5t0.5 56t0.5 65q0 17 -1 34.5t-5 24.5q-10 20 -33 33.5t-49 13.5q-13 0 -33.5 -6t-45 -16t-51.5 -24t-53 -29q-8 -5 -18.5 -11
t-19.5 -14t-15 -18t-6 -22q0 -15 11.5 -26.5t27.5 -11.5q17 0 31.5 11t14.5 25v45q0 6 7 14.5t19 17t27.5 14t31.5 5.5q24 0 39 -6.5t23.5 -14.5t12 -15.5t3.5 -9.5v-103q-10 -6 -24.5 -13.5t-33.5 -18t-44.5 -25.5t-58.5 -36t-55.5 -47t-22.5 -54q0 -26 8.5 -44t22 -29.5
t30 -16t32.5 -4.5q27 0 49.5 8.5t41 22.5t32 30t21.5 29l2 -1q0 -50 26.5 -70t60.5 -20q21 0 39 7.5t31.5 21.5t21 32.5t7.5 37.5zM279 118q0 -17 -12 -28q-17 -17 -37 -23t-46 -6q-29 0 -47 21t-18 47t18.5 46.5t44 37.5t52.5 31.5t45 27.5v-154z" />
    <glyph glyph-name="aacute" unicode="&#xe1;" horiz-adv-x="448" 
d="M328 667v5q-6 8 -15 16t-31 8l-104 -176l10 -6zM465 98h-6q-4 -15 -15 -24.5t-34 -9.5q-19 0 -35 14.5t-16 59.5q0 34 0.5 62.5t0.5 55.5t0.5 56t0.5 65q0 17 -1 34.5t-5 24.5q-10 20 -33 33.5t-49 13.5q-13 0 -33.5 -6t-45 -16t-51.5 -24t-53 -29q-8 -5 -18.5 -11
t-19.5 -14t-15 -18t-6 -22q0 -15 11.5 -26.5t27.5 -11.5q17 0 31.5 11t14.5 25v45q0 6 7 14.5t19 17t27.5 14t31.5 5.5q24 0 39 -6.5t23.5 -14.5t12 -15.5t3.5 -9.5v-103q-10 -6 -24.5 -13.5t-33.5 -18t-44.5 -25.5t-58.5 -36t-55.5 -47t-22.5 -54q0 -26 8.5 -44t22 -29.5
t30 -16t32.5 -4.5q27 0 49.5 8.5t41 22.5t32 30t21.5 29l2 -1q0 -50 26.5 -70t60.5 -20q21 0 39 7.5t31.5 21.5t21 32.5t7.5 37.5zM279 118q0 -17 -12 -28q-17 -17 -37 -23t-46 -6q-29 0 -47 21t-18 47t18.5 46.5t44 37.5t52.5 31.5t45 27.5v-154z" />
    <glyph glyph-name="acircumflex" unicode="&#xe2;" horiz-adv-x="448" 
d="M317 528l-95 170h-15l-95 -170l12 -7l90 111l91 -111zM465 98h-6q-4 -15 -15 -24.5t-34 -9.5q-19 0 -35 14.5t-16 59.5q0 34 0.5 62.5t0.5 55.5t0.5 56t0.5 65q0 17 -1 34.5t-5 24.5q-10 20 -33 33.5t-49 13.5q-13 0 -33.5 -6t-45 -16t-51.5 -24t-53 -29q-8 -5 -18.5 -11
t-19.5 -14t-15 -18t-6 -22q0 -15 11.5 -26.5t27.5 -11.5q17 0 31.5 11t14.5 25v45q0 6 7 14.5t19 17t27.5 14t31.5 5.5q24 0 39 -6.5t23.5 -14.5t12 -15.5t3.5 -9.5v-103q-10 -6 -24.5 -13.5t-33.5 -18t-44.5 -25.5t-58.5 -36t-55.5 -47t-22.5 -54q0 -26 8.5 -44t22 -29.5
t30 -16t32.5 -4.5q27 0 49.5 8.5t41 22.5t32 30t21.5 29l2 -1q0 -50 26.5 -70t60.5 -20q21 0 39 7.5t31.5 21.5t21 32.5t7.5 37.5zM279 118q0 -17 -12 -28q-17 -17 -37 -23t-46 -6q-29 0 -47 21t-18 47t18.5 46.5t44 37.5t52.5 31.5t45 27.5v-154z" />
    <glyph glyph-name="atilde" unicode="&#xe3;" horiz-adv-x="448" 
d="M364 665h-14q-7 -34 -28 -42.5t-58 -8.5l-85 19q-47 0 -73 -27.5t-37 -70.5h13q7 18 13 27t15 13.5t22 5t32 0.5l87 -19q28 0 47 8.5t32 23t21 33t13 38.5zM465 98h-6q-4 -15 -15 -24.5t-34 -9.5q-19 0 -35 14.5t-16 59.5q0 34 0.5 62.5t0.5 55.5t0.5 56t0.5 65
q0 17 -1 34.5t-5 24.5q-10 20 -33 33.5t-49 13.5q-13 0 -33.5 -6t-45 -16t-51.5 -24t-53 -29q-8 -5 -18.5 -11t-19.5 -14t-15 -18t-6 -22q0 -15 11.5 -26.5t27.5 -11.5q17 0 31.5 11t14.5 25v45q0 6 7 14.5t19 17t27.5 14t31.5 5.5q24 0 39 -6.5t23.5 -14.5t12 -15.5
t3.5 -9.5v-103q-10 -6 -24.5 -13.5t-33.5 -18t-44.5 -25.5t-58.5 -36t-55.5 -47t-22.5 -54q0 -26 8.5 -44t22 -29.5t30 -16t32.5 -4.5q27 0 49.5 8.5t41 22.5t32 30t21.5 29l2 -1q0 -50 26.5 -70t60.5 -20q21 0 39 7.5t31.5 21.5t21 32.5t7.5 37.5zM279 118q0 -17 -12 -28
q-17 -17 -37 -23t-46 -6q-29 0 -47 21t-18 47t18.5 46.5t44 37.5t52.5 31.5t45 27.5v-154z" />
    <glyph glyph-name="adieresis" unicode="&#xe4;" horiz-adv-x="448" 
d="M348 600q0 19 -13.5 32.5t-32.5 13.5t-32.5 -13.5t-13.5 -32.5t13.5 -32.5t32.5 -13.5t32.5 13.5t13.5 32.5zM191 600q0 19 -13.5 32.5t-32.5 13.5t-32.5 -13.5t-13.5 -32.5t13.5 -32.5t32.5 -13.5t32.5 13.5t13.5 32.5zM465 98h-6q-4 -15 -15 -24.5t-34 -9.5
q-19 0 -35 14.5t-16 59.5q0 34 0.5 62.5t0.5 55.5t0.5 56t0.5 65q0 17 -1 34.5t-5 24.5q-10 20 -33 33.5t-49 13.5q-13 0 -33.5 -6t-45 -16t-51.5 -24t-53 -29q-8 -5 -18.5 -11t-19.5 -14t-15 -18t-6 -22q0 -15 11.5 -26.5t27.5 -11.5q17 0 31.5 11t14.5 25v45q0 6 7 14.5
t19 17t27.5 14t31.5 5.5q24 0 39 -6.5t23.5 -14.5t12 -15.5t3.5 -9.5v-103q-10 -6 -24.5 -13.5t-33.5 -18t-44.5 -25.5t-58.5 -36t-55.5 -47t-22.5 -54q0 -26 8.5 -44t22 -29.5t30 -16t32.5 -4.5q27 0 49.5 8.5t41 22.5t32 30t21.5 29l2 -1q0 -50 26.5 -70t60.5 -20
q21 0 39 7.5t31.5 21.5t21 32.5t7.5 37.5zM279 118q0 -17 -12 -28q-17 -17 -37 -23t-46 -6q-29 0 -47 21t-18 47t18.5 46.5t44 37.5t52.5 31.5t45 27.5v-154z" />
    <glyph glyph-name="aring" unicode="&#xe5;" horiz-adv-x="448" 
d="M305 592q0 32 -21 52t-53 20q-31 0 -52.5 -20.5t-21.5 -51.5q0 -32 20.5 -52t53.5 -20q32 0 53 20.5t21 51.5zM465 98h-6q-4 -15 -15 -24.5t-34 -9.5q-19 0 -35 14.5t-16 59.5q0 34 0.5 62.5t0.5 55.5t0.5 56t0.5 65q0 17 -1 34.5t-5 24.5q-10 20 -33 33.5t-49 13.5
q-13 0 -33.5 -6t-45 -16t-51.5 -24t-53 -29q-8 -5 -18.5 -11t-19.5 -14t-15 -18t-6 -22q0 -15 11.5 -26.5t27.5 -11.5q17 0 31.5 11t14.5 25v45q0 6 7 14.5t19 17t27.5 14t31.5 5.5q24 0 39 -6.5t23.5 -14.5t12 -15.5t3.5 -9.5v-103q-10 -6 -24.5 -13.5t-33.5 -18
t-44.5 -25.5t-58.5 -36t-55.5 -47t-22.5 -54q0 -26 8.5 -44t22 -29.5t30 -16t32.5 -4.5q27 0 49.5 8.5t41 22.5t32 30t21.5 29l2 -1q0 -50 26.5 -70t60.5 -20q21 0 39 7.5t31.5 21.5t21 32.5t7.5 37.5zM278 592q0 -22 -12.5 -37t-34.5 -15t-34.5 15t-12.5 37q0 23 13 37.5
t34 14.5q22 0 34.5 -15t12.5 -37zM279 118q0 -17 -12 -28q-17 -17 -37 -23t-46 -6q-29 0 -47 21t-18 47t18.5 46.5t44 37.5t52.5 31.5t45 27.5v-154z" />
    <glyph glyph-name="ae" unicode="&#xe6;" horiz-adv-x="687" 
d="M684 153l-8 2q-12 -37 -49.5 -63t-87.5 -26q-44 0 -77.5 15.5t-56.5 43.5t-35 66.5t-12 84.5q0 12 0.5 23t0.5 19h315q-3 80 -53.5 122.5t-136.5 42.5q-38 0 -70.5 -13.5t-58.5 -37.5q-9 23 -33 37t-50 14q-13 0 -33 -6t-44.5 -16t-51.5 -24t-53 -29q-8 -5 -18.5 -11
t-19.5 -14t-15 -18t-6 -22q0 -15 11.5 -26.5t27.5 -11.5q17 0 31.5 11t14.5 25v45q0 7 7 16t19 16.5t27 13t31 5.5q24 0 39 -6.5t23.5 -14.5t12 -15.5t3.5 -9.5v-104q-10 -6 -28 -16t-40.5 -22t-47 -25.5t-47.5 -28.5q-32 -21 -54.5 -47t-22.5 -55q0 -26 8.5 -44t21.5 -29.5
t29 -16t32 -4.5q27 0 52 9.5t48 26t42 38.5t34 44q12 -25 30.5 -46.5t43.5 -38t54.5 -25t62.5 -8.5q41 0 74.5 15t57.5 38.5t38 51t18 49.5zM576 376q0 -14 -3.5 -21t-10.5 -15q-10 -4 -23 -5t-28 -1h-151q0 15 8.5 37.5t24.5 43.5t39 36t53 15q43 0 67 -26.5t24 -63.5z
M278 103q-17 -25 -41 -34.5t-56 -9.5q-29 0 -47 21.5t-18 47.5t18.5 46.5t44.5 37.5t53.5 31.5t45.5 27.5v-168z" />
    <glyph glyph-name="ccedilla" unicode="&#xe7;" horiz-adv-x="432" 
d="M441 143l-8 4q-24 -40 -59.5 -61.5t-98.5 -21.5q-39 0 -70.5 15t-53.5 42t-34 64.5t-12 82.5q0 41 11 77t30 63t45 43t57 16q42 0 61.5 -24.5t19.5 -61.5q0 -20 -5 -34q4 -15 17.5 -25t30.5 -10q21 0 36.5 15.5t15.5 36.5q0 29 -15.5 51t-40.5 37t-57 23t-65 8
q-49 0 -90.5 -20t-71.5 -53t-47 -76.5t-17 -91.5q0 -51 16.5 -96t46 -78.5t70 -51.5t88.5 -18q34 0 56 5l-96 -78q36 -12 54.5 -33t18.5 -47q0 -27 -13 -41t-31 -14q-22 0 -22 31q0 4 0.5 9t0.5 11q-9 11 -29 11q-17 0 -24 -9.5t-7 -19.5q0 -24 21 -34.5t55 -10.5
q14 0 32 5.5t34.5 16.5t27.5 28t11 40q0 6 -2 17t-9.5 23.5t-22.5 25.5t-40 22l76 55q15 11 31.5 25.5t32 31.5t27.5 36.5t18 38.5z" />
    <glyph glyph-name="egrave" unicode="&#xe8;" horiz-adv-x="435" 
d="M283 520l-101 176q-22 0 -31 -8t-15 -16v-5l137 -153zM433 152l-8 2q-12 -37 -49.5 -62.5t-87.5 -25.5q-46 0 -81 17t-58 46.5t-35 68t-12 80.5q0 11 1 21.5t1 18.5h321q-3 42 -19 73t-41.5 51.5t-60 30.5t-73.5 10q-48 0 -87.5 -20.5t-67 -53.5t-42.5 -74.5t-15 -83.5
q0 -52 16 -98.5t45.5 -81t71.5 -53.5t93 -19q41 0 74.5 15t57.5 38t38 50.5t18 49.5zM326 376q0 -14 -3.5 -21t-10.5 -15q-10 -4 -23 -5t-28 -1q-23 0 -42 -0.5t-36.5 -1t-35.5 -0.5h-41q2 12 11 34.5t25.5 44.5t39 38.5t50.5 16.5q43 0 68.5 -26.5t25.5 -63.5z" />
    <glyph glyph-name="eacute" unicode="&#xe9;" horiz-adv-x="435" 
d="M340 667v5q-6 8 -15 16t-31 8l-104 -176l10 -6zM433 152l-8 2q-12 -37 -49.5 -62.5t-87.5 -25.5q-46 0 -81 17t-58 46.5t-35 68t-12 80.5q0 11 1 21.5t1 18.5h321q-3 42 -19 73t-41.5 51.5t-60 30.5t-73.5 10q-48 0 -87.5 -20.5t-67 -53.5t-42.5 -74.5t-15 -83.5
q0 -52 16 -98.5t45.5 -81t71.5 -53.5t93 -19q41 0 74.5 15t57.5 38t38 50.5t18 49.5zM326 376q0 -14 -3.5 -21t-10.5 -15q-10 -4 -23 -5t-28 -1q-23 0 -42 -0.5t-36.5 -1t-35.5 -0.5h-41q2 12 11 34.5t25.5 44.5t39 38.5t50.5 16.5q43 0 68.5 -26.5t25.5 -63.5z" />
    <glyph glyph-name="ecircumflex" unicode="&#xea;" horiz-adv-x="435" 
d="M342 528l-95 170h-15l-95 -170l12 -7l90 111l91 -111zM433 152l-8 2q-12 -37 -49.5 -62.5t-87.5 -25.5q-46 0 -81 17t-58 46.5t-35 68t-12 80.5q0 11 1 21.5t1 18.5h321q-3 42 -19 73t-41.5 51.5t-60 30.5t-73.5 10q-48 0 -87.5 -20.5t-67 -53.5t-42.5 -74.5t-15 -83.5
q0 -52 16 -98.5t45.5 -81t71.5 -53.5t93 -19q41 0 74.5 15t57.5 38t38 50.5t18 49.5zM326 376q0 -14 -3.5 -21t-10.5 -15q-10 -4 -23 -5t-28 -1q-23 0 -42 -0.5t-36.5 -1t-35.5 -0.5h-41q2 12 11 34.5t25.5 44.5t39 38.5t50.5 16.5q43 0 68.5 -26.5t25.5 -63.5z" />
    <glyph glyph-name="edieresis" unicode="&#xeb;" horiz-adv-x="435" 
d="M356 600q0 19 -13.5 32.5t-32.5 13.5t-32.5 -13.5t-13.5 -32.5t13.5 -32.5t32.5 -13.5t32.5 13.5t13.5 32.5zM198 600q0 19 -13.5 32.5t-32.5 13.5t-32.5 -13.5t-13.5 -32.5t13.5 -32.5t32.5 -13.5t32.5 13.5t13.5 32.5zM433 152l-8 2q-12 -37 -49.5 -62.5t-87.5 -25.5
q-46 0 -81 17t-58 46.5t-35 68t-12 80.5q0 11 1 21.5t1 18.5h321q-3 42 -19 73t-41.5 51.5t-60 30.5t-73.5 10q-48 0 -87.5 -20.5t-67 -53.5t-42.5 -74.5t-15 -83.5q0 -52 16 -98.5t45.5 -81t71.5 -53.5t93 -19q41 0 74.5 15t57.5 38t38 50.5t18 49.5zM326 376
q0 -14 -3.5 -21t-10.5 -15q-10 -4 -23 -5t-28 -1q-23 0 -42 -0.5t-36.5 -1t-35.5 -0.5h-41q2 12 11 34.5t25.5 44.5t39 38.5t50.5 16.5q43 0 68.5 -26.5t25.5 -63.5z" />
    <glyph glyph-name="igrave" unicode="&#xec;" horiz-adv-x="254" 
d="M171 520l-101 176q-22 0 -31 -8t-15 -16v-5l137 -153zM233 0v10q-10 2 -20.5 2.5t-19.5 2.5t-15.5 6.5t-8.5 14.5v447h-6l-135 -44v-7q13 -5 26 -11t22 -11q8 -5 9 -9t1 -12v-347q0 -9 -6.5 -15t-16 -9.5t-21.5 -5t-24 -2.5v-10h215z" />
    <glyph glyph-name="iacute" unicode="&#xed;" horiz-adv-x="254" 
d="M207 667v5q-6 8 -15 16t-31 8l-104 -176l10 -6zM233 0v10q-10 2 -20.5 2.5t-19.5 2.5t-15.5 6.5t-8.5 14.5v447h-6l-135 -44v-7q13 -5 26 -11t22 -11q8 -5 9 -9t1 -12v-347q0 -9 -6.5 -15t-16 -9.5t-21.5 -5t-24 -2.5v-10h215z" />
    <glyph glyph-name="icircumflex" unicode="&#xee;" horiz-adv-x="254" 
d="M218 527l-89 171h-15l-91 -170l12 -7l86 112l85 -113zM233 0v10q-10 2 -20.5 2.5t-19.5 2.5t-15.5 6.5t-8.5 14.5v447h-6l-135 -44v-7q13 -5 26 -11t22 -11q8 -5 9 -9t1 -12v-347q0 -9 -6.5 -15t-16 -9.5t-21.5 -5t-24 -2.5v-10h215z" />
    <glyph glyph-name="idieresis" unicode="&#xef;" horiz-adv-x="254" 
d="M237 600q0 19 -13.5 32.5t-32.5 13.5t-32.5 -13.5t-13.5 -32.5t13.5 -32.5t32.5 -13.5t32.5 13.5t13.5 32.5zM95 600q0 19 -13.5 32.5t-32.5 13.5t-32.5 -13.5t-13.5 -32.5t13.5 -32.5t32.5 -13.5t32.5 13.5t13.5 32.5zM233 0v10q-10 2 -20.5 2.5t-19.5 2.5t-15.5 6.5
t-8.5 14.5v447h-6l-135 -44v-7q13 -5 26 -11t22 -11q8 -5 9 -9t1 -12v-347q0 -9 -6.5 -15t-16 -9.5t-21.5 -5t-24 -2.5v-10h215z" />
    <glyph glyph-name="eth" unicode="&#xf0;" horiz-adv-x="502" 
d="M482 277q0 55 -14.5 106.5t-41 97.5t-62.5 86t-78 72l93 62l-17 20l-97 -68q-45 28 -88.5 47t-88.5 27l-4 -14q35 -14 70.5 -35.5t68.5 -53.5l-114 -73l15 -21l115 79q14 -13 30 -32.5t31 -41.5t27 -46t18 -46q-17 5 -41.5 10.5t-61.5 5.5q-50 0 -91 -17.5t-70.5 -47.5
t-45.5 -70t-16 -85q0 -49 16.5 -93t47 -77.5t73.5 -52.5t95 -19q48 0 90.5 20t73.5 57.5t49 89.5t18 113zM392 233q0 -107 -37 -164.5t-106 -57.5q-62 0 -100 52.5t-38 146.5q0 41 8.5 81.5t27.5 73t48 53t71 20.5q12 0 25 -2.5t25 -6.5t21.5 -9t13.5 -10q11 -14 18.5 -34.5
t12.5 -44t7.5 -49t2.5 -49.5z" />
    <glyph glyph-name="ntilde" unicode="&#xf1;" horiz-adv-x="522" 
d="M422 665h-14q-7 -34 -28 -42.5t-58 -8.5l-89 19q-47 0 -73 -27.5t-37 -70.5h13q7 18 13 27t15 13.5t22 5t32 0.5l91 -19q28 0 47 8.5t32 23t21 33t13 38.5zM512 0v9q-9 1 -19.5 2.5t-19.5 4t-15.5 7.5t-6.5 12v294q0 68 -31 111t-89 43q-27 0 -52 -10.5t-46 -26.5
t-37.5 -35.5t-27.5 -36.5l-2 1v108h-6l-131 -47v-6q12 -5 24 -11.5t21 -11.5q7 -5 8.5 -9t1.5 -12v-344q0 -16 -16.5 -23t-39.5 -9v-10h189v10q-20 3 -33 5t-17 21v328q27 27 49 41t55 14q52 0 74 -35.5t22 -93.5v-252q0 -16 -16 -20.5t-43 -6.5v-11h204z" />
    <glyph glyph-name="ograve" unicode="&#xf2;" horiz-adv-x="511" 
d="M311 520l-101 176q-22 0 -31 -8t-15 -16v-5l137 -153zM492 245q0 60 -21.5 104.5t-55 74t-74.5 44.5t-81 15q-54 0 -98.5 -20t-76 -53t-49 -76t-17.5 -89q0 -64 22.5 -111.5t58 -78t77.5 -44.5t81 -14q47 0 89.5 19t74.5 53t51 79.5t19 96.5zM399 246q0 -35 -7.5 -76
t-24 -76.5t-43 -59t-65.5 -23.5t-67 18.5t-46 50t-26 72.5t-8 87q0 42 9.5 82.5t28 73t44.5 52.5t59 20q41 0 69 -21.5t45 -54.5t24.5 -72t7.5 -73z" />
    <glyph glyph-name="oacute" unicode="&#xf3;" horiz-adv-x="511" 
d="M352 667v5q-6 8 -15 16t-31 8l-104 -176l10 -6zM492 245q0 60 -21.5 104.5t-55 74t-74.5 44.5t-81 15q-54 0 -98.5 -20t-76 -53t-49 -76t-17.5 -89q0 -64 22.5 -111.5t58 -78t77.5 -44.5t81 -14q47 0 89.5 19t74.5 53t51 79.5t19 96.5zM399 246q0 -35 -7.5 -76t-24 -76.5
t-43 -59t-65.5 -23.5t-67 18.5t-46 50t-26 72.5t-8 87q0 42 9.5 82.5t28 73t44.5 52.5t59 20q41 0 69 -21.5t45 -54.5t24.5 -72t7.5 -73z" />
    <glyph glyph-name="ocircumflex" unicode="&#xf4;" horiz-adv-x="511" 
d="M359 528l-95 170h-15l-95 -170l12 -7l90 111l91 -111zM492 245q0 60 -21.5 104.5t-55 74t-74.5 44.5t-81 15q-54 0 -98.5 -20t-76 -53t-49 -76t-17.5 -89q0 -64 22.5 -111.5t58 -78t77.5 -44.5t81 -14q47 0 89.5 19t74.5 53t51 79.5t19 96.5zM399 246q0 -35 -7.5 -76
t-24 -76.5t-43 -59t-65.5 -23.5t-67 18.5t-46 50t-26 72.5t-8 87q0 42 9.5 82.5t28 73t44.5 52.5t59 20q41 0 69 -21.5t45 -54.5t24.5 -72t7.5 -73z" />
    <glyph glyph-name="otilde" unicode="&#xf5;" horiz-adv-x="511" 
d="M404 665h-14q-7 -34 -28 -42.5t-58 -8.5l-89 19q-47 0 -73 -27.5t-37 -70.5h13q7 18 13 27t15 13.5t22 5t32 0.5l91 -19q28 0 47 8.5t32 23t21 33t13 38.5zM492 245q0 60 -21.5 104.5t-55 74t-74.5 44.5t-81 15q-54 0 -98.5 -20t-76 -53t-49 -76t-17.5 -89
q0 -64 22.5 -111.5t58 -78t77.5 -44.5t81 -14q47 0 89.5 19t74.5 53t51 79.5t19 96.5zM399 246q0 -35 -7.5 -76t-24 -76.5t-43 -59t-65.5 -23.5t-67 18.5t-46 50t-26 72.5t-8 87q0 42 9.5 82.5t28 73t44.5 52.5t59 20q41 0 69 -21.5t45 -54.5t24.5 -72t7.5 -73z" />
    <glyph glyph-name="odieresis" unicode="&#xf6;" horiz-adv-x="511" 
d="M386 600q0 19 -13.5 32.5t-32.5 13.5t-32.5 -13.5t-13.5 -32.5t13.5 -32.5t32.5 -13.5t32.5 13.5t13.5 32.5zM219 600q0 19 -13.5 32.5t-32.5 13.5t-32.5 -13.5t-13.5 -32.5t13.5 -32.5t32.5 -13.5t32.5 13.5t13.5 32.5zM492 245q0 60 -21.5 104.5t-55 74t-74.5 44.5
t-81 15q-54 0 -98.5 -20t-76 -53t-49 -76t-17.5 -89q0 -64 22.5 -111.5t58 -78t77.5 -44.5t81 -14q47 0 89.5 19t74.5 53t51 79.5t19 96.5zM399 246q0 -35 -7.5 -76t-24 -76.5t-43 -59t-65.5 -23.5t-67 18.5t-46 50t-26 72.5t-8 87q0 42 9.5 82.5t28 73t44.5 52.5t59 20
q41 0 69 -21.5t45 -54.5t24.5 -72t7.5 -73z" />
    <glyph glyph-name="divide" unicode="&#xf7;" horiz-adv-x="700" 
d="M403 411q0 23 -14.5 37t-37.5 14q-24 0 -39 -15t-15 -38t15 -39t39 -16q23 0 37.5 16.5t14.5 40.5zM575 241v40h-450v-40h450zM403 110q0 24 -14.5 40.5t-37.5 16.5q-24 0 -39 -16t-15 -39t15 -38t39 -15q23 0 37.5 14t14.5 37z" />
    <glyph glyph-name="oslash" unicode="&#xf8;" horiz-adv-x="511" 
d="M492 245q0 65 -24.5 112t-62.5 76l59 81l-15 10l-57 -82q-30 20 -64.5 30.5t-67.5 10.5q-54 0 -98.5 -20t-76 -53t-49 -76t-17.5 -89q0 -69 25 -117t63 -79l-67 -89l15 -11l64 91q33 -23 69 -33t70 -10q47 0 89.5 19t74.5 53t51 79.5t19 96.5zM360 403l-220 -313
q-29 63 -29 149q0 42 10 82.5t28 73t44.5 52.5t59.5 20q38 0 64 -18t43 -46zM400 246q0 -35 -7.5 -76t-24.5 -76.5t-43.5 -59t-65.5 -23.5q-38 0 -65.5 17.5t-45.5 46.5l221 313q16 -33 23.5 -70.5t7.5 -71.5z" />
    <glyph glyph-name="ugrave" unicode="&#xf9;" horiz-adv-x="523" 
d="M295 520l-101 176q-22 0 -31 -8t-15 -16v-5l137 -153zM506 25v6q-12 5 -29.5 13t-26.5 13q-7 5 -8.5 9t-1.5 12v395h-168v-11q22 -2 42.5 -5t32.5 -8q6 -8 8 -23.5t2 -25.5v-285q-9 -12 -19.5 -23t-23 -19.5t-28 -14t-36.5 -5.5q-55 0 -75 31.5t-20 97.5v291h-155v-11
q9 -1 19 -1.5t19 -2.5t16.5 -6t11.5 -13q2 -3 2.5 -9.5t1.5 -14t1 -14.5v-11v-244q0 -73 30.5 -111t94.5 -38q28 0 52.5 9t44.5 24.5t36 34.5t27 36l1 -1v-101h7z" />
    <glyph glyph-name="uacute" unicode="&#xfa;" horiz-adv-x="523" 
d="M360 667v5q-6 8 -15 16t-31 8l-104 -176l10 -6zM506 25v6q-12 5 -29 12.5t-27 13.5q-7 4 -8.5 8.5t-1.5 12.5v395h-168v-11q22 -2 42.5 -5t32.5 -8q6 -8 8 -23.5t2 -25.5v-285q-9 -12 -19.5 -23t-23 -19.5t-28 -14t-36.5 -5.5q-55 0 -75 31.5t-20 97.5v291h-155v-11
q9 -1 19 -1.5t19 -2.5t16.5 -6t11.5 -13q2 -3 2.5 -9.5t1.5 -14t1 -14.5v-11v-244q0 -73 30.5 -111t94.5 -38q28 0 52.5 9t44.5 24.5t36 34.5t27 36l1 -1v-101h7z" />
    <glyph glyph-name="ucircumflex" unicode="&#xfb;" horiz-adv-x="523" 
d="M358 528l-95 170h-15l-95 -170l12 -7l90 111l91 -111zM506 25v6q-12 5 -29.5 13t-26.5 13q-7 5 -8.5 9t-1.5 12v395h-168v-11q22 -2 42.5 -5t32.5 -8q6 -8 8 -23.5t2 -25.5v-285q-9 -12 -19.5 -23t-23 -19.5t-28 -14t-36.5 -5.5q-55 0 -75 31.5t-20 97.5v291h-155v-11
q9 -1 19 -1.5t19 -2.5t16.5 -6t11.5 -13q2 -3 2.5 -9.5t1.5 -14t1 -14.5v-11v-244q0 -73 30.5 -111t94.5 -38q28 0 52.5 9t44.5 24.5t36 34.5t27 36l1 -1v-101h7z" />
    <glyph glyph-name="udieresis" unicode="&#xfc;" horiz-adv-x="523" 
d="M379 600q0 19 -13.5 32.5t-32.5 13.5t-32.5 -13.5t-13.5 -32.5t13.5 -32.5t32.5 -13.5t32.5 13.5t13.5 32.5zM212 600q0 19 -13.5 32.5t-32.5 13.5t-32.5 -13.5t-13.5 -32.5t13.5 -32.5t32.5 -13.5t32.5 13.5t13.5 32.5zM506 25v6q-12 5 -29.5 13t-26.5 13q-7 5 -8.5 9
t-1.5 12v395h-168v-11q22 -2 42.5 -5t32.5 -8q6 -8 8 -23.5t2 -25.5v-285q-9 -12 -19.5 -23t-23 -19.5t-28 -14t-36.5 -5.5q-55 0 -75 31.5t-20 97.5v291h-155v-11q9 -1 19 -1.5t19 -2.5t16.5 -6t11.5 -13q2 -3 2.5 -9.5t1.5 -14t1 -14.5v-11v-244q0 -73 30.5 -111t94.5 -38
q28 0 52.5 9t44.5 24.5t36 34.5t27 36l1 -1v-101h7z" />
    <glyph glyph-name="yacute" unicode="&#xfd;" horiz-adv-x="416" 
d="M336 667v5q-6 8 -15 16t-31 8l-104 -176l10 -6zM443 462v11h-154v-11q9 -1 19 -2t18.5 -4t13.5 -8.5t5 -14.5q0 -6 -6.5 -30.5t-16.5 -59t-22 -73.5t-23 -74.5t-19 -61.5t-11 -34q-9 24 -21 56.5t-24.5 67.5t-25 69.5t-22.5 63.5t-16 48.5t-6 24.5q0 19 15.5 24t36.5 8
v11h-218v-11q34 -2 46.5 -8t21.5 -16q15 -41 33 -90t36.5 -99.5t36.5 -98.5t32 -86.5t23 -63t11 -28.5q-1 -5 -5 -20t-10.5 -36.5t-15 -48t-19.5 -53.5h-2q-14 13 -27.5 25t-33.5 12t-32 -13t-12 -33t17 -32.5t37 -12.5q23 0 45 17t34 55q17 53 35.5 112t37 119t36.5 117
l33 104.5t26 82.5t16 51t13 24.5t18.5 12.5t22 5t23.5 2z" />
    <glyph glyph-name="thorn" unicode="&#xfe;" horiz-adv-x="526" 
d="M506 264q0 40 -11.5 79t-34 70t-57 50.5t-81.5 19.5q-28 0 -53.5 -10t-46.5 -25.5t-38 -36t-29 -41.5l-2 1l3 355h-8l-139 -61v-6l63 -33v-811q0 -8 -8.5 -14t-21 -10t-26.5 -6.5t-24 -3.5v-11h246v11q-12 1 -26 2.5t-26 4t-20.5 7.5t-9.5 13v47t-0.5 59t-1 57.5
t-0.5 41.5q38 -9 72 -9q65 0 117 19.5t88 54t55.5 82.5t19.5 104zM416 235q0 -46 -12.5 -85t-33.5 -67t-48 -44t-56 -16q-33 0 -54.5 12t-33.5 30.5t-17 41t-6 43.5v192q0 6 7 19t21 25.5t35 22t48 9.5q38 0 66.5 -14.5t47 -39.5t27.5 -58t9 -71z" />
    <glyph glyph-name="ydieresis" unicode="&#xff;" horiz-adv-x="416" 
d="M357 600q0 19 -13.5 32.5t-32.5 13.5t-32.5 -13.5t-13.5 -32.5t13.5 -32.5t32.5 -13.5t32.5 13.5t13.5 32.5zM199 600q0 19 -13.5 32.5t-32.5 13.5t-32.5 -13.5t-13.5 -32.5t13.5 -32.5t32.5 -13.5t32.5 13.5t13.5 32.5zM443 462v11h-154v-11q9 -1 19 -2t18.5 -4
t13.5 -8.5t5 -14.5q0 -6 -6.5 -30.5t-16.5 -59t-22 -73.5t-23 -74.5t-19 -61.5t-11 -34q-9 24 -21 56.5t-24.5 67.5t-25 69.5t-22.5 63.5t-16 48.5t-6 24.5q0 19 15.5 24t36.5 8v11h-218v-11q34 -2 46.5 -8t21.5 -16q15 -41 33 -90t36.5 -99.5t36.5 -98.5t32 -86.5t23 -63
t11 -28.5q-1 -5 -5 -20t-10.5 -36.5t-15 -48t-19.5 -53.5h-2q-14 13 -27.5 25t-33.5 12t-32 -13t-12 -33t17 -32.5t37 -12.5q23 0 45 17t34 55q17 53 35.5 112t37 119t36.5 117l33 104.5t26 82.5t16 51t13 24.5t18.5 12.5t22 5t23.5 2z" />
    <glyph glyph-name="Amacron" unicode="&#x100;" horiz-adv-x="704" 
d="M444 0v10q3 0 14.5 2t24 7t22 14t9.5 23q0 9 -5.5 29.5t-15.5 50t-23 65.5t-28 75h-266q-15 -38 -29 -72.5t-28 -69.5q-21 -54 -21 -76q0 -13 8 -21.5t20.5 -14t27 -8t27.5 -4.5v-10h-213v11q26 3 44.5 14t21.5 15q7 7 23 33t39 77q21 47 47 107t53.5 123.5t54.5 128
t51 120.5l-10 22q18 8 32.5 19t25.5 23t18.5 23t11.5 18h8q31 -83 59 -157.5t53.5 -143.5t49.5 -133.5t48 -127.5q11 -31 20.5 -51.5t21.5 -46.5q2 -4 9 -14t18.5 -20.5t28.5 -18.5t40 -9v-12h-292zM313 606q-6 -13 -17.5 -41t-28.5 -68t-37.5 -90.5t-44.5 -109.5h249
q-17 45 -34.5 90t-34 86.5t-30 76t-22.5 56.5zM492 784v45h-281v-45h281z" />
    <glyph glyph-name="amacron" unicode="&#x101;" horiz-adv-x="448" 
d="M465 98h-6q-4 -15 -15 -24.5t-34 -9.5q-20 0 -35.5 14.5t-15.5 59.5q0 34 0.5 62.5t0.5 55.5t0.5 56t0.5 65q0 17 -1 34.5t-5 24.5q-10 20 -33 33.5t-49 13.5q-13 0 -33.5 -6t-45 -16t-51.5 -24t-53 -29q-8 -5 -18.5 -11t-19.5 -14t-15 -18t-6 -22q0 -15 11.5 -26.5
t27.5 -11.5q17 0 31.5 11t14.5 25v45q0 6 7 14.5t19 17t27.5 14t31.5 5.5q24 0 39 -6.5t23.5 -14.5t12 -15.5t3.5 -9.5v-103q-10 -6 -24.5 -13.5t-33.5 -18t-44.5 -25.5t-58.5 -36t-55.5 -47t-22.5 -54q0 -26 8.5 -44t22 -29.5t30 -16t32.5 -4.5q27 0 49.5 8.5t41 22.5
t32 30t21.5 29l2 -1q0 -50 26.5 -70t60.5 -20q21 0 38.5 7.5t30.5 22t21 32.5t9 37zM279 118q0 -17 -12 -28q-17 -17 -37 -23t-46 -6q-29 0 -47 21t-18 47t18.5 46.5t44 37.5t52.5 31.5t45 27.5v-154zM388 533v45h-281v-45h281z" />
    <glyph glyph-name="Abreve" unicode="&#x102;" horiz-adv-x="704" 
d="M444 0v10q3 0 14.5 2t24 7t22 14t9.5 23q0 9 -5.5 29.5t-15.5 50t-23 65.5t-28 75h-266q-15 -38 -29 -72.5t-28 -69.5q-21 -54 -21 -76q0 -13 8 -21.5t20.5 -14t27 -8t27.5 -4.5v-10h-213v11q26 3 44.5 14t21.5 15q7 7 23 33t39 77q21 47 47 107t53.5 123.5t54.5 128
t51 120.5l-10 22q18 8 32.5 19t25.5 23t18.5 23t11.5 18h8q31 -83 59 -157.5t53.5 -143.5t49.5 -133.5t48 -127.5q11 -31 20.5 -51.5t21.5 -46.5q2 -4 9 -14t18.5 -20.5t28.5 -18.5t40 -9v-12h-292zM313 606q-6 -13 -17.5 -41t-28.5 -68t-37.5 -90.5t-44.5 -109.5h249
q-17 45 -34.5 90t-34 86.5t-30 76t-22.5 56.5zM462 923v11h-13q-3 -50 -29 -74.5t-68 -24.5q-41 0 -67.5 24.5t-29.5 74.5h-13v-11q0 -26 5.5 -53.5t22.5 -47.5q13 -16 34.5 -27t47.5 -11t47.5 11t34.5 27q17 20 22.5 47.5t5.5 53.5z" />
    <glyph glyph-name="abreve" unicode="&#x103;" horiz-adv-x="448" 
d="M465 98h-6q-4 -15 -15 -24.5t-34 -9.5q-20 0 -35.5 14.5t-15.5 59.5q0 34 0.5 62.5t0.5 55.5t0.5 56t0.5 65q0 17 -1 34.5t-5 24.5q-10 20 -33 33.5t-49 13.5q-13 0 -33.5 -6t-45 -16t-51.5 -24t-53 -29q-8 -5 -18.5 -11t-19.5 -14t-15 -18t-6 -22q0 -15 11.5 -26.5
t27.5 -11.5q17 0 31.5 11t14.5 25v45q0 6 7 14.5t19 17t27.5 14t31.5 5.5q24 0 39 -6.5t23.5 -14.5t12 -15.5t3.5 -9.5v-103q-10 -6 -24.5 -13.5t-33.5 -18t-44.5 -25.5t-58.5 -36t-55.5 -47t-22.5 -54q0 -26 8.5 -44t22 -29.5t30 -16t32.5 -4.5q27 0 49.5 8.5t41 22.5
t32 30t21.5 29l2 -1q0 -50 26.5 -70t60.5 -20q21 0 38.5 7.5t30.5 22t21 32.5t9 37zM279 118q0 -17 -12 -28q-17 -17 -37 -23t-46 -6q-29 0 -47 21t-18 47t18.5 46.5t44 37.5t52.5 31.5t45 27.5v-154zM358 672v11h-13q-3 -50 -29 -74.5t-68 -24.5q-41 0 -67.5 24.5
t-29.5 74.5h-13v-11q0 -26 5.5 -53.5t22.5 -47.5q13 -16 34.5 -27t47.5 -11t47.5 11t34.5 27q17 20 22.5 47.5t5.5 53.5z" />
    <glyph glyph-name="Aogonek" unicode="&#x104;" horiz-adv-x="704" 
d="M444 0v10q3 0 14.5 2t24 7t22 14t9.5 23q0 9 -5.5 29.5t-15.5 50t-23 65.5t-28 75h-266q-15 -38 -29 -72.5t-28 -69.5q-21 -54 -21 -76q0 -13 8 -21.5t20.5 -14t27 -8t27.5 -4.5v-10h-213v11q26 3 44.5 14t21.5 15q7 7 23 33t39 77q21 47 47 107t53.5 123.5t54.5 128
t51 120.5l-10 22q18 8 32.5 19t25.5 23t18.5 23t11.5 18h8q31 -83 59 -157.5t53.5 -143.5t49.5 -133.5t48 -127.5q11 -31 20.5 -51.5t21.5 -46.5q2 -4 9 -14t18.5 -20.5t28.5 -18.5t40 -9v-12h-292zM313 606q-6 -13 -17.5 -41t-28.5 -68t-37.5 -90.5t-44.5 -109.5h249
q-17 45 -34.5 90t-34 86.5t-30 76t-22.5 56.5zM736 -145l-8 4q-11 -17 -23 -27t-38 -10q-29 0 -41.5 18.5t-12.5 40.5q0 19 6 36.5t16 32.5t21.5 27.5t23.5 20.5v2h-15q-16 -10 -35 -25.5t-35.5 -34t-27.5 -40t-11 -45.5q0 -33 24 -55t59 -22q20 0 36 7.5t28 19t20 25
t13 25.5z" />
    <glyph glyph-name="aogonek" unicode="&#x105;" horiz-adv-x="448" 
d="M465 98h-6q-4 -15 -15 -24.5t-34 -9.5q-20 0 -35.5 14.5t-15.5 59.5q0 34 0.5 62.5t0.5 55.5t0.5 56t0.5 65q0 17 -1 34.5t-5 24.5q-10 20 -33 33.5t-49 13.5q-13 0 -33.5 -6t-45 -16t-51.5 -24t-53 -29q-8 -5 -18.5 -11t-19.5 -14t-15 -18t-6 -22q0 -15 11.5 -26.5
t27.5 -11.5q17 0 31.5 11t14.5 25v45q0 6 7 14.5t19 17t27.5 14t31.5 5.5q24 0 39 -6.5t23.5 -14.5t12 -15.5t3.5 -9.5v-103q-10 -6 -24.5 -13.5t-33.5 -18t-44.5 -25.5t-58.5 -36t-55.5 -47t-22.5 -54q0 -26 8.5 -44t22 -29.5t30 -16t32.5 -4.5q27 0 49.5 8.5t41 22.5
t32 30t21.5 29l2 -1q0 -50 26.5 -70t60.5 -20q21 0 38.5 7.5t30.5 22t21 32.5t9 37zM279 118q0 -17 -12 -28q-17 -17 -37 -23t-46 -6q-29 0 -47 21t-18 47t18.5 46.5t44 37.5t52.5 31.5t45 27.5v-154zM465 -146l-8 4q-11 -17 -23 -27t-38 -10q-29 0 -41.5 18.5t-12.5 40.5
q0 19 6 36.5t16 32.5t21.5 27.5t23.5 20.5v2h-15q-16 -10 -35 -25.5t-35.5 -34t-27.5 -40t-11 -45.5q0 -33 24 -55t59 -22q20 0 36 7.5t28 19t20 25t13 25.5z" />
    <glyph glyph-name="Cacute" unicode="&#x106;" horiz-adv-x="776" 
d="M727 489v224h-11q-6 -9 -13 -17.5t-13.5 -15t-12 -11t-7.5 -4.5t-18 11t-46 24t-75 24t-105 11q-66 0 -119 -14t-95 -37.5t-73 -54.5t-52 -65q-18 -29 -29.5 -57.5t-18 -54.5t-9 -49t-2.5 -41q0 -81 28 -148.5t80.5 -116t127.5 -75t168 -26.5q56 0 99 9.5t73 22t46 23
t18 10.5q5 0 18 -14t25 -31h12l3 220h-12q-9 -43 -33.5 -83.5t-60 -71.5t-81 -50t-97.5 -19q-66 0 -120 27t-92 73.5t-58.5 109.5t-20.5 135q0 68 19.5 132.5t56 115.5t90.5 82t123 31q50 0 94.5 -18t80 -49t61.5 -73t39 -90zM452 938v5q-6 8 -15 16t-31 8l-104 -176l10 -6z
" />
    <glyph glyph-name="cacute" unicode="&#x107;" horiz-adv-x="432" 
d="M441 143l-8 4q-24 -40 -60 -60.5t-98 -20.5q-39 0 -70.5 14.5t-53.5 41t-34 64t-12 82.5q0 41 11 77t30 63t45 43t57 16q42 0 61.5 -24.5t19.5 -61.5q0 -20 -5 -34q4 -15 17.5 -25t30.5 -10q21 0 36.5 15.5t15.5 36.5q0 29 -15.5 51t-40.5 37t-57 23t-65 8
q-49 0 -90.5 -20t-71.5 -53t-47 -76.5t-17 -91.5q0 -51 16.5 -96t45.5 -78.5t70 -52t89 -18.5q38 0 70.5 11t58.5 31.5t44 47t27 56.5zM305 686v5q-6 8 -15 16t-31 8l-104 -176l10 -6z" />
    <glyph glyph-name="Ccircumflex" unicode="&#x108;" horiz-adv-x="776" 
d="M727 489v224h-11q-6 -9 -13 -17.5t-13.5 -15t-12 -11t-7.5 -4.5t-18 11t-46 24t-75 24t-105 11q-66 0 -119 -14t-95 -37.5t-73 -54.5t-52 -65q-18 -29 -29.5 -57.5t-18 -54.5t-9 -49t-2.5 -41q0 -81 28 -148.5t80.5 -116t127.5 -75t168 -26.5q56 0 99 9.5t73 22t46 23
t18 10.5q5 0 18 -14t25 -31h12l3 220h-12q-9 -43 -33.5 -83.5t-60 -71.5t-81 -50t-97.5 -19q-66 0 -120 27t-92 73.5t-58.5 109.5t-20.5 135q0 68 19.5 132.5t56 115.5t90.5 82t123 31q50 0 94.5 -18t80 -49t61.5 -73t39 -90zM479 792l-95 170h-15l-95 -170l12 -7l90 111
l91 -111z" />
    <glyph glyph-name="ccircumflex" unicode="&#x109;" horiz-adv-x="432" 
d="M441 143l-8 4q-24 -40 -60 -60.5t-98 -20.5q-39 0 -70.5 14.5t-53.5 41t-34 64t-12 82.5q0 41 11 77t30 63t45 43t57 16q42 0 61.5 -24.5t19.5 -61.5q0 -20 -5 -34q4 -15 17.5 -25t30.5 -10q21 0 36.5 15.5t15.5 36.5q0 29 -15.5 51t-40.5 37t-57 23t-65 8
q-49 0 -90.5 -20t-71.5 -53t-47 -76.5t-17 -91.5q0 -51 16.5 -96t45.5 -78.5t70 -52t89 -18.5q38 0 70.5 11t58.5 31.5t44 47t27 56.5zM332 540l-95 170h-15l-95 -170l12 -7l90 111l91 -111z" />
    <glyph glyph-name="Cdotaccent" unicode="&#x10a;" horiz-adv-x="776" 
d="M727 489v224h-11q-6 -9 -13 -17.5t-13.5 -15t-12 -11t-7.5 -4.5t-18 11t-46 24t-75 24t-105 11q-66 0 -119 -14t-95 -37.5t-73 -54.5t-52 -65q-18 -29 -29.5 -57.5t-18 -54.5t-9 -49t-2.5 -41q0 -81 28 -148.5t80.5 -116t127.5 -75t168 -26.5q56 0 99 9.5t73 22t46 23
t18 10.5q5 0 18 -14t25 -31h12l3 220h-12q-9 -43 -33.5 -83.5t-60 -71.5t-81 -50t-97.5 -19q-66 0 -120 27t-92 73.5t-58.5 109.5t-20.5 135q0 68 19.5 132.5t56 115.5t90.5 82t123 31q50 0 94.5 -18t80 -49t61.5 -73t39 -90zM428 836q0 21 -15 35.5t-36 14.5t-36 -14.5
t-15 -35.5q0 -20 15.5 -35.5t35.5 -15.5q21 0 36 15t15 36z" />
    <glyph glyph-name="cdotaccent" unicode="&#x10b;" horiz-adv-x="432" 
d="M441 143l-8 4q-24 -40 -60 -60.5t-98 -20.5q-39 0 -70.5 14.5t-53.5 41t-34 64t-12 82.5q0 41 11 77t30 63t45 43t57 16q42 0 61.5 -24.5t19.5 -61.5q0 -20 -5 -34q4 -15 17.5 -25t30.5 -10q21 0 36.5 15.5t15.5 36.5q0 29 -15.5 51t-40.5 37t-57 23t-65 8
q-49 0 -90.5 -20t-71.5 -53t-47 -76.5t-17 -91.5q0 -51 16.5 -96t45.5 -78.5t70 -52t89 -18.5q38 0 70.5 11t58.5 31.5t44 47t27 56.5zM281 584q0 21 -15 35.5t-36 14.5t-36 -14.5t-15 -35.5q0 -20 15.5 -35.5t35.5 -15.5q21 0 36 15t15 36z" />
    <glyph glyph-name="Ccaron" unicode="&#x10c;" horiz-adv-x="776" 
d="M727 489v224h-11q-6 -9 -13 -17.5t-13.5 -15t-12 -11t-7.5 -4.5t-18 11t-46 24t-75 24t-105 11q-66 0 -119 -14t-95 -37.5t-73 -54.5t-52 -65q-18 -29 -29.5 -57.5t-18 -54.5t-9 -49t-2.5 -41q0 -81 28 -148.5t80.5 -116t127.5 -75t168 -26.5q56 0 99 9.5t73 22t46 23
t18 10.5q5 0 18 -14t25 -31h12l3 220h-12q-9 -43 -33.5 -83.5t-60 -71.5t-81 -50t-97.5 -19q-66 0 -120 27t-92 73.5t-58.5 109.5t-20.5 135q0 68 19.5 132.5t56 115.5t90.5 82t123 31q50 0 94.5 -18t80 -49t61.5 -73t39 -90zM479 955l-12 7l-91 -111l-90 111l-12 -7
l95 -170h15z" />
    <glyph glyph-name="ccaron" unicode="&#x10d;" horiz-adv-x="432" 
d="M441 143l-8 4q-24 -40 -60 -60.5t-98 -20.5q-39 0 -70.5 14.5t-53.5 41t-34 64t-12 82.5q0 41 11 77t30 63t45 43t57 16q42 0 61.5 -24.5t19.5 -61.5q0 -20 -5 -34q4 -15 17.5 -25t30.5 -10q21 0 36.5 15.5t15.5 36.5q0 29 -15.5 51t-40.5 37t-57 23t-65 8
q-49 0 -90.5 -20t-71.5 -53t-47 -76.5t-17 -91.5q0 -51 16.5 -96t45.5 -78.5t70 -52t89 -18.5q38 0 70.5 11t58.5 31.5t44 47t27 56.5zM332 703l-12 7l-91 -111l-90 111l-12 -7l95 -170h15z" />
    <glyph glyph-name="Dcaron" unicode="&#x10e;" horiz-adv-x="852" 
d="M822 370q0 65 -16.5 115.5t-44 89t-64.5 66.5t-79 46q-32 14 -65 21t-66 10t-66 3h-64q-112 0 -191 -0.5t-121 -0.5v-10q26 -3 47 -10t36 -25q6 -7 9 -19.5t4.5 -28t1.5 -33.5v-36v-195v-58q0 -30 -0.5 -58.5t-1 -52.5t-0.5 -38q0 -16 -1 -33t-3 -32t-4.5 -27t-7.5 -17
q-12 -14 -35.5 -24t-48.5 -13v-10h365q46 0 95 6.5t95 22.5t87 43t72 68t49 98t18 132zM699 368q0 -131 -53.5 -220.5t-161.5 -120.5q-23 -7 -49.5 -9.5t-51.5 -2.5q-27 0 -57.5 5.5t-50.5 25.5q-6 6 -10.5 18.5t-6.5 28t-3.5 32t-1.5 30.5q-1 33 -1 85v117q0 119 1 205
t6 135q7 2 18.5 3t25 2.5t27.5 2t26 0.5q35 0 59 -2.5t44 -6.5q52 -9 96 -40t76 -75.5t50 -99.5t18 -113zM533 941l-12 7l-91 -111l-90 111l-12 -7l95 -170h15z" />
    <glyph glyph-name="dcaron" unicode="&#x10f;" horiz-adv-x="672" 
d="M533 39v7q-19 8 -41 17t-30 14v649h-8l-159 -44v-6l82 -31v-35v-50t0.5 -53t1.5 -41q-22 7 -48.5 12t-56.5 5q-57 0 -104 -19t-80.5 -52.5t-52 -78.5t-18.5 -97q0 -58 16 -102.5t43 -75t61.5 -45t71.5 -14.5q59 0 98.5 24t68.5 74h1v-100h6zM378 135q-8 -43 -37.5 -71
t-70.5 -28q-39 0 -68.5 18t-49.5 47.5t-30 68t-10 79.5t8.5 80t26.5 69t45.5 48t66.5 18q29 0 63 -25t56 -66v-238zM691 642q0 33 -21.5 57t-55.5 24q-23 0 -41.5 -13t-18.5 -38q0 -15 10.5 -28.5t30.5 -13.5q8 0 19 2.5t20 9.5q2 -5 4 -12.5t2 -16.5q0 -32 -19.5 -47.5
t-54.5 -22.5v-10q24 0 47 8t40 22t27.5 34t10.5 45z" />
    <glyph glyph-name="Dcroat" unicode="&#x110;" horiz-adv-x="852" 
d="M822 370q0 65 -16.5 115.5t-44 89t-64.5 66.5t-79 46q-32 14 -65 21t-66 10t-66 3h-64h-108q-51 0 -93 -0.5t-71 -0.5h-40v-10q26 -3 47 -10t36 -25q6 -7 9 -19.5t4.5 -28t1.5 -33.5v-36v-179l-114 1v-27l114 1v-57q0 -29 -0.5 -56t-1 -49.5t-0.5 -35.5q0 -16 -1 -33
t-3 -32t-4.5 -27t-7.5 -17q-12 -14 -35.5 -24t-48.5 -13v-10h365q46 0 95 6.5t95 22.5t87 43t72 68t49 98t18 132zM699 368q0 -131 -53.5 -220.5t-161.5 -120.5q-23 -7 -49.5 -9.5t-51.5 -2.5q-27 0 -57.5 5.5t-50.5 25.5q-6 6 -10.5 18.5t-6.5 28t-3.5 32t-1.5 30.5
q-1 32 -1 84v115l179 -1v27l-179 -1q0 112 1 191t6 127q7 2 18.5 3t25 2.5t27.5 2t26 0.5q35 0 59 -2.5t44 -6.5q52 -9 96 -40t76 -75.5t50 -99.5t18 -113z" />
    <glyph glyph-name="dcroat" unicode="&#x111;" horiz-adv-x="546" 
d="M462 576v-499q8 -5 30 -14t41 -17v-7l-148 -42h-6v100h-1q-29 -50 -68.5 -74t-98.5 -24q-37 0 -71.5 14.5t-61.5 45t-43 75t-16 102.5q0 52 18.5 97t52 78.5t80.5 52.5t104 19q30 0 56.5 -5t48.5 -12q-1 15 -1.5 41t-0.5 53v16h-125v45h125v24l-82 31v6l159 44h8v-105h71
v-45h-71zM378 373q-22 41 -56 66t-63 25q-39 0 -66.5 -18t-45.5 -48t-26.5 -69t-8.5 -80t10 -79.5t30 -68t49.5 -47.5t68.5 -18q41 0 70.5 28t37.5 71v238z" />
    <glyph glyph-name="Emacron" unicode="&#x112;" horiz-adv-x="711" 
d="M703 191l-11 3q-25 -43 -48.5 -73.5t-48.5 -51.5t-52 -32.5t-59 -15.5q-29 -4 -55.5 -5t-43.5 -1q-40 0 -74 6t-43 20t-11.5 42.5t-3.5 60.5q0 10 -0.5 24.5t-0.5 30.5v34v30v56t2 41h26h20q10 0 20 -0.5t25 -1.5q30 -2 52.5 -11t38.5 -23q18 -17 34.5 -51t24.5 -66h12
v315h-12q-6 -28 -13.5 -50.5t-20 -39.5t-32.5 -29t-50 -19q-13 -3 -32.5 -4.5t-39 -2.5t-34.5 -1h-20v11q0 9 -0.5 25.5t-0.5 42.5v64q0 66 1.5 116t3.5 66q10 2 32.5 3.5t43.5 1.5q66 0 112 -6t63 -14q71 -35 152 -136l10 5l-68 165h-552v-10q27 -4 44 -8.5t32 -20.5
q6 -6 9.5 -19.5t5 -30.5t2 -36t0.5 -37v-195v-58q0 -30 -0.5 -58.5t-1 -52.5t-0.5 -38q0 -16 -1 -32.5t-3.5 -31.5t-5.5 -26.5t-8 -17.5q-14 -16 -35.5 -25t-46.5 -13v-10h612zM512 770v45h-281v-45h281z" />
    <glyph glyph-name="emacron" unicode="&#x113;" horiz-adv-x="435" 
d="M433 152l-8 2q-12 -37 -49.5 -62.5t-87.5 -25.5q-46 0 -81 17t-58 46.5t-35 68t-12 80.5q0 11 1 21.5t1 18.5h321q-3 42 -19 73t-41.5 51.5t-60 30.5t-73.5 10q-48 0 -87.5 -20.5t-67 -53.5t-42.5 -74.5t-15 -83.5q0 -52 16 -98.5t45.5 -81t71.5 -53.5t93 -19
q41 0 74.5 15t57.5 38t38 50.5t18 49.5zM326 376q0 -14 -3.5 -21t-10.5 -15q-10 -4 -23 -5t-28 -1q-23 0 -42 -0.5t-36.5 -1t-35.5 -0.5h-41q2 12 11 34.5t25.5 44.5t39 38.5t50.5 16.5q43 0 68.5 -26.5t25.5 -63.5zM366 533v45h-281v-45h281z" />
    <glyph glyph-name="Ebreve" unicode="&#x114;" horiz-adv-x="711" 
d="M703 191l-11 3q-25 -43 -48.5 -73.5t-48.5 -51.5t-52 -32.5t-59 -15.5q-29 -4 -55.5 -5t-43.5 -1q-40 0 -74 6t-43 20t-11.5 42.5t-3.5 60.5q0 10 -0.5 24.5t-0.5 30.5v34v30v56t2 41h26h20q10 0 20 -0.5t25 -1.5q30 -2 52.5 -11t38.5 -23q18 -17 34.5 -51t24.5 -66h12
v315h-12q-6 -28 -13.5 -50.5t-20 -39.5t-32.5 -29t-50 -19q-13 -3 -32.5 -4.5t-39 -2.5t-34.5 -1h-20v11q0 9 -0.5 25.5t-0.5 42.5v64q0 66 1.5 116t3.5 66q10 2 32.5 3.5t43.5 1.5q66 0 112 -6t63 -14q71 -35 152 -136l10 5l-68 165h-552v-10q27 -4 44 -8.5t32 -20.5
q6 -6 9.5 -19.5t5 -30.5t2 -36t0.5 -37v-195v-58q0 -30 -0.5 -58.5t-1 -52.5t-0.5 -38q0 -16 -1 -32.5t-3.5 -31.5t-5.5 -26.5t-8 -17.5q-14 -16 -35.5 -25t-46.5 -13v-10h612zM482 909v11h-13q-3 -50 -29 -74.5t-68 -24.5q-41 0 -67.5 24.5t-29.5 74.5h-13v-11
q0 -26 5.5 -53.5t22.5 -47.5q13 -16 34.5 -27t47.5 -11t47.5 11t34.5 27q17 20 22.5 47.5t5.5 53.5z" />
    <glyph glyph-name="ebreve" unicode="&#x115;" horiz-adv-x="435" 
d="M433 152l-8 2q-12 -37 -49.5 -62.5t-87.5 -25.5q-46 0 -81 17t-58 46.5t-35 68t-12 80.5q0 11 1 21.5t1 18.5h321q-3 42 -19 73t-41.5 51.5t-60 30.5t-73.5 10q-48 0 -87.5 -20.5t-67 -53.5t-42.5 -74.5t-15 -83.5q0 -52 16 -98.5t45.5 -81t71.5 -53.5t93 -19
q41 0 74.5 15t57.5 38t38 50.5t18 49.5zM326 376q0 -14 -3.5 -21t-10.5 -15q-10 -4 -23 -5t-28 -1q-23 0 -42 -0.5t-36.5 -1t-35.5 -0.5h-41q2 12 11 34.5t25.5 44.5t39 38.5t50.5 16.5q43 0 68.5 -26.5t25.5 -63.5zM336 672v11h-13q-3 -50 -29 -74.5t-68 -24.5
q-41 0 -67.5 24.5t-29.5 74.5h-13v-11q0 -26 5.5 -53.5t22.5 -47.5q13 -16 34.5 -27t47.5 -11t47.5 11t34.5 27q17 20 22.5 47.5t5.5 53.5z" />
    <glyph glyph-name="Edotaccent" unicode="&#x116;" horiz-adv-x="711" 
d="M703 191l-11 3q-25 -43 -48.5 -73.5t-48.5 -51.5t-52 -32.5t-59 -15.5q-29 -4 -55.5 -5t-43.5 -1q-40 0 -74 6t-43 20t-11.5 42.5t-3.5 60.5q0 10 -0.5 24.5t-0.5 30.5v34v30v56t2 41h26h20q10 0 20 -0.5t25 -1.5q30 -2 52.5 -11t38.5 -23q18 -17 34.5 -51t24.5 -66h12
v315h-12q-6 -28 -13.5 -50.5t-20 -39.5t-32.5 -29t-50 -19q-13 -3 -32.5 -4.5t-39 -2.5t-34.5 -1h-20v11q0 9 -0.5 25.5t-0.5 42.5v64q0 66 1.5 116t3.5 66q10 2 32.5 3.5t43.5 1.5q66 0 112 -6t63 -14q71 -35 152 -136l10 5l-68 165h-552v-10q27 -4 44 -8.5t32 -20.5
q6 -6 9.5 -19.5t5 -30.5t2 -36t0.5 -37v-195v-58q0 -30 -0.5 -58.5t-1 -52.5t-0.5 -38q0 -16 -1 -32.5t-3.5 -31.5t-5.5 -26.5t-8 -17.5q-14 -16 -35.5 -25t-46.5 -13v-10h612zM423 821q0 21 -15 35.5t-36 14.5t-36 -14.5t-15 -35.5q0 -20 15.5 -35.5t35.5 -15.5q21 0 36 15
t15 36z" />
    <glyph glyph-name="edotaccent" unicode="&#x117;" horiz-adv-x="435" 
d="M433 152l-8 2q-12 -37 -49.5 -62.5t-87.5 -25.5q-46 0 -81 17t-58 46.5t-35 68t-12 80.5q0 11 1 21.5t1 18.5h321q-3 42 -19 73t-41.5 51.5t-60 30.5t-73.5 10q-48 0 -87.5 -20.5t-67 -53.5t-42.5 -74.5t-15 -83.5q0 -52 16 -98.5t45.5 -81t71.5 -53.5t93 -19
q41 0 74.5 15t57.5 38t38 50.5t18 49.5zM326 376q0 -14 -3.5 -21t-10.5 -15q-10 -4 -23 -5t-28 -1q-23 0 -42 -0.5t-36.5 -1t-35.5 -0.5h-41q2 12 11 34.5t25.5 44.5t39 38.5t50.5 16.5q43 0 68.5 -26.5t25.5 -63.5zM277 584q0 21 -15 35.5t-36 14.5t-36 -14.5t-15 -35.5
q0 -20 15.5 -35.5t35.5 -15.5q21 0 36 15t15 36z" />
    <glyph glyph-name="Eogonek" unicode="&#x118;" horiz-adv-x="711" 
d="M703 191l-11 3q-25 -43 -48.5 -73.5t-48.5 -51.5t-52 -32.5t-59 -15.5q-29 -4 -55.5 -5t-43.5 -1q-40 0 -74 6t-43 20t-11.5 42.5t-3.5 60.5q0 10 -0.5 24.5t-0.5 30.5v34v30v56t2 41h26h20q10 0 20 -0.5t25 -1.5q30 -2 52.5 -11t38.5 -23q18 -17 34.5 -51t24.5 -66h12
v315h-12q-6 -28 -13.5 -50.5t-20 -39.5t-32.5 -29t-50 -19q-13 -3 -32.5 -4.5t-39 -2.5t-34.5 -1h-20v11q0 9 -0.5 25.5t-0.5 42.5v64q0 66 1.5 116t3.5 66q10 2 32.5 3.5t43.5 1.5q66 0 112 -6t63 -14q71 -35 152 -136l10 5l-68 165h-552v-10q27 -4 44 -8.5t32 -20.5
q6 -6 9.5 -19.5t5 -30.5t2 -36t0.5 -37v-195v-58q0 -30 -0.5 -58.5t-1 -52.5t-0.5 -38q0 -16 -1 -32.5t-3.5 -31.5t-5.5 -26.5t-8 -17.5q-14 -16 -35.5 -25t-46.5 -13v-10h612zM462 -145l-8 4q-11 -17 -23 -27t-38 -10q-29 0 -41.5 18.5t-12.5 40.5q0 19 6 36.5t16 32.5
t21.5 27.5t23.5 20.5v2h-15q-16 -10 -35 -25.5t-35.5 -34t-27.5 -40t-11 -45.5q0 -33 24 -55t59 -22q20 0 36 7.5t28 19t20 25t13 25.5z" />
    <glyph glyph-name="eogonek" unicode="&#x119;" horiz-adv-x="435" 
d="M433 152l-8 2q-12 -37 -49.5 -62.5t-87.5 -25.5q-46 0 -81 17t-58 46.5t-35 68t-12 80.5q0 11 1 21.5t1 18.5h321q-3 42 -19 73t-41.5 51.5t-60 30.5t-73.5 10q-48 0 -87.5 -20.5t-67 -53.5t-42.5 -74.5t-15 -83.5q0 -52 16 -98.5t45.5 -81t71.5 -53.5t93 -19
q41 0 74.5 15t57.5 38t38 50.5t18 49.5zM326 376q0 -14 -3.5 -21t-10.5 -15q-10 -4 -23 -5t-28 -1q-23 0 -42 -0.5t-36.5 -1t-35.5 -0.5h-41q2 12 11 34.5t25.5 44.5t39 38.5t50.5 16.5q43 0 68.5 -26.5t25.5 -63.5zM316 -146l-8 4q-11 -17 -23 -27t-38 -10
q-29 0 -41.5 18.5t-12.5 40.5q0 19 6 36.5t16 32.5t21.5 27.5t23.5 20.5v2h-15q-16 -10 -35 -25.5t-35.5 -34t-27.5 -40t-11 -45.5q0 -33 24 -55t59 -22q20 0 36 7.5t28 19t20 25t13 25.5z" />
    <glyph glyph-name="Ecaron" unicode="&#x11a;" horiz-adv-x="711" 
d="M703 191l-11 3q-25 -43 -48.5 -73.5t-48.5 -51.5t-52 -32.5t-59 -15.5q-29 -4 -55.5 -5t-43.5 -1q-40 0 -74 6t-43 20t-11.5 42.5t-3.5 60.5q0 10 -0.5 24.5t-0.5 30.5v34v30v56t2 41h26h20q10 0 20 -0.5t25 -1.5q30 -2 52.5 -11t38.5 -23q18 -17 34.5 -51t24.5 -66h12
v315h-12q-6 -28 -13.5 -50.5t-20 -39.5t-32.5 -29t-50 -19q-13 -3 -32.5 -4.5t-39 -2.5t-34.5 -1h-20v11q0 9 -0.5 25.5t-0.5 42.5v64q0 66 1.5 116t3.5 66q10 2 32.5 3.5t43.5 1.5q66 0 112 -6t63 -14q71 -35 152 -136l10 5l-68 165h-552v-10q27 -4 44 -8.5t32 -20.5
q6 -6 9.5 -19.5t5 -30.5t2 -36t0.5 -37v-195v-58q0 -30 -0.5 -58.5t-1 -52.5t-0.5 -38q0 -16 -1 -32.5t-3.5 -31.5t-5.5 -26.5t-8 -17.5q-14 -16 -35.5 -25t-46.5 -13v-10h612zM474 940l-12 7l-91 -111l-90 111l-12 -7l95 -170h15z" />
    <glyph glyph-name="ecaron" unicode="&#x11b;" horiz-adv-x="435" 
d="M433 152l-8 2q-12 -37 -49.5 -62.5t-87.5 -25.5q-46 0 -81 17t-58 46.5t-35 68t-12 80.5q0 11 1 21.5t1 18.5h321q-3 42 -19 73t-41.5 51.5t-60 30.5t-73.5 10q-48 0 -87.5 -20.5t-67 -53.5t-42.5 -74.5t-15 -83.5q0 -52 16 -98.5t45.5 -81t71.5 -53.5t93 -19
q41 0 74.5 15t57.5 38t38 50.5t18 49.5zM326 376q0 -14 -3.5 -21t-10.5 -15q-10 -4 -23 -5t-28 -1q-23 0 -42 -0.5t-36.5 -1t-35.5 -0.5h-41q2 12 11 34.5t25.5 44.5t39 38.5t50.5 16.5q43 0 68.5 -26.5t25.5 -63.5zM328 703l-12 7l-91 -111l-90 111l-12 -7l95 -170h15z" />
    <glyph glyph-name="Gcircumflex" unicode="&#x11c;" horiz-adv-x="825" 
d="M791 333v10h-293v-10q58 -5 81 -31q17 -18 20.5 -46t3.5 -63t-4 -68t-12 -46q-24 -37 -65.5 -53.5t-89.5 -16.5q-67 0 -119 25.5t-88 71.5t-55 110.5t-19 142.5q0 71 20 135.5t57 114t90 79t119 29.5q62 0 112 -21t82 -55q25 -26 47 -66t33 -85h12v218h-9
q-13 -17 -22 -29t-11 -12t-19 10.5t-48.5 23t-77.5 23t-106 10.5q-100 0 -170 -28.5t-118 -75.5q-34 -33 -56.5 -70t-35 -73t-17.5 -68.5t-5 -57.5q0 -85 27.5 -153.5t79 -116t126.5 -72t170 -24.5q48 0 96 10t87.5 24.5t67 28.5t34.5 20v146q0 23 1 46t8 34q9 14 29 20.5
t37 8.5zM511 791l-95 170h-15l-95 -170l12 -7l90 111l91 -111z" />
    <glyph glyph-name="gcircumflex" unicode="&#x11d;" horiz-adv-x="525" 
d="M535 428q0 17 -11 29t-28 12q-12 0 -21 -3.5t-17 -8t-17.5 -8t-21.5 -3.5t-20.5 1t-20.5 5q-32 17 -61.5 24t-67.5 7q-42 0 -77.5 -12t-61.5 -32.5t-40.5 -48.5t-14.5 -60q0 -51 24.5 -84t68.5 -50v-3q-25 -3 -46.5 -12.5t-37.5 -23.5t-25 -31t-9 -36q0 -38 27.5 -61
t78.5 -29v-2q-21 -13 -42.5 -26.5t-39 -29t-29 -32.5t-11.5 -38q0 -57 60.5 -89.5t169.5 -32.5q57 0 104.5 15.5t82.5 42.5t54.5 62.5t19.5 74.5q0 30 -10.5 54.5t-30.5 43.5t-48 30t-63 11h-160q-17 0 -35 2t-33 8t-25 16.5t-10 26.5q0 20 19 33t51 15q20 0 34.5 -2
t28.5 -2q97 0 152 39.5t55 118.5q0 32 -10.5 52t-25.5 43l4 4q12 -7 27 -15.5t29.5 -15.5t26.5 -12t18 -5q15 0 25.5 11.5t10.5 26.5zM350 339q0 -28 -7 -53.5t-21 -45.5t-34.5 -32t-47.5 -12q-44 0 -74.5 36.5t-30.5 96.5q0 26 7 51t20.5 44.5t33.5 31t45 11.5
q27 0 47.5 -10.5t34 -28t20.5 -40.5t7 -49zM438 -96q0 -43 -26.5 -74t-61.5 -45q-17 -6 -38.5 -9t-51.5 -3q-25 0 -54.5 8t-55.5 24.5t-43.5 40.5t-17.5 56q0 31 18 57t65 38q14 2 36 4t43 2q58 0 91 -4.5t55 -15.5q17 -8 29 -29t12 -50zM376 540l-95 170h-15l-95 -170
l12 -7l90 111l91 -111z" />
    <glyph glyph-name="Gbreve" unicode="&#x11e;" horiz-adv-x="825" 
d="M791 333v10h-293v-10q58 -5 81 -31q17 -18 20.5 -46t3.5 -63t-4 -68t-12 -46q-24 -37 -65.5 -53.5t-89.5 -16.5q-67 0 -119 25.5t-88 71.5t-55 110.5t-19 142.5q0 71 20 135.5t57 114t90 79t119 29.5q62 0 112 -21t82 -55q25 -26 47 -66t33 -85h12v218h-9
q-13 -17 -22 -29t-11 -12t-19 10.5t-48.5 23t-77.5 23t-106 10.5q-100 0 -170 -28.5t-118 -75.5q-34 -33 -56.5 -70t-35 -73t-17.5 -68.5t-5 -57.5q0 -85 27.5 -153.5t79 -116t126.5 -72t170 -24.5q48 0 96 10t87.5 24.5t67 28.5t34.5 20v146q0 23 1 46t8 34q9 14 29 20.5
t37 8.5zM519 923v11h-13q-3 -50 -29 -74.5t-68 -24.5q-41 0 -67.5 24.5t-29.5 74.5h-13v-11q0 -26 5.5 -53.5t22.5 -47.5q13 -16 34.5 -27t47.5 -11t47.5 11t34.5 27q17 20 22.5 47.5t5.5 53.5z" />
    <glyph glyph-name="gbreve" unicode="&#x11f;" horiz-adv-x="525" 
d="M535 428q0 17 -11 29t-28 12q-12 0 -21 -3.5t-17 -8t-17.5 -8t-21.5 -3.5t-20.5 1t-20.5 5q-32 17 -61.5 24t-67.5 7q-42 0 -77.5 -12t-61.5 -32.5t-40.5 -48.5t-14.5 -60q0 -51 24.5 -84t68.5 -50v-3q-25 -3 -46.5 -12.5t-37.5 -23.5t-25 -31t-9 -36q0 -38 27.5 -61
t78.5 -29v-2q-21 -13 -42.5 -26.5t-39 -29t-29 -32.5t-11.5 -38q0 -57 60.5 -89.5t169.5 -32.5q57 0 104.5 15.5t82.5 42.5t54.5 62.5t19.5 74.5q0 30 -10.5 54.5t-30.5 43.5t-48 30t-63 11h-160q-17 0 -35 2t-33 8t-25 16.5t-10 26.5q0 20 19 33t51 15q20 0 34.5 -2
t28.5 -2q97 0 152 39.5t55 118.5q0 32 -10.5 52t-25.5 43l4 4q12 -7 27 -15.5t29.5 -15.5t26.5 -12t18 -5q15 0 25.5 11.5t10.5 26.5zM350 339q0 -28 -7 -53.5t-21 -45.5t-34.5 -32t-47.5 -12q-44 0 -74.5 36.5t-30.5 96.5q0 26 7 51t20.5 44.5t33.5 31t45 11.5
q27 0 47.5 -10.5t34 -28t20.5 -40.5t7 -49zM438 -96q0 -43 -26.5 -74t-61.5 -45q-17 -6 -38.5 -9t-51.5 -3q-25 0 -54.5 8t-55.5 24.5t-43.5 40.5t-17.5 56q0 31 18 57t65 38q14 2 36 4t43 2q58 0 91 -4.5t55 -15.5q17 -8 29 -29t12 -50zM384 672v11h-13q-3 -50 -29 -74.5
t-68 -24.5q-41 0 -67.5 24.5t-29.5 74.5h-13v-11q0 -26 5.5 -53.5t22.5 -47.5q13 -16 34.5 -27t47.5 -11t47.5 11t34.5 27q17 20 22.5 47.5t5.5 53.5z" />
    <glyph glyph-name="Gdotaccent" unicode="&#x120;" horiz-adv-x="825" 
d="M791 333v10h-293v-10q58 -5 81 -31q17 -18 20.5 -46t3.5 -63t-4 -68t-12 -46q-24 -37 -65.5 -53.5t-89.5 -16.5q-67 0 -119 25.5t-88 71.5t-55 110.5t-19 142.5q0 71 20 135.5t57 114t90 79t119 29.5q62 0 112 -21t82 -55q25 -26 47 -66t33 -85h12v218h-9
q-13 -17 -22 -29t-11 -12t-19 10.5t-48.5 23t-77.5 23t-106 10.5q-100 0 -170 -28.5t-118 -75.5q-34 -33 -56.5 -70t-35 -73t-17.5 -68.5t-5 -57.5q0 -85 27.5 -153.5t79 -116t126.5 -72t170 -24.5q48 0 96 10t87.5 24.5t67 28.5t34.5 20v146q0 23 1 46t8 34q9 14 29 20.5
t37 8.5zM460 835q0 21 -15 35.5t-36 14.5t-36 -14.5t-15 -35.5q0 -20 15.5 -35.5t35.5 -15.5q21 0 36 15t15 36z" />
    <glyph glyph-name="gdotaccent" unicode="&#x121;" horiz-adv-x="525" 
d="M535 428q0 17 -11 29t-28 12q-12 0 -21 -3.5t-17 -8t-17.5 -8t-21.5 -3.5t-20.5 1t-20.5 5q-32 17 -61.5 24t-67.5 7q-42 0 -77.5 -12t-61.5 -32.5t-40.5 -48.5t-14.5 -60q0 -51 24.5 -84t68.5 -50v-3q-25 -3 -46.5 -12.5t-37.5 -23.5t-25 -31t-9 -36q0 -38 27.5 -61
t78.5 -29v-2q-21 -13 -42.5 -26.5t-39 -29t-29 -32.5t-11.5 -38q0 -57 60.5 -89.5t169.5 -32.5q57 0 104.5 15.5t82.5 42.5t54.5 62.5t19.5 74.5q0 30 -10.5 54.5t-30.5 43.5t-48 30t-63 11h-160q-17 0 -35 2t-33 8t-25 16.5t-10 26.5q0 20 19 33t51 15q20 0 34.5 -2
t28.5 -2q97 0 152 39.5t55 118.5q0 32 -10.5 52t-25.5 43l4 4q12 -7 27 -15.5t29.5 -15.5t26.5 -12t18 -5q15 0 25.5 11.5t10.5 26.5zM350 339q0 -28 -7 -53.5t-21 -45.5t-34.5 -32t-47.5 -12q-44 0 -74.5 36.5t-30.5 96.5q0 26 7 51t20.5 44.5t33.5 31t45 11.5
q27 0 47.5 -10.5t34 -28t20.5 -40.5t7 -49zM438 -96q0 -43 -26.5 -74t-61.5 -45q-17 -6 -38.5 -9t-51.5 -3q-25 0 -54.5 8t-55.5 24.5t-43.5 40.5t-17.5 56q0 31 18 57t65 38q14 2 36 4t43 2q58 0 91 -4.5t55 -15.5q17 -8 29 -29t12 -50zM325 584q0 21 -15 35.5t-36 14.5
t-36 -14.5t-15 -35.5q0 -20 15.5 -35.5t35.5 -15.5q21 0 36 15t15 36z" />
    <glyph glyph-name="uni0122" unicode="&#x122;" horiz-adv-x="825" 
d="M791 333v10h-293v-10q58 -5 81 -31q17 -18 20.5 -46t3.5 -63t-4 -68t-12 -46q-24 -37 -65.5 -53.5t-89.5 -16.5q-67 0 -119 25.5t-88 71.5t-55 110.5t-19 142.5q0 71 20 135.5t57 114t90 79t119 29.5q62 0 112 -21t82 -55q25 -26 47 -66t33 -85h12v218h-9
q-13 -17 -22 -29t-11 -12t-19 10.5t-48.5 23t-77.5 23t-106 10.5q-100 0 -170 -28.5t-118 -75.5q-34 -33 -56.5 -70t-35 -73t-17.5 -68.5t-5 -57.5q0 -85 27.5 -153.5t79 -116t126.5 -72t170 -24.5q48 0 96 10t87.5 24.5t67 28.5t34.5 20v146q0 23 1 46t8 34q9 14 29 20.5
t37 8.5zM511 -147q0 -25 -10.5 -45t-27.5 -34t-40 -22t-47 -8v10q35 7 54.5 22.5t19.5 47.5q0 9 -2 16.5t-4 12.5q-9 -7 -20 -9.5t-19 -2.5q-20 0 -30.5 13.5t-10.5 28.5q0 25 18.5 38t41.5 13q34 0 55.5 -24t21.5 -57z" />
    <glyph glyph-name="uni0123" unicode="&#x123;" horiz-adv-x="525" 
d="M535 428q0 17 -11 29t-28 12q-12 0 -21 -3.5t-17 -8t-17.5 -8t-21.5 -3.5t-20.5 1t-20.5 5q-32 17 -61.5 24t-67.5 7q-42 0 -77.5 -12t-61.5 -32.5t-40.5 -48.5t-14.5 -60q0 -51 24.5 -84t68.5 -50v-3q-25 -3 -46.5 -12.5t-37.5 -23.5t-25 -31t-9 -36q0 -38 27.5 -61
t78.5 -29v-2q-21 -13 -42.5 -26.5t-39 -29t-29 -32.5t-11.5 -38q0 -57 60.5 -89.5t169.5 -32.5q57 0 104.5 15.5t82.5 42.5t54.5 62.5t19.5 74.5q0 30 -10.5 54.5t-30.5 43.5t-48 30t-63 11h-160q-17 0 -35 2t-33 8t-25 16.5t-10 26.5q0 20 19 33t51 15q20 0 34.5 -2
t28.5 -2q97 0 152 39.5t55 118.5q0 32 -10.5 52t-25.5 43l4 4q12 -7 27 -15.5t29.5 -15.5t26.5 -12t18 -5q15 0 25.5 11.5t10.5 26.5zM350 339q0 -28 -7 -53.5t-21 -45.5t-34.5 -32t-47.5 -12q-44 0 -74.5 36.5t-30.5 96.5q0 26 7 51t20.5 44.5t33.5 31t45 11.5
q27 0 47.5 -10.5t34 -28t20.5 -40.5t7 -49zM438 -96q0 -43 -26.5 -74t-61.5 -45q-17 -6 -38.5 -9t-51.5 -3q-25 0 -54.5 8t-55.5 24.5t-43.5 40.5t-17.5 56q0 31 18 57t65 38q14 2 36 4t43 2q58 0 91 -4.5t55 -15.5q17 -8 29 -29t12 -50zM325 642q0 -25 -10.5 -45t-27.5 -34
t-40 -22t-47 -8v10q35 7 54.5 22.5t19.5 47.5q0 9 -2 16.5t-4 12.5q-9 -7 -20 -9.5t-19 -2.5q-20 0 -30.5 13.5t-10.5 28.5q0 25 18.5 38t41.5 13q34 0 55.5 -24t21.5 -57z" />
    <glyph glyph-name="Hcircumflex" unicode="&#x124;" horiz-adv-x="900" 
d="M850 0v10q-26 3 -48 11t-35 28q-6 9 -7.5 33.5t-1.5 53.5q0 36 -0.5 66t-0.5 58v58v67v171v31t1 31.5t3 28t6 19.5q11 20 34 30.5t47 13.5v10h-301v-10q23 -1 46 -7.5t41 -33.5q8 -13 9.5 -33.5t2.5 -39.5q1 -33 1 -59v-51v-52v-58h-395v37v64q0 37 0.5 77.5t1.5 75.5
q1 23 10 38t22 23.5t29 12.5t30 6v10h-298v-10q26 -3 46.5 -10.5t34.5 -24.5q6 -7 9 -19.5t4.5 -28t1.5 -33.5v-36v-195v-58q0 -30 -0.5 -58.5t-1 -52.5t-0.5 -38q0 -16 -1 -33.5t-2.5 -32.5t-4 -26.5t-6.5 -16.5q-12 -14 -35 -23.5t-48 -13.5v-10h295v10q-21 2 -43 11
t-34 26q-8 11 -9 38t-1 56v215h395v-35v-56v-67q0 -35 -1 -68q0 -12 -0.5 -25t-1.5 -25t-2.5 -21t-3.5 -12q-8 -13 -33 -23.5t-62 -13.5v-10h307zM549 777l-95 170h-15l-95 -170l12 -7l90 111l91 -111z" />
    <glyph glyph-name="hcircumflex" unicode="&#x125;" horiz-adv-x="524" 
d="M514 0v9q-9 1 -19 2.5t-19 4t-15 7.5t-6 12v295q0 33 -5.5 61t-19 48.5t-36 32t-55.5 11.5q-34 0 -62.5 -11.5t-50.5 -27.5t-36.5 -34t-21.5 -32l-2 1l3 347h-8l-134 -61v-6q13 -8 26.5 -14.5t21.5 -13.5q7 -5 8.5 -9t1.5 -12v-568q0 -19 -18.5 -24.5t-41.5 -7.5v-10h199
v10q-10 2 -20 3t-18 3.5t-13 7.5t-5 14v307q0 8 3.5 17.5t5.5 12.5q15 22 40 35t61 13q28 0 46 -10t28.5 -28t14.5 -43t4 -54v-250q0 -16 -18 -20.5t-45 -6.5v-11h206zM371 783l-95 170h-15l-95 -170l12 -7l90 111l91 -111z" />
    <glyph glyph-name="Hbar" unicode="&#x126;" horiz-adv-x="900" 
d="M757 536v-276q0 -28 0.5 -58t0.5 -66q0 -29 1.5 -53.5t7.5 -33.5q13 -20 35 -28t48 -11v-10h-307v10q37 3 62 13.5t33 23.5q2 3 3.5 12t2.5 21t1.5 25t0.5 25q1 33 1 68v158h-395v-215q0 -29 1 -56t9 -38q12 -17 34 -26t43 -11v-10h-295v10q25 4 48 13.5t35 23.5
q4 5 6.5 16.5t4 26.5t2.5 32.5t1 33.5q0 14 0.5 38t1 52.5t0.5 58.5v231h-96v45h96v13q0 18 -1.5 33.5t-4.5 28t-9 19.5q-14 17 -34.5 24.5t-46.5 10.5v10h298v-10q-14 -2 -30 -6t-29 -12.5t-22 -23.5t-10 -38t-2 -49h394v15q-1 19 -2.5 39.5t-9.5 33.5q-18 27 -41 33.5
t-46 7.5v10h301v-10q-24 -3 -47 -13.5t-34 -30.5q-4 -7 -6 -19.5t-3 -28t-1 -31.5v-6h93v-45h-93zM647 536h-395v-59v-101h395v160z" />
    <glyph glyph-name="hbar" unicode="&#x127;" horiz-adv-x="524" 
d="M167 536l-1 -157l2 -1q7 14 21.5 32t36.5 34t50.5 27.5t62.5 11.5q33 0 55.5 -11.5t36 -32t19 -48.5t5.5 -61v-295q0 -7 6 -12t15 -7.5t19 -4t19 -2.5v-9h-206v11q27 2 45 6.5t18 20.5v250q0 29 -4 54t-14.5 43t-28.5 28t-46 10q-36 0 -61 -13t-40 -35q-2 -3 -5.5 -12.5
t-3.5 -17.5v-307q0 -9 5 -14t13 -7.5t18 -3.5t20 -3v-10h-199v10q23 2 41.5 7.5t18.5 24.5v494h-58v45h58v29q0 8 -1.5 12t-8.5 9q-8 7 -21.5 13.5t-26.5 14.5v6l134 61h8l-1 -145h140v-45h-141z" />
    <glyph glyph-name="Itilde" unicode="&#x128;" horiz-adv-x="399" 
d="M349 0v10q-21 2 -47 11t-38 26q-8 11 -9 38t-1 56v226v57v52t0.5 49.5t0.5 49.5q1 23 1.5 49t9.5 43q13 24 37 32t45 11v10h-299v-10q26 -3 46.5 -10.5t34.5 -24.5q6 -7 9 -19.5t4.5 -28t1.5 -33.5v-36v-195v-58q0 -30 -0.5 -58.5t-1 -52.5t-0.5 -38q0 -16 -0.5 -32.5
t-2 -31.5t-4 -26t-7.5 -17q-15 -17 -36.5 -26t-46.5 -13v-10h303zM346 900h-14q-8 -34 -28.5 -42.5t-57.5 -8.5l-89 19q-47 0 -73 -27.5t-37 -70.5h13q7 18 13 27t15 13.5t21.5 5t32.5 0.5l91 -19q28 0 47 8.5t32 23t21 33t13 38.5z" />
    <glyph glyph-name="itilde" unicode="&#x129;" horiz-adv-x="254" 
d="M233 0v10q-10 2 -20.5 2.5t-19.5 2.5t-15.5 6.5t-8.5 14.5v447h-6l-135 -44v-7q13 -5 26 -11t22 -11q8 -5 9 -9t1 -12v-347q0 -9 -6.5 -15t-16 -9.5t-21.5 -5t-24 -2.5v-10h215zM274 663h-14q-8 -34 -28.5 -42.5t-57.5 -8.5l-89 19q-47 0 -73 -27.5t-37 -70.5h13
q7 18 13 27t15 13.5t21.5 5t32.5 0.5l91 -19q28 0 47 8.5t32 23t21 33t13 38.5z" />
    <glyph glyph-name="Imacron" unicode="&#x12a;" horiz-adv-x="399" 
d="M349 0v10q-21 2 -47 11t-38 26q-8 11 -9 38t-1 56v226v57v52t0.5 49.5t0.5 49.5q1 23 1.5 49t9.5 43q13 24 37 32t45 11v10h-299v-10q26 -3 46.5 -10.5t34.5 -24.5q6 -7 9 -19.5t4.5 -28t1.5 -33.5v-36v-195v-58q0 -30 -0.5 -58.5t-1 -52.5t-0.5 -38q0 -16 -0.5 -32.5
t-2 -31.5t-4 -26t-7.5 -17q-15 -17 -36.5 -26t-46.5 -13v-10h303zM337 770v45h-281v-45h281z" />
    <glyph glyph-name="imacron" unicode="&#x12b;" horiz-adv-x="254" 
d="M233 0v10q-10 2 -20.5 2.5t-19.5 2.5t-15.5 6.5t-8.5 14.5v447h-6l-135 -44v-7q13 -5 26 -11t22 -11q8 -5 9 -9t1 -12v-347q0 -9 -6.5 -15t-16 -9.5t-21.5 -5t-24 -2.5v-10h215zM265 533v45h-281v-45h281z" />
    <glyph glyph-name="Ibreve" unicode="&#x12c;" horiz-adv-x="399" 
d="M349 0v10q-21 2 -47 11t-38 26q-8 11 -9 38t-1 56v226v57v52t0.5 49.5t0.5 49.5q1 23 1.5 49t9.5 43q13 24 37 32t45 11v10h-299v-10q26 -3 46.5 -10.5t34.5 -24.5q6 -7 9 -19.5t4.5 -28t1.5 -33.5v-36v-195v-58q0 -30 -0.5 -58.5t-1 -52.5t-0.5 -38q0 -16 -0.5 -32.5
t-2 -31.5t-4 -26t-7.5 -17q-15 -17 -36.5 -26t-46.5 -13v-10h303zM307 909v11h-13q-3 -50 -29 -74.5t-68 -24.5q-41 0 -67.5 24.5t-29.5 74.5h-13v-11q0 -26 5.5 -53.5t22.5 -47.5q13 -16 34.5 -27t47.5 -11t47.5 11t34.5 27q17 20 22.5 47.5t5.5 53.5z" />
    <glyph glyph-name="ibreve" unicode="&#x12d;" horiz-adv-x="254" 
d="M233 0v10q-10 2 -20.5 2.5t-19.5 2.5t-15.5 6.5t-8.5 14.5v447h-6l-135 -44v-7q13 -5 26 -11t22 -11q8 -5 9 -9t1 -12v-347q0 -9 -6.5 -15t-16 -9.5t-21.5 -5t-24 -2.5v-10h215zM235 672v11h-13q-3 -50 -29 -74.5t-68 -24.5q-41 0 -67.5 24.5t-29.5 74.5h-13v-11
q0 -26 5.5 -53.5t22.5 -47.5q13 -16 34.5 -27t47.5 -11t47.5 11t34.5 27q17 20 22.5 47.5t5.5 53.5z" />
    <glyph glyph-name="Iogonek" unicode="&#x12e;" horiz-adv-x="399" 
d="M349 0v10q-21 2 -47 11t-38 26q-8 11 -9 38t-1 56v226v57v52t0.5 49.5t0.5 49.5q1 23 1.5 49t9.5 43q13 24 37 32t45 11v10h-299v-10q26 -3 46.5 -10.5t34.5 -24.5q6 -7 9 -19.5t4.5 -28t1.5 -33.5v-36v-195v-58q0 -30 -0.5 -58.5t-1 -52.5t-0.5 -38q0 -16 -0.5 -32.5
t-2 -31.5t-4 -26t-7.5 -17q-15 -17 -36.5 -26t-46.5 -13v-10h303zM287 -145l-8 4q-11 -17 -23 -27t-38 -10q-29 0 -41.5 18.5t-12.5 40.5q0 19 6 36.5t16 32.5t21.5 27.5t23.5 20.5v2h-15q-16 -10 -35 -25.5t-35.5 -34t-27.5 -40t-11 -45.5q0 -33 24 -55t59 -22q20 0 36 7.5
t28 19t20 25t13 25.5z" />
    <glyph glyph-name="iogonek" unicode="&#x12f;" horiz-adv-x="254" 
d="M177 641q0 23 -15.5 38t-38.5 15t-38.5 -15t-15.5 -38q0 -22 16 -38t38 -16q23 0 38.5 15.5t15.5 38.5zM233 0v10q-10 2 -20.5 2.5t-19.5 2.5t-15.5 6.5t-8.5 14.5v447h-6l-135 -44v-6q14 -5 26.5 -11t21.5 -12q7 -5 8.5 -11t1.5 -14v-343q0 -9 -6.5 -15t-16 -9.5
t-21.5 -5t-24 -2.5v-10h215zM215 -145l-8 4q-11 -17 -23 -27t-38 -10q-29 0 -41.5 18.5t-12.5 40.5q0 19 6 36.5t16 32.5t21.5 27.5t23.5 20.5v2h-15q-16 -10 -35 -25.5t-35.5 -34t-27.5 -40t-11 -45.5q0 -33 24 -55t59 -22q20 0 36 7.5t28 19t20 25t13 25.5z" />
    <glyph glyph-name="Idotaccent" unicode="&#x130;" horiz-adv-x="399" 
d="M349 0v10q-21 2 -47 11t-38 26q-8 11 -9 38t-1 56v226v57v52t0.5 49.5t0.5 49.5q1 23 1.5 49t9.5 43q13 24 37 32t45 11v10h-299v-10q26 -3 46.5 -10.5t34.5 -24.5q6 -7 9 -19.5t4.5 -28t1.5 -33.5v-36v-195v-58q0 -30 -0.5 -58.5t-1 -52.5t-0.5 -38q0 -16 -0.5 -32.5
t-2 -31.5t-4 -26t-7.5 -17q-15 -17 -36.5 -26t-46.5 -13v-10h303zM248 821q0 21 -15 35.5t-36 14.5t-36 -14.5t-15 -35.5q0 -20 15.5 -35.5t35.5 -15.5q21 0 36 15t15 36z" />
    <glyph glyph-name="dotlessi" unicode="&#x131;" horiz-adv-x="254" 
d="M233 0v10q-10 2 -20.5 2.5t-19.5 2.5t-15.5 6.5t-8.5 14.5v447h-6l-135 -44v-7q13 -5 26 -11t22 -11q8 -5 9 -9t1 -12v-347q0 -9 -6.5 -15t-16 -9.5t-21.5 -5t-24 -2.5v-10h215z" />
    <glyph glyph-name="IJ" unicode="&#x132;" horiz-adv-x="798" 
d="M349 0v10q-21 2 -47 11t-38 26q-8 11 -9 38t-1 56v226v57v52t0.5 49.5t0.5 49.5q1 23 1.5 49t9.5 43q13 24 37 32t45 11v10h-299v-10q26 -3 46.5 -10.5t34.5 -24.5q6 -7 9 -19.5t4.5 -28t1.5 -33.5v-36v-195v-58q0 -30 -0.5 -58.5t-1 -52.5t-0.5 -38q0 -16 -0.5 -32.5
t-2 -31.5t-4 -26t-7.5 -17q-15 -17 -36.5 -26t-46.5 -13v-10h303zM779 710v10h-308v-10q26 -3 50.5 -9t38.5 -23q6 -7 8.5 -20t4 -29.5t1.5 -34.5v-36v-195v-58v-59q0 -28 -0.5 -52t-0.5 -38q-1 -28 -3.5 -56t-8.5 -50q-7 -23 -22.5 -39t-40.5 -16q-8 0 -17 3.5t-14 10.5v3
q21 3 35 13.5t14 33.5q0 20 -14.5 34.5t-34.5 14.5q-23 0 -41 -15t-18 -39q0 -19 7.5 -32.5t20 -21t28 -11.5t31.5 -4q29 0 63.5 11t66.5 36q26 20 42 43.5t16 56.5v235v57v52t0.5 49.5t0.5 49.5q1 23 2 49.5t9 42.5q13 24 38 32t46 11z" />
    <glyph glyph-name="ij" unicode="&#x133;" horiz-adv-x="500" 
d="M177 641q0 23 -15.5 38t-38.5 15t-38.5 -15t-15.5 -38q0 -22 16 -38t38 -16q23 0 38.5 15.5t15.5 38.5zM233 0v10q-10 2 -20.5 2.5t-19.5 2.5t-15.5 6.5t-8.5 14.5v447h-6l-135 -44v-6q14 -5 26.5 -11t21.5 -12q7 -5 8.5 -11t1.5 -14v-343q0 -9 -6.5 -15t-16 -9.5
t-21.5 -5t-24 -2.5v-10h215zM433 639q0 23 -15.5 38t-38.5 15t-38.5 -15t-15.5 -38q0 -22 16 -38t38 -16q23 0 38.5 15.5t15.5 38.5zM426 -61v62v100q0 57 -0.5 118t-0.5 115v95v54h-6l-140 -54v-7q12 -7 28.5 -16t24.5 -16q7 -6 8.5 -9.5t1.5 -11.5v-325q0 -19 -0.5 -56
t-2.5 -76q-1 -19 -2 -39.5t-6.5 -38.5t-16 -31t-29.5 -17q-17 1 -24 14t-12.5 28.5t-15.5 28t-31 12.5q-25 0 -37.5 -13t-12.5 -35q0 -15 7.5 -26.5t19.5 -19.5t27 -12t30 -4q33 0 67.5 18.5t61.5 45.5t44 58.5t17 57.5z" />
    <glyph glyph-name="Jcircumflex" unicode="&#x134;" horiz-adv-x="399" 
d="M380 710v10h-308v-10q26 -3 50.5 -9t38.5 -23q6 -7 8.5 -20t4 -29.5t1.5 -34.5v-36v-195v-58v-59q0 -28 -0.5 -52t-0.5 -38q-1 -28 -3.5 -56t-8.5 -50q-7 -23 -22.5 -39t-40.5 -16q-8 0 -17 3.5t-14 10.5v3q21 3 35 13.5t14 33.5q0 20 -14.5 34.5t-34.5 14.5
q-23 0 -41 -15t-18 -39q0 -19 7.5 -32.5t20 -21t28 -11.5t31.5 -4q29 0 63.5 11t66.5 36q26 20 42 43.5t16 56.5v235v57v52t0.5 49.5t0.5 49.5q1 23 2 49.5t9 42.5q13 24 38 32t46 11zM297 777l-95 170h-15l-95 -170l12 -7l90 111l91 -111z" />
    <glyph glyph-name="j_circumflex" unicode="&#x135;" horiz-adv-x="246" 
d="M172 -61q0 -26 -17 -57.5t-44 -58.5t-61.5 -45.5t-67.5 -18.5q-15 0 -30 4t-27 12t-19.5 19.5t-7.5 26.5q0 22 12.5 35t37.5 13q21 0 31 -12.5t15.5 -28t12.5 -28.5t24 -14q19 4 29.5 17t16 31t6.5 38.5t2 39.5q2 39 2.5 76t0.5 56v325q0 8 -1.5 11.5t-8.5 9.5
q-8 7 -24.5 16t-28.5 16v7l140 54h6v-149q0 -54 0.5 -115t0.5 -118v-162v0zM228 540l-95 170h-15l-95 -170l12 -7l90 111l91 -111z" />
    <glyph glyph-name="K_cedilla" unicode="&#x136;" horiz-adv-x="767" 
d="M805 0v10q-28 2 -50.5 7t-35.5 10q-3 1 -12 8t-21 16.5t-25 21.5t-23 24q-42 47 -87.5 98t-85.5 96t-69 78.5t-37 43.5q17 18 37.5 38.5t42 42.5t43.5 44t43 41q54 50 106 88t103 43v10h-268v-10q26 -4 46 -17t20 -42q0 -17 -13.5 -38t-30.5 -41q-24 -26 -57 -61
t-66.5 -68t-64 -59.5t-48.5 -37.5v92v63t0.5 46t1.5 43q1 42 10.5 65t23.5 34.5t32 15t37 5.5v10h-310v-10q26 -3 46 -11t34 -25q11 -14 13.5 -46t2.5 -70v-195v-58v-59q0 -28 -0.5 -52t-0.5 -38q0 -16 -0.5 -33.5t-2 -33t-4.5 -27.5t-8 -18q-12 -14 -35 -22t-48 -12v-10
h321v10q-10 1 -23.5 3.5t-27.5 7t-26 11.5t-19 17q-10 13 -13 38t-4 54q-1 33 -1 79v99q3 8 5.5 11.5t10.5 3.5q7 0 16.5 -7t35.5 -36q62 -68 119.5 -134.5t121.5 -140.5q6 -7 11 -10.5t9 -5.5h225zM492 -147q0 -25 -10.5 -45t-27.5 -34t-40 -22t-47 -8v10q35 7 54.5 22.5
t19.5 47.5q0 9 -2 16.5t-4 12.5q-9 -7 -20 -9.5t-19 -2.5q-20 0 -30.5 13.5t-10.5 28.5q0 25 18.5 38t41.5 13q34 0 55.5 -24t21.5 -57z" />
    <glyph glyph-name="k_cedilla" unicode="&#x137;" horiz-adv-x="488" 
d="M528 0v10q-19 0 -36 2t-25 4q-24 18 -59 64q-29 38 -68 96.5t-83 125.5q27 25 58 53.5t63 55.5q21 18 45.5 28t46 15.5t37.5 7t19 1.5v10h-245v-10q12 0 26 -2t26 -5t20 -7.5t8 -11.5t-19 -28.5t-48 -50t-63 -59t-63 -54.5v478h-8l-133 -61v-6q13 -7 27.5 -14.5
t21.5 -12.5t8 -9.5t1 -12.5v-565q0 -19 -18.5 -24.5t-41.5 -7.5v-10h199v10q-10 2 -20 3t-18 3.5t-13 7.5t-5 14v196q4 2 7.5 2.5t8.5 0.5q13 0 29 -22q15 -20 35.5 -49.5t39 -57.5t32 -49.5t13.5 -27.5q0 -14 -13.5 -17t-33.5 -4v-10h242zM344 -147q0 -25 -10.5 -45
t-27.5 -34t-40 -22t-47 -8v10q35 7 54.5 22.5t19.5 47.5q0 9 -2 16.5t-4 12.5q-9 -7 -20 -9.5t-19 -2.5q-20 0 -30.5 13.5t-10.5 28.5q0 25 18.5 38t41.5 13q34 0 55.5 -24t21.5 -57z" />
    <glyph glyph-name="kgreenlandic" unicode="&#x138;" horiz-adv-x="488" 
d="M286 0v10q20 1 33.5 4t13.5 17q0 6 -13.5 27.5t-32 49.5t-39 57.5t-35.5 49.5q-16 22 -29 22q-5 0 -8.5 -0.5t-7.5 -2.5v-196q0 -9 5 -14t13 -7.5t18 -3.5t20 -3v-10h-199v10q23 2 41.5 7.5t18.5 24.5v315v1v4q-1 4 -1 7q0 1 1 3q-1 18 -2 34q-2 22 -10 32q-10 11 -26 17
t-35 8v10h235v-10q-13 -1 -26.5 -3.5t-24.5 -10.5t-18 -24.5t-8 -45.5q-1 -14 -2 -26v-108q29 24 63 54.5t63 59t48 50t19 28.5t-8 11.5t-20 7.5t-26 5t-26 2v10h245v-10q-3 0 -19 -1.5t-37.5 -7t-46 -15.5t-45.5 -28q-32 -27 -63 -55.5t-58 -53.5q44 -67 83 -125.5
t68 -96.5q35 -46 59 -64q8 -2 25 -4t36 -2v-10h-242z" />
    <glyph glyph-name="Lacute" unicode="&#x139;" horiz-adv-x="708" 
d="M713 206l-10 3q-12 -30 -25 -57.5t-32 -51t-45.5 -41.5t-66.5 -29q-17 -5 -39 -8t-43 -4.5t-38.5 -2t-25.5 -0.5q-20 0 -40 2.5t-37 6t-29 8.5t-16 10q-9 14 -10.5 43t-2.5 61q0 34 -0.5 61.5t-0.5 53.5v53v62v67t0.5 58t1 57t1.5 64q1 27 12.5 43.5t27.5 25.5t34 13
t31 6v10h-319v-10q26 -3 49.5 -12t37.5 -26q6 -7 9 -19t4.5 -27.5t1.5 -33.5v-35v-194v-58q0 -30 -0.5 -58.5t-1 -52.5t-0.5 -38q0 -16 -1.5 -32.5t-3.5 -31.5t-5.5 -26.5t-8.5 -17.5q-14 -16 -38.5 -25t-49.5 -13v-10h642zM448 923v5q-6 8 -15 16t-31 8l-104 -176l10 -6z
" />
    <glyph glyph-name="lacute" unicode="&#x13a;" horiz-adv-x="246" 
d="M240 0v11q-19 2 -33 2.5t-23 2.5t-13.5 7t-4.5 15v685h-7l-143 -47v-6q12 -5 30 -15.5t27 -15.5q7 -5 8.5 -9t1.5 -12v-575q0 -16 -15 -22.5t-61 -9.5v-11h233zM198 926v5q-6 8 -15 16t-31 8l-104 -176l10 -6z" />
    <glyph glyph-name="L_cedilla" unicode="&#x13b;" horiz-adv-x="708" 
d="M713 206l-10 3q-12 -30 -25 -57.5t-32 -51t-45.5 -41.5t-66.5 -29q-17 -5 -39 -8t-43 -4.5t-38.5 -2t-25.5 -0.5q-20 0 -40 2.5t-37 6t-29 8.5t-16 10q-9 14 -10.5 43t-2.5 61q0 34 -0.5 61.5t-0.5 53.5v53v62v67t0.5 58t1 57t1.5 64q1 27 12.5 43.5t27.5 25.5t34 13
t31 6v10h-319v-10q26 -3 49.5 -12t37.5 -26q6 -7 9 -19t4.5 -27.5t1.5 -33.5v-35v-194v-58q0 -30 -0.5 -58.5t-1 -52.5t-0.5 -38q0 -16 -1.5 -32.5t-3.5 -31.5t-5.5 -26.5t-8.5 -17.5q-14 -16 -38.5 -25t-49.5 -13v-10h642zM441 -147q0 -25 -10.5 -45t-27.5 -34t-40 -22
t-47 -8v10q35 7 54.5 22.5t19.5 47.5q0 9 -2 16.5t-4 12.5q-9 -7 -20 -9.5t-19 -2.5q-20 0 -30.5 13.5t-10.5 28.5q0 25 18.5 38t41.5 13q34 0 55.5 -24t21.5 -57z" />
    <glyph glyph-name="l_cedilla" unicode="&#x13c;" horiz-adv-x="246" 
d="M240 0v11q-19 2 -33 2.5t-23 2.5t-13.5 7t-4.5 15v685h-7l-143 -47v-6q12 -5 30 -15.5t27 -15.5q7 -5 8.5 -9t1.5 -12v-575q0 -16 -15 -22.5t-61 -9.5v-11h233zM191 -147q0 -25 -10.5 -45t-27.5 -34t-40 -22t-47 -8v10q35 7 54.5 22.5t19.5 47.5q0 9 -2 16.5t-4 12.5
q-9 -7 -20 -9.5t-19 -2.5q-20 0 -30.5 13.5t-10.5 28.5q0 25 18.5 38t41.5 13q34 0 55.5 -24t21.5 -57z" />
    <glyph glyph-name="Lcaron" unicode="&#x13d;" horiz-adv-x="708" 
d="M713 206l-10 3q-12 -30 -25 -57.5t-32 -51t-45.5 -41.5t-66.5 -29q-17 -5 -39 -8t-43 -4.5t-38.5 -2t-25.5 -0.5q-20 0 -40 2.5t-37 6t-29 8.5t-16 10q-9 14 -10.5 43t-2.5 61q0 34 -0.5 61.5t-0.5 53.5v53v62v67t0.5 58t1 57t1.5 64q1 27 12.5 43.5t27.5 25.5t34 13
t31 6v10h-319v-10q26 -3 49.5 -12t37.5 -26q6 -7 9 -19t4.5 -27.5t1.5 -33.5v-35v-194v-58q0 -30 -0.5 -58.5t-1 -52.5t-0.5 -38q0 -16 -1.5 -32.5t-3.5 -31.5t-5.5 -26.5t-8.5 -17.5q-14 -16 -38.5 -25t-49.5 -13v-10h642zM475 940l-12 7l-91 -111l-90 111l-12 -7l95 -170
h15z" />
    <glyph glyph-name="lcaron" unicode="&#x13e;" horiz-adv-x="246" 
d="M240 0v11q-19 2 -33 2.5t-23 2.5t-13.5 7t-4.5 15v685h-7l-143 -47v-6q12 -5 30 -15.5t27 -15.5q7 -5 8.5 -9t1.5 -12v-575q0 -16 -15 -22.5t-61 -9.5v-11h233zM225 943l-12 7l-91 -111l-90 111l-12 -7l95 -170h15z" />
    <glyph glyph-name="Ldot" unicode="&#x13f;" horiz-adv-x="708" 
d="M676 0h-642v10q25 4 49.5 13t38.5 25q5 6 8.5 17.5t5.5 26.5t3.5 31.5t1.5 32.5q0 14 0.5 38t1 52.5t0.5 58.5v58v194v35q0 18 -1.5 33.5t-4.5 27.5t-9 19q-14 17 -37.5 26t-49.5 12v10h319v-10q-13 -2 -31 -6t-34 -13t-27.5 -25.5t-12.5 -43.5q-1 -35 -1.5 -64t-1 -57
t-0.5 -58v-67v-62v-53t0.5 -53.5t0.5 -61.5q1 -32 2.5 -61t10.5 -43q4 -5 16 -10t29 -8.5t37 -6t40 -2.5q8 0 25.5 0.5t38.5 2t43 4.5t39 8q40 11 66.5 29t45.5 41.5t32 51t25 57.5l10 -3zM512 364q0 -25 -17.5 -41t-40.5 -16t-41 15.5t-18 41.5t18 41.5t41 15.5t40.5 -17
t17.5 -40z" />
    <glyph glyph-name="l_middot" unicode="&#x140;" horiz-adv-x="458" 
d="M240 0v11q-19 2 -33 2.5t-23 2.5t-13.5 7t-4.5 15v685h-7l-143 -47v-6q12 -5 30 -15.5t27 -15.5q7 -5 8.5 -9t1.5 -12v-575q0 -16 -15 -22.5t-61 -9.5v-11h233zM388 358q0 26 -16 44.5t-42 18.5t-43 -17.5t-17 -43.5t17 -42.5t43 -16.5t42 15.5t16 41.5z" />
    <glyph glyph-name="Lslash" unicode="&#x141;" horiz-adv-x="708" 
d="M713 206l-10 3q-12 -30 -25 -57.5t-32 -51t-45.5 -41.5t-66.5 -29q-17 -5 -39 -8t-43 -4.5t-38.5 -2t-25.5 -0.5q-20 0 -40 2.5t-37 6t-29 8.5t-16 10q-9 14 -10.5 43t-2.5 61q0 34 -0.5 61t-0.5 53v53v60l173 50l-8 27l-165 -51v58q0 27 0.5 53t1 53t1.5 59
q1 27 12.5 43.5t27.5 25.5t34 13t31 6v10h-319v-10q26 -3 49.5 -12t37.5 -26q6 -7 9 -19t4.5 -27.5t1.5 -33.5v-35v-192l-127 -39l8 -26l119 39v-53t-0.5 -51.5t-1 -45t-0.5 -33.5q0 -16 -1.5 -32.5t-3.5 -31.5t-5.5 -26.5t-8.5 -17.5q-14 -16 -38.5 -25t-49.5 -13v-10h642z
" />
    <glyph glyph-name="lslash" unicode="&#x142;" horiz-adv-x="256" 
d="M269 463l-9 24l-89 -35v271h-7l-143 -47v-6q12 -5 30 -15.5t27 -15.5q7 -5 8.5 -9t1.5 -12v-195l-97 -36l9 -23l88 35v-356q0 -16 -15 -22.5t-61 -9.5v-11h233v11q-25 1 -39.5 2.5t-22 4.5t-10 8t-2.5 13v388z" />
    <glyph glyph-name="Nacute" unicode="&#x143;" horiz-adv-x="875" 
d="M846 710v10h-248v-10q48 -7 73.5 -24.5t35.5 -45.5q8 -21 9 -57.5t1 -76.5v-340l-474 554h-203v-10q16 -2 33.5 -6.5t32.5 -15t26 -29t14 -47.5q1 -29 1 -49v-37v-37v-48q0 -67 -1 -125.5t-3 -101.5q-2 -57 -6 -98t-18 -62q-14 -22 -38 -31.5t-48 -12.5v-10h246v10
q-41 5 -64.5 16.5t-34.5 34.5q-10 20 -12.5 61t-2.5 92v422q68 -76 129 -147t124.5 -145.5t133.5 -156.5t155 -180q10 -10 18 -10q5 0 7.5 2.5t2.5 6.5v65t-0.5 72.5t-0.5 71.5v64q0 67 1.5 125.5t3.5 101.5q2 46 4 86.5t9 55.5q12 29 34.5 43t59.5 19zM514 923v5
q-6 8 -15 16t-31 8l-104 -176l10 -6z" />
    <glyph glyph-name="nacute" unicode="&#x144;" horiz-adv-x="521" 
d="M512 0v9q-9 1 -19.5 2.5t-19.5 4t-15.5 7.5t-6.5 12v294q0 68 -31 111t-89 43q-27 0 -52 -10.5t-46 -26.5t-37.5 -35.5t-27.5 -36.5l-2 1v108h-6l-131 -47v-6q12 -5 24 -11.5t21 -11.5q7 -5 8.5 -9t1.5 -12v-344q0 -16 -16.5 -23t-39.5 -9v-10h193v10q-10 2 -19 2.5
t-16 2.5t-12 6.5t-7 14.5v328q27 27 49 41t55 14q52 0 74 -35.5t22 -93.5v-252q0 -16 -16 -20.5t-43 -6.5v-11h204zM345 686v5q-6 8 -15 16t-31 8l-104 -176l10 -6z" />
    <glyph glyph-name="N_cedilla" unicode="&#x145;" horiz-adv-x="875" 
d="M846 710v10h-248v-10q48 -7 73.5 -24.5t35.5 -45.5q8 -21 9 -57.5t1 -76.5v-340l-474 554h-203v-10q16 -2 33.5 -6.5t32.5 -15t26 -29t14 -47.5q1 -29 1 -49v-37v-37v-48q0 -67 -1 -125.5t-3 -101.5q-2 -57 -6 -98t-18 -62q-14 -22 -38 -31.5t-48 -12.5v-10h246v10
q-41 5 -64.5 16.5t-34.5 34.5q-10 20 -12.5 61t-2.5 92v422q68 -76 129 -147t124.5 -145.5t133.5 -156.5t155 -180q10 -10 18 -10q5 0 7.5 2.5t2.5 6.5v65t-0.5 72.5t-0.5 71.5v64q0 67 1.5 125.5t3.5 101.5q2 46 4 86.5t9 55.5q12 29 34.5 43t59.5 19zM507 -147
q0 -25 -10.5 -45t-27.5 -34t-40 -22t-47 -8v10q35 7 54.5 22.5t19.5 47.5q0 9 -2 16.5t-4 12.5q-9 -7 -20 -9.5t-19 -2.5q-20 0 -30.5 13.5t-10.5 28.5q0 25 18.5 38t41.5 13q34 0 55.5 -24t21.5 -57z" />
    <glyph glyph-name="n_cedilla" unicode="&#x146;" horiz-adv-x="521" 
d="M512 0v9q-9 1 -19.5 2.5t-19.5 4t-15.5 7.5t-6.5 12v294q0 68 -31 111t-89 43q-27 0 -52 -10.5t-46 -26.5t-37.5 -35.5t-27.5 -36.5l-2 1v108h-6l-131 -47v-6q12 -5 24 -11.5t21 -11.5q7 -5 8.5 -9t1.5 -12v-344q0 -16 -16.5 -23t-39.5 -9v-10h193v10q-10 2 -19 2.5
t-16 2.5t-12 6.5t-7 14.5v328q27 27 49 41t55 14q52 0 74 -35.5t22 -93.5v-252q0 -16 -16 -20.5t-43 -6.5v-11h204zM338 -147q0 -25 -10.5 -45t-27.5 -34t-40 -22t-47 -8v10q35 7 54.5 22.5t19.5 47.5q0 9 -2 16.5t-4 12.5q-9 -7 -20 -9.5t-19 -2.5q-20 0 -30.5 13.5
t-10.5 28.5q0 25 18.5 38t41.5 13q34 0 55.5 -24t21.5 -57z" />
    <glyph glyph-name="Ncaron" unicode="&#x147;" horiz-adv-x="875" 
d="M846 710v10h-248v-10q48 -7 73.5 -24.5t35.5 -45.5q8 -21 9 -57.5t1 -76.5v-340l-474 554h-203v-10q16 -2 33.5 -6.5t32.5 -15t26 -29t14 -47.5q1 -29 1 -49v-37v-37v-48q0 -67 -1 -125.5t-3 -101.5q-2 -57 -6 -98t-18 -62q-14 -22 -38 -31.5t-48 -12.5v-10h246v10
q-41 5 -64.5 16.5t-34.5 34.5q-10 20 -12.5 61t-2.5 92v422q68 -76 129 -147t124.5 -145.5t133.5 -156.5t155 -180q10 -10 18 -10q5 0 7.5 2.5t2.5 6.5v65t-0.5 72.5t-0.5 71.5v64q0 67 1.5 125.5t3.5 101.5q2 46 4 86.5t9 55.5q12 29 34.5 43t59.5 19zM541 940l-12 7
l-91 -111l-90 111l-12 -7l95 -170h15z" />
    <glyph glyph-name="ncaron" unicode="&#x148;" horiz-adv-x="521" 
d="M512 0v9q-9 1 -19.5 2.5t-19.5 4t-15.5 7.5t-6.5 12v294q0 68 -31 111t-89 43q-27 0 -52 -10.5t-46 -26.5t-37.5 -35.5t-27.5 -36.5l-2 1v108h-6l-131 -47v-6q12 -5 24 -11.5t21 -11.5q7 -5 8.5 -9t1.5 -12v-344q0 -16 -16.5 -23t-39.5 -9v-10h193v10q-10 2 -19 2.5
t-16 2.5t-12 6.5t-7 14.5v328q27 27 49 41t55 14q52 0 74 -35.5t22 -93.5v-252q0 -16 -16 -20.5t-43 -6.5v-11h204zM372 703l-12 7l-91 -111l-90 111l-12 -7l95 -170h15z" />
    <glyph glyph-name="napostrophe" unicode="&#x149;" horiz-adv-x="647" 
d="M145 642q0 33 -21.5 57t-55.5 24q-23 0 -41.5 -13t-18.5 -38q0 -15 10.5 -28.5t30.5 -13.5q8 0 19 2.5t20 9.5q2 -5 4 -12.5t2 -16.5q0 -32 -19.5 -47.5t-54.5 -22.5v-10q24 0 47 8t40 22t27.5 34t10.5 45zM638 0v9q-9 1 -19.5 2.5t-19.5 4t-15.5 7.5t-6.5 12v294
q0 68 -31 111t-89 43q-27 0 -52 -10.5t-46 -26.5t-37.5 -35.5t-27.5 -36.5l-2 1v108h-6l-131 -47v-6q12 -5 24 -11.5t21 -11.5q7 -5 8.5 -9t1.5 -12v-344q0 -16 -16.5 -23t-39.5 -9v-10h193v10q-10 2 -19 2.5t-16 2.5t-12 6.5t-7 14.5v328q27 27 49 41t55 14q52 0 74 -35.5
t22 -93.5v-252q0 -16 -16 -20.5t-43 -6.5v-11h204z" />
    <glyph glyph-name="Eng" unicode="&#x14a;" horiz-adv-x="875" 
d="M736 -61q0 -26 -17 -57.5t-44 -58.5t-61.5 -45.5t-67.5 -18.5q-15 0 -30 4t-27 12t-19.5 19.5t-7.5 26.5q0 22 12.5 35t37.5 13q21 0 31 -12.5t15.5 -28t12.5 -28.5t24 -14q19 4 29.5 17t16 31t6.5 38.5t2 39.5q2 39 2.5 76t0.5 56v26q-53 62 -100 117
q-70 82 -133.5 156.5t-124.5 145.5t-129 147v-422q0 -51 2.5 -92t12.5 -61q11 -23 34.5 -34.5t64.5 -16.5v-10h-246v10q24 3 48 12.5t38 31.5q14 21 18 62t6 98q2 43 3 101.5t1 125.5v122q0 20 -1 49q-3 29 -14 47.5t-26 29t-32.5 15t-33.5 6.5v10h203l474 -554v340
q0 40 -1 76.5t-9 57.5q-10 28 -35.5 45.5t-73.5 24.5v10h248v-10q-37 -5 -59.5 -19t-34.5 -43q-7 -15 -9 -55.5t-4 -86.5q-2 -43 -3.5 -101.5t-1.5 -125.5v-64v-72v-9h1v-27v-5v17q1 39 1 -18v-162v0z" />
    <glyph glyph-name="eng" unicode="&#x14b;" horiz-adv-x="521" 
d="M451 -61q0 -26 -17 -57.5t-44 -58.5t-61.5 -45.5t-67.5 -18.5q-15 0 -30 4t-27 12t-19.5 19.5t-7.5 26.5q0 22 12.5 35t37.5 13q21 0 31 -12.5t15.5 -28t12.5 -28.5t24 -14q19 4 29.5 17t16 31t6.5 38.5t2 39.5q2 39 2 76q1 32 1 50v131v121q0 58 -22 93.5t-74 35.5
q-33 0 -55 -14t-49 -41v-328q2 -10 7 -14.5t12 -6.5t16 -2.5t19 -2.5v-10h-193v10q23 2 39.5 9t16.5 23v344q0 8 -1.5 12t-8.5 9q-9 5 -21 11.5t-24 11.5v6l131 47h6v-108l2 -1q11 17 27.5 36.5t37.5 35.5t46 26.5t52 10.5q58 0 89 -43t31 -111v-195v-33v-162v0z" />
    <glyph glyph-name="Omacron" unicode="&#x14c;" horiz-adv-x="808" 
d="M779 365q0 72 -25 138t-72 116.5t-114.5 80.5t-152.5 30q-78 0 -148.5 -25.5t-123 -73t-83.5 -116t-31 -154.5q0 -81 29.5 -148.5t80.5 -116t119 -75t144 -26.5q77 0 145.5 27t120 77t81.5 118t30 148zM655 364q0 -63 -15.5 -126t-46.5 -113.5t-77.5 -82.5t-109.5 -32
t-110.5 29t-79 77t-47.5 111t-16 131q0 65 14.5 128.5t45 113.5t78 81.5t112.5 31.5q64 0 111 -31.5t78.5 -82t47 -112.5t15.5 -123zM544 780v45h-281v-45h281z" />
    <glyph glyph-name="omacron" unicode="&#x14d;" horiz-adv-x="511" 
d="M492 245q0 60 -21.5 104.5t-55 74t-74.5 44.5t-81 15q-54 0 -98.5 -20t-76 -53t-49 -76t-17.5 -89q0 -64 22.5 -111.5t58 -78t77.5 -44.5t81 -14q47 0 89.5 19t74.5 53t51 79.5t19 96.5zM399 246q0 -35 -7.5 -76t-24 -76.5t-43 -59t-65.5 -23.5t-67 18.5t-46 50t-26 72.5
t-8 87q0 42 9.5 82.5t28 73t44.5 52.5t59 20q41 0 69 -21.5t45 -54.5t24.5 -72t7.5 -73zM395 533v45h-281v-45h281z" />
    <glyph glyph-name="Obreve" unicode="&#x14e;" horiz-adv-x="808" 
d="M779 365q0 72 -25 138t-72 116.5t-114.5 80.5t-152.5 30q-78 0 -148.5 -25.5t-123 -73t-83.5 -116t-31 -154.5q0 -81 29.5 -148.5t80.5 -116t119 -75t144 -26.5q77 0 145.5 27t120 77t81.5 118t30 148zM655 364q0 -63 -15.5 -126t-46.5 -113.5t-77.5 -82.5t-109.5 -32
t-110.5 29t-79 77t-47.5 111t-16 131q0 65 14.5 128.5t45 113.5t78 81.5t112.5 31.5q64 0 111 -31.5t78.5 -82t47 -112.5t15.5 -123zM514 919v11h-13q-3 -50 -29 -74.5t-68 -24.5q-41 0 -67.5 24.5t-29.5 74.5h-13v-11q0 -26 5.5 -53.5t22.5 -47.5q13 -16 34.5 -27t47.5 -11
t47.5 11t34.5 27q17 20 22.5 47.5t5.5 53.5z" />
    <glyph glyph-name="obreve" unicode="&#x14f;" horiz-adv-x="511" 
d="M492 245q0 60 -21.5 104.5t-55 74t-74.5 44.5t-81 15q-54 0 -98.5 -20t-76 -53t-49 -76t-17.5 -89q0 -64 22.5 -111.5t58 -78t77.5 -44.5t81 -14q47 0 89.5 19t74.5 53t51 79.5t19 96.5zM399 246q0 -35 -7.5 -76t-24 -76.5t-43 -59t-65.5 -23.5t-67 18.5t-46 50t-26 72.5
t-8 87q0 42 9.5 82.5t28 73t44.5 52.5t59 20q41 0 69 -21.5t45 -54.5t24.5 -72t7.5 -73zM365 672v11h-13q-3 -50 -29 -74.5t-68 -24.5q-41 0 -67.5 24.5t-29.5 74.5h-13v-11q0 -26 5.5 -53.5t22.5 -47.5q13 -16 34.5 -27t47.5 -11t47.5 11t34.5 27q17 20 22.5 47.5t5.5 53.5
z" />
    <glyph glyph-name="Ohungarumlaut" unicode="&#x150;" horiz-adv-x="808" 
d="M779 365q0 72 -25 138t-72 116.5t-114.5 80.5t-152.5 30q-78 0 -148.5 -25.5t-123 -73t-83.5 -116t-31 -154.5q0 -81 29.5 -148.5t80.5 -116t119 -75t144 -26.5q77 0 145.5 27t120 77t81.5 118t30 148zM655 364q0 -63 -15.5 -126t-46.5 -113.5t-77.5 -82.5t-109.5 -32
t-110.5 29t-79 77t-47.5 111t-16 131q0 65 14.5 128.5t45 113.5t78 81.5t112.5 31.5q64 0 111 -31.5t78.5 -82t47 -112.5t15.5 -123zM529 931v5q-6 8 -14 16t-30 8l-103 -172l11 -6zM410 931v5q-6 8 -14 16t-30 8l-87 -174l11 -6z" />
    <glyph glyph-name="ohungarumlaut" unicode="&#x151;" horiz-adv-x="511" 
d="M492 245q0 60 -21.5 104.5t-55 74t-74.5 44.5t-81 15q-54 0 -98.5 -20t-76 -53t-49 -76t-17.5 -89q0 -64 22.5 -111.5t58 -78t77.5 -44.5t81 -14q47 0 89.5 19t74.5 53t51 79.5t19 96.5zM399 246q0 -35 -7.5 -76t-24 -76.5t-43 -59t-65.5 -23.5t-67 18.5t-46 50t-26 72.5
t-8 87q0 42 9.5 82.5t28 73t44.5 52.5t59 20q41 0 69 -21.5t45 -54.5t24.5 -72t7.5 -73zM380 684v5q-6 8 -14 16t-30 8l-103 -172l11 -6zM261 684v5q-6 8 -14 16t-30 8l-87 -174l11 -6z" />
    <glyph glyph-name="OE" unicode="&#x152;" horiz-adv-x="980" 
d="M957 184l-11 3q-25 -43 -48.5 -72.5t-48 -49t-51 -30t-58.5 -14.5q-29 -4 -60.5 -5t-48.5 -1h-26t-33 0.5t-32 1t-24 0.5v3q53 15 99 46.5t80.5 74.5t55.5 95.5t25 110.5q18 -7 29 -20.5t18.5 -30t12 -35.5t9.5 -39h12v285h-12q-4 -24 -8 -42.5t-10.5 -33t-18.5 -24.5
t-32 -18q-3 54 -23.5 105.5t-55 94t-81.5 72.5t-103 42v2q44 0 84.5 -1t73.5 -3t57.5 -5.5t35.5 -9.5q35 -17 71.5 -47.5t77.5 -81.5l10 5l-65 158h-313q-22 0 -53.5 1.5t-72.5 1.5q-84 0 -155 -26t-123.5 -74t-82 -115t-29.5 -148q0 -77 29 -143.5t79 -115t117 -75.5
t143 -27q16 0 36 0.5t39.5 0.5h36h24.5h376zM665 379l-171 -3v92v93t0.5 80.5t1.5 55.5q76 -39 120 -120.5t49 -197.5zM384 363v-96v-99t-0.5 -89t-0.5 -67q-57 5 -100.5 35t-72 77.5t-43 107.5t-14.5 125q0 63 13.5 123.5t42 109t71.5 80t103 37.5v-76q0 -42 0.5 -88.5
t0.5 -92.5v-87zM665 360q-1 -125 -46 -210t-124 -125q-1 23 -1 60v83v96v96h171z" />
    <glyph glyph-name="oe" unicode="&#x153;" horiz-adv-x="792" 
d="M789 152l-9 2q-11 -37 -47.5 -62.5t-84.5 -25.5q-45 0 -78.5 17t-56 46.5t-33.5 68t-11 80.5q0 11 1 21.5t1 18.5h311q-3 42 -18.5 73t-40.5 51.5t-58.5 30.5t-71.5 10q-27 0 -51 -8t-44 -21.5t-36 -30.5t-28 -36q-32 50 -81.5 73t-101.5 23t-95 -20t-73.5 -53t-47 -76
t-16.5 -89q0 -64 22 -111.5t55.5 -78t74.5 -44.5t79 -14q57 0 102.5 26.5t78.5 77.5q27 -48 71.5 -75t103.5 -27q40 0 72.5 15t55.5 38t37 50.5t18 49.5zM684 376q0 -14 -2.5 -21t-9.5 -15q-9 -4 -23 -5t-28 -1q-22 0 -40 -0.5t-34.5 -1t-34.5 -0.5h-39q0 14 9 36.5t24.5 44
t38 37.5t49.5 16q42 0 66 -26.5t24 -63.5zM386 246q0 -37 -7 -78.5t-23.5 -76t-42 -57.5t-63.5 -23t-64 18.5t-42.5 50t-24 72.5t-7.5 87q0 42 8.5 82.5t25.5 73t42 52.5t57 20q40 0 67 -21t43.5 -53.5t23.5 -71.5t7 -75z" />
    <glyph glyph-name="Racute" unicode="&#x154;" horiz-adv-x="762" 
d="M797 0v10q-47 7 -82 31t-72 76q-24 34 -54.5 78t-56.5 82q-15 21 -31 38t-33 26v3q33 11 63 27t52.5 38.5t36 52t13.5 66.5q0 60 -27 99.5t-71 62.5q-43 23 -95 27t-119 4h-70t-86 -0.5t-77 -0.5h-41v-10q27 -4 45.5 -9.5t33.5 -21.5q6 -6 9.5 -19.5t5 -30t2 -35
t0.5 -36.5v-195v-58q0 -30 -0.5 -58.5t-1 -52.5t-0.5 -38q0 -16 -1 -33t-2.5 -32t-4.5 -27t-8 -18q-13 -16 -36 -24t-48 -12v-10h320v10q-41 2 -64 15.5t-31 26.5q-10 15 -11 38t-2 55q-1 33 -1 81v113q14 -1 23 -1q10 0 29 -4q26 -5 49.5 -25t43.5 -43q24 -28 41.5 -50.5
t32.5 -44.5t29.5 -44.5t33.5 -50.5q16 -23 23.5 -34.5t12.5 -17.5t9 -10.5t13 -13.5h205zM518 534q0 -27 -7 -52t-21.5 -46.5t-37.5 -38.5t-55 -27q-33 -11 -68.5 -14.5t-76.5 -3.5v38v72t0.5 85t1.5 79q1 23 1.5 35.5t1 19.5t1.5 11.5t2 10.5q7 1 20 2t34 1q29 0 55.5 -5
t50.5 -16q48 -23 73 -62t25 -89zM494 924v5q-6 8 -15 16t-31 8l-104 -176l10 -6z" />
    <glyph glyph-name="racute" unicode="&#x155;" horiz-adv-x="357" 
d="M367 430q0 23 -17.5 38t-42.5 15q-31 0 -55 -17t-41 -40.5t-28 -46.5t-16 -35h-2l2 139h-6l-131 -51v-6q12 -5 24 -12.5t21 -12.5q7 -5 8.5 -9t1.5 -12v-338q0 -16 -16.5 -23t-39.5 -9v-10h224v10q-10 2 -23.5 2.5t-26 2.5t-22.5 7t-13 14v288q6 15 14 31.5t18 29.5
t21.5 21.5t23.5 8.5q14 0 22 -5.5t15 -12.5t16.5 -12.5t25.5 -5.5q17 0 30 14.5t13 36.5zM273 686v5q-6 8 -15 16t-31 8l-104 -176l10 -6z" />
    <glyph glyph-name="R_cedilla" unicode="&#x156;" horiz-adv-x="762" 
d="M797 0v10q-47 7 -82 31t-72 76q-24 34 -54.5 78t-56.5 82q-15 21 -31 38t-33 26v3q33 11 63 27t52.5 38.5t36 52t13.5 66.5q0 60 -27 99.5t-71 62.5q-43 23 -95 27t-119 4h-70t-86 -0.5t-77 -0.5h-41v-10q27 -4 45.5 -9.5t33.5 -21.5q6 -6 9.5 -19.5t5 -30t2 -35
t0.5 -36.5v-195v-58q0 -30 -0.5 -58.5t-1 -52.5t-0.5 -38q0 -16 -1 -33t-2.5 -32t-4.5 -27t-8 -18q-13 -16 -36 -24t-48 -12v-10h320v10q-41 2 -64 15.5t-31 26.5q-10 15 -11 38t-2 55q-1 33 -1 81v113q14 -1 23 -1q10 0 29 -4q26 -5 49.5 -25t43.5 -43q24 -28 41.5 -50.5
t32.5 -44.5t29.5 -44.5t33.5 -50.5q16 -23 23.5 -34.5t12.5 -17.5t9 -10.5t13 -13.5h205zM518 534q0 -27 -7 -52t-21.5 -46.5t-37.5 -38.5t-55 -27q-33 -11 -68.5 -14.5t-76.5 -3.5v38v72t0.5 85t1.5 79q1 23 1.5 35.5t1 19.5t1.5 11.5t2 10.5q7 1 20 2t34 1q29 0 55.5 -5
t50.5 -16q48 -23 73 -62t25 -89zM487 -147q0 -25 -10.5 -45t-27.5 -34t-40 -22t-47 -8v10q35 7 54.5 22.5t19.5 47.5q0 9 -2 16.5t-4 12.5q-9 -7 -20 -9.5t-19 -2.5q-20 0 -30.5 13.5t-10.5 28.5q0 25 18.5 38t41.5 13q34 0 55.5 -24t21.5 -57z" />
    <glyph glyph-name="r_cedilla" unicode="&#x157;" horiz-adv-x="357" 
d="M367 430q0 23 -17.5 38t-42.5 15q-31 0 -55 -17t-41 -40.5t-28 -46.5t-16 -35h-2l2 139h-6l-131 -51v-6q12 -5 24 -12.5t21 -12.5q7 -5 8.5 -9t1.5 -12v-338q0 -16 -16.5 -23t-39.5 -9v-10h224v10q-10 2 -23.5 2.5t-26 2.5t-22.5 7t-13 14v288q6 15 14 31.5t18 29.5
t21.5 21.5t23.5 8.5q14 0 22 -5.5t15 -12.5t16.5 -12.5t25.5 -5.5q17 0 30 14.5t13 36.5zM196 -147q0 -25 -10.5 -45t-27.5 -34t-40 -22t-47 -8v10q35 7 54.5 22.5t19.5 47.5q0 9 -2 16.5t-4 12.5q-9 -7 -20 -9.5t-19 -2.5q-20 0 -30.5 13.5t-10.5 28.5q0 25 18.5 38
t41.5 13q34 0 55.5 -24t21.5 -57z" />
    <glyph glyph-name="Rcaron" unicode="&#x158;" horiz-adv-x="762" 
d="M797 0v10q-47 7 -82 31t-72 76q-24 34 -54.5 78t-56.5 82q-15 21 -31 38t-33 26v3q33 11 63 27t52.5 38.5t36 52t13.5 66.5q0 60 -27 99.5t-71 62.5q-43 23 -95 27t-119 4h-70t-86 -0.5t-77 -0.5h-41v-10q27 -4 45.5 -9.5t33.5 -21.5q6 -6 9.5 -19.5t5 -30t2 -35
t0.5 -36.5v-195v-58q0 -30 -0.5 -58.5t-1 -52.5t-0.5 -38q0 -16 -1 -33t-2.5 -32t-4.5 -27t-8 -18q-13 -16 -36 -24t-48 -12v-10h320v10q-41 2 -64 15.5t-31 26.5q-10 15 -11 38t-2 55q-1 33 -1 81v113q14 -1 23 -1q10 0 29 -4q26 -5 49.5 -25t43.5 -43q24 -28 41.5 -50.5
t32.5 -44.5t29.5 -44.5t33.5 -50.5q16 -23 23.5 -34.5t12.5 -17.5t9 -10.5t13 -13.5h205zM518 534q0 -27 -7 -52t-21.5 -46.5t-37.5 -38.5t-55 -27q-33 -11 -68.5 -14.5t-76.5 -3.5v38v72t0.5 85t1.5 79q1 23 1.5 35.5t1 19.5t1.5 11.5t2 10.5q7 1 20 2t34 1q29 0 55.5 -5
t50.5 -16q48 -23 73 -62t25 -89zM521 941l-12 7l-91 -111l-90 111l-12 -7l95 -170h15z" />
    <glyph glyph-name="rcaron" unicode="&#x159;" horiz-adv-x="357" 
d="M367 430q0 23 -17.5 38t-42.5 15q-31 0 -55 -17t-41 -40.5t-28 -46.5t-16 -35h-2l2 139h-6l-131 -51v-6q12 -5 24 -12.5t21 -12.5q7 -5 8.5 -9t1.5 -12v-338q0 -16 -16.5 -23t-39.5 -9v-10h224v10q-10 2 -23.5 2.5t-26 2.5t-22.5 7t-13 14v288q6 15 14 31.5t18 29.5
t21.5 21.5t23.5 8.5q14 0 22 -5.5t15 -12.5t16.5 -12.5t25.5 -5.5q17 0 30 14.5t13 36.5zM300 703l-12 7l-91 -111l-90 111l-12 -7l95 -170h15z" />
    <glyph glyph-name="Sacute" unicode="&#x15a;" horiz-adv-x="605" 
d="M558 197q0 71 -37.5 118.5t-105.5 72.5q-19 7 -36.5 13t-34.5 11.5t-34.5 11.5t-37.5 14q-51 19 -83 51t-32 85q0 34 11.5 60.5t32 44.5t48 27t58.5 9q39 0 71 -16t57 -41.5t44 -58t31 -65.5h11v185h-11q-8 -12 -17.5 -24t-12.5 -12q-1 0 -11.5 7.5t-31 16.5t-52.5 16.5
t-77 7.5q-48 0 -91.5 -12.5t-76.5 -38.5t-52.5 -65t-19.5 -93q0 -32 11 -60.5t29 -52t42 -41t50 -27.5q23 -9 39.5 -14.5t32 -11t33.5 -11.5t42 -15t45 -20t36.5 -26.5t24.5 -36.5t9 -49q0 -69 -46 -109.5t-120 -40.5q-26 0 -54 9t-45 18t-35.5 26t-35 39.5t-30.5 48
t-23 52.5h-10l3 -199h9q8 11 18 23t13 12t14.5 -7t34.5 -15.5t58 -14.5t84 -6q57 0 105 13t82.5 40t54 65t19.5 86zM385 934v5q-6 8 -15 16t-31 8l-104 -176l10 -6z" />
    <glyph glyph-name="sacute" unicode="&#x15b;" horiz-adv-x="382" 
d="M369 146q0 51 -31.5 86t-76.5 46q-19 5 -45 10.5t-48 10.5q-32 8 -53 24t-21 53q0 23 8 40.5t20.5 29t29 17.5t33.5 6q28 0 49.5 -10t38.5 -28.5t31 -44t28 -55.5l8 2l-12 124q-29 11 -61 18.5t-74 7.5q-33 0 -62 -9.5t-51 -27.5t-35 -43t-13 -56q0 -45 23.5 -77
t61.5 -45q20 -7 45 -13t52 -11q34 -7 53.5 -27.5t19.5 -51.5q0 -57 -28.5 -84.5t-76.5 -27.5q-33 0 -57 14.5t-41 37t-29 49t-20 50.5h-8v-132q33 -15 72 -23t83 -8q37 0 70.5 8t59.5 26t41.5 46.5t15.5 67.5zM273 686v5q-6 8 -15 16t-31 8l-104 -176l10 -6z" />
    <glyph glyph-name="Scircumflex" unicode="&#x15c;" horiz-adv-x="605" 
d="M558 197q0 71 -37.5 118.5t-105.5 72.5q-19 7 -36.5 13t-34.5 11.5t-34.5 11.5t-37.5 14q-51 19 -83 51t-32 85q0 34 11.5 60.5t32 44.5t48 27t58.5 9q39 0 71 -16t57 -41.5t44 -58t31 -65.5h11v185h-11q-8 -12 -17.5 -24t-12.5 -12q-1 0 -11.5 7.5t-31 16.5t-52.5 16.5
t-77 7.5q-48 0 -91.5 -12.5t-76.5 -38.5t-52.5 -65t-19.5 -93q0 -32 11 -60.5t29 -52t42 -41t50 -27.5q23 -9 39.5 -14.5t32 -11t33.5 -11.5t42 -15t45 -20t36.5 -26.5t24.5 -36.5t9 -49q0 -69 -46 -109.5t-120 -40.5q-26 0 -54 9t-45 18t-35.5 26t-35 39.5t-30.5 48
t-23 52.5h-10l3 -199h9q8 11 18 23t13 12t14.5 -7t34.5 -15.5t58 -14.5t84 -6q57 0 105 13t82.5 40t54 65t19.5 86zM412 788l-95 170h-15l-95 -170l12 -7l90 111l91 -111z" />
    <glyph glyph-name="scircumflex" unicode="&#x15d;" horiz-adv-x="382" 
d="M369 146q0 51 -31.5 86t-76.5 46q-19 5 -45 10.5t-48 10.5q-32 8 -53 24t-21 53q0 23 8 40.5t20.5 29t29 17.5t33.5 6q28 0 49.5 -10t38.5 -28.5t31 -44t28 -55.5l8 2l-12 124q-29 11 -61 18.5t-74 7.5q-33 0 -62 -9.5t-51 -27.5t-35 -43t-13 -56q0 -45 23.5 -77
t61.5 -45q20 -7 45 -13t52 -11q34 -7 53.5 -27.5t19.5 -51.5q0 -57 -28.5 -84.5t-76.5 -27.5q-33 0 -57 14.5t-41 37t-29 49t-20 50.5h-8v-132q33 -15 72 -23t83 -8q37 0 70.5 8t59.5 26t41.5 46.5t15.5 67.5zM300 540l-95 170h-15l-95 -170l12 -7l90 111l91 -111z" />
    <glyph glyph-name="Scedilla" unicode="&#x15e;" horiz-adv-x="605" 
d="M558 197q0 71 -37.5 118.5t-105.5 72.5q-19 7 -36.5 13t-34.5 11.5t-34.5 11.5t-37.5 14q-51 19 -83 51t-32 85q0 34 11.5 60.5t32 44.5t48 27t58.5 9q39 0 71 -16t57 -41.5t44 -58t31 -65.5h11v185h-11q-8 -12 -17.5 -24t-12.5 -12q-1 0 -11.5 7.5t-31 16.5t-52.5 16.5
t-77 7.5q-48 0 -91.5 -12.5t-76.5 -38.5t-52.5 -65t-19.5 -93q0 -32 11 -60.5t29 -52t42 -41t50 -27.5q23 -9 39.5 -14.5t32 -11t33.5 -11.5t42 -15t45 -20t36.5 -26.5t24.5 -36.5t9 -49q0 -69 -46 -109.5t-120 -40.5q-26 0 -54 9t-45 18t-35.5 26t-35 39.5t-30.5 48
t-23 52.5h-10l3 -199h9q8 11 18 23t13 12t14.5 -7t34.5 -15.5t58 -14.5t84 -6q57 0 105 13t82.5 40t54 65t19.5 86zM400 -145q0 6 -2 17t-9.5 24t-22.5 26.5t-40 23.5l45 47h-20l-80 -81q36 -12 54.5 -33t18.5 -47q0 -27 -13 -41t-31 -14q-22 0 -22 31q0 4 0.5 9t0.5 11
q-9 11 -29 11q-17 0 -24 -9.5t-7 -19.5q0 -24 21 -34.5t55 -10.5q14 0 32 5.5t34.5 16.5t27.5 28t11 40z" />
    <glyph glyph-name="scedilla" unicode="&#x15f;" horiz-adv-x="382" 
d="M369 146q0 51 -31.5 86t-76.5 46q-19 5 -45 10.5t-48 10.5q-32 8 -53 24t-21 53q0 23 8 40.5t20.5 29t29 17.5t33.5 6q28 0 49.5 -10t38.5 -28.5t31 -44t28 -55.5l8 2l-12 124q-29 11 -61 18.5t-74 7.5q-33 0 -62 -9.5t-51 -27.5t-35 -43t-13 -56q0 -45 23.5 -77
t61.5 -45q20 -7 45 -13t52 -11q34 -7 53.5 -27.5t19.5 -51.5q0 -57 -28.5 -84.5t-76.5 -27.5q-33 0 -57 14.5t-41 37t-29 49t-20 50.5h-8v-132q33 -15 72 -23t83 -8q37 0 70.5 8t59.5 26t41.5 46.5t15.5 67.5zM288 -140q0 6 -2 17t-9.5 24t-22.5 26.5t-40 23.5l45 47h-20
l-80 -81q36 -12 54.5 -33t18.5 -47q0 -27 -13 -41t-31 -14q-22 0 -22 31q0 4 0.5 9t0.5 11q-9 11 -29 11q-17 0 -24 -9.5t-7 -19.5q0 -24 21 -34.5t55 -10.5q14 0 32 5.5t34.5 16.5t27.5 28t11 40z" />
    <glyph glyph-name="Scaron" unicode="&#x160;" horiz-adv-x="605" 
d="M434 927l-13 7l-100 -104l-101 104l-13 -7l106 -163h15zM558 197q0 71 -37.5 118.5t-105.5 72.5q-19 7 -36.5 13t-34.5 11.5t-34.5 11.5t-37.5 14q-51 19 -83 51t-32 85q0 34 11.5 60.5t32 44.5t48 27t58.5 9q39 0 71 -16t57 -41.5t44 -58t31 -65.5h11v185h-11
q-8 -12 -17.5 -24t-12.5 -12q-1 0 -11.5 7.5t-31 16.5t-52.5 16.5t-77 7.5q-48 0 -91.5 -12.5t-76.5 -38.5t-52.5 -65t-19.5 -93q0 -32 11 -60.5t29 -52t42 -41t50 -27.5q23 -9 39.5 -14.5t32 -11t33.5 -11.5t42 -15t45 -20t36.5 -26.5t24.5 -36.5t9 -49q0 -69 -46 -109.5
t-120 -40.5q-26 0 -54 9t-45 18t-35.5 26t-35 39.5t-30.5 48t-23 52.5h-10l3 -199h9q8 11 18 23t13 12t14.5 -7t34.5 -15.5t58 -14.5t84 -6q57 0 105 13t82.5 40t54 65t19.5 86z" />
    <glyph glyph-name="scaron" unicode="&#x161;" horiz-adv-x="382" 
d="M298 686l-12 7l-91 -111l-90 111l-12 -7l95 -170h15zM369 146q0 51 -31.5 86t-76.5 46q-19 5 -45 10.5t-48 10.5q-32 8 -53 24t-21 53q0 23 8 40.5t20.5 29t29 17.5t33.5 6q28 0 49.5 -10t38.5 -28.5t31 -44t28 -55.5l8 2l-12 124q-29 11 -61 18.5t-74 7.5
q-33 0 -62 -9.5t-51 -27.5t-35 -43t-13 -56q0 -45 23.5 -77t61.5 -45q20 -7 45 -13t52 -11q34 -7 53.5 -27.5t19.5 -51.5q0 -57 -28.5 -84.5t-76.5 -27.5q-33 0 -57 14.5t-41 37t-29 49t-20 50.5h-8v-132q33 -15 72 -23t83 -8q37 0 70.5 8t59.5 26t41.5 46.5t15.5 67.5z" />
    <glyph glyph-name="Tcedilla" unicode="&#x162;" horiz-adv-x="737" 
d="M750 535l-32 195q-23 -7 -44.5 -11.5t-54.5 -5.5q-38 0 -68 -0.5t-58 -1t-58 -0.5h-66h-67h-57t-58 0.5t-68 1.5q-37 1 -56.5 4t-42.5 8l-30 -190l9 -3q6 18 16.5 37t22 35.5t22 30.5t18.5 21q21 20 45.5 28t62.5 9q19 0 33.5 0.5t27.5 0.5h29h37v-331v-57t-0.5 -58
t-1 -51t-0.5 -37q0 -16 -0.5 -33t-2 -31.5t-4 -26t-7.5 -16.5q-23 -26 -47 -33t-50 -10v-10h325v10q-22 4 -49.5 12t-42.5 30q-8 11 -9.5 37.5t-1.5 55.5v222v76v93t0.5 90t0.5 68h37h29q14 0 28 -0.5t33 -0.5q38 -1 62.5 -7.5t45.5 -26.5q8 -7 19 -21.5t22.5 -31.5
t22.5 -36.5t19 -37.5zM460 -138q0 6 -2 17t-9.5 24t-22.5 26.5t-40 23.5l45 47h-20l-80 -81q36 -12 54.5 -33t18.5 -47q0 -27 -13 -41t-31 -14q-22 0 -22 31q0 4 0.5 9t0.5 11q-9 11 -29 11q-17 0 -24 -9.5t-7 -19.5q0 -24 21 -34.5t55 -10.5q14 0 32 5.5t34.5 16.5t27.5 28
t11 40z" />
    <glyph glyph-name="tcedilla" unicode="&#x163;" horiz-adv-x="324" 
d="M351 473h-185v87h-8l-145 -137v-11h73q0 -66 -1 -150.5t-1 -178.5q0 -16 9.5 -31.5t24.5 -28t34.5 -19t40.5 -6.5q32 0 55.5 7.5t41 21t28 30t16.5 31.5l-6 3q-14 -20 -33 -29.5t-48 -9.5q-35 0 -57 23t-22 74v263h152zM272 -140q0 6 -2 17t-9.5 24t-22.5 26.5t-40 23.5
l45 47h-20l-80 -81q36 -12 54.5 -33t18.5 -47q0 -27 -13 -41t-31 -14q-22 0 -22 31q0 4 0.5 9t0.5 11q-9 11 -29 11q-17 0 -24 -9.5t-7 -19.5q0 -24 21 -34.5t55 -10.5q14 0 32 5.5t34.5 16.5t27.5 28t11 40z" />
    <glyph glyph-name="Tcaron" unicode="&#x164;" horiz-adv-x="737" 
d="M750 535l-32 195q-23 -7 -44.5 -11.5t-54.5 -5.5q-38 0 -68 -0.5t-58 -1t-58 -0.5h-66h-67h-57t-58 0.5t-68 1.5q-37 1 -56.5 4t-42.5 8l-30 -190l9 -3q6 18 16.5 37t22 35.5t22 30.5t18.5 21q21 20 45.5 28t62.5 9q19 0 33.5 0.5t27.5 0.5h29h37v-331v-57t-0.5 -58
t-1 -51t-0.5 -37q0 -16 -0.5 -33t-2 -31.5t-4 -26t-7.5 -16.5q-23 -26 -47 -33t-50 -10v-10h325v10q-22 4 -49.5 12t-42.5 30q-8 11 -9.5 37.5t-1.5 55.5v222v76v93t0.5 90t0.5 68h37h29q14 0 28 -0.5t33 -0.5q38 -1 62.5 -7.5t45.5 -26.5q8 -7 19 -21.5t22.5 -31.5
t22.5 -36.5t19 -37.5zM472 950l-12 7l-91 -111l-90 111l-12 -7l95 -170h15z" />
    <glyph glyph-name="tcaron" unicode="&#x165;" horiz-adv-x="450" 
d="M351 473h-185v87h-8l-145 -137v-11h73q0 -66 -1 -150.5t-1 -178.5q0 -16 9.5 -31.5t24.5 -28t34.5 -19t40.5 -6.5q32 0 55.5 7.5t41 21t28 30t16.5 31.5l-6 3q-14 -20 -33 -29.5t-48 -9.5q-35 0 -57 23t-22 74v263h152zM469 642q0 33 -21.5 57t-55.5 24q-23 0 -41.5 -13
t-18.5 -38q0 -15 10.5 -28.5t30.5 -13.5q8 0 19 2.5t20 9.5q2 -5 4 -12.5t2 -16.5q0 -32 -19.5 -47.5t-54.5 -22.5v-10q24 0 47 8t40 22t27.5 34t10.5 45z" />
    <glyph glyph-name="Tbar" unicode="&#x166;" horiz-adv-x="737" 
d="M422 319v-174q0 -29 1.5 -55.5t9.5 -37.5q15 -22 42.5 -30t49.5 -12v-10h-325v10q26 3 50 10t47 33q5 5 7.5 16.5t4 26t2 31.5t0.5 33q0 14 0.5 37t1 51t0.5 58v13h-147v45h147v330h-66q-13 0 -27.5 -0.5t-33.5 -0.5q-38 -1 -62.5 -9t-45.5 -28q-8 -7 -18.5 -21
t-22 -30.5t-22 -35.5t-16.5 -37l-9 3l30 190q23 -5 42.5 -8t56.5 -4q38 -1 68 -1.5t58 -0.5h190q30 0 58 0.5t58 1t68 0.5q33 1 54.5 5.5t44.5 11.5l32 -195l-9 -3q-8 18 -19 37.5t-22.5 36.5t-22.5 31.5t-19 21.5q-21 20 -45.5 26.5t-62.5 7.5q-19 0 -33 0.5t-28 0.5h-66
q0 -25 -0.5 -68t-0.5 -90v-172h151v-45h-151z" />
    <glyph glyph-name="tbar" unicode="&#x167;" horiz-adv-x="324" 
d="M168 249v-100q0 -51 22 -74t57 -23q29 0 48 9.5t33 29.5l6 -3q-6 -15 -16.5 -31.5t-28 -30t-41 -21t-55.5 -7.5q-21 0 -40.5 6.5t-34.5 19t-24.5 28t-9.5 31.5v166h-71v45h72q1 65 1 118h-73v11l145 137h8v-87h185l-31 -61h-152v-118h152v-45h-152z" />
    <glyph glyph-name="Utilde" unicode="&#x168;" horiz-adv-x="834" 
d="M824 710v10h-248v-10q48 -7 72.5 -24.5t34.5 -45.5q4 -10 6 -26.5t3 -35.5t1.5 -40t0.5 -41v-41v-39v-41v-49q0 -34 -2.5 -69.5t-10 -69.5t-23 -64t-42 -53t-66 -36t-96.5 -13q-50 0 -89 16.5t-66 47t-42 74t-16 96.5q0 24 -0.5 45.5t-0.5 44.5v51v61v47v40t0.5 39
t1.5 46q1 23 10 38t22 23.5t29 12.5t30 6v10h-298v-10q26 -3 46.5 -10.5t34.5 -24.5q6 -7 9 -19.5t4.5 -28t1.5 -33.5v-36v-133q0 -55 -0.5 -100t-0.5 -73q0 -12 1.5 -36.5t10 -54t26 -60t49.5 -56t81.5 -40.5t121.5 -15q73 0 123 15.5t82 42t49.5 59t25.5 65t9.5 61.5
t2.5 48q2 67 3.5 120t2.5 96q0 23 1 46.5t3 44.5t4.5 37t5.5 23q12 29 33.5 43t58.5 19zM578 900h-14q-8 -34 -28.5 -42.5t-57.5 -8.5l-89 19q-47 0 -73 -27.5t-37 -70.5h13q7 18 13 27t15 13.5t21.5 5t32.5 0.5l91 -19q28 0 47 8.5t32 23t21 33t13 38.5z" />
    <glyph glyph-name="utilde" unicode="&#x169;" horiz-adv-x="523" 
d="M506 25v6q-12 5 -29.5 13t-26.5 13q-7 5 -8.5 9t-1.5 12v395h-168v-11q22 -2 42.5 -5t32.5 -8q6 -8 8 -23.5t2 -25.5v-285q-9 -12 -19.5 -23t-23 -19.5t-28 -14t-36.5 -5.5q-55 0 -75 31.5t-20 97.5v291h-155v-11q9 -1 19 -1.5t19 -2.5t16.5 -6t11.5 -13q2 -3 2.5 -9.5
t1.5 -14t1 -14.5v-11v-244q0 -73 30.5 -111t94.5 -38q28 0 52.5 9t44.5 24.5t36 34.5t27 36l1 -1v-101h7zM402 653h-14q-8 -34 -28.5 -42.5t-57.5 -8.5l-89 19q-47 0 -73 -27.5t-37 -70.5h13q7 18 13 27t15 13.5t21.5 5t32.5 0.5l91 -19q28 0 47 8.5t32 23t21 33t13 38.5z
" />
    <glyph glyph-name="Umacron" unicode="&#x16a;" horiz-adv-x="834" 
d="M824 710v10h-248v-10q48 -7 72.5 -24.5t34.5 -45.5q4 -10 6 -26.5t3 -35.5t1.5 -40t0.5 -41v-41v-39v-41v-49q0 -34 -2.5 -69.5t-10 -69.5t-23 -64t-42 -53t-66 -36t-96.5 -13q-50 0 -89 16.5t-66 47t-42 74t-16 96.5q0 24 -0.5 45.5t-0.5 44.5v51v61v47v40t0.5 39
t1.5 46q1 23 10 38t22 23.5t29 12.5t30 6v10h-298v-10q26 -3 46.5 -10.5t34.5 -24.5q6 -7 9 -19.5t4.5 -28t1.5 -33.5v-36v-133q0 -55 -0.5 -100t-0.5 -73q0 -12 1.5 -36.5t10 -54t26 -60t49.5 -56t81.5 -40.5t121.5 -15q73 0 123 15.5t82 42t49.5 59t25.5 65t9.5 61.5
t2.5 48q2 67 3.5 120t2.5 96q0 23 1 46.5t3 44.5t4.5 37t5.5 23q12 29 33.5 43t58.5 19zM569 770v45h-281v-45h281z" />
    <glyph glyph-name="umacron" unicode="&#x16b;" horiz-adv-x="523" 
d="M506 25v6q-12 5 -29.5 13t-26.5 13q-7 5 -8.5 9t-1.5 12v395h-168v-11q22 -2 42.5 -5t32.5 -8q6 -8 8 -23.5t2 -25.5v-285q-9 -12 -19.5 -23t-23 -19.5t-28 -14t-36.5 -5.5q-55 0 -75 31.5t-20 97.5v291h-155v-11q9 -1 19 -1.5t19 -2.5t16.5 -6t11.5 -13q2 -3 2.5 -9.5
t1.5 -14t1 -14.5v-11v-244q0 -73 30.5 -111t94.5 -38q28 0 52.5 9t44.5 24.5t36 34.5t27 36l1 -1v-101h7zM393 523v45h-281v-45h281z" />
    <glyph glyph-name="Ubreve" unicode="&#x16c;" horiz-adv-x="834" 
d="M824 710v10h-248v-10q48 -7 72.5 -24.5t34.5 -45.5q4 -10 6 -26.5t3 -35.5t1.5 -40t0.5 -41v-41v-39v-41v-49q0 -34 -2.5 -69.5t-10 -69.5t-23 -64t-42 -53t-66 -36t-96.5 -13q-50 0 -89 16.5t-66 47t-42 74t-16 96.5q0 24 -0.5 45.5t-0.5 44.5v51v61v47v40t0.5 39
t1.5 46q1 23 10 38t22 23.5t29 12.5t30 6v10h-298v-10q26 -3 46.5 -10.5t34.5 -24.5q6 -7 9 -19.5t4.5 -28t1.5 -33.5v-36v-133q0 -55 -0.5 -100t-0.5 -73q0 -12 1.5 -36.5t10 -54t26 -60t49.5 -56t81.5 -40.5t121.5 -15q73 0 123 15.5t82 42t49.5 59t25.5 65t9.5 61.5
t2.5 48q2 67 3.5 120t2.5 96q0 23 1 46.5t3 44.5t4.5 37t5.5 23q12 29 33.5 43t58.5 19zM539 909v11h-13q-3 -50 -29 -74.5t-68 -24.5q-41 0 -67.5 24.5t-29.5 74.5h-13v-11q0 -26 5.5 -53.5t22.5 -47.5q13 -16 34.5 -27t47.5 -11t47.5 11t34.5 27q17 20 22.5 47.5t5.5 53.5
z" />
    <glyph glyph-name="ubreve" unicode="&#x16d;" horiz-adv-x="523" 
d="M506 25v6q-12 5 -29.5 13t-26.5 13q-7 5 -8.5 9t-1.5 12v395h-168v-11q22 -2 42.5 -5t32.5 -8q6 -8 8 -23.5t2 -25.5v-285q-9 -12 -19.5 -23t-23 -19.5t-28 -14t-36.5 -5.5q-55 0 -75 31.5t-20 97.5v291h-155v-11q9 -1 19 -1.5t19 -2.5t16.5 -6t11.5 -13q2 -3 2.5 -9.5
t1.5 -14t1 -14.5v-11v-244q0 -73 30.5 -111t94.5 -38q28 0 52.5 9t44.5 24.5t36 34.5t27 36l1 -1v-101h7zM363 662v11h-13q-3 -50 -29 -74.5t-68 -24.5q-41 0 -67.5 24.5t-29.5 74.5h-13v-11q0 -26 5.5 -53.5t22.5 -47.5q13 -16 34.5 -27t47.5 -11t47.5 11t34.5 27
q17 20 22.5 47.5t5.5 53.5z" />
    <glyph glyph-name="Uring" unicode="&#x16e;" horiz-adv-x="834" 
d="M824 710v10h-248v-10q48 -7 72.5 -24.5t34.5 -45.5q4 -10 6 -26.5t3 -35.5t1.5 -40t0.5 -41v-41v-39v-41v-49q0 -34 -2.5 -69.5t-10 -69.5t-23 -64t-42 -53t-66 -36t-96.5 -13q-50 0 -89 16.5t-66 47t-42 74t-16 96.5q0 24 -0.5 45.5t-0.5 44.5v51v61v47v40t0.5 39
t1.5 46q1 23 10 38t22 23.5t29 12.5t30 6v10h-298v-10q26 -3 46.5 -10.5t34.5 -24.5q6 -7 9 -19.5t4.5 -28t1.5 -33.5v-36v-133q0 -55 -0.5 -100t-0.5 -73q0 -12 1.5 -36.5t10 -54t26 -60t49.5 -56t81.5 -40.5t121.5 -15q73 0 123 15.5t82 42t49.5 59t25.5 65t9.5 61.5
t2.5 48q2 67 3.5 120t2.5 96q0 23 1 46.5t3 44.5t4.5 37t5.5 23q12 29 33.5 43t58.5 19zM503 842q0 32 -21 52t-53 20q-31 0 -52.5 -20.5t-21.5 -51.5q0 -32 20.5 -52t53.5 -20q32 0 53 20.5t21 51.5zM476 842q0 -22 -12.5 -37t-34.5 -15t-34.5 15t-12.5 37q0 23 13 37.5
t34 14.5q22 0 34.5 -15t12.5 -37z" />
    <glyph glyph-name="uring" unicode="&#x16f;" horiz-adv-x="523" 
d="M506 25v6q-12 5 -29.5 13t-26.5 13q-7 5 -8.5 9t-1.5 12v395h-168v-11q22 -2 42.5 -5t32.5 -8q6 -8 8 -23.5t2 -25.5v-285q-9 -12 -19.5 -23t-23 -19.5t-28 -14t-36.5 -5.5q-55 0 -75 31.5t-20 97.5v291h-155v-11q9 -1 19 -1.5t19 -2.5t16.5 -6t11.5 -13q2 -3 2.5 -9.5
t1.5 -14t1 -14.5v-11v-244q0 -73 30.5 -111t94.5 -38q28 0 52.5 9t44.5 24.5t36 34.5t27 36l1 -1v-101h7zM327 595q0 32 -21 52t-53 20q-31 0 -52.5 -20.5t-21.5 -51.5q0 -32 20.5 -52t53.5 -20q32 0 53 20.5t21 51.5zM300 595q0 -22 -12.5 -37t-34.5 -15t-34.5 15t-12.5 37
q0 23 13 37.5t34 14.5q22 0 34.5 -15t12.5 -37z" />
    <glyph glyph-name="Uhungarumlaut" unicode="&#x170;" horiz-adv-x="834" 
d="M824 710v10h-248v-10q48 -7 72.5 -24.5t34.5 -45.5q4 -10 6 -26.5t3 -35.5t1.5 -40t0.5 -41v-41v-39v-41v-49q0 -34 -2.5 -69.5t-10 -69.5t-23 -64t-42 -53t-66 -36t-96.5 -13q-50 0 -89 16.5t-66 47t-42 74t-16 96.5q0 24 -0.5 45.5t-0.5 44.5v51v61v47v40t0.5 39
t1.5 46q1 23 10 38t22 23.5t29 12.5t30 6v10h-298v-10q26 -3 46.5 -10.5t34.5 -24.5q6 -7 9 -19.5t4.5 -28t1.5 -33.5v-36v-133q0 -55 -0.5 -100t-0.5 -73q0 -12 1.5 -36.5t10 -54t26 -60t49.5 -56t81.5 -40.5t121.5 -15q73 0 123 15.5t82 42t49.5 59t25.5 65t9.5 61.5
t2.5 48q2 67 3.5 120t2.5 96q0 23 1 46.5t3 44.5t4.5 37t5.5 23q12 29 33.5 43t58.5 19zM554 921v5q-6 8 -14 16t-30 8l-103 -172l11 -6zM435 921v5q-6 8 -14 16t-30 8l-87 -174l11 -6z" />
    <glyph glyph-name="uhungarumlaut" unicode="&#x171;" horiz-adv-x="523" 
d="M506 25v6q-12 5 -29.5 13t-26.5 13q-7 5 -8.5 9t-1.5 12v395h-168v-11q22 -2 42.5 -5t32.5 -8q6 -8 8 -23.5t2 -25.5v-285q-9 -12 -19.5 -23t-23 -19.5t-28 -14t-36.5 -5.5q-55 0 -75 31.5t-20 97.5v291h-155v-11q9 -1 19 -1.5t19 -2.5t16.5 -6t11.5 -13q2 -3 2.5 -9.5
t1.5 -14t1 -14.5v-11v-244q0 -73 30.5 -111t94.5 -38q28 0 52.5 9t44.5 24.5t36 34.5t27 36l1 -1v-101h7zM378 674v5q-6 8 -14 16t-30 8l-103 -172l11 -6zM259 674v5q-6 8 -14 16t-30 8l-87 -174l11 -6z" />
    <glyph glyph-name="Uogonek" unicode="&#x172;" horiz-adv-x="834" 
d="M824 710v10h-248v-10q48 -7 72.5 -24.5t34.5 -45.5q4 -10 6 -26.5t3 -35.5t1.5 -40t0.5 -41v-41v-39v-41v-49q0 -34 -2.5 -69.5t-10 -69.5t-23 -64t-42 -53t-66 -36t-96.5 -13q-50 0 -89 16.5t-66 47t-42 74t-16 96.5q0 24 -0.5 45.5t-0.5 44.5v51v61v47v40t0.5 39
t1.5 46q1 23 10 38t22 23.5t29 12.5t30 6v10h-298v-10q26 -3 46.5 -10.5t34.5 -24.5q6 -7 9 -19.5t4.5 -28t1.5 -33.5v-36v-133q0 -55 -0.5 -100t-0.5 -73q0 -12 1.5 -36.5t10 -54t26 -60t49.5 -56t81.5 -40.5t121.5 -15q73 0 123 15.5t82 42t49.5 59t25.5 65t9.5 61.5
t2.5 48q2 67 3.5 120t2.5 96q0 23 1 46.5t3 44.5t4.5 37t5.5 23q12 29 33.5 43t58.5 19zM519 -155l-8 4q-11 -17 -23 -27t-38 -10q-29 0 -41.5 18.5t-12.5 40.5q0 19 6 36.5t16 32.5t21.5 27.5t23.5 20.5v2h-15q-16 -10 -35 -25.5t-35.5 -34t-27.5 -40t-11 -45.5
q0 -33 24 -55t59 -22q20 0 36 7.5t28 19t20 25t13 25.5z" />
    <glyph glyph-name="uogonek" unicode="&#x173;" horiz-adv-x="523" 
d="M506 25v6q-12 5 -29.5 13t-26.5 13q-7 5 -8.5 9t-1.5 12v395h-168v-11q22 -2 42.5 -5t32.5 -8q6 -8 8 -23.5t2 -25.5v-285q-9 -12 -19.5 -23t-23 -19.5t-28 -14t-36.5 -5.5q-55 0 -75 31.5t-20 97.5v291h-155v-11q9 -1 19 -1.5t19 -2.5t16.5 -6t11.5 -13q2 -3 2.5 -9.5
t1.5 -14t1 -14.5v-11v-244q0 -73 30.5 -111t94.5 -38q28 0 52.5 9t44.5 24.5t36 34.5t27 36l1 -1v-101h7zM343 -148l-8 4q-11 -17 -23 -27t-38 -10q-29 0 -41.5 18.5t-12.5 40.5q0 19 6 36.5t16 32.5t21.5 27.5t23.5 20.5v2h-15q-16 -10 -35 -25.5t-35.5 -34t-27.5 -40
t-11 -45.5q0 -33 24 -55t59 -22q20 0 36 7.5t28 19t20 25t13 25.5z" />
    <glyph glyph-name="Wcircumflex" unicode="&#x174;" horiz-adv-x="991" 
d="M1021 710v10h-220v-10q12 -1 27 -4.5t28 -10t22 -16t9 -24.5q0 -10 -2 -31t-16 -67q-11 -36 -24.5 -77.5l-27 -83t-27 -81.5t-25 -72.5t-19 -55t-10.5 -29.5q-7 19 -22.5 61.5t-34.5 96t-40 111.5t-38 107.5t-28 84t-11 40.5q0 15 12.5 25t28 15.5t31 7.5t21.5 3v10h-313
v-11q24 -1 41 -6.5t28.5 -14t18 -17.5t10.5 -17q14 -29 26 -59.5t27 -70.5q-22 -69 -44 -132.5t-40 -114t-30 -84t-15 -41.5q-11 30 -29 76.5t-38.5 100t-41 108.5t-37.5 101.5t-27.5 79t-10.5 41.5q0 17 9.5 27t22.5 15t25 7t17 2v10h-282v-11q22 -1 36 -7.5t24 -15
t15.5 -17.5t8.5 -15q6 -12 11 -23t9.5 -23t10 -26t12.5 -33q24 -63 48 -126.5t49.5 -131t53 -140.5t58.5 -154h12l44 98q17 47 35 97.5t36 102.5t36 102.5t34 96.5q21 -56 41 -113.5t41.5 -118.5t45 -127t50.5 -138h10l42 96q19 57 41 120.5t43.5 126.5t42.5 122.5t37 108.5
q10 29 19 48.5t17 32t14 19.5t9 10q3 4 20.5 15t42.5 14zM598 777l-95 170h-15l-95 -170l12 -7l90 111l91 -111z" />
    <glyph glyph-name="wcircumflex" unicode="&#x175;" horiz-adv-x="739" 
d="M765 462v11h-183v-11q9 -1 20 -2t20.5 -4.5t16 -11t6.5 -21.5q0 -9 -7 -32t-17.5 -52.5t-24 -63t-26 -65t-23.5 -57t-17 -38.5q-9 24 -20.5 55.5t-23.5 64.5t-23.5 66t-20.5 60t-14.5 45.5t-5.5 23.5q0 11 8.5 16.5t20 8.5t23.5 4.5l20 2.5v11h-228v-11q18 -1 28 -3.5
t15.5 -6t8 -7t5.5 -6.5q10 -18 18 -36.5t15 -38.5q-13 -36 -26.5 -73t-26.5 -71t-24 -62t-19 -48q-19 46 -42 101t-43 104t-33.5 84.5t-15.5 43.5q5 5 13.5 8t18 5.5t19 3.5t16.5 2v11h-225v-11q33 -1 44.5 -8.5t17.5 -12.5q8 -13 15.5 -29.5t13.5 -30.5q42 -101 79 -191
t76 -185q4 -7 9 -7q6 0 10 6q10 22 17 41t21 46l95 248q20 -58 35 -103t28 -83t25 -73.5t25 -74.5q1 -3 2.5 -5t6.5 -2t9 6q6 12 10.5 22t9.5 20.5t11 24t15 32.5q14 35 31.5 75.5t35 81.5t34 78.5t28.5 65.5q9 21 20.5 32.5t23.5 17t24.5 6.5t24.5 2zM468 530l-95 170h-15
l-95 -170l12 -7l90 111l91 -111z" />
    <glyph glyph-name="Ycircumflex" unicode="&#x176;" horiz-adv-x="649" 
d="M682 710v10h-231v-10q14 -2 29 -4.5t27.5 -7.5t20.5 -14t8 -25q0 -10 -4 -22t-9.5 -23.5t-11.5 -22t-11 -18.5q-9 -16 -26.5 -44t-37 -58.5t-38.5 -60t-32 -48.5q-16 27 -34.5 57t-36.5 58.5t-33 54t-26 43.5q-16 27 -30.5 53.5t-14.5 39.5t8 20.5t21 12t28 6.5t30 3v10
h-303v-10q20 -1 35.5 -11t31.5 -27t31.5 -41t34.5 -53q10 -15 25 -39t32 -51.5t34.5 -56.5t32 -52.5t24.5 -39.5t12 -19q0 -55 -0.5 -93.5t-1.5 -66.5q0 -16 -0.5 -33t-2 -32t-4 -27t-7.5 -17q-22 -25 -41.5 -31.5t-45.5 -9.5v-10h308v10q-22 4 -46 11t-39 29
q-8 11 -9.5 38.5t-1.5 56.5v201q12 18 33 50t43.5 67t44 67.5t33.5 51.5q18 28 33.5 50t32.5 38t37 26t48 14zM430 777l-95 170h-15l-95 -170l12 -7l90 111l91 -111z" />
    <glyph glyph-name="ycircumflex" unicode="&#x177;" horiz-adv-x="416" 
d="M443 462v11h-154v-11q9 -1 19 -2t18.5 -4t13.5 -8.5t5 -14.5q0 -6 -6.5 -30.5t-16.5 -59t-22 -73.5t-23 -74.5t-19 -61.5t-11 -34q-9 24 -21 56.5t-24.5 67.5t-25 69.5t-22.5 63.5t-16 48.5t-6 24.5q0 19 15.5 24t36.5 8v11h-218v-11q34 -2 46.5 -8t21.5 -16
q15 -41 33 -90t36.5 -99.5t36.5 -98.5t32 -86.5t23 -63t11 -28.5q-1 -5 -5 -20t-10.5 -36.5t-15 -48t-19.5 -53.5h-2q-14 13 -27.5 25t-33.5 12t-32 -13t-12 -33t17 -32.5t37 -12.5q23 0 45 17t34 55q17 53 35.5 112t37 119t36.5 117l33 104.5t26 82.5t16 51t13 24.5
t18.5 12.5t22 5t23.5 2zM306 530l-95 170h-15l-95 -170l12 -7l90 111l91 -111z" />
    <glyph glyph-name="Ydieresis" unicode="&#x178;" horiz-adv-x="649" 
d="M490 830q0 19 -13.5 32.5t-32.5 13.5t-32.5 -13.5t-13.5 -32.5t13.5 -32.5t32.5 -13.5t32.5 13.5t13.5 32.5zM313 830q0 19 -13.5 32.5t-32.5 13.5t-32.5 -13.5t-13.5 -32.5t13.5 -32.5t32.5 -13.5t32.5 13.5t13.5 32.5zM682 710v10h-231v-10q14 -2 29 -4.5t27.5 -7.5
t20.5 -14t8 -25q0 -10 -4 -22t-9.5 -23.5t-11.5 -22t-11 -18.5q-9 -16 -26.5 -44t-37 -58.5t-38.5 -60t-32 -48.5q-16 27 -34.5 57t-36.5 58.5t-33 54t-26 43.5q-16 27 -30.5 53.5t-14.5 39.5t8 20.5t21 12t28 6.5t30 3v10h-303v-10q20 -1 35.5 -11t31.5 -27t31.5 -41
t34.5 -53q10 -15 25 -39t32 -51.5t34.5 -56.5t32 -52.5t24.5 -39.5t12 -19q0 -55 -0.5 -93.5t-1.5 -66.5q0 -16 -0.5 -33t-2 -32t-4 -27t-7.5 -17q-23 -25 -42 -31.5t-45 -9.5v-10h308v10q-22 4 -46 11t-39 29q-8 11 -9.5 38.5t-1.5 56.5v201q12 18 33 50t43.5 67t44 67.5
t33.5 51.5q18 28 33.5 50t32.5 38t37 26t48 14z" />
    <glyph glyph-name="Zacute" unicode="&#x179;" horiz-adv-x="694" 
d="M695 225l-11 4q-50 -86 -114.5 -142t-145.5 -65q-29 -3 -55.5 -4t-43.5 -1h-81q-40 0 -90 1l505 694l-3 6h-90h-111h-119q-59 0 -110 0.5t-88 1t-51 1.5l-73 -213l11 -4q11 18 27.5 39.5t34.5 42.5t35.5 38.5t29.5 27.5q25 20 55.5 33t68.5 15q19 1 51.5 1.5t68.5 0.5h70
h56l-506 -695l4 -7h603zM429 924v5q-6 8 -15 16t-31 8l-104 -176l10 -6z" />
    <glyph glyph-name="zacute" unicode="&#x17a;" horiz-adv-x="433" 
d="M437 149l-10 1q-8 -25 -18 -49t-26.5 -42t-42.5 -29t-66 -11h-151l282 444l-1 9q-42 0 -76.5 -0.5t-68.5 -0.5h-71h-85q-18 0 -29 1.5t-17 4.5t-8.5 6t-4.5 6l-9 -1l-18 -138l10 -2q10 29 19 49t23.5 32.5t37 18t58.5 5.5h135l-279 -445l3 -7h83q37 0 72.5 0.5t73.5 0.5
h87h24t22.5 -1t18.5 -1t10 -3h9zM302 692v5q-6 8 -15 16t-31 8l-104 -176l10 -6z" />
    <glyph glyph-name="Zdotaccent" unicode="&#x17b;" horiz-adv-x="694" 
d="M695 225l-11 4q-50 -86 -114.5 -142t-145.5 -65q-29 -3 -55.5 -4t-43.5 -1h-81q-40 0 -90 1l505 694l-3 6h-90h-111h-119q-59 0 -110 0.5t-88 1t-51 1.5l-73 -213l11 -4q11 18 27.5 39.5t34.5 42.5t35.5 38.5t29.5 27.5q25 20 55.5 33t68.5 15q19 1 51.5 1.5t68.5 0.5h70
h56l-506 -695l4 -7h603zM405 822q0 21 -15 35.5t-36 14.5t-36 -14.5t-15 -35.5q0 -20 15.5 -35.5t35.5 -15.5q21 0 36 15t15 36z" />
    <glyph glyph-name="zdotaccent" unicode="&#x17c;" horiz-adv-x="433" 
d="M437 149l-10 1q-8 -25 -18 -49t-26.5 -42t-42.5 -29t-66 -11h-151l282 444l-1 9q-42 0 -76.5 -0.5t-68.5 -0.5h-71h-85q-18 0 -29 1.5t-17 4.5t-8.5 6t-4.5 6l-9 -1l-18 -138l10 -2q10 29 19 49t23.5 32.5t37 18t58.5 5.5h135l-279 -445l3 -7h83q37 0 72.5 0.5t73.5 0.5
h87h24t22.5 -1t18.5 -1t10 -3h9zM278 590q0 21 -15 35.5t-36 14.5t-36 -14.5t-15 -35.5q0 -20 15.5 -35.5t35.5 -15.5q21 0 36 15t15 36z" />
    <glyph glyph-name="Zcaron" unicode="&#x17d;" horiz-adv-x="694" 
d="M466 927l-13 7l-100 -104l-101 104l-13 -7l106 -163h15zM695 225l-11 4q-50 -86 -114.5 -142t-145.5 -65q-29 -3 -55.5 -4t-43.5 -1h-83t-88 1l505 694l-3 6h-90h-111h-119q-59 0 -110 0.5t-88 1t-51 1.5l-73 -213l11 -4q11 18 27.5 39.5t34.5 42.5t35.5 38.5t29.5 27.5
q25 20 55.5 33t68.5 15q19 1 51.5 1.5t68.5 0.5h70h56l-506 -695l4 -7h603z" />
    <glyph glyph-name="zcaron" unicode="&#x17e;" horiz-adv-x="433" 
d="M319 686l-12 7l-91 -111l-90 111l-12 -7l95 -170h15zM437 149l-10 1q-8 -25 -18 -49t-26.5 -42t-42.5 -29t-66 -11h-151l282 444l-1 9q-42 0 -76.5 -0.5t-68.5 -0.5h-71h-85q-17 0 -27.5 1.5t-17 4t-9.5 5.5t-5 7l-9 -1l-18 -138l10 -2q10 29 19 49t23.5 32.5t37 18
t58.5 5.5h135l-279 -445l3 -7h83q37 0 72.5 0.5t73.5 0.5h87h24t22.5 -1t18.5 -1t10 -3h9z" />
    <glyph glyph-name="longs" unicode="&#x17f;" horiz-adv-x="270" 
d="M379 675q0 -18 -11.5 -33t-30.5 -15q-18 0 -30.5 9.5t-23 22t-20 24.5t-21.5 16q-6 0 -17 -3t-22.5 -12.5t-20 -28t-10.5 -49.5q-2 -40 -2.5 -68.5t-1.5 -498.5q2 -9 10 -14t20 -8t26.5 -4t29.5 -3v-10h-254v10q11 1 25.5 3.5t28 6t22.5 9t9 13.5v387h-72l11 44h62
q0 42 2.5 82.5t13.5 62.5q11 23 31 42.5t45.5 34t56 23t62.5 8.5q15 0 29.5 -3t26 -9t19 -15.5t7.5 -23.5z" />
    <glyph glyph-name="uni0186" unicode="&#x186;" horiz-adv-x="776" 
d="M40 243q13 -48 39 -90t61.5 -73t80 -49t94.5 -18q69 0 123 31t90.5 82t56 115.5t19.5 132.5q0 72 -20.5 135t-58.5 109.5t-92 73.5t-120 27q-52 0 -97.5 -19t-81 -50t-60 -71.5t-33.5 -83.5h-12l3 220h12q12 -17 25 -31t18 -14q2 0 18 10.5t46 23t73 22t99 9.5
q93 0 168 -26.5t127.5 -75t80.5 -116t28 -148.5q0 -18 -2.5 -41t-9 -49t-18 -54.5t-29.5 -57.5q-21 -34 -52 -65t-73 -54.5t-95 -37.5t-119 -14q-60 0 -105 11t-75 24t-46 24t-18 11t-7.5 -4.5t-12 -11t-13.5 -15t-13 -17.5h-11v224z" />
    <glyph glyph-name="florin" unicode="&#x192;" horiz-adv-x="538" 
d="M537 612q0 32 -29.5 49t-83.5 17q-48 0 -86 -19.5t-67.5 -55t-49.5 -84t-31 -106.5h-96l-9 -31h97q-4 -27 -11 -63.5t-16 -79.5t-19.5 -90.5t-21.5 -97.5q-10 -45 -21 -86t-24 -73t-29 -51t-37 -19q-15 0 -25 11.5t-16 28.5q-5 15 -14.5 21t-21.5 6q-13 0 -22.5 -9
t-9.5 -22q0 -15 7.5 -25.5t19 -18t26 -11t29.5 -3.5q40 0 73.5 21t58.5 53t43 70t28 71q16 53 26.5 94.5t19.5 82t18 85t23 102.5h136l11 34h-140q3 14 7.5 37t11.5 50.5t17.5 55.5t24 51t30.5 37.5t39 14.5q31 0 44.5 -21.5t24.5 -56.5q8 -3 14.5 -5t20.5 -2
q15 0 22.5 11.5t7.5 26.5z" />
    <glyph glyph-name="Ohorn" unicode="&#x1a0;" horiz-adv-x="808" 
d="M777 632q-18 -14 -39 -20t-43 -6h-1q38 -46 60 -103q25 -66 25 -138q0 -80 -30 -148t-81.5 -118t-120 -77t-145.5 -27q-76 0 -144 26.5t-119 75t-80.5 116t-29.5 148.5q0 86 31 154.5t83.5 116t123 73t148.5 25.5q85 0 152 -30q64 -29 109 -75l9 1q34 3 67 27
q13 10 22 25.5t4 25.5q-17 -11 -33.5 -7.5t-30.5 21.5q-13 17 -10 36t22 33q23 17 46.5 11t39.5 -27q12 -17 14.5 -36t-3 -38t-18 -36t-28.5 -29zM655 364q0 61 -15.5 123t-47 112.5t-78.5 82t-111 31.5q-65 0 -112.5 -31.5t-78 -81.5t-45 -113.5t-14.5 -128.5
q0 -68 16 -131t47.5 -111t79 -77t110.5 -29t109.5 32t77.5 82.5t46.5 113.5t15.5 126z" />
    <glyph glyph-name="ohorn" unicode="&#x1a1;" horiz-adv-x="631" 
d="M567 352q-18 -14 -39 -20t-43 -6h-5q12 -36 12 -81q0 -51 -19 -96.5t-51 -79.5t-74.5 -53t-89.5 -19q-39 0 -81 14t-77.5 44.5t-58 78t-22.5 111.5q0 46 17.5 89t49 76t76 53t98.5 20q40 0 81 -15t74.5 -44.5t54.5 -74.5l2 -4q2 1 3 1q34 3 67 27q13 10 22 25.5t4 25.5
q-17 -11 -33.5 -7.5t-30.5 21.5q-13 17 -10 36t22 33q23 17 46.5 11t39.5 -27q12 -17 14.5 -36t-3 -38t-18 -36t-28.5 -29zM399 246q0 34 -7.5 73t-24.5 72t-45 54.5t-69 21.5q-33 0 -59 -20t-44.5 -52.5t-28 -73t-9.5 -82.5q0 -46 8 -87t26 -72.5t46 -50t67 -18.5
t65.5 23.5t43 59t24 76.5t7.5 76z" />
    <glyph glyph-name="uni01A7" unicode="&#x1a7;" horiz-adv-x="605" 
d="M63 197q0 71 37.5 118.5t105.5 72.5q19 7 36.5 13t34.5 11.5t34.5 11.5t37.5 14q51 19 83 51t32 85q0 34 -11.5 60.5t-32 44.5t-48 27t-58.5 9q-39 0 -71 -16t-57 -41.5t-44 -58t-31 -65.5h-11v185h11q8 -12 17.5 -24t12.5 -12q1 0 11.5 7.5t31 16.5t52.5 16.5t77 7.5
q48 0 91.5 -12.5t76.5 -38.5t52.5 -65t19.5 -93q0 -32 -11 -60.5t-29 -52t-42 -41t-50 -27.5q-23 -9 -39.5 -14.5t-32 -11t-33.5 -11.5t-42 -15t-45 -20t-36.5 -26.5t-24.5 -36.5t-9 -49q0 -69 46 -109.5t120 -40.5q26 0 54 9t45 18t35.5 26t35 39.5t30.5 48t23 52.5h10
l-3 -199h-9q-8 11 -18 23t-13 12t-14.5 -7t-34.5 -15.5t-58 -14.5t-84 -6q-57 0 -105 13t-82.5 40t-54 65t-19.5 86z" />
    <glyph glyph-name="uni01A8" unicode="&#x1a8;" horiz-adv-x="382" 
d="M27 146q0 51 31.5 86t76.5 46q19 5 45 10.5t48 10.5q32 8 53 24t21 53q0 23 -8 40.5t-20.5 29t-29 17.5t-33.5 6q-28 0 -49.5 -10t-38.5 -28.5t-31 -44t-28 -55.5l-8 2l12 124q29 11 61 18.5t74 7.5q33 0 62 -9.5t51 -27.5t35 -43t13 -56q0 -45 -23.5 -77t-61.5 -45
q-20 -7 -45 -13t-52 -11q-34 -7 -53.5 -27.5t-19.5 -51.5q0 -57 28.5 -84.5t76.5 -27.5q33 0 57 14.5t41 37t29 49t20 50.5h8v-132q-33 -15 -72 -23t-83 -8q-37 0 -70.5 8t-59.5 26t-41.5 46.5t-15.5 67.5z" />
    <glyph glyph-name="Uhorn" unicode="&#x1af;" horiz-adv-x="906" 
d="M877 721q-18 -14 -39 -20t-43 -6h-22l-8 -4q-21 -14 -33 -43q-3 -7 -5.5 -23t-4.5 -37t-3 -44.5t-1 -46.5q-1 -43 -2.5 -96t-3.5 -120q-1 -19 -2.5 -48t-9.5 -61.5t-25.5 -65t-49.5 -59t-82 -42t-123 -15.5q-72 0 -121.5 15t-81.5 40.5t-49.5 56t-26 60t-10 54t-1.5 36.5
q0 28 0.5 73t0.5 100v169q0 18 -1.5 33.5t-4.5 28t-9 19.5q-14 17 -34.5 24.5t-46.5 10.5v10h298v-10q-14 -2 -30 -6t-29 -12.5t-22 -23.5t-10 -38q-1 -26 -1.5 -46t-0.5 -39v-199q0 -23 0.5 -44.5t0.5 -45.5q1 -53 16 -96.5t42 -74t66 -47t89 -16.5q57 0 96.5 13t66 36
t42 53t23 64t10 69.5t2.5 69.5v170q0 20 -0.5 41t-1.5 40t-3 35.5t-6 26.5q-10 28 -34.5 45.5t-72.5 24.5v10h234q21 7 42 22q13 10 22 25.5t4 25.5q-17 -11 -33.5 -7.5t-30.5 21.5q-13 17 -10 36t22 33q23 17 46.5 11t39.5 -27q12 -17 14.5 -36t-3 -38t-18 -36t-28.5 -29z
" />
    <glyph glyph-name="uhorn" unicode="&#x1b0;" horiz-adv-x="616" 
d="M557 332q-18 -14 -39 -20t-43 -6q-18 0 -35 2v-230q0 -8 1.5 -12t8.5 -9q9 -5 26.5 -13t29.5 -13v-6l-142 -26h-7v101l-1 1q-11 -17 -27 -36t-36 -34.5t-44.5 -24.5t-52.5 -9q-64 0 -94.5 38t-30.5 111v255q0 7 -1 14.5t-1.5 14t-2.5 9.5q-4 9 -11.5 13t-16.5 6t-19 2.5
t-19 1.5v11h155v-291q0 -66 20 -97.5t75 -31.5q21 0 36.5 5.5t28 14t23 19.5t19.5 23v285q0 10 -2 25.5t-8 23.5q-12 5 -32.5 8t-42.5 5v11h168v-148q13 0 25 1q34 3 67 27q13 10 22 25.5t4 25.5q-17 -11 -33.5 -7.5t-30.5 21.5q-13 17 -10 36t22 33q23 17 46.5 11t39.5 -27
q12 -17 14.5 -36t-3 -38t-18 -36t-28.5 -29z" />
    <glyph glyph-name="clickdental" unicode="&#x1c0;" horiz-adv-x="246" 
d="M83 -21h80v801h-80v-801z" />
    <glyph glyph-name="clicklateral" unicode="&#x1c1;" horiz-adv-x="492" 
d="M83 -21h80v801h-80v-801zM329 -21h80v801h-80v-801z" />
    <glyph glyph-name="clickretroflex" unicode="&#x1c3;" horiz-adv-x="303" 
d="M219 562q0 23 -6 49t-15 48.5t-20 37.5t-21 15q-11 0 -22.5 -15t-20.5 -37.5t-15 -48.5t-6 -49q2 -3 9.5 -22.5t17.5 -62t19 -112.5t13 -174h12q4 105 12.5 175t17.5 112.5t16.5 61.5t8.5 22zM216 55q0 26 -16.5 44.5t-42.5 18.5t-43 -17.5t-17 -43.5t17 -41.5t43 -15.5
t42.5 14.5t16.5 40.5z" />
    <glyph glyph-name="DZcaron" unicode="&#x1c4;" horiz-adv-x="1546" 
d="M822 370q0 65 -16.5 115.5t-44 89t-64.5 66.5t-79 46q-32 14 -65 21t-66 10t-66 3h-64q-112 0 -191 -0.5t-121 -0.5v-10q26 -3 47 -10t36 -25q6 -7 9 -19.5t4.5 -28t1.5 -33.5v-36v-195v-58q0 -30 -0.5 -58.5t-1 -52.5t-0.5 -38q0 -16 -1 -33t-3 -32t-4.5 -27t-7.5 -17
q-12 -14 -35.5 -24t-48.5 -13v-10h365q46 0 95 6.5t95 22.5t87 43t72 68t49 98t18 132zM699 368q0 -131 -53.5 -220.5t-161.5 -120.5q-23 -7 -49.5 -9.5t-51.5 -2.5q-27 0 -57.5 5.5t-50.5 25.5q-6 6 -10.5 18.5t-6.5 28t-3.5 32t-1.5 30.5q-1 33 -1 85v117q0 119 1 205
t6 135q7 2 18.5 3t25 2.5t27.5 2t26 0.5q35 0 59 -2.5t44 -6.5q52 -9 96 -40t76 -75.5t50 -99.5t18 -113zM1547 225l-11 4q-50 -86 -114.5 -142t-145.5 -65q-29 -3 -55.5 -4t-43.5 -1h-81q-40 0 -90 1l505 694l-3 6h-90h-111h-119q-59 0 -110 0.5t-88 1t-51 1.5l-73 -213
l11 -4q11 18 27.5 39.5t34.5 42.5t35.5 38.5t29.5 27.5q25 20 55.5 33t68.5 15q19 1 51.5 1.5t68.5 0.5h70h56l-506 -695l4 -7h603zM1309 941l-12 7l-91 -111l-90 111l-12 -7l95 -170h15z" />
    <glyph glyph-name="Dzcaron" unicode="&#x1c5;" horiz-adv-x="1329" 
d="M822 370q0 65 -16.5 115.5t-44 89t-64.5 66.5t-79 46q-32 14 -65 21t-66 10t-66 3h-64q-112 0 -191 -0.5t-121 -0.5v-10q26 -3 47 -10t36 -25q6 -7 9 -19.5t4.5 -28t1.5 -33.5v-36v-195v-58q0 -30 -0.5 -58.5t-1 -52.5t-0.5 -38q0 -16 -1 -33t-3 -32t-4.5 -27t-7.5 -17
q-12 -14 -35.5 -24t-48.5 -13v-10h365q46 0 95 6.5t95 22.5t87 43t72 68t49 98t18 132zM699 368q0 -131 -53.5 -220.5t-161.5 -120.5q-23 -7 -49.5 -9.5t-51.5 -2.5q-27 0 -57.5 5.5t-50.5 25.5q-6 6 -10.5 18.5t-6.5 28t-3.5 32t-1.5 30.5q-1 33 -1 85v117q0 119 1 205
t6 135q7 2 18.5 3t25 2.5t27.5 2t26 0.5q35 0 59 -2.5t44 -6.5q52 -9 96 -40t76 -75.5t50 -99.5t18 -113zM1289 149l-10 1q-8 -25 -18 -49t-26.5 -42t-42.5 -29t-66 -11h-151l282 444l-1 9q-42 0 -76.5 -0.5t-68.5 -0.5h-71h-85q-18 0 -29 1.5t-17 4.5t-8.5 6t-4.5 6l-9 -1
l-18 -138l10 -2q10 29 19 49t23.5 32.5t37 18t58.5 5.5h135l-279 -445l3 -7h83q37 0 72.5 0.5t73.5 0.5h87h24t22.5 -1t18.5 -1t10 -3h9zM1182 709l-12 7l-91 -111l-90 111l-12 -7l95 -170h15z" />
    <glyph glyph-name="dzcaron" unicode="&#x1c6;" horiz-adv-x="1023" 
d="M533 39v7q-19 8 -41 17t-30 14v649h-8l-159 -44v-6l82 -31v-35v-50t0.5 -53t1.5 -41q-22 7 -48.5 12t-56.5 5q-57 0 -104 -19t-80.5 -52.5t-52 -78.5t-18.5 -97q0 -58 16 -102.5t43 -75t61.5 -45t71.5 -14.5q59 0 98.5 24t68.5 74h1v-100h6zM378 135q-8 -43 -37.5 -71
t-70.5 -28q-39 0 -68.5 18t-49.5 47.5t-30 68t-10 79.5t8.5 80t26.5 69t45.5 48t66.5 18q29 0 63 -25t56 -66v-238zM983 149l-10 1q-8 -25 -18 -49t-26.5 -42t-42.5 -29t-66 -11h-151l282 444l-1 9q-42 0 -76.5 -0.5t-68.5 -0.5h-71h-85q-18 0 -29 1.5t-17 4.5t-8.5 6
t-4.5 6l-9 -1l-18 -138l10 -2q10 29 19 49t23.5 32.5t37 18t58.5 5.5h135l-279 -445l3 -7h83q37 0 72.5 0.5t73.5 0.5h87h24t22.5 -1t18.5 -1t10 -3h9zM876 709l-12 7l-91 -111l-90 111l-12 -7l95 -170h15z" />
    <glyph glyph-name="LJ" unicode="&#x1c7;" horiz-adv-x="1107" 
d="M713 206l-10 3q-12 -30 -25 -57.5t-32 -51t-45.5 -41.5t-66.5 -29q-17 -5 -39 -8t-43 -4.5t-38.5 -2t-25.5 -0.5q-20 0 -40 2.5t-37 6t-29 8.5t-16 10q-9 14 -10.5 43t-2.5 61q0 34 -0.5 61.5t-0.5 53.5v53v62v67t0.5 58t1 57t1.5 64q1 27 12.5 43.5t27.5 25.5t34 13
t31 6v10h-319v-10q26 -3 49.5 -12t37.5 -26q6 -7 9 -19t4.5 -27.5t1.5 -33.5v-35v-194v-58q0 -30 -0.5 -58.5t-1 -52.5t-0.5 -38q0 -16 -1.5 -32.5t-3.5 -31.5t-5.5 -26.5t-8.5 -17.5q-14 -16 -38.5 -25t-49.5 -13v-10h642zM1088 710v10h-308v-10q26 -3 50.5 -9t38.5 -23
q6 -7 8.5 -20t4 -29.5t1.5 -34.5v-36v-195v-58v-59q0 -28 -0.5 -52t-0.5 -38q-1 -28 -3.5 -56t-8.5 -50q-7 -23 -22.5 -39t-40.5 -16q-8 0 -17 3.5t-14 10.5v3q21 3 35 13.5t14 33.5q0 20 -14.5 34.5t-34.5 14.5q-23 0 -41 -15t-18 -39q0 -19 7.5 -32.5t20 -21t28 -11.5
t31.5 -4q29 0 63.5 11t66.5 36q26 20 42 43.5t16 56.5v235v57v52t0.5 49.5t0.5 49.5q1 23 2 49.5t9 42.5q13 24 38 32t46 11z" />
    <glyph glyph-name="Lj" unicode="&#x1c8;" horiz-adv-x="954" 
d="M713 206l-10 3q-12 -30 -25 -57.5t-32 -51t-45.5 -41.5t-66.5 -29q-17 -5 -39 -8t-43 -4.5t-38.5 -2t-25.5 -0.5q-20 0 -40 2.5t-37 6t-29 8.5t-16 10q-9 14 -10.5 43t-2.5 61q0 34 -0.5 61.5t-0.5 53.5v53v62v67t0.5 58t1 57t1.5 64q1 27 12.5 43.5t27.5 25.5t34 13
t31 6v10h-319v-10q26 -3 49.5 -12t37.5 -26q6 -7 9 -19t4.5 -27.5t1.5 -33.5v-35v-194v-58q0 -30 -0.5 -58.5t-1 -52.5t-0.5 -38q0 -16 -1.5 -32.5t-3.5 -31.5t-5.5 -26.5t-8.5 -17.5q-14 -16 -38.5 -25t-49.5 -13v-10h642zM887 639q0 23 -15.5 38t-38.5 15t-38.5 -15
t-15.5 -38q0 -22 16 -38t38 -16q23 0 38.5 15.5t15.5 38.5zM880 -61v62v100q0 57 -0.5 118t-0.5 115v95v54h-6l-140 -54v-7q12 -7 28.5 -16t24.5 -16q7 -6 8.5 -9.5t1.5 -11.5v-325q0 -19 -0.5 -56t-2.5 -76q-1 -19 -2 -39.5t-6.5 -38.5t-16 -31t-29.5 -17q-17 1 -24 14
t-12.5 28.5t-15.5 28t-31 12.5q-25 0 -37.5 -13t-12.5 -35q0 -15 7.5 -26.5t19.5 -19.5t27 -12t30 -4q33 0 67.5 18.5t61.5 45.5t44 58.5t17 57.5z" />
    <glyph glyph-name="lj" unicode="&#x1c9;" horiz-adv-x="492" 
d="M240 0v11q-19 2 -33 2.5t-23 2.5t-13.5 7t-4.5 15v685h-7l-143 -47v-6q12 -5 30 -15.5t27 -15.5q7 -5 8.5 -9t1.5 -12v-575q0 -16 -15 -22.5t-61 -9.5v-11h233zM425 639q0 23 -15.5 38t-38.5 15t-38.5 -15t-15.5 -38q0 -22 16 -38t38 -16q23 0 38.5 15.5t15.5 38.5z
M418 -61v62v100q0 57 -0.5 118t-0.5 115v95v54h-6l-140 -54v-7q12 -7 28.5 -16t24.5 -16q7 -6 8.5 -9.5t1.5 -11.5v-325q0 -19 -0.5 -56t-2.5 -76q-1 -19 -2 -39.5t-6.5 -38.5t-16 -31t-29.5 -17q-17 1 -24 14t-12.5 28.5t-15.5 28t-31 12.5q-25 0 -37.5 -13t-12.5 -35
q0 -15 7.5 -26.5t19.5 -19.5t27 -12t30 -4q33 0 67.5 18.5t61.5 45.5t44 58.5t17 57.5z" />
    <glyph glyph-name="NJ" unicode="&#x1ca;" horiz-adv-x="1274" 
d="M846 710v10h-248v-10q48 -7 73.5 -24.5t35.5 -45.5q8 -21 9 -57.5t1 -76.5v-340l-474 554h-203v-10q16 -2 33.5 -6.5t32.5 -15t26 -29t14 -47.5q1 -29 1 -49v-37v-37v-48q0 -67 -1 -125.5t-3 -101.5q-2 -57 -6 -98t-18 -62q-14 -22 -38 -31.5t-48 -12.5v-10h246v10
q-41 5 -64.5 16.5t-34.5 34.5q-10 20 -12.5 61t-2.5 92v422q68 -76 129 -147t124.5 -145.5t133.5 -156.5t155 -180q10 -10 18 -10q5 0 7.5 2.5t2.5 6.5v65t-0.5 72.5t-0.5 71.5v64q0 67 1.5 125.5t3.5 101.5q2 46 4 86.5t9 55.5q12 29 34.5 43t59.5 19zM1255 710v10h-308
v-10q26 -3 50.5 -9t38.5 -23q6 -7 8.5 -20t4 -29.5t1.5 -34.5v-36v-195v-58v-59q0 -28 -0.5 -52t-0.5 -38q-1 -28 -3.5 -56t-8.5 -50q-7 -23 -22.5 -39t-40.5 -16q-8 0 -17 3.5t-14 10.5v3q21 3 35 13.5t14 33.5q0 20 -14.5 34.5t-34.5 14.5q-23 0 -41 -15t-18 -39
q0 -19 7.5 -32.5t20 -21t28 -11.5t31.5 -4q29 0 63.5 11t66.5 36q26 20 42 43.5t16 56.5v235v57v52t0.5 49.5t0.5 49.5q1 23 2 49.5t9 42.5q13 24 38 32t46 11z" />
    <glyph glyph-name="Nj" unicode="&#x1cb;" horiz-adv-x="1121" 
d="M846 710v10h-248v-10q48 -7 73.5 -24.5t35.5 -45.5q8 -21 9 -57.5t1 -76.5v-340l-474 554h-203v-10q16 -2 33.5 -6.5t32.5 -15t26 -29t14 -47.5q1 -29 1 -49v-37v-37v-48q0 -67 -1 -125.5t-3 -101.5q-2 -57 -6 -98t-18 -62q-14 -22 -38 -31.5t-48 -12.5v-10h246v10
q-41 5 -64.5 16.5t-34.5 34.5q-10 20 -12.5 61t-2.5 92v422q68 -76 129 -147t124.5 -145.5t133.5 -156.5t155 -180q10 -10 18 -10q5 0 7.5 2.5t2.5 6.5v65t-0.5 72.5t-0.5 71.5v64q0 67 1.5 125.5t3.5 101.5q2 46 4 86.5t9 55.5q12 29 34.5 43t59.5 19zM1054 639
q0 23 -15.5 38t-38.5 15t-38.5 -15t-15.5 -38q0 -22 16 -38t38 -16q23 0 38.5 15.5t15.5 38.5zM1047 -61v62v100q0 57 -0.5 118t-0.5 115v95v54h-6l-140 -54v-7q12 -7 28.5 -16t24.5 -16q7 -6 8.5 -9.5t1.5 -11.5v-325q0 -19 -0.5 -56t-2.5 -76q-1 -19 -2 -39.5t-6.5 -38.5
t-16 -31t-29.5 -17q-17 1 -24 14t-12.5 28.5t-15.5 28t-31 12.5q-25 0 -37.5 -13t-12.5 -35q0 -15 7.5 -26.5t19.5 -19.5t27 -12t30 -4q33 0 67.5 18.5t61.5 45.5t44 58.5t17 57.5z" />
    <glyph glyph-name="nj" unicode="&#x1cc;" horiz-adv-x="767" 
d="M512 0v9q-9 1 -19.5 2.5t-19.5 4t-15.5 7.5t-6.5 12v294q0 68 -31 111t-89 43q-27 0 -52 -10.5t-46 -26.5t-37.5 -35.5t-27.5 -36.5l-2 1v108h-6l-131 -47v-6q12 -5 24 -11.5t21 -11.5q7 -5 8.5 -9t1.5 -12v-344q0 -16 -16.5 -23t-39.5 -9v-10h193v10q-10 2 -19 2.5
t-16 2.5t-12 6.5t-7 14.5v328q27 27 49 41t55 14q52 0 74 -35.5t22 -93.5v-252q0 -16 -16 -20.5t-43 -6.5v-11h204zM700 639q0 23 -15.5 38t-38.5 15t-38.5 -15t-15.5 -38q0 -22 16 -38t38 -16q23 0 38.5 15.5t15.5 38.5zM693 -61v62v100q0 57 -0.5 118t-0.5 115v95v54h-6
l-140 -54v-7q12 -7 28.5 -16t24.5 -16q7 -6 8.5 -9.5t1.5 -11.5v-325q0 -19 -0.5 -56t-2.5 -76q-1 -19 -2 -39.5t-6.5 -38.5t-16 -31t-29.5 -17q-17 1 -24 14t-12.5 28.5t-15.5 28t-31 12.5q-25 0 -37.5 -13t-12.5 -35q0 -15 7.5 -26.5t19.5 -19.5t27 -12t30 -4
q33 0 67.5 18.5t61.5 45.5t44 58.5t17 57.5z" />
    </font>
</defs>
</svg>
